<svg width="1440" height="181" viewBox="0 0 1440 181" fill="none" xmlns="http://www.w3.org/2000/svg">
<g filter="url(#filter0_d_1516_5378)">
<ellipse cx="56.8849" cy="84.0829" rx="57.3735" ry="62.8599" transform="rotate(1.05609 56.8849 84.0829)" fill="#6490D1"/>
<ellipse cx="268.971" cy="84.8486" rx="57.3735" ry="62.8599" transform="rotate(1.05609 268.971 84.8486)" fill="#6490D1"/>
<ellipse cx="428.373" cy="106.648" rx="57.3735" ry="62.8599" transform="rotate(1.05609 428.373 106.648)" fill="#6490D1"/>
<ellipse cx="363.804" cy="63.0209" rx="42.8486" ry="47.1449" transform="rotate(1.05609 363.804 63.0209)" fill="#6490D1"/>
<ellipse cx="129.062" cy="108.99" rx="42.8486" ry="47.1449" transform="rotate(1.05609 129.062 108.99)" fill="#6490D1"/>
<ellipse cx="197.609" cy="94.5355" rx="42.8486" ry="47.1449" transform="rotate(1.05609 197.609 94.5355)" fill="#6490D1"/>
<ellipse cx="-21.3909" cy="74.7816" rx="42.8486" ry="47.1449" transform="rotate(1.05609 -21.3909 74.7816)" fill="#6490D1"/>
<ellipse cx="320.947" cy="63.0166" rx="29.0499" ry="32.2157" transform="rotate(1.05609 320.947 63.0166)" fill="#6490D1"/>
<ellipse cx="328.561" cy="122.884" rx="29.0499" ry="32.2157" transform="rotate(1.05609 328.561 122.884)" fill="#6490D1"/>
<ellipse cx="372.01" cy="129.972" rx="29.0499" ry="32.2157" transform="rotate(1.05609 372.01 129.972)" fill="#6490D1"/>
<ellipse cx="475.932" cy="87.878" rx="29.0499" ry="32.2157" transform="rotate(1.05609 475.932 87.878)" fill="#6490D1"/>
<ellipse cx="-17.4824" cy="138.51" rx="29.0499" ry="32.2157" transform="rotate(1.05609 -17.4824 138.51)" fill="#6490D1"/>
<ellipse cx="14.7598" cy="123.387" rx="29.0499" ry="32.2157" transform="rotate(1.05609 14.7598 123.387)" fill="#6490D1"/>
<ellipse cx="532.709" cy="76.0829" rx="57.3735" ry="62.8599" transform="rotate(1.05609 532.709 76.0829)" fill="#6490D1"/>
<ellipse cx="744.795" cy="76.8486" rx="57.3735" ry="62.8599" transform="rotate(1.05609 744.795 76.8486)" fill="#6490D1"/>
<ellipse cx="904.197" cy="98.6484" rx="57.3735" ry="62.8599" transform="rotate(1.05609 904.197 98.6484)" fill="#6490D1"/>
<ellipse cx="839.629" cy="55.0209" rx="42.8486" ry="47.1449" transform="rotate(1.05609 839.629 55.0209)" fill="#6490D1"/>
<ellipse cx="604.886" cy="100.99" rx="42.8486" ry="47.1449" transform="rotate(1.05609 604.886 100.99)" fill="#6490D1"/>
<ellipse cx="673.433" cy="86.5355" rx="42.8486" ry="47.1449" transform="rotate(1.05609 673.433 86.5355)" fill="#6490D1"/>
<ellipse cx="454.433" cy="66.7816" rx="42.8486" ry="47.1449" transform="rotate(1.05609 454.433 66.7816)" fill="#6490D1"/>
<ellipse cx="796.771" cy="55.0166" rx="29.0499" ry="32.2157" transform="rotate(1.05609 796.771 55.0166)" fill="#6490D1"/>
<ellipse cx="804.385" cy="114.884" rx="29.0499" ry="32.2157" transform="rotate(1.05609 804.385 114.884)" fill="#6490D1"/>
<ellipse cx="847.834" cy="121.972" rx="29.0499" ry="32.2157" transform="rotate(1.05609 847.834 121.972)" fill="#6490D1"/>
<ellipse cx="951.756" cy="79.878" rx="29.0499" ry="32.2157" transform="rotate(1.05609 951.756 79.878)" fill="#6490D1"/>
<ellipse cx="458.342" cy="130.51" rx="29.0499" ry="32.2157" transform="rotate(1.05609 458.342 130.51)" fill="#6490D1"/>
<ellipse cx="490.584" cy="115.387" rx="29.0499" ry="32.2157" transform="rotate(1.05609 490.584 115.387)" fill="#6490D1"/>
<ellipse cx="1041.71" cy="78.0829" rx="57.3735" ry="62.8599" transform="rotate(1.05609 1041.71 78.0829)" fill="#6490D1"/>
<ellipse cx="1253.8" cy="78.8486" rx="57.3735" ry="62.8599" transform="rotate(1.05609 1253.8 78.8486)" fill="#6490D1"/>
<ellipse cx="1413.2" cy="100.648" rx="57.3735" ry="62.8599" transform="rotate(1.05609 1413.2 100.648)" fill="#6490D1"/>
<ellipse cx="1348.63" cy="57.0209" rx="42.8486" ry="47.1449" transform="rotate(1.05609 1348.63 57.0209)" fill="#6490D1"/>
<ellipse cx="1113.89" cy="102.99" rx="42.8486" ry="47.1449" transform="rotate(1.05609 1113.89 102.99)" fill="#6490D1"/>
<ellipse cx="1182.43" cy="88.5355" rx="42.8486" ry="47.1449" transform="rotate(1.05609 1182.43 88.5355)" fill="#6490D1"/>
<ellipse cx="963.433" cy="68.7816" rx="42.8486" ry="47.1449" transform="rotate(1.05609 963.433 68.7816)" fill="#6490D1"/>
<ellipse cx="1305.77" cy="57.0166" rx="29.0499" ry="32.2157" transform="rotate(1.05609 1305.77 57.0166)" fill="#6490D1"/>
<ellipse cx="1313.38" cy="116.884" rx="29.0499" ry="32.2157" transform="rotate(1.05609 1313.38 116.884)" fill="#6490D1"/>
<ellipse cx="1356.83" cy="123.972" rx="29.0499" ry="32.2157" transform="rotate(1.05609 1356.83 123.972)" fill="#6490D1"/>
<ellipse cx="1460.76" cy="81.878" rx="29.0499" ry="32.2157" transform="rotate(1.05609 1460.76 81.878)" fill="#6490D1"/>
<ellipse cx="967.342" cy="132.51" rx="29.0499" ry="32.2157" transform="rotate(1.05609 967.342 132.51)" fill="#6490D1"/>
<ellipse cx="999.584" cy="117.387" rx="29.0499" ry="32.2157" transform="rotate(1.05609 999.584 117.387)" fill="#6490D1"/>
</g>
<defs>
<filter id="filter0_d_1516_5378" x="-68.2422" y="7.8772" width="1562.05" height="170.847" filterUnits="userSpaceOnUse" color-interpolation-filters="sRGB">
<feFlood flood-opacity="0" result="BackgroundImageFix"/>
<feColorMatrix in="SourceAlpha" type="matrix" values="0 0 0 0 0 0 0 0 0 0 0 0 0 0 0 0 0 0 127 0" result="hardAlpha"/>
<feOffset dy="4"/>
<feGaussianBlur stdDeviation="2"/>
<feComposite in2="hardAlpha" operator="out"/>
<feColorMatrix type="matrix" values="0 0 0 0 0.0901961 0 0 0 0 0.164706 0 0 0 0 0.270588 0 0 0 0.4 0"/>
<feBlend mode="normal" in2="BackgroundImageFix" result="effect1_dropShadow_1516_5378"/>
<feBlend mode="normal" in="SourceGraphic" in2="effect1_dropShadow_1516_5378" result="shape"/>
</filter>
</defs>
</svg>
