<svg width="1440" height="349" viewBox="0 0 1440 349" fill="none" xmlns="http://www.w3.org/2000/svg">
<ellipse cx="95.169" cy="102.414" rx="33.8741" ry="34.8022" fill="#C7E8CD"/>
<ellipse cx="51.5495" cy="63.8994" rx="44.0827" ry="45.4748" fill="#C7E8CD"/>
<ellipse cx="159.206" cy="84.3166" rx="44.0827" ry="45.4748" fill="#C7E8CD"/>
<ellipse cx="-6.91727" cy="94.5254" rx="44.0827" ry="45.4748" fill="#C7E8CD"/>
<ellipse cx="272.583" cy="76.7102" rx="44.0827" ry="45.4748" fill="#C7E8CD"/>
<ellipse cx="420.917" cy="56.4748" rx="44.0827" ry="45.4748" fill="#C7E8CD"/>
<ellipse cx="210.249" cy="94.9892" rx="33.8741" ry="34.8022" fill="#C7E8CD"/>
<ellipse cx="314.19" cy="102.414" rx="33.8741" ry="34.8022" fill="#C7E8CD"/>
<ellipse cx="364.306" cy="83.8527" rx="33.8741" ry="34.8022" fill="#C7E8CD"/>
<ellipse cx="378.69" cy="49.5145" rx="19.4892" ry="19.9532" fill="#C7E8CD"/>
<ellipse cx="587.171" cy="101.414" rx="33.8741" ry="34.8022" fill="#C7E8CD"/>
<ellipse cx="543.552" cy="62.8994" rx="44.0827" ry="45.4748" fill="#C7E8CD"/>
<ellipse cx="651.204" cy="83.3166" rx="44.0827" ry="45.4748" fill="#C7E8CD"/>
<ellipse cx="485.083" cy="93.5254" rx="44.0827" ry="45.4748" fill="#C7E8CD"/>
<ellipse cx="764.583" cy="75.7102" rx="44.0827" ry="45.4748" fill="#C7E8CD"/>
<ellipse cx="912.919" cy="55.4748" rx="44.0827" ry="45.4748" fill="#C7E8CD"/>
<ellipse cx="702.249" cy="93.9892" rx="33.8741" ry="34.8022" fill="#C7E8CD"/>
<ellipse cx="806.19" cy="101.414" rx="33.8741" ry="34.8022" fill="#C7E8CD"/>
<ellipse cx="856.308" cy="82.8527" rx="33.8741" ry="34.8022" fill="#C7E8CD"/>
<ellipse cx="870.692" cy="48.5145" rx="19.4892" ry="19.9532" fill="#C7E8CD"/>
<ellipse cx="460.489" cy="63.3634" rx="19.4892" ry="19.9532" fill="#C7E8CD"/>
<ellipse cx="1084.38" cy="96.4162" rx="33.8741" ry="34.8022" transform="rotate(1.98268 1084.38 96.4162)" fill="#C7E8CD"/>
<ellipse cx="1042.12" cy="56.4156" rx="44.0827" ry="45.4748" transform="rotate(1.98268 1042.12 56.4156)" fill="#C7E8CD"/>
<ellipse cx="1149" cy="80.5452" rx="44.0827" ry="45.4748" transform="rotate(1.98268 1149 80.5452)" fill="#C7E8CD"/>
<ellipse cx="982.628" cy="85.0003" rx="44.0827" ry="45.4748" transform="rotate(1.98268 982.628 85.0003)" fill="#C7E8CD"/>
<ellipse cx="1262.58" cy="76.8658" rx="44.0827" ry="45.4748" transform="rotate(1.98268 1262.58 76.8658)" fill="#C7E8CD"/>
<ellipse cx="1411.52" cy="61.7747" rx="44.0827" ry="45.4748" transform="rotate(1.98268 1411.52 61.7747)" fill="#C7E8CD"/>
<ellipse cx="1199.65" cy="92.9774" rx="33.8741" ry="34.8022" transform="rotate(1.98268 1199.65 92.9774)" fill="#C7E8CD"/>
<ellipse cx="1303.27" cy="103.994" rx="33.8741" ry="34.8022" transform="rotate(1.98268 1303.27 103.994)" fill="#C7E8CD"/>
<ellipse cx="1354" cy="87.1774" rx="33.8741" ry="34.8022" transform="rotate(1.98268 1354 87.1774)" fill="#C7E8CD"/>
<ellipse cx="1369.56" cy="53.3573" rx="19.4892" ry="19.9532" transform="rotate(1.98268 1369.56 53.3573)" fill="#C7E8CD"/>
<ellipse cx="959.092" cy="54.0057" rx="19.4892" ry="19.9532" transform="rotate(1.98268 959.092 54.0057)" fill="#C7E8CD"/>
<ellipse cx="-26" cy="123" rx="50" ry="49" fill="#FFFEEE"/>
<ellipse cx="123" cy="119" rx="50" ry="49" fill="#FFFEEE"/>
<ellipse cx="34.5" cy="116" rx="25.5" ry="25" fill="#FFFEEE"/>
<ellipse cx="169.5" cy="117" rx="25.5" ry="25" fill="#FFFEEE"/>
<ellipse cx="245.5" cy="113" rx="25.5" ry="25" fill="#FFFEEE"/>
<ellipse cx="274.5" cy="115" rx="15.5" ry="15" fill="#FFFEEE"/>
<ellipse cx="209.5" cy="111" rx="36.5" ry="37" fill="#FFFEEE"/>
<ellipse cx="322.5" cy="100.5" rx="44.5" ry="46.5" fill="#FFFEEE"/>
<ellipse cx="73" cy="142" rx="35" ry="36" fill="#FFFEEE"/>
<ellipse cx="384" cy="118" rx="50" ry="49" fill="#FFFEEE"/>
<ellipse cx="533" cy="114" rx="50" ry="49" fill="#FFFEEE"/>
<ellipse cx="444.5" cy="111" rx="25.5" ry="25" fill="#FFFEEE"/>
<ellipse cx="579.5" cy="112" rx="25.5" ry="25" fill="#FFFEEE"/>
<ellipse cx="655.5" cy="108" rx="25.5" ry="25" fill="#FFFEEE"/>
<ellipse cx="684.5" cy="110" rx="15.5" ry="15" fill="#FFFEEE"/>
<ellipse cx="619.5" cy="106" rx="36.5" ry="37" fill="#FFFEEE"/>
<ellipse cx="732.5" cy="95.5" rx="44.5" ry="46.5" fill="#FFFEEE"/>
<ellipse cx="483" cy="137" rx="35" ry="36" fill="#FFFEEE"/>
<ellipse cx="756" cy="120" rx="50" ry="49" fill="#FFFEEE"/>
<ellipse cx="905" cy="116" rx="50" ry="49" fill="#FFFEEE"/>
<ellipse cx="816.5" cy="113" rx="25.5" ry="25" fill="#FFFEEE"/>
<ellipse cx="951.5" cy="114" rx="25.5" ry="25" fill="#FFFEEE"/>
<ellipse cx="1027.5" cy="110" rx="25.5" ry="25" fill="#FFFEEE"/>
<ellipse cx="1056.5" cy="112" rx="15.5" ry="15" fill="#FFFEEE"/>
<ellipse cx="991.5" cy="108" rx="36.5" ry="37" fill="#FFFEEE"/>
<ellipse cx="1104.5" cy="97.5" rx="44.5" ry="46.5" fill="#FFFEEE"/>
<ellipse cx="855" cy="139" rx="35" ry="36" fill="#FFFEEE"/>
<ellipse cx="1110" cy="113" rx="50" ry="49" fill="#FFFEEE"/>
<ellipse cx="1259" cy="109" rx="50" ry="49" fill="#FFFEEE"/>
<ellipse cx="1170.5" cy="106" rx="25.5" ry="25" fill="#FFFEEE"/>
<ellipse cx="1305.5" cy="107" rx="25.5" ry="25" fill="#FFFEEE"/>
<ellipse cx="1381.5" cy="103" rx="25.5" ry="25" fill="#FFFEEE"/>
<ellipse cx="1410.5" cy="105" rx="15.5" ry="15" fill="#FFFEEE"/>
<ellipse cx="1345.5" cy="101" rx="36.5" ry="37" fill="#FFFEEE"/>
<ellipse cx="1458.5" cy="90.5" rx="44.5" ry="46.5" fill="#FFFEEE"/>
<ellipse cx="1209" cy="132" rx="35" ry="36" fill="#FFFEEE"/>
<ellipse cx="81.8829" cy="142.083" rx="57.3735" ry="62.8599" transform="rotate(1.05609 81.8829 142.083)" fill="#B6CEF2"/>
<ellipse cx="293.969" cy="142.849" rx="57.3735" ry="62.8599" transform="rotate(1.05609 293.969 142.849)" fill="#B6CEF2"/>
<ellipse cx="453.369" cy="164.649" rx="57.3735" ry="62.8599" transform="rotate(1.05609 453.369 164.649)" fill="#B6CEF2"/>
<ellipse cx="388.801" cy="121.021" rx="42.8486" ry="47.1449" transform="rotate(1.05609 388.801 121.021)" fill="#B6CEF2"/>
<ellipse cx="154.062" cy="166.99" rx="42.8486" ry="47.1449" transform="rotate(1.05609 154.062 166.99)" fill="#B6CEF2"/>
<ellipse cx="222.607" cy="152.537" rx="42.8486" ry="47.1449" transform="rotate(1.05609 222.607 152.537)" fill="#B6CEF2"/>
<ellipse cx="3.60714" cy="132.782" rx="42.8486" ry="47.1449" transform="rotate(1.05609 3.60714 132.782)" fill="#B6CEF2"/>
<ellipse cx="345.945" cy="121.017" rx="29.0499" ry="32.2157" transform="rotate(1.05609 345.945 121.017)" fill="#B6CEF2"/>
<ellipse cx="353.557" cy="180.884" rx="29.0499" ry="32.2157" transform="rotate(1.05609 353.557 180.884)" fill="#B6CEF2"/>
<ellipse cx="397.01" cy="187.973" rx="29.0499" ry="32.2157" transform="rotate(1.05609 397.01 187.973)" fill="#B6CEF2"/>
<ellipse cx="500.928" cy="145.879" rx="29.0499" ry="32.2157" transform="rotate(1.05609 500.928 145.879)" fill="#B6CEF2"/>
<ellipse cx="7.51759" cy="196.51" rx="29.0499" ry="32.2157" transform="rotate(1.05609 7.51759 196.51)" fill="#B6CEF2"/>
<ellipse cx="39.7559" cy="181.387" rx="29.0499" ry="32.2157" transform="rotate(1.05609 39.7559 181.387)" fill="#B6CEF2"/>
<ellipse cx="557.709" cy="134.083" rx="57.3735" ry="62.8599" transform="rotate(1.05609 557.709 134.083)" fill="#B6CEF2"/>
<ellipse cx="769.795" cy="134.849" rx="57.3735" ry="62.8599" transform="rotate(1.05609 769.795 134.849)" fill="#B6CEF2"/>
<ellipse cx="929.197" cy="156.649" rx="57.3735" ry="62.8599" transform="rotate(1.05609 929.197 156.649)" fill="#B6CEF2"/>
<ellipse cx="864.625" cy="113.021" rx="42.8486" ry="47.1449" transform="rotate(1.05609 864.625 113.021)" fill="#B6CEF2"/>
<ellipse cx="629.886" cy="158.99" rx="42.8486" ry="47.1449" transform="rotate(1.05609 629.886 158.99)" fill="#B6CEF2"/>
<ellipse cx="698.433" cy="144.536" rx="42.8486" ry="47.1449" transform="rotate(1.05609 698.433 144.536)" fill="#B6CEF2"/>
<ellipse cx="479.433" cy="124.782" rx="42.8486" ry="47.1449" transform="rotate(1.05609 479.433 124.782)" fill="#B6CEF2"/>
<ellipse cx="821.771" cy="113.017" rx="29.0499" ry="32.2157" transform="rotate(1.05609 821.771 113.017)" fill="#B6CEF2"/>
<ellipse cx="829.385" cy="172.884" rx="29.0499" ry="32.2157" transform="rotate(1.05609 829.385 172.884)" fill="#B6CEF2"/>
<ellipse cx="872.834" cy="179.973" rx="29.0499" ry="32.2157" transform="rotate(1.05609 872.834 179.973)" fill="#B6CEF2"/>
<ellipse cx="976.756" cy="137.879" rx="29.0499" ry="32.2157" transform="rotate(1.05609 976.756 137.879)" fill="#B6CEF2"/>
<ellipse cx="483.344" cy="188.51" rx="29.0499" ry="32.2157" transform="rotate(1.05609 483.344 188.51)" fill="#B6CEF2"/>
<ellipse cx="515.584" cy="173.387" rx="29.0499" ry="32.2157" transform="rotate(1.05609 515.584 173.387)" fill="#B6CEF2"/>
<ellipse cx="1066.71" cy="136.083" rx="57.3735" ry="62.8599" transform="rotate(1.05609 1066.71 136.083)" fill="#B6CEF2"/>
<ellipse cx="1278.8" cy="136.849" rx="57.3735" ry="62.8599" transform="rotate(1.05609 1278.8 136.849)" fill="#B6CEF2"/>
<ellipse cx="1438.2" cy="158.649" rx="57.3735" ry="62.8599" transform="rotate(1.05609 1438.2 158.649)" fill="#B6CEF2"/>
<ellipse cx="1373.62" cy="115.021" rx="42.8486" ry="47.1449" transform="rotate(1.05609 1373.62 115.021)" fill="#B6CEF2"/>
<ellipse cx="1138.89" cy="160.99" rx="42.8486" ry="47.1449" transform="rotate(1.05609 1138.89 160.99)" fill="#B6CEF2"/>
<ellipse cx="1207.43" cy="146.536" rx="42.8486" ry="47.1449" transform="rotate(1.05609 1207.43 146.536)" fill="#B6CEF2"/>
<ellipse cx="988.433" cy="126.782" rx="42.8486" ry="47.1449" transform="rotate(1.05609 988.433 126.782)" fill="#B6CEF2"/>
<ellipse cx="1330.77" cy="115.017" rx="29.0499" ry="32.2157" transform="rotate(1.05609 1330.77 115.017)" fill="#B6CEF2"/>
<ellipse cx="1338.38" cy="174.884" rx="29.0499" ry="32.2157" transform="rotate(1.05609 1338.38 174.884)" fill="#B6CEF2"/>
<ellipse cx="1381.83" cy="181.973" rx="29.0499" ry="32.2157" transform="rotate(1.05609 1381.83 181.973)" fill="#B6CEF2"/>
<ellipse cx="992.342" cy="190.51" rx="29.0499" ry="32.2157" transform="rotate(1.05609 992.342 190.51)" fill="#B6CEF2"/>
<ellipse cx="1024.58" cy="175.387" rx="29.0499" ry="32.2157" transform="rotate(1.05609 1024.58 175.387)" fill="#B6CEF2"/>
<ellipse cx="81.8829" cy="197.415" rx="57.3735" ry="62.8599" transform="rotate(1.05609 81.8829 197.415)" fill="#6490D1"/>
<ellipse cx="293.969" cy="198.181" rx="57.3735" ry="62.8599" transform="rotate(1.05609 293.969 198.181)" fill="#6490D1"/>
<ellipse cx="453.369" cy="219.98" rx="57.3735" ry="62.8599" transform="rotate(1.05609 453.369 219.98)" fill="#6490D1"/>
<ellipse cx="388.801" cy="176.352" rx="42.8486" ry="47.1449" transform="rotate(1.05609 388.801 176.352)" fill="#6490D1"/>
<ellipse cx="154.062" cy="222.322" rx="42.8486" ry="47.1449" transform="rotate(1.05609 154.062 222.322)" fill="#6490D1"/>
<ellipse cx="222.607" cy="207.867" rx="42.8486" ry="47.1449" transform="rotate(1.05609 222.607 207.867)" fill="#6490D1"/>
<ellipse cx="3.60714" cy="188.113" rx="42.8486" ry="47.1449" transform="rotate(1.05609 3.60714 188.113)" fill="#6490D1"/>
<ellipse cx="345.945" cy="176.348" rx="29.0499" ry="32.2157" transform="rotate(1.05609 345.945 176.348)" fill="#6490D1"/>
<ellipse cx="353.557" cy="236.215" rx="29.0499" ry="32.2157" transform="rotate(1.05609 353.557 236.215)" fill="#6490D1"/>
<ellipse cx="397.01" cy="243.303" rx="29.0499" ry="32.2157" transform="rotate(1.05609 397.01 243.303)" fill="#6490D1"/>
<ellipse cx="500.928" cy="201.21" rx="29.0499" ry="32.2157" transform="rotate(1.05609 500.928 201.21)" fill="#6490D1"/>
<ellipse cx="7.51759" cy="251.842" rx="29.0499" ry="32.2157" transform="rotate(1.05609 7.51759 251.842)" fill="#6490D1"/>
<ellipse cx="39.7559" cy="236.719" rx="29.0499" ry="32.2157" transform="rotate(1.05609 39.7559 236.719)" fill="#6490D1"/>
<ellipse cx="557.709" cy="189.415" rx="57.3735" ry="62.8599" transform="rotate(1.05609 557.709 189.415)" fill="#6490D1"/>
<ellipse cx="769.795" cy="190.181" rx="57.3735" ry="62.8599" transform="rotate(1.05609 769.795 190.181)" fill="#6490D1"/>
<ellipse cx="929.197" cy="211.98" rx="57.3735" ry="62.8599" transform="rotate(1.05609 929.197 211.98)" fill="#6490D1"/>
<ellipse cx="864.625" cy="168.352" rx="42.8486" ry="47.1449" transform="rotate(1.05609 864.625 168.352)" fill="#6490D1"/>
<ellipse cx="629.886" cy="214.322" rx="42.8486" ry="47.1449" transform="rotate(1.05609 629.886 214.322)" fill="#6490D1"/>
<ellipse cx="698.433" cy="199.867" rx="42.8486" ry="47.1449" transform="rotate(1.05609 698.433 199.867)" fill="#6490D1"/>
<ellipse cx="479.433" cy="180.113" rx="42.8486" ry="47.1449" transform="rotate(1.05609 479.433 180.113)" fill="#6490D1"/>
<ellipse cx="821.771" cy="168.348" rx="29.0499" ry="32.2157" transform="rotate(1.05609 821.771 168.348)" fill="#6490D1"/>
<ellipse cx="829.385" cy="228.215" rx="29.0499" ry="32.2157" transform="rotate(1.05609 829.385 228.215)" fill="#6490D1"/>
<ellipse cx="872.834" cy="235.303" rx="29.0499" ry="32.2157" transform="rotate(1.05609 872.834 235.303)" fill="#6490D1"/>
<ellipse cx="976.756" cy="193.21" rx="29.0499" ry="32.2157" transform="rotate(1.05609 976.756 193.21)" fill="#6490D1"/>
<ellipse cx="483.344" cy="243.842" rx="29.0499" ry="32.2157" transform="rotate(1.05609 483.344 243.842)" fill="#6490D1"/>
<ellipse cx="515.584" cy="228.719" rx="29.0499" ry="32.2157" transform="rotate(1.05609 515.584 228.719)" fill="#6490D1"/>
<ellipse cx="1066.71" cy="191.415" rx="57.3735" ry="62.8599" transform="rotate(1.05609 1066.71 191.415)" fill="#6490D1"/>
<ellipse cx="1278.8" cy="192.181" rx="57.3735" ry="62.8599" transform="rotate(1.05609 1278.8 192.181)" fill="#6490D1"/>
<ellipse cx="1438.2" cy="213.98" rx="57.3735" ry="62.8599" transform="rotate(1.05609 1438.2 213.98)" fill="#6490D1"/>
<ellipse cx="1373.62" cy="170.352" rx="42.8486" ry="47.1449" transform="rotate(1.05609 1373.62 170.352)" fill="#6490D1"/>
<ellipse cx="1138.89" cy="216.322" rx="42.8486" ry="47.1449" transform="rotate(1.05609 1138.89 216.322)" fill="#6490D1"/>
<ellipse cx="1207.43" cy="201.867" rx="42.8486" ry="47.1449" transform="rotate(1.05609 1207.43 201.867)" fill="#6490D1"/>
<ellipse cx="988.433" cy="182.113" rx="42.8486" ry="47.1449" transform="rotate(1.05609 988.433 182.113)" fill="#6490D1"/>
<ellipse cx="1330.77" cy="170.348" rx="29.0499" ry="32.2157" transform="rotate(1.05609 1330.77 170.348)" fill="#6490D1"/>
<ellipse cx="1338.38" cy="230.215" rx="29.0499" ry="32.2157" transform="rotate(1.05609 1338.38 230.215)" fill="#6490D1"/>
<ellipse cx="1381.83" cy="237.303" rx="29.0499" ry="32.2157" transform="rotate(1.05609 1381.83 237.303)" fill="#6490D1"/>
<ellipse cx="992.342" cy="245.842" rx="29.0499" ry="32.2157" transform="rotate(1.05609 992.342 245.842)" fill="#6490D1"/>
<ellipse cx="1024.58" cy="230.719" rx="29.0499" ry="32.2157" transform="rotate(1.05609 1024.58 230.719)" fill="#6490D1"/>
<g filter="url(#filter0_d_1516_18410)">
<ellipse cx="81.8829" cy="252.746" rx="57.3735" ry="62.8599" transform="rotate(1.05609 81.8829 252.746)" fill="#6490D1"/>
<ellipse cx="293.969" cy="253.512" rx="57.3735" ry="62.8599" transform="rotate(1.05609 293.969 253.512)" fill="#6490D1"/>
<ellipse cx="453.369" cy="275.311" rx="57.3735" ry="62.8599" transform="rotate(1.05609 453.369 275.311)" fill="#6490D1"/>
<ellipse cx="388.801" cy="231.684" rx="42.8486" ry="47.1449" transform="rotate(1.05609 388.801 231.684)" fill="#6490D1"/>
<ellipse cx="154.062" cy="277.653" rx="42.8486" ry="47.1449" transform="rotate(1.05609 154.062 277.653)" fill="#6490D1"/>
<ellipse cx="222.607" cy="263.199" rx="42.8486" ry="47.1449" transform="rotate(1.05609 222.607 263.199)" fill="#6490D1"/>
<ellipse cx="3.60714" cy="243.445" rx="42.8486" ry="47.1449" transform="rotate(1.05609 3.60714 243.445)" fill="#6490D1"/>
<ellipse cx="345.945" cy="231.679" rx="29.0499" ry="32.2157" transform="rotate(1.05609 345.945 231.679)" fill="#6490D1"/>
<ellipse cx="353.557" cy="291.547" rx="29.0499" ry="32.2157" transform="rotate(1.05609 353.557 291.547)" fill="#6490D1"/>
<ellipse cx="397.01" cy="298.635" rx="29.0499" ry="32.2157" transform="rotate(1.05609 397.01 298.635)" fill="#6490D1"/>
<ellipse cx="500.928" cy="256.541" rx="29.0499" ry="32.2157" transform="rotate(1.05609 500.928 256.541)" fill="#6490D1"/>
<ellipse cx="7.51759" cy="307.173" rx="29.0499" ry="32.2157" transform="rotate(1.05609 7.51759 307.173)" fill="#6490D1"/>
<ellipse cx="39.7559" cy="292.05" rx="29.0499" ry="32.2157" transform="rotate(1.05609 39.7559 292.05)" fill="#6490D1"/>
<ellipse cx="557.709" cy="244.746" rx="57.3735" ry="62.8599" transform="rotate(1.05609 557.709 244.746)" fill="#6490D1"/>
<ellipse cx="769.795" cy="245.512" rx="57.3735" ry="62.8599" transform="rotate(1.05609 769.795 245.512)" fill="#6490D1"/>
<ellipse cx="929.197" cy="267.311" rx="57.3735" ry="62.8599" transform="rotate(1.05609 929.197 267.311)" fill="#6490D1"/>
<ellipse cx="864.625" cy="223.684" rx="42.8486" ry="47.1449" transform="rotate(1.05609 864.625 223.684)" fill="#6490D1"/>
<ellipse cx="629.886" cy="269.653" rx="42.8486" ry="47.1449" transform="rotate(1.05609 629.886 269.653)" fill="#6490D1"/>
<ellipse cx="698.433" cy="255.199" rx="42.8486" ry="47.1449" transform="rotate(1.05609 698.433 255.199)" fill="#6490D1"/>
<ellipse cx="479.433" cy="235.444" rx="42.8486" ry="47.1449" transform="rotate(1.05609 479.433 235.444)" fill="#6490D1"/>
<ellipse cx="821.771" cy="223.679" rx="29.0499" ry="32.2157" transform="rotate(1.05609 821.771 223.679)" fill="#6490D1"/>
<ellipse cx="829.385" cy="283.547" rx="29.0499" ry="32.2157" transform="rotate(1.05609 829.385 283.547)" fill="#6490D1"/>
<ellipse cx="872.834" cy="290.635" rx="29.0499" ry="32.2157" transform="rotate(1.05609 872.834 290.635)" fill="#6490D1"/>
<ellipse cx="976.756" cy="248.541" rx="29.0499" ry="32.2157" transform="rotate(1.05609 976.756 248.541)" fill="#6490D1"/>
<ellipse cx="483.344" cy="299.173" rx="29.0499" ry="32.2157" transform="rotate(1.05609 483.344 299.173)" fill="#6490D1"/>
<ellipse cx="515.584" cy="284.05" rx="29.0499" ry="32.2157" transform="rotate(1.05609 515.584 284.05)" fill="#6490D1"/>
<ellipse cx="1066.71" cy="246.746" rx="57.3735" ry="62.8599" transform="rotate(1.05609 1066.71 246.746)" fill="#6490D1"/>
<ellipse cx="1278.8" cy="247.512" rx="57.3735" ry="62.8599" transform="rotate(1.05609 1278.8 247.512)" fill="#6490D1"/>
<ellipse cx="1438.2" cy="269.311" rx="57.3735" ry="62.8599" transform="rotate(1.05609 1438.2 269.311)" fill="#6490D1"/>
<ellipse cx="1373.62" cy="225.684" rx="42.8486" ry="47.1449" transform="rotate(1.05609 1373.62 225.684)" fill="#6490D1"/>
<ellipse cx="1138.89" cy="271.653" rx="42.8486" ry="47.1449" transform="rotate(1.05609 1138.89 271.653)" fill="#6490D1"/>
<ellipse cx="1207.43" cy="257.199" rx="42.8486" ry="47.1449" transform="rotate(1.05609 1207.43 257.199)" fill="#6490D1"/>
<ellipse cx="988.433" cy="237.444" rx="42.8486" ry="47.1449" transform="rotate(1.05609 988.433 237.444)" fill="#6490D1"/>
<ellipse cx="1330.77" cy="225.679" rx="29.0499" ry="32.2157" transform="rotate(1.05609 1330.77 225.679)" fill="#6490D1"/>
<ellipse cx="1338.38" cy="285.547" rx="29.0499" ry="32.2157" transform="rotate(1.05609 1338.38 285.547)" fill="#6490D1"/>
<ellipse cx="1381.83" cy="292.635" rx="29.0499" ry="32.2157" transform="rotate(1.05609 1381.83 292.635)" fill="#6490D1"/>
<ellipse cx="992.342" cy="301.173" rx="29.0499" ry="32.2157" transform="rotate(1.05609 992.342 301.173)" fill="#6490D1"/>
<ellipse cx="1024.58" cy="286.05" rx="29.0499" ry="32.2157" transform="rotate(1.05609 1024.58 286.05)" fill="#6490D1"/>
</g>
<defs>
<filter id="filter0_d_1516_18410" x="-43.2422" y="176.54" width="1562.05" height="170.848" filterUnits="userSpaceOnUse" color-interpolation-filters="sRGB">
<feFlood flood-opacity="0" result="BackgroundImageFix"/>
<feColorMatrix in="SourceAlpha" type="matrix" values="0 0 0 0 0 0 0 0 0 0 0 0 0 0 0 0 0 0 127 0" result="hardAlpha"/>
<feOffset dy="4"/>
<feGaussianBlur stdDeviation="2"/>
<feComposite in2="hardAlpha" operator="out"/>
<feColorMatrix type="matrix" values="0 0 0 0 0.0912275 0 0 0 0 0.162897 0 0 0 0 0.268772 0 0 0 0.4 0"/>
<feBlend mode="normal" in2="BackgroundImageFix" result="effect1_dropShadow_1516_18410"/>
<feBlend mode="normal" in="SourceGraphic" in2="effect1_dropShadow_1516_18410" result="shape"/>
</filter>
</defs>
</svg>
