<svg width="195" height="65" viewBox="0 0 195 65" fill="none" xmlns="http://www.w3.org/2000/svg">
<path d="M139.114 52.3121C139.114 67.1287 139.114 64.5171 114.815 64.5171C90.5156 64.5171 90.5156 67.1287 90.5156 52.3121C90.5156 37.4956 101.395 25.4844 114.815 25.4844C128.235 25.4844 139.114 37.4956 139.114 52.3121Z" fill="white"/>
<path d="M177.991 47.8639C177.991 67.6321 177.991 64.1477 145.187 64.1477C112.383 64.1477 112.383 67.6321 112.383 47.8639C112.383 28.0956 127.07 12.0703 145.187 12.0703C163.304 12.0703 177.991 28.0956 177.991 47.8639Z" fill="white"/>
<path d="M195.001 57.6103C195.001 65.7204 195.001 64.2909 181.636 64.2909C168.271 64.2909 168.271 65.7204 168.271 57.6103C168.271 49.5003 174.255 42.9258 181.636 42.9258C189.017 42.9258 195.001 49.5003 195.001 57.6103Z" fill="white"/>
<path d="M48.5984 51.4488C48.5984 66.2654 48.5984 63.6538 24.2992 63.6538C0 63.6538 0 66.2654 0 51.4488C0 36.6323 10.8791 24.6211 24.2992 24.6211C37.7192 24.6211 48.5984 36.6323 48.5984 51.4488Z" fill="white"/>
<path d="M112.385 44.0536C112.385 68.3837 112.385 64.0952 72.2909 64.0952C32.1973 64.0952 32.1973 68.3837 32.1973 44.0536C32.1973 19.7235 50.1478 0 72.2909 0C94.434 0 112.385 19.7235 112.385 44.0536Z" fill="white"/>
</svg>
