<svg width="242" height="81" viewBox="0 0 242 81" fill="none" xmlns="http://www.w3.org/2000/svg">
<path d="M69.3561 64.9228C69.3561 83.3106 69.3561 80.0695 99.512 80.0695C129.668 80.0695 129.668 83.3106 129.668 64.9228C129.668 46.5351 116.167 31.6289 99.512 31.6289C82.8574 31.6289 69.3561 46.5351 69.3561 64.9228Z" fill="white"/>
<path d="M21.1063 59.4012C21.1063 83.9341 21.1063 79.6099 61.8168 79.6099C102.527 79.6099 102.527 83.9341 102.527 59.4012C102.527 34.8683 84.3006 14.9805 61.8168 14.9805C39.3331 14.9805 21.1063 34.8683 21.1063 59.4012Z" fill="white"/>
<path d="M0.000350952 71.4934C0.000350952 81.5582 0.000350952 79.7842 16.5861 79.7842C33.1719 79.7842 33.1719 81.5582 33.1719 71.4934C33.1719 61.4286 25.7462 53.2695 16.5861 53.2695C7.42605 53.2695 0.000350952 61.4286 0.000350952 71.4934Z" fill="white"/>
<path d="M181.688 63.8525C181.688 82.2403 181.688 78.9992 211.844 78.9992C242 78.9992 242 82.2403 242 63.8525C242 45.4648 228.499 30.5586 211.844 30.5586C195.189 30.5586 181.688 45.4648 181.688 63.8525Z" fill="white"/>
<path d="M102.528 54.6717C102.528 84.866 102.528 79.5439 152.286 79.5439C202.043 79.5439 202.043 84.866 202.043 54.6717C202.043 24.4773 179.766 0 152.286 0C124.806 0 102.528 24.4773 102.528 54.6717Z" fill="white"/>
</svg>
