<svg width="233" height="78" viewBox="0 0 233 78" fill="none" xmlns="http://www.w3.org/2000/svg">
<path d="M166.221 62.5088C166.221 80.2127 166.221 77.0921 137.187 77.0921C108.152 77.0921 108.152 80.2127 108.152 62.5088C108.152 44.8049 121.151 30.4531 137.187 30.4531C153.222 30.4531 166.221 44.8049 166.221 62.5088Z" fill="white"/>
<path d="M212.676 57.1905C212.676 80.811 212.676 76.6476 173.48 76.6476C134.283 76.6476 134.283 80.811 134.283 57.1905C134.283 33.5701 151.832 14.4219 173.48 14.4219C195.127 14.4219 212.676 33.5701 212.676 57.1905Z" fill="white"/>
<path d="M233 68.8352C233 78.5256 233 76.8176 217.031 76.8176C201.062 76.8176 201.062 78.5256 201.062 68.8352C201.062 59.1447 208.212 51.2891 217.031 51.2891C225.851 51.2891 233 59.1447 233 68.8352Z" fill="white"/>
<path d="M58.0687 61.4775C58.0687 79.1814 58.0687 76.0609 29.0344 76.0609C0 76.0609 0 79.1814 0 61.4775C0 43.7737 12.9991 29.4219 29.0344 29.4219C45.0696 29.4219 58.0687 43.7737 58.0687 61.4775Z" fill="white"/>
<path d="M134.284 52.6383C134.284 81.7097 134.284 76.5855 86.3774 76.5855C38.4707 76.5855 38.4707 81.7097 38.4707 52.6383C38.4707 23.567 59.9193 0 86.3774 0C112.836 0 134.284 23.567 134.284 52.6383Z" fill="white"/>
</svg>
