<svg width="1440" height="358" viewBox="0 0 1440 358" fill="none" xmlns="http://www.w3.org/2000/svg">
<ellipse cx="125.169" cy="102.414" rx="33.8741" ry="34.8022" fill="#FFEBD1"/>
<ellipse cx="81.5495" cy="63.8994" rx="44.0827" ry="45.4748" fill="#FFEBD1"/>
<ellipse cx="189.206" cy="84.3166" rx="44.0827" ry="45.4748" fill="#FFEBD1"/>
<ellipse cx="23.0827" cy="94.5253" rx="44.0827" ry="45.4748" fill="#FFEBD1"/>
<ellipse cx="302.583" cy="76.7101" rx="44.0827" ry="45.4748" fill="#FFEBD1"/>
<ellipse cx="450.919" cy="56.4748" rx="44.0827" ry="45.4748" fill="#FFEBD1"/>
<ellipse cx="240.249" cy="94.9892" rx="33.8741" ry="34.8022" fill="#FFEBD1"/>
<ellipse cx="344.19" cy="102.414" rx="33.8741" ry="34.8022" fill="#FFEBD1"/>
<ellipse cx="394.308" cy="83.8526" rx="33.8741" ry="34.8022" fill="#FFEBD1"/>
<ellipse cx="408.692" cy="49.5144" rx="19.4892" ry="19.9532" fill="#FFEBD1"/>
<ellipse cx="-1.51079" cy="64.3633" rx="19.4892" ry="19.9532" fill="#FFEBD1"/>
<ellipse cx="617.171" cy="101.414" rx="33.8741" ry="34.8022" fill="#FFEBD1"/>
<ellipse cx="573.552" cy="62.8994" rx="44.0827" ry="45.4748" fill="#FFEBD1"/>
<ellipse cx="681.204" cy="83.3166" rx="44.0827" ry="45.4748" fill="#FFEBD1"/>
<ellipse cx="515.083" cy="93.5253" rx="44.0827" ry="45.4748" fill="#FFEBD1"/>
<ellipse cx="794.583" cy="75.7101" rx="44.0827" ry="45.4748" fill="#FFEBD1"/>
<ellipse cx="942.919" cy="55.4748" rx="44.0827" ry="45.4748" fill="#FFEBD1"/>
<ellipse cx="732.249" cy="93.9892" rx="33.8741" ry="34.8022" fill="#FFEBD1"/>
<ellipse cx="836.19" cy="101.414" rx="33.8741" ry="34.8022" fill="#FFEBD1"/>
<ellipse cx="886.308" cy="82.8526" rx="33.8741" ry="34.8022" fill="#FFEBD1"/>
<ellipse cx="900.692" cy="48.5144" rx="19.4892" ry="19.9532" fill="#FFEBD1"/>
<ellipse cx="490.489" cy="63.3633" rx="19.4892" ry="19.9532" fill="#FFEBD1"/>
<ellipse cx="1114.38" cy="96.4161" rx="33.8741" ry="34.8022" transform="rotate(1.98268 1114.38 96.4161)" fill="#FFEBD1"/>
<ellipse cx="1072.12" cy="56.4157" rx="44.0827" ry="45.4748" transform="rotate(1.98268 1072.12 56.4157)" fill="#FFEBD1"/>
<ellipse cx="1179" cy="80.5452" rx="44.0827" ry="45.4748" transform="rotate(1.98268 1179 80.5452)" fill="#FFEBD1"/>
<ellipse cx="1012.63" cy="85.0004" rx="44.0827" ry="45.4748" transform="rotate(1.98268 1012.63 85.0004)" fill="#FFEBD1"/>
<ellipse cx="1292.58" cy="76.8659" rx="44.0827" ry="45.4748" transform="rotate(1.98268 1292.58 76.8659)" fill="#FFEBD1"/>
<ellipse cx="1441.52" cy="61.7747" rx="44.0827" ry="45.4748" transform="rotate(1.98268 1441.52 61.7747)" fill="#FFEBD1"/>
<ellipse cx="1229.65" cy="92.9774" rx="33.8741" ry="34.8022" transform="rotate(1.98268 1229.65 92.9774)" fill="#FFEBD1"/>
<ellipse cx="1333.27" cy="103.994" rx="33.8741" ry="34.8022" transform="rotate(1.98268 1333.27 103.994)" fill="#FFEBD1"/>
<ellipse cx="1384" cy="87.1775" rx="33.8741" ry="34.8022" transform="rotate(1.98268 1384 87.1775)" fill="#FFEBD1"/>
<ellipse cx="1399.56" cy="53.3573" rx="19.4892" ry="19.9532" transform="rotate(1.98268 1399.56 53.3573)" fill="#FFEBD1"/>
<ellipse cx="989.092" cy="54.0056" rx="19.4892" ry="19.9532" transform="rotate(1.98268 989.092 54.0056)" fill="#FFEBD1"/>
<ellipse cx="4" cy="123" rx="50" ry="49" fill="#FFFEEE"/>
<ellipse cx="153" cy="119" rx="50" ry="49" fill="#FFFEEE"/>
<ellipse cx="64.5" cy="116" rx="25.5" ry="25" fill="#FFFEEE"/>
<ellipse cx="199.5" cy="117" rx="25.5" ry="25" fill="#FFFEEE"/>
<ellipse cx="275.5" cy="113" rx="25.5" ry="25" fill="#FFFEEE"/>
<ellipse cx="304.5" cy="115" rx="15.5" ry="15" fill="#FFFEEE"/>
<ellipse cx="239.5" cy="111" rx="36.5" ry="37" fill="#FFFEEE"/>
<ellipse cx="352.5" cy="100.5" rx="44.5" ry="46.5" fill="#FFFEEE"/>
<ellipse cx="103" cy="142" rx="35" ry="36" fill="#FFFEEE"/>
<ellipse cx="414" cy="118" rx="50" ry="49" fill="#FFFEEE"/>
<ellipse cx="563" cy="114" rx="50" ry="49" fill="#FFFEEE"/>
<ellipse cx="474.5" cy="111" rx="25.5" ry="25" fill="#FFFEEE"/>
<ellipse cx="609.5" cy="112" rx="25.5" ry="25" fill="#FFFEEE"/>
<ellipse cx="685.5" cy="108" rx="25.5" ry="25" fill="#FFFEEE"/>
<ellipse cx="714.5" cy="110" rx="15.5" ry="15" fill="#FFFEEE"/>
<ellipse cx="649.5" cy="106" rx="36.5" ry="37" fill="#FFFEEE"/>
<ellipse cx="762.5" cy="95.5" rx="44.5" ry="46.5" fill="#FFFEEE"/>
<ellipse cx="513" cy="137" rx="35" ry="36" fill="#FFFEEE"/>
<ellipse cx="786" cy="120" rx="50" ry="49" fill="#FFFEEE"/>
<ellipse cx="935" cy="116" rx="50" ry="49" fill="#FFFEEE"/>
<ellipse cx="846.5" cy="113" rx="25.5" ry="25" fill="#FFFEEE"/>
<ellipse cx="981.5" cy="114" rx="25.5" ry="25" fill="#FFFEEE"/>
<ellipse cx="1057.5" cy="110" rx="25.5" ry="25" fill="#FFFEEE"/>
<ellipse cx="1086.5" cy="112" rx="15.5" ry="15" fill="#FFFEEE"/>
<ellipse cx="1021.5" cy="108" rx="36.5" ry="37" fill="#FFFEEE"/>
<ellipse cx="1134.5" cy="97.5" rx="44.5" ry="46.5" fill="#FFFEEE"/>
<ellipse cx="885" cy="139" rx="35" ry="36" fill="#FFFEEE"/>
<ellipse cx="1140" cy="113" rx="50" ry="49" fill="#FFFEEE"/>
<ellipse cx="1289" cy="109" rx="50" ry="49" fill="#FFFEEE"/>
<ellipse cx="1200.5" cy="106" rx="25.5" ry="25" fill="#FFFEEE"/>
<ellipse cx="1335.5" cy="107" rx="25.5" ry="25" fill="#FFFEEE"/>
<ellipse cx="1411.5" cy="103" rx="25.5" ry="25" fill="#FFFEEE"/>
<ellipse cx="1440.5" cy="105" rx="15.5" ry="15" fill="#FFFEEE"/>
<ellipse cx="1375.5" cy="101" rx="36.5" ry="37" fill="#FFFEEE"/>
<ellipse cx="1239" cy="132" rx="35" ry="36" fill="#FFFEEE"/>
<ellipse cx="67.8829" cy="151.083" rx="57.3735" ry="62.8599" transform="rotate(1.05609 67.8829 151.083)" fill="#ECCFF2"/>
<ellipse cx="279.969" cy="151.849" rx="57.3735" ry="62.8599" transform="rotate(1.05609 279.969 151.849)" fill="#ECCFF2"/>
<ellipse cx="439.369" cy="173.649" rx="57.3735" ry="62.8599" transform="rotate(1.05609 439.369 173.649)" fill="#ECCFF2"/>
<ellipse cx="374.801" cy="130.021" rx="42.8486" ry="47.1449" transform="rotate(1.05609 374.801 130.021)" fill="#ECCFF2"/>
<ellipse cx="140.062" cy="175.99" rx="42.8486" ry="47.1449" transform="rotate(1.05609 140.062 175.99)" fill="#ECCFF2"/>
<ellipse cx="208.607" cy="161.537" rx="42.8486" ry="47.1449" transform="rotate(1.05609 208.607 161.537)" fill="#ECCFF2"/>
<ellipse cx="-10.3929" cy="141.782" rx="42.8486" ry="47.1449" transform="rotate(1.05609 -10.3929 141.782)" fill="#ECCFF2"/>
<ellipse cx="331.943" cy="130.017" rx="29.0499" ry="32.2157" transform="rotate(1.05609 331.943 130.017)" fill="#ECCFF2"/>
<ellipse cx="339.557" cy="189.884" rx="29.0499" ry="32.2157" transform="rotate(1.05609 339.557 189.884)" fill="#ECCFF2"/>
<ellipse cx="383.01" cy="196.973" rx="29.0499" ry="32.2157" transform="rotate(1.05609 383.01 196.973)" fill="#ECCFF2"/>
<ellipse cx="486.928" cy="154.879" rx="29.0499" ry="32.2157" transform="rotate(1.05609 486.928 154.879)" fill="#ECCFF2"/>
<ellipse cx="-6.48241" cy="205.51" rx="29.0499" ry="32.2157" transform="rotate(1.05609 -6.48241 205.51)" fill="#ECCFF2"/>
<ellipse cx="25.7559" cy="190.387" rx="29.0499" ry="32.2157" transform="rotate(1.05609 25.7559 190.387)" fill="#ECCFF2"/>
<ellipse cx="543.709" cy="143.083" rx="57.3735" ry="62.8599" transform="rotate(1.05609 543.709 143.083)" fill="#ECCFF2"/>
<ellipse cx="755.795" cy="143.849" rx="57.3735" ry="62.8599" transform="rotate(1.05609 755.795 143.849)" fill="#ECCFF2"/>
<ellipse cx="915.197" cy="165.649" rx="57.3735" ry="62.8599" transform="rotate(1.05609 915.197 165.649)" fill="#ECCFF2"/>
<ellipse cx="850.625" cy="122.021" rx="42.8486" ry="47.1449" transform="rotate(1.05609 850.625 122.021)" fill="#ECCFF2"/>
<ellipse cx="615.886" cy="167.99" rx="42.8486" ry="47.1449" transform="rotate(1.05609 615.886 167.99)" fill="#ECCFF2"/>
<ellipse cx="684.433" cy="153.536" rx="42.8486" ry="47.1449" transform="rotate(1.05609 684.433 153.536)" fill="#ECCFF2"/>
<ellipse cx="465.433" cy="133.782" rx="42.8486" ry="47.1449" transform="rotate(1.05609 465.433 133.782)" fill="#ECCFF2"/>
<ellipse cx="807.771" cy="122.017" rx="29.0499" ry="32.2157" transform="rotate(1.05609 807.771 122.017)" fill="#ECCFF2"/>
<ellipse cx="815.385" cy="181.884" rx="29.0499" ry="32.2157" transform="rotate(1.05609 815.385 181.884)" fill="#ECCFF2"/>
<ellipse cx="858.834" cy="188.973" rx="29.0499" ry="32.2157" transform="rotate(1.05609 858.834 188.973)" fill="#ECCFF2"/>
<ellipse cx="962.756" cy="146.879" rx="29.0499" ry="32.2157" transform="rotate(1.05609 962.756 146.879)" fill="#ECCFF2"/>
<ellipse cx="469.342" cy="197.51" rx="29.0499" ry="32.2157" transform="rotate(1.05609 469.342 197.51)" fill="#ECCFF2"/>
<ellipse cx="501.584" cy="182.387" rx="29.0499" ry="32.2157" transform="rotate(1.05609 501.584 182.387)" fill="#ECCFF2"/>
<ellipse cx="1052.71" cy="145.083" rx="57.3735" ry="62.8599" transform="rotate(1.05609 1052.71 145.083)" fill="#ECCFF2"/>
<ellipse cx="1264.8" cy="145.849" rx="57.3735" ry="62.8599" transform="rotate(1.05609 1264.8 145.849)" fill="#ECCFF2"/>
<ellipse cx="1424.2" cy="167.649" rx="57.3735" ry="62.8599" transform="rotate(1.05609 1424.2 167.649)" fill="#ECCFF2"/>
<ellipse cx="1359.62" cy="124.021" rx="42.8486" ry="47.1449" transform="rotate(1.05609 1359.62 124.021)" fill="#ECCFF2"/>
<ellipse cx="1124.89" cy="169.99" rx="42.8486" ry="47.1449" transform="rotate(1.05609 1124.89 169.99)" fill="#ECCFF2"/>
<ellipse cx="1193.43" cy="155.536" rx="42.8486" ry="47.1449" transform="rotate(1.05609 1193.43 155.536)" fill="#ECCFF2"/>
<ellipse cx="974.433" cy="135.782" rx="42.8486" ry="47.1449" transform="rotate(1.05609 974.433 135.782)" fill="#ECCFF2"/>
<ellipse cx="1316.77" cy="124.017" rx="29.0499" ry="32.2157" transform="rotate(1.05609 1316.77 124.017)" fill="#ECCFF2"/>
<ellipse cx="1324.38" cy="183.884" rx="29.0499" ry="32.2157" transform="rotate(1.05609 1324.38 183.884)" fill="#ECCFF2"/>
<ellipse cx="1367.83" cy="190.973" rx="29.0499" ry="32.2157" transform="rotate(1.05609 1367.83 190.973)" fill="#ECCFF2"/>
<ellipse cx="978.342" cy="199.51" rx="29.0499" ry="32.2157" transform="rotate(1.05609 978.342 199.51)" fill="#ECCFF2"/>
<ellipse cx="1010.58" cy="184.387" rx="29.0499" ry="32.2157" transform="rotate(1.05609 1010.58 184.387)" fill="#ECCFF2"/>
<ellipse cx="67.8829" cy="206.415" rx="57.3735" ry="62.8599" transform="rotate(1.05609 67.8829 206.415)" fill="#CAA9D1"/>
<ellipse cx="279.969" cy="207.181" rx="57.3735" ry="62.8599" transform="rotate(1.05609 279.969 207.181)" fill="#CAA9D1"/>
<ellipse cx="439.369" cy="228.98" rx="57.3735" ry="62.8599" transform="rotate(1.05609 439.369 228.98)" fill="#CAA9D1"/>
<ellipse cx="374.801" cy="185.352" rx="42.8486" ry="47.1449" transform="rotate(1.05609 374.801 185.352)" fill="#CAA9D1"/>
<ellipse cx="140.062" cy="231.322" rx="42.8486" ry="47.1449" transform="rotate(1.05609 140.062 231.322)" fill="#CAA9D1"/>
<ellipse cx="208.607" cy="216.867" rx="42.8486" ry="47.1449" transform="rotate(1.05609 208.607 216.867)" fill="#CAA9D1"/>
<ellipse cx="-10.3929" cy="197.113" rx="42.8486" ry="47.1449" transform="rotate(1.05609 -10.3929 197.113)" fill="#CAA9D1"/>
<ellipse cx="331.943" cy="185.348" rx="29.0499" ry="32.2157" transform="rotate(1.05609 331.943 185.348)" fill="#CAA9D1"/>
<ellipse cx="339.557" cy="245.215" rx="29.0499" ry="32.2157" transform="rotate(1.05609 339.557 245.215)" fill="#CAA9D1"/>
<ellipse cx="383.01" cy="252.304" rx="29.0499" ry="32.2157" transform="rotate(1.05609 383.01 252.304)" fill="#CAA9D1"/>
<ellipse cx="486.928" cy="210.21" rx="29.0499" ry="32.2157" transform="rotate(1.05609 486.928 210.21)" fill="#CAA9D1"/>
<ellipse cx="-6.48241" cy="260.842" rx="29.0499" ry="32.2157" transform="rotate(1.05609 -6.48241 260.842)" fill="#CAA9D1"/>
<ellipse cx="25.7559" cy="245.719" rx="29.0499" ry="32.2157" transform="rotate(1.05609 25.7559 245.719)" fill="#CAA9D1"/>
<ellipse cx="543.709" cy="198.415" rx="57.3735" ry="62.8599" transform="rotate(1.05609 543.709 198.415)" fill="#CAA9D1"/>
<ellipse cx="755.795" cy="199.181" rx="57.3735" ry="62.8599" transform="rotate(1.05609 755.795 199.181)" fill="#CAA9D1"/>
<ellipse cx="915.197" cy="220.98" rx="57.3735" ry="62.8599" transform="rotate(1.05609 915.197 220.98)" fill="#CAA9D1"/>
<ellipse cx="850.625" cy="177.352" rx="42.8486" ry="47.1449" transform="rotate(1.05609 850.625 177.352)" fill="#CAA9D1"/>
<ellipse cx="615.886" cy="223.322" rx="42.8486" ry="47.1449" transform="rotate(1.05609 615.886 223.322)" fill="#CAA9D1"/>
<ellipse cx="684.433" cy="208.867" rx="42.8486" ry="47.1449" transform="rotate(1.05609 684.433 208.867)" fill="#CAA9D1"/>
<ellipse cx="465.433" cy="189.113" rx="42.8486" ry="47.1449" transform="rotate(1.05609 465.433 189.113)" fill="#CAA9D1"/>
<ellipse cx="807.771" cy="177.348" rx="29.0499" ry="32.2157" transform="rotate(1.05609 807.771 177.348)" fill="#CAA9D1"/>
<ellipse cx="815.385" cy="237.215" rx="29.0499" ry="32.2157" transform="rotate(1.05609 815.385 237.215)" fill="#CAA9D1"/>
<ellipse cx="858.834" cy="244.304" rx="29.0499" ry="32.2157" transform="rotate(1.05609 858.834 244.304)" fill="#CAA9D1"/>
<ellipse cx="962.756" cy="202.21" rx="29.0499" ry="32.2157" transform="rotate(1.05609 962.756 202.21)" fill="#CAA9D1"/>
<ellipse cx="469.342" cy="252.842" rx="29.0499" ry="32.2157" transform="rotate(1.05609 469.342 252.842)" fill="#CAA9D1"/>
<ellipse cx="501.584" cy="237.719" rx="29.0499" ry="32.2157" transform="rotate(1.05609 501.584 237.719)" fill="#CAA9D1"/>
<ellipse cx="1052.71" cy="200.415" rx="57.3735" ry="62.8599" transform="rotate(1.05609 1052.71 200.415)" fill="#CAA9D1"/>
<ellipse cx="1264.8" cy="201.181" rx="57.3735" ry="62.8599" transform="rotate(1.05609 1264.8 201.181)" fill="#CAA9D1"/>
<ellipse cx="1424.2" cy="222.98" rx="57.3735" ry="62.8599" transform="rotate(1.05609 1424.2 222.98)" fill="#CAA9D1"/>
<ellipse cx="1359.62" cy="179.352" rx="42.8486" ry="47.1449" transform="rotate(1.05609 1359.62 179.352)" fill="#CAA9D1"/>
<ellipse cx="1124.89" cy="225.322" rx="42.8486" ry="47.1449" transform="rotate(1.05609 1124.89 225.322)" fill="#CAA9D1"/>
<ellipse cx="1193.43" cy="210.867" rx="42.8486" ry="47.1449" transform="rotate(1.05609 1193.43 210.867)" fill="#CAA9D1"/>
<ellipse cx="974.433" cy="191.113" rx="42.8486" ry="47.1449" transform="rotate(1.05609 974.433 191.113)" fill="#CAA9D1"/>
<ellipse cx="1316.77" cy="179.348" rx="29.0499" ry="32.2157" transform="rotate(1.05609 1316.77 179.348)" fill="#CAA9D1"/>
<ellipse cx="1324.38" cy="239.215" rx="29.0499" ry="32.2157" transform="rotate(1.05609 1324.38 239.215)" fill="#CAA9D1"/>
<ellipse cx="1367.83" cy="246.304" rx="29.0499" ry="32.2157" transform="rotate(1.05609 1367.83 246.304)" fill="#CAA9D1"/>
<ellipse cx="978.342" cy="254.842" rx="29.0499" ry="32.2157" transform="rotate(1.05609 978.342 254.842)" fill="#CAA9D1"/>
<ellipse cx="1010.58" cy="239.719" rx="29.0499" ry="32.2157" transform="rotate(1.05609 1010.58 239.719)" fill="#CAA9D1"/>
<g filter="url(#filter0_d_1547_18705)">
<ellipse cx="67.8829" cy="261.746" rx="57.3735" ry="62.8599" transform="rotate(1.05609 67.8829 261.746)" fill="#CAA9D1"/>
<ellipse cx="279.969" cy="262.512" rx="57.3735" ry="62.8599" transform="rotate(1.05609 279.969 262.512)" fill="#CAA9D1"/>
<ellipse cx="439.369" cy="284.312" rx="57.3735" ry="62.8599" transform="rotate(1.05609 439.369 284.312)" fill="#CAA9D1"/>
<ellipse cx="374.801" cy="240.684" rx="42.8486" ry="47.1449" transform="rotate(1.05609 374.801 240.684)" fill="#CAA9D1"/>
<ellipse cx="140.062" cy="286.653" rx="42.8486" ry="47.1449" transform="rotate(1.05609 140.062 286.653)" fill="#CAA9D1"/>
<ellipse cx="208.607" cy="272.199" rx="42.8486" ry="47.1449" transform="rotate(1.05609 208.607 272.199)" fill="#CAA9D1"/>
<ellipse cx="-10.3929" cy="252.445" rx="42.8486" ry="47.1449" transform="rotate(1.05609 -10.3929 252.445)" fill="#CAA9D1"/>
<ellipse cx="331.943" cy="240.68" rx="29.0499" ry="32.2157" transform="rotate(1.05609 331.943 240.68)" fill="#CAA9D1"/>
<ellipse cx="339.557" cy="300.547" rx="29.0499" ry="32.2157" transform="rotate(1.05609 339.557 300.547)" fill="#CAA9D1"/>
<ellipse cx="383.01" cy="307.635" rx="29.0499" ry="32.2157" transform="rotate(1.05609 383.01 307.635)" fill="#CAA9D1"/>
<ellipse cx="486.928" cy="265.541" rx="29.0499" ry="32.2157" transform="rotate(1.05609 486.928 265.541)" fill="#CAA9D1"/>
<ellipse cx="-6.48241" cy="316.173" rx="29.0499" ry="32.2157" transform="rotate(1.05609 -6.48241 316.173)" fill="#CAA9D1"/>
<ellipse cx="25.7559" cy="301.05" rx="29.0499" ry="32.2157" transform="rotate(1.05609 25.7559 301.05)" fill="#CAA9D1"/>
<ellipse cx="543.709" cy="253.746" rx="57.3735" ry="62.8599" transform="rotate(1.05609 543.709 253.746)" fill="#CAA9D1"/>
<ellipse cx="755.795" cy="254.512" rx="57.3735" ry="62.8599" transform="rotate(1.05609 755.795 254.512)" fill="#CAA9D1"/>
<ellipse cx="915.197" cy="276.312" rx="57.3735" ry="62.8599" transform="rotate(1.05609 915.197 276.312)" fill="#CAA9D1"/>
<ellipse cx="850.625" cy="232.684" rx="42.8486" ry="47.1449" transform="rotate(1.05609 850.625 232.684)" fill="#CAA9D1"/>
<ellipse cx="615.886" cy="278.653" rx="42.8486" ry="47.1449" transform="rotate(1.05609 615.886 278.653)" fill="#CAA9D1"/>
<ellipse cx="684.433" cy="264.199" rx="42.8486" ry="47.1449" transform="rotate(1.05609 684.433 264.199)" fill="#CAA9D1"/>
<ellipse cx="465.433" cy="244.445" rx="42.8486" ry="47.1449" transform="rotate(1.05609 465.433 244.445)" fill="#CAA9D1"/>
<ellipse cx="807.771" cy="232.68" rx="29.0499" ry="32.2157" transform="rotate(1.05609 807.771 232.68)" fill="#CAA9D1"/>
<ellipse cx="815.385" cy="292.547" rx="29.0499" ry="32.2157" transform="rotate(1.05609 815.385 292.547)" fill="#CAA9D1"/>
<ellipse cx="858.834" cy="299.635" rx="29.0499" ry="32.2157" transform="rotate(1.05609 858.834 299.635)" fill="#CAA9D1"/>
<ellipse cx="962.756" cy="257.541" rx="29.0499" ry="32.2157" transform="rotate(1.05609 962.756 257.541)" fill="#CAA9D1"/>
<ellipse cx="469.342" cy="308.173" rx="29.0499" ry="32.2157" transform="rotate(1.05609 469.342 308.173)" fill="#CAA9D1"/>
<ellipse cx="501.584" cy="293.05" rx="29.0499" ry="32.2157" transform="rotate(1.05609 501.584 293.05)" fill="#CAA9D1"/>
<ellipse cx="1052.71" cy="255.746" rx="57.3735" ry="62.8599" transform="rotate(1.05609 1052.71 255.746)" fill="#CAA9D1"/>
<ellipse cx="1264.8" cy="256.512" rx="57.3735" ry="62.8599" transform="rotate(1.05609 1264.8 256.512)" fill="#CAA9D1"/>
<ellipse cx="1424.2" cy="278.312" rx="57.3735" ry="62.8599" transform="rotate(1.05609 1424.2 278.312)" fill="#CAA9D1"/>
<ellipse cx="1359.62" cy="234.684" rx="42.8486" ry="47.1449" transform="rotate(1.05609 1359.62 234.684)" fill="#CAA9D1"/>
<ellipse cx="1124.89" cy="280.653" rx="42.8486" ry="47.1449" transform="rotate(1.05609 1124.89 280.653)" fill="#CAA9D1"/>
<ellipse cx="1193.43" cy="266.199" rx="42.8486" ry="47.1449" transform="rotate(1.05609 1193.43 266.199)" fill="#CAA9D1"/>
<ellipse cx="974.433" cy="246.445" rx="42.8486" ry="47.1449" transform="rotate(1.05609 974.433 246.445)" fill="#CAA9D1"/>
<ellipse cx="1316.77" cy="234.68" rx="29.0499" ry="32.2157" transform="rotate(1.05609 1316.77 234.68)" fill="#CAA9D1"/>
<ellipse cx="1324.38" cy="294.547" rx="29.0499" ry="32.2157" transform="rotate(1.05609 1324.38 294.547)" fill="#CAA9D1"/>
<ellipse cx="1367.83" cy="301.635" rx="29.0499" ry="32.2157" transform="rotate(1.05609 1367.83 301.635)" fill="#CAA9D1"/>
<ellipse cx="978.342" cy="310.173" rx="29.0499" ry="32.2157" transform="rotate(1.05609 978.342 310.173)" fill="#CAA9D1"/>
<ellipse cx="1010.58" cy="295.05" rx="29.0499" ry="32.2157" transform="rotate(1.05609 1010.58 295.05)" fill="#CAA9D1"/>
</g>
<defs>
<filter id="filter0_d_1547_18705" x="-57.2422" y="185.54" width="1562.05" height="170.848" filterUnits="userSpaceOnUse" color-interpolation-filters="sRGB">
<feFlood flood-opacity="0" result="BackgroundImageFix"/>
<feColorMatrix in="SourceAlpha" type="matrix" values="0 0 0 0 0 0 0 0 0 0 0 0 0 0 0 0 0 0 127 0" result="hardAlpha"/>
<feOffset dy="4"/>
<feGaussianBlur stdDeviation="2"/>
<feComposite in2="hardAlpha" operator="out"/>
<feColorMatrix type="matrix" values="0 0 0 0 0.442879 0 0 0 0 0.257879 0 0 0 0 0.482121 0 0 0 0.4 0"/>
<feBlend mode="normal" in2="BackgroundImageFix" result="effect1_dropShadow_1547_18705"/>
<feBlend mode="normal" in="SourceGraphic" in2="effect1_dropShadow_1547_18705" result="shape"/>
</filter>
</defs>
</svg>
