<svg width="1440" height="370" viewBox="0 0 1440 370" fill="none" xmlns="http://www.w3.org/2000/svg">
<ellipse cx="123.169" cy="102.414" rx="33.8741" ry="34.8022" fill="#ECCFF2"/>
<ellipse cx="79.5495" cy="63.8994" rx="44.0827" ry="45.4748" fill="#ECCFF2"/>
<ellipse cx="187.206" cy="84.3166" rx="44.0827" ry="45.4748" fill="#ECCFF2"/>
<ellipse cx="21.0827" cy="94.5253" rx="44.0827" ry="45.4748" fill="#ECCFF2"/>
<ellipse cx="300.583" cy="76.7101" rx="44.0827" ry="45.4748" fill="#ECCFF2"/>
<ellipse cx="448.919" cy="56.4748" rx="44.0827" ry="45.4748" fill="#ECCFF2"/>
<ellipse cx="238.249" cy="94.9892" rx="33.8741" ry="34.8022" fill="#ECCFF2"/>
<ellipse cx="342.19" cy="102.414" rx="33.8741" ry="34.8022" fill="#ECCFF2"/>
<ellipse cx="392.308" cy="83.8526" rx="33.8741" ry="34.8022" fill="#ECCFF2"/>
<ellipse cx="406.692" cy="49.5144" rx="19.4892" ry="19.9532" fill="#ECCFF2"/>
<ellipse cx="-3.51079" cy="64.3633" rx="19.4892" ry="19.9532" fill="#ECCFF2"/>
<ellipse cx="615.171" cy="101.414" rx="33.8741" ry="34.8022" fill="#ECCFF2"/>
<ellipse cx="571.552" cy="62.8994" rx="44.0827" ry="45.4748" fill="#ECCFF2"/>
<ellipse cx="679.204" cy="83.3166" rx="44.0827" ry="45.4748" fill="#ECCFF2"/>
<ellipse cx="513.083" cy="93.5253" rx="44.0827" ry="45.4748" fill="#ECCFF2"/>
<ellipse cx="792.583" cy="75.7101" rx="44.0827" ry="45.4748" fill="#ECCFF2"/>
<ellipse cx="940.919" cy="55.4748" rx="44.0827" ry="45.4748" fill="#ECCFF2"/>
<ellipse cx="730.249" cy="93.9892" rx="33.8741" ry="34.8022" fill="#ECCFF2"/>
<ellipse cx="834.19" cy="101.414" rx="33.8741" ry="34.8022" fill="#ECCFF2"/>
<ellipse cx="884.308" cy="82.8526" rx="33.8741" ry="34.8022" fill="#ECCFF2"/>
<ellipse cx="898.692" cy="48.5144" rx="19.4892" ry="19.9532" fill="#ECCFF2"/>
<ellipse cx="488.489" cy="63.3633" rx="19.4892" ry="19.9532" fill="#ECCFF2"/>
<ellipse cx="1112.38" cy="96.4162" rx="33.8741" ry="34.8022" transform="rotate(1.98268 1112.38 96.4162)" fill="#ECCFF2"/>
<ellipse cx="1070.12" cy="56.4157" rx="44.0827" ry="45.4748" transform="rotate(1.98268 1070.12 56.4157)" fill="#ECCFF2"/>
<ellipse cx="1177" cy="80.5452" rx="44.0827" ry="45.4748" transform="rotate(1.98268 1177 80.5452)" fill="#ECCFF2"/>
<ellipse cx="1010.63" cy="85.0005" rx="44.0827" ry="45.4748" transform="rotate(1.98268 1010.63 85.0005)" fill="#ECCFF2"/>
<ellipse cx="1290.58" cy="76.8659" rx="44.0827" ry="45.4748" transform="rotate(1.98268 1290.58 76.8659)" fill="#ECCFF2"/>
<ellipse cx="1439.52" cy="61.7747" rx="44.0827" ry="45.4748" transform="rotate(1.98268 1439.52 61.7747)" fill="#ECCFF2"/>
<ellipse cx="1227.65" cy="92.9774" rx="33.8741" ry="34.8022" transform="rotate(1.98268 1227.65 92.9774)" fill="#ECCFF2"/>
<ellipse cx="1331.27" cy="103.994" rx="33.8741" ry="34.8022" transform="rotate(1.98268 1331.27 103.994)" fill="#ECCFF2"/>
<ellipse cx="1382" cy="87.1775" rx="33.8741" ry="34.8022" transform="rotate(1.98268 1382 87.1775)" fill="#ECCFF2"/>
<ellipse cx="1397.56" cy="53.3573" rx="19.4892" ry="19.9532" transform="rotate(1.98268 1397.56 53.3573)" fill="#ECCFF2"/>
<ellipse cx="987.092" cy="54.0056" rx="19.4892" ry="19.9532" transform="rotate(1.98268 987.092 54.0056)" fill="#ECCFF2"/>
<ellipse cx="2" cy="123" rx="50" ry="49" fill="#FFFEEE"/>
<ellipse cx="151" cy="119" rx="50" ry="49" fill="#FFFEEE"/>
<ellipse cx="62.5" cy="116" rx="25.5" ry="25" fill="#FFFEEE"/>
<ellipse cx="197.5" cy="117" rx="25.5" ry="25" fill="#FFFEEE"/>
<ellipse cx="273.5" cy="113" rx="25.5" ry="25" fill="#FFFEEE"/>
<ellipse cx="302.5" cy="115" rx="15.5" ry="15" fill="#FFFEEE"/>
<ellipse cx="237.5" cy="111" rx="36.5" ry="37" fill="#FFFEEE"/>
<ellipse cx="350.5" cy="100.5" rx="44.5" ry="46.5" fill="#FFFEEE"/>
<ellipse cx="101" cy="142" rx="35" ry="36" fill="#FFFEEE"/>
<ellipse cx="412" cy="118" rx="50" ry="49" fill="#FFFEEE"/>
<ellipse cx="561" cy="114" rx="50" ry="49" fill="#FFFEEE"/>
<ellipse cx="472.5" cy="111" rx="25.5" ry="25" fill="#FFFEEE"/>
<ellipse cx="607.5" cy="112" rx="25.5" ry="25" fill="#FFFEEE"/>
<ellipse cx="683.5" cy="108" rx="25.5" ry="25" fill="#FFFEEE"/>
<ellipse cx="712.5" cy="110" rx="15.5" ry="15" fill="#FFFEEE"/>
<ellipse cx="647.5" cy="106" rx="36.5" ry="37" fill="#FFFEEE"/>
<ellipse cx="760.5" cy="95.5" rx="44.5" ry="46.5" fill="#FFFEEE"/>
<ellipse cx="511" cy="137" rx="35" ry="36" fill="#FFFEEE"/>
<ellipse cx="784" cy="120" rx="50" ry="49" fill="#FFFEEE"/>
<ellipse cx="933" cy="116" rx="50" ry="49" fill="#FFFEEE"/>
<ellipse cx="844.5" cy="113" rx="25.5" ry="25" fill="#FFFEEE"/>
<ellipse cx="979.5" cy="114" rx="25.5" ry="25" fill="#FFFEEE"/>
<ellipse cx="1055.5" cy="110" rx="25.5" ry="25" fill="#FFFEEE"/>
<ellipse cx="1084.5" cy="112" rx="15.5" ry="15" fill="#FFFEEE"/>
<ellipse cx="1019.5" cy="108" rx="36.5" ry="37" fill="#FFFEEE"/>
<ellipse cx="1132.5" cy="97.5" rx="44.5" ry="46.5" fill="#FFFEEE"/>
<ellipse cx="883" cy="139" rx="35" ry="36" fill="#FFFEEE"/>
<ellipse cx="1138" cy="113" rx="50" ry="49" fill="#FFFEEE"/>
<ellipse cx="1287" cy="109" rx="50" ry="49" fill="#FFFEEE"/>
<ellipse cx="1198.5" cy="106" rx="25.5" ry="25" fill="#FFFEEE"/>
<ellipse cx="1333.5" cy="107" rx="25.5" ry="25" fill="#FFFEEE"/>
<ellipse cx="1409.5" cy="103" rx="25.5" ry="25" fill="#FFFEEE"/>
<ellipse cx="1438.5" cy="105" rx="15.5" ry="15" fill="#FFFEEE"/>
<ellipse cx="1373.5" cy="101" rx="36.5" ry="37" fill="#FFFEEE"/>
<ellipse cx="1237" cy="132" rx="35" ry="36" fill="#FFFEEE"/>
<ellipse cx="70.8829" cy="163.083" rx="57.3735" ry="62.8599" transform="rotate(1.05609 70.8829 163.083)" fill="#E8AB80"/>
<ellipse cx="282.969" cy="163.849" rx="57.3735" ry="62.8599" transform="rotate(1.05609 282.969 163.849)" fill="#E8AB80"/>
<ellipse cx="442.369" cy="185.649" rx="57.3735" ry="62.8599" transform="rotate(1.05609 442.369 185.649)" fill="#E8AB80"/>
<ellipse cx="377.801" cy="142.021" rx="42.8486" ry="47.1449" transform="rotate(1.05609 377.801 142.021)" fill="#E8AB80"/>
<ellipse cx="143.062" cy="187.99" rx="42.8486" ry="47.1449" transform="rotate(1.05609 143.062 187.99)" fill="#E8AB80"/>
<ellipse cx="211.607" cy="173.537" rx="42.8486" ry="47.1449" transform="rotate(1.05609 211.607 173.537)" fill="#E8AB80"/>
<ellipse cx="-7.39286" cy="153.782" rx="42.8486" ry="47.1449" transform="rotate(1.05609 -7.39286 153.782)" fill="#E8AB80"/>
<ellipse cx="334.943" cy="142.017" rx="29.0499" ry="32.2157" transform="rotate(1.05609 334.943 142.017)" fill="#E8AB80"/>
<ellipse cx="342.557" cy="201.884" rx="29.0499" ry="32.2157" transform="rotate(1.05609 342.557 201.884)" fill="#E8AB80"/>
<ellipse cx="386.01" cy="208.973" rx="29.0499" ry="32.2157" transform="rotate(1.05609 386.01 208.973)" fill="#E8AB80"/>
<ellipse cx="489.928" cy="166.879" rx="29.0499" ry="32.2157" transform="rotate(1.05609 489.928 166.879)" fill="#E8AB80"/>
<ellipse cx="-3.48241" cy="217.51" rx="29.0499" ry="32.2157" transform="rotate(1.05609 -3.48241 217.51)" fill="#E8AB80"/>
<ellipse cx="28.7559" cy="202.387" rx="29.0499" ry="32.2157" transform="rotate(1.05609 28.7559 202.387)" fill="#E8AB80"/>
<ellipse cx="546.709" cy="155.083" rx="57.3735" ry="62.8599" transform="rotate(1.05609 546.709 155.083)" fill="#E8AB80"/>
<ellipse cx="758.795" cy="155.849" rx="57.3735" ry="62.8599" transform="rotate(1.05609 758.795 155.849)" fill="#E8AB80"/>
<ellipse cx="918.197" cy="177.649" rx="57.3735" ry="62.8599" transform="rotate(1.05609 918.197 177.649)" fill="#E8AB80"/>
<ellipse cx="853.625" cy="134.021" rx="42.8486" ry="47.1449" transform="rotate(1.05609 853.625 134.021)" fill="#E8AB80"/>
<ellipse cx="618.886" cy="179.99" rx="42.8486" ry="47.1449" transform="rotate(1.05609 618.886 179.99)" fill="#E8AB80"/>
<ellipse cx="687.433" cy="165.536" rx="42.8486" ry="47.1449" transform="rotate(1.05609 687.433 165.536)" fill="#E8AB80"/>
<ellipse cx="468.433" cy="145.782" rx="42.8486" ry="47.1449" transform="rotate(1.05609 468.433 145.782)" fill="#E8AB80"/>
<ellipse cx="810.771" cy="134.017" rx="29.0499" ry="32.2157" transform="rotate(1.05609 810.771 134.017)" fill="#E8AB80"/>
<ellipse cx="818.385" cy="193.884" rx="29.0499" ry="32.2157" transform="rotate(1.05609 818.385 193.884)" fill="#E8AB80"/>
<ellipse cx="861.834" cy="200.973" rx="29.0499" ry="32.2157" transform="rotate(1.05609 861.834 200.973)" fill="#E8AB80"/>
<ellipse cx="965.756" cy="158.879" rx="29.0499" ry="32.2157" transform="rotate(1.05609 965.756 158.879)" fill="#E8AB80"/>
<ellipse cx="472.342" cy="209.51" rx="29.0499" ry="32.2157" transform="rotate(1.05609 472.342 209.51)" fill="#E8AB80"/>
<ellipse cx="504.584" cy="194.387" rx="29.0499" ry="32.2157" transform="rotate(1.05609 504.584 194.387)" fill="#E8AB80"/>
<ellipse cx="1055.71" cy="157.083" rx="57.3735" ry="62.8599" transform="rotate(1.05609 1055.71 157.083)" fill="#E8AB80"/>
<ellipse cx="1267.8" cy="157.849" rx="57.3735" ry="62.8599" transform="rotate(1.05609 1267.8 157.849)" fill="#E8AB80"/>
<ellipse cx="1427.2" cy="179.649" rx="57.3735" ry="62.8599" transform="rotate(1.05609 1427.2 179.649)" fill="#E8AB80"/>
<ellipse cx="1362.62" cy="136.021" rx="42.8486" ry="47.1449" transform="rotate(1.05609 1362.62 136.021)" fill="#E8AB80"/>
<ellipse cx="1127.89" cy="181.99" rx="42.8486" ry="47.1449" transform="rotate(1.05609 1127.89 181.99)" fill="#E8AB80"/>
<ellipse cx="1196.43" cy="167.536" rx="42.8486" ry="47.1449" transform="rotate(1.05609 1196.43 167.536)" fill="#E8AB80"/>
<ellipse cx="977.433" cy="147.782" rx="42.8486" ry="47.1449" transform="rotate(1.05609 977.433 147.782)" fill="#E8AB80"/>
<ellipse cx="1319.77" cy="136.017" rx="29.0499" ry="32.2157" transform="rotate(1.05609 1319.77 136.017)" fill="#E8AB80"/>
<ellipse cx="1327.38" cy="195.884" rx="29.0499" ry="32.2157" transform="rotate(1.05609 1327.38 195.884)" fill="#E8AB80"/>
<ellipse cx="1370.83" cy="202.973" rx="29.0499" ry="32.2157" transform="rotate(1.05609 1370.83 202.973)" fill="#E8AB80"/>
<ellipse cx="981.342" cy="211.51" rx="29.0499" ry="32.2157" transform="rotate(1.05609 981.342 211.51)" fill="#E8AB80"/>
<ellipse cx="1013.58" cy="196.387" rx="29.0499" ry="32.2157" transform="rotate(1.05609 1013.58 196.387)" fill="#E8AB80"/>
<ellipse cx="70.8829" cy="218.415" rx="57.3735" ry="62.8599" transform="rotate(1.05609 70.8829 218.415)" fill="#D68B56"/>
<ellipse cx="282.969" cy="219.181" rx="57.3735" ry="62.8599" transform="rotate(1.05609 282.969 219.181)" fill="#D68B56"/>
<ellipse cx="442.369" cy="240.98" rx="57.3735" ry="62.8599" transform="rotate(1.05609 442.369 240.98)" fill="#D68B56"/>
<ellipse cx="377.801" cy="197.352" rx="42.8486" ry="47.1449" transform="rotate(1.05609 377.801 197.352)" fill="#D68B56"/>
<ellipse cx="143.062" cy="243.322" rx="42.8486" ry="47.1449" transform="rotate(1.05609 143.062 243.322)" fill="#D68B56"/>
<ellipse cx="211.607" cy="228.867" rx="42.8486" ry="47.1449" transform="rotate(1.05609 211.607 228.867)" fill="#D68B56"/>
<ellipse cx="-7.39286" cy="209.113" rx="42.8486" ry="47.1449" transform="rotate(1.05609 -7.39286 209.113)" fill="#D68B56"/>
<ellipse cx="334.943" cy="197.348" rx="29.0499" ry="32.2157" transform="rotate(1.05609 334.943 197.348)" fill="#D68B56"/>
<ellipse cx="342.557" cy="257.215" rx="29.0499" ry="32.2157" transform="rotate(1.05609 342.557 257.215)" fill="#D68B56"/>
<ellipse cx="386.01" cy="264.304" rx="29.0499" ry="32.2157" transform="rotate(1.05609 386.01 264.304)" fill="#D68B56"/>
<ellipse cx="489.928" cy="222.21" rx="29.0499" ry="32.2157" transform="rotate(1.05609 489.928 222.21)" fill="#D68B56"/>
<ellipse cx="-3.48241" cy="272.842" rx="29.0499" ry="32.2157" transform="rotate(1.05609 -3.48241 272.842)" fill="#D68B56"/>
<ellipse cx="28.7559" cy="257.719" rx="29.0499" ry="32.2157" transform="rotate(1.05609 28.7559 257.719)" fill="#D68B56"/>
<ellipse cx="546.709" cy="210.415" rx="57.3735" ry="62.8599" transform="rotate(1.05609 546.709 210.415)" fill="#D68B56"/>
<ellipse cx="758.795" cy="211.181" rx="57.3735" ry="62.8599" transform="rotate(1.05609 758.795 211.181)" fill="#D68B56"/>
<ellipse cx="918.197" cy="232.98" rx="57.3735" ry="62.8599" transform="rotate(1.05609 918.197 232.98)" fill="#D68B56"/>
<ellipse cx="853.625" cy="189.352" rx="42.8486" ry="47.1449" transform="rotate(1.05609 853.625 189.352)" fill="#D68B56"/>
<ellipse cx="618.886" cy="235.322" rx="42.8486" ry="47.1449" transform="rotate(1.05609 618.886 235.322)" fill="#D68B56"/>
<ellipse cx="687.433" cy="220.867" rx="42.8486" ry="47.1449" transform="rotate(1.05609 687.433 220.867)" fill="#D68B56"/>
<ellipse cx="468.433" cy="201.113" rx="42.8486" ry="47.1449" transform="rotate(1.05609 468.433 201.113)" fill="#D68B56"/>
<ellipse cx="810.771" cy="189.348" rx="29.0499" ry="32.2157" transform="rotate(1.05609 810.771 189.348)" fill="#D68B56"/>
<ellipse cx="818.385" cy="249.215" rx="29.0499" ry="32.2157" transform="rotate(1.05609 818.385 249.215)" fill="#D68B56"/>
<ellipse cx="861.834" cy="256.304" rx="29.0499" ry="32.2157" transform="rotate(1.05609 861.834 256.304)" fill="#D68B56"/>
<ellipse cx="965.756" cy="214.21" rx="29.0499" ry="32.2157" transform="rotate(1.05609 965.756 214.21)" fill="#D68B56"/>
<ellipse cx="472.342" cy="264.842" rx="29.0499" ry="32.2157" transform="rotate(1.05609 472.342 264.842)" fill="#D68B56"/>
<ellipse cx="504.584" cy="249.719" rx="29.0499" ry="32.2157" transform="rotate(1.05609 504.584 249.719)" fill="#D68B56"/>
<ellipse cx="1055.71" cy="212.415" rx="57.3735" ry="62.8599" transform="rotate(1.05609 1055.71 212.415)" fill="#D68B56"/>
<ellipse cx="1267.8" cy="213.181" rx="57.3735" ry="62.8599" transform="rotate(1.05609 1267.8 213.181)" fill="#D68B56"/>
<ellipse cx="1427.2" cy="234.98" rx="57.3735" ry="62.8599" transform="rotate(1.05609 1427.2 234.98)" fill="#D68B56"/>
<ellipse cx="1362.62" cy="191.352" rx="42.8486" ry="47.1449" transform="rotate(1.05609 1362.62 191.352)" fill="#D68B56"/>
<ellipse cx="1127.89" cy="237.322" rx="42.8486" ry="47.1449" transform="rotate(1.05609 1127.89 237.322)" fill="#D68B56"/>
<ellipse cx="1196.43" cy="222.867" rx="42.8486" ry="47.1449" transform="rotate(1.05609 1196.43 222.867)" fill="#D68B56"/>
<ellipse cx="977.433" cy="203.113" rx="42.8486" ry="47.1449" transform="rotate(1.05609 977.433 203.113)" fill="#D68B56"/>
<ellipse cx="1319.77" cy="191.348" rx="29.0499" ry="32.2157" transform="rotate(1.05609 1319.77 191.348)" fill="#D68B56"/>
<ellipse cx="1327.38" cy="251.215" rx="29.0499" ry="32.2157" transform="rotate(1.05609 1327.38 251.215)" fill="#D68B56"/>
<ellipse cx="1370.83" cy="258.304" rx="29.0499" ry="32.2157" transform="rotate(1.05609 1370.83 258.304)" fill="#D68B56"/>
<ellipse cx="981.342" cy="266.842" rx="29.0499" ry="32.2157" transform="rotate(1.05609 981.342 266.842)" fill="#D68B56"/>
<ellipse cx="1013.58" cy="251.719" rx="29.0499" ry="32.2157" transform="rotate(1.05609 1013.58 251.719)" fill="#D68B56"/>
<g filter="url(#filter0_d_1546_18280)">
<ellipse cx="70.8829" cy="273.746" rx="57.3735" ry="62.8599" transform="rotate(1.05609 70.8829 273.746)" fill="#D68B56"/>
<ellipse cx="282.969" cy="274.512" rx="57.3735" ry="62.8599" transform="rotate(1.05609 282.969 274.512)" fill="#D68B56"/>
<ellipse cx="442.369" cy="296.312" rx="57.3735" ry="62.8599" transform="rotate(1.05609 442.369 296.312)" fill="#D68B56"/>
<ellipse cx="377.801" cy="252.684" rx="42.8486" ry="47.1449" transform="rotate(1.05609 377.801 252.684)" fill="#D68B56"/>
<ellipse cx="143.062" cy="298.653" rx="42.8486" ry="47.1449" transform="rotate(1.05609 143.062 298.653)" fill="#D68B56"/>
<ellipse cx="211.607" cy="284.199" rx="42.8486" ry="47.1449" transform="rotate(1.05609 211.607 284.199)" fill="#D68B56"/>
<ellipse cx="-7.39286" cy="264.445" rx="42.8486" ry="47.1449" transform="rotate(1.05609 -7.39286 264.445)" fill="#D68B56"/>
<ellipse cx="334.943" cy="252.68" rx="29.0499" ry="32.2157" transform="rotate(1.05609 334.943 252.68)" fill="#D68B56"/>
<ellipse cx="342.557" cy="312.547" rx="29.0499" ry="32.2157" transform="rotate(1.05609 342.557 312.547)" fill="#D68B56"/>
<ellipse cx="386.01" cy="319.635" rx="29.0499" ry="32.2157" transform="rotate(1.05609 386.01 319.635)" fill="#D68B56"/>
<ellipse cx="489.928" cy="277.541" rx="29.0499" ry="32.2157" transform="rotate(1.05609 489.928 277.541)" fill="#D68B56"/>
<ellipse cx="-3.48241" cy="328.173" rx="29.0499" ry="32.2157" transform="rotate(1.05609 -3.48241 328.173)" fill="#D68B56"/>
<ellipse cx="28.7559" cy="313.05" rx="29.0499" ry="32.2157" transform="rotate(1.05609 28.7559 313.05)" fill="#D68B56"/>
<ellipse cx="546.709" cy="265.746" rx="57.3735" ry="62.8599" transform="rotate(1.05609 546.709 265.746)" fill="#D68B56"/>
<ellipse cx="758.795" cy="266.512" rx="57.3735" ry="62.8599" transform="rotate(1.05609 758.795 266.512)" fill="#D68B56"/>
<ellipse cx="918.197" cy="288.312" rx="57.3735" ry="62.8599" transform="rotate(1.05609 918.197 288.312)" fill="#D68B56"/>
<ellipse cx="853.625" cy="244.684" rx="42.8486" ry="47.1449" transform="rotate(1.05609 853.625 244.684)" fill="#D68B56"/>
<ellipse cx="618.886" cy="290.653" rx="42.8486" ry="47.1449" transform="rotate(1.05609 618.886 290.653)" fill="#D68B56"/>
<ellipse cx="687.433" cy="276.199" rx="42.8486" ry="47.1449" transform="rotate(1.05609 687.433 276.199)" fill="#D68B56"/>
<ellipse cx="468.433" cy="256.445" rx="42.8486" ry="47.1449" transform="rotate(1.05609 468.433 256.445)" fill="#D68B56"/>
<ellipse cx="810.771" cy="244.68" rx="29.0499" ry="32.2157" transform="rotate(1.05609 810.771 244.68)" fill="#D68B56"/>
<ellipse cx="818.385" cy="304.547" rx="29.0499" ry="32.2157" transform="rotate(1.05609 818.385 304.547)" fill="#D68B56"/>
<ellipse cx="861.834" cy="311.635" rx="29.0499" ry="32.2157" transform="rotate(1.05609 861.834 311.635)" fill="#D68B56"/>
<ellipse cx="965.756" cy="269.541" rx="29.0499" ry="32.2157" transform="rotate(1.05609 965.756 269.541)" fill="#D68B56"/>
<ellipse cx="472.342" cy="320.173" rx="29.0499" ry="32.2157" transform="rotate(1.05609 472.342 320.173)" fill="#D68B56"/>
<ellipse cx="504.584" cy="305.05" rx="29.0499" ry="32.2157" transform="rotate(1.05609 504.584 305.05)" fill="#D68B56"/>
<ellipse cx="1055.71" cy="267.746" rx="57.3735" ry="62.8599" transform="rotate(1.05609 1055.71 267.746)" fill="#D68B56"/>
<ellipse cx="1267.8" cy="268.512" rx="57.3735" ry="62.8599" transform="rotate(1.05609 1267.8 268.512)" fill="#D68B56"/>
<ellipse cx="1427.2" cy="290.312" rx="57.3735" ry="62.8599" transform="rotate(1.05609 1427.2 290.312)" fill="#D68B56"/>
<ellipse cx="1362.62" cy="246.684" rx="42.8486" ry="47.1449" transform="rotate(1.05609 1362.62 246.684)" fill="#D68B56"/>
<ellipse cx="1127.89" cy="292.653" rx="42.8486" ry="47.1449" transform="rotate(1.05609 1127.89 292.653)" fill="#D68B56"/>
<ellipse cx="1196.43" cy="278.199" rx="42.8486" ry="47.1449" transform="rotate(1.05609 1196.43 278.199)" fill="#D68B56"/>
<ellipse cx="977.433" cy="258.445" rx="42.8486" ry="47.1449" transform="rotate(1.05609 977.433 258.445)" fill="#D68B56"/>
<ellipse cx="1319.77" cy="246.68" rx="29.0499" ry="32.2157" transform="rotate(1.05609 1319.77 246.68)" fill="#D68B56"/>
<ellipse cx="1327.38" cy="306.547" rx="29.0499" ry="32.2157" transform="rotate(1.05609 1327.38 306.547)" fill="#D68B56"/>
<ellipse cx="1370.83" cy="313.635" rx="29.0499" ry="32.2157" transform="rotate(1.05609 1370.83 313.635)" fill="#D68B56"/>
<ellipse cx="981.342" cy="322.173" rx="29.0499" ry="32.2157" transform="rotate(1.05609 981.342 322.173)" fill="#D68B56"/>
<ellipse cx="1013.58" cy="307.05" rx="29.0499" ry="32.2157" transform="rotate(1.05609 1013.58 307.05)" fill="#D68B56"/>
</g>
<defs>
<filter id="filter0_d_1546_18280" x="-54.2422" y="197.54" width="1562.05" height="170.848" filterUnits="userSpaceOnUse" color-interpolation-filters="sRGB">
<feFlood flood-opacity="0" result="BackgroundImageFix"/>
<feColorMatrix in="SourceAlpha" type="matrix" values="0 0 0 0 0 0 0 0 0 0 0 0 0 0 0 0 0 0 127 0" result="hardAlpha"/>
<feOffset dy="4"/>
<feGaussianBlur stdDeviation="2"/>
<feComposite in2="hardAlpha" operator="out"/>
<feColorMatrix type="matrix" values="0 0 0 0 0.321905 0 0 0 0 0.179048 0 0 0 0 0.0780952 0 0 0 0.4 0"/>
<feBlend mode="normal" in2="BackgroundImageFix" result="effect1_dropShadow_1546_18280"/>
<feBlend mode="normal" in="SourceGraphic" in2="effect1_dropShadow_1546_18280" result="shape"/>
</filter>
</defs>
</svg>
