<svg width="1440" height="363" viewBox="0 0 1440 363" fill="none" xmlns="http://www.w3.org/2000/svg">
<ellipse cx="142.169" cy="102.414" rx="33.8741" ry="34.8022" fill="#FFCA42"/>
<ellipse cx="98.5495" cy="63.8996" rx="44.0827" ry="45.4748" fill="#FFCA42"/>
<ellipse cx="206.206" cy="84.3166" rx="44.0827" ry="45.4748" fill="#FFCA42"/>
<ellipse cx="40.0827" cy="94.5251" rx="44.0827" ry="45.4748" fill="#FFCA42"/>
<ellipse cx="319.583" cy="76.7102" rx="44.0827" ry="45.4748" fill="#FFCA42"/>
<ellipse cx="467.917" cy="56.4748" rx="44.0827" ry="45.4748" fill="#FFCA42"/>
<ellipse cx="257.249" cy="94.9892" rx="33.8741" ry="34.8022" fill="#FFCA42"/>
<ellipse cx="361.19" cy="102.414" rx="33.8741" ry="34.8022" fill="#FFCA42"/>
<ellipse cx="411.306" cy="83.8524" rx="33.8741" ry="34.8022" fill="#FFCA42"/>
<ellipse cx="425.69" cy="49.5143" rx="19.4892" ry="19.9532" fill="#FFCA42"/>
<ellipse cx="15.4892" cy="64.3634" rx="19.4892" ry="19.9532" fill="#FFCA42"/>
<ellipse cx="634.171" cy="101.414" rx="33.8741" ry="34.8022" fill="#FFCA42"/>
<ellipse cx="590.552" cy="62.8996" rx="44.0827" ry="45.4748" fill="#FFCA42"/>
<ellipse cx="698.204" cy="83.3166" rx="44.0827" ry="45.4748" fill="#FFCA42"/>
<ellipse cx="532.083" cy="93.5251" rx="44.0827" ry="45.4748" fill="#FFCA42"/>
<ellipse cx="811.583" cy="75.7102" rx="44.0827" ry="45.4748" fill="#FFCA42"/>
<ellipse cx="959.919" cy="55.4748" rx="44.0827" ry="45.4748" fill="#FFCA42"/>
<ellipse cx="749.249" cy="93.9892" rx="33.8741" ry="34.8022" fill="#FFCA42"/>
<ellipse cx="853.19" cy="101.414" rx="33.8741" ry="34.8022" fill="#FFCA42"/>
<ellipse cx="903.308" cy="82.8524" rx="33.8741" ry="34.8022" fill="#FFCA42"/>
<ellipse cx="917.692" cy="48.5143" rx="19.4892" ry="19.9532" fill="#FFCA42"/>
<ellipse cx="507.489" cy="63.3634" rx="19.4892" ry="19.9532" fill="#FFCA42"/>
<ellipse cx="1131.38" cy="96.4162" rx="33.8741" ry="34.8022" transform="rotate(1.98268 1131.38 96.4162)" fill="#FFCA42"/>
<ellipse cx="1089.12" cy="56.4156" rx="44.0827" ry="45.4748" transform="rotate(1.98268 1089.12 56.4156)" fill="#FFCA42"/>
<ellipse cx="1196" cy="80.545" rx="44.0827" ry="45.4748" transform="rotate(1.98268 1196 80.545)" fill="#FFCA42"/>
<ellipse cx="1029.63" cy="85.0006" rx="44.0827" ry="45.4748" transform="rotate(1.98268 1029.63 85.0006)" fill="#FFCA42"/>
<ellipse cx="1309.58" cy="76.8658" rx="44.0827" ry="45.4748" transform="rotate(1.98268 1309.58 76.8658)" fill="#FFCA42"/>
<ellipse cx="1458.52" cy="61.7745" rx="44.0827" ry="45.4748" transform="rotate(1.98268 1458.52 61.7745)" fill="#FFCA42"/>
<ellipse cx="1246.65" cy="92.9772" rx="33.8741" ry="34.8022" transform="rotate(1.98268 1246.65 92.9772)" fill="#FFCA42"/>
<ellipse cx="1350.27" cy="103.994" rx="33.8741" ry="34.8022" transform="rotate(1.98268 1350.27 103.994)" fill="#FFCA42"/>
<ellipse cx="1401" cy="87.1774" rx="33.8741" ry="34.8022" transform="rotate(1.98268 1401 87.1774)" fill="#FFCA42"/>
<ellipse cx="1416.56" cy="53.3573" rx="19.4892" ry="19.9532" transform="rotate(1.98268 1416.56 53.3573)" fill="#FFCA42"/>
<ellipse cx="1006.09" cy="54.0057" rx="19.4892" ry="19.9532" transform="rotate(1.98268 1006.09 54.0057)" fill="#FFCA42"/>
<ellipse cx="21" cy="123" rx="50" ry="49" fill="#FFFEEE"/>
<ellipse cx="170" cy="119" rx="50" ry="49" fill="#FFFEEE"/>
<ellipse cx="81.5" cy="116" rx="25.5" ry="25" fill="#FFFEEE"/>
<ellipse cx="216.5" cy="117" rx="25.5" ry="25" fill="#FFFEEE"/>
<ellipse cx="292.5" cy="113" rx="25.5" ry="25" fill="#FFFEEE"/>
<ellipse cx="321.5" cy="115" rx="15.5" ry="15" fill="#FFFEEE"/>
<ellipse cx="256.5" cy="111" rx="36.5" ry="37" fill="#FFFEEE"/>
<ellipse cx="369.5" cy="100.5" rx="44.5" ry="46.5" fill="#FFFEEE"/>
<ellipse cx="120" cy="142" rx="35" ry="36" fill="#FFFEEE"/>
<ellipse cx="431" cy="118" rx="50" ry="49" fill="#FFFEEE"/>
<ellipse cx="580" cy="114" rx="50" ry="49" fill="#FFFEEE"/>
<ellipse cx="491.5" cy="111" rx="25.5" ry="25" fill="#FFFEEE"/>
<ellipse cx="626.5" cy="112" rx="25.5" ry="25" fill="#FFFEEE"/>
<ellipse cx="702.5" cy="108" rx="25.5" ry="25" fill="#FFFEEE"/>
<ellipse cx="731.5" cy="110" rx="15.5" ry="15" fill="#FFFEEE"/>
<ellipse cx="666.5" cy="106" rx="36.5" ry="37" fill="#FFFEEE"/>
<ellipse cx="779.5" cy="95.5" rx="44.5" ry="46.5" fill="#FFFEEE"/>
<ellipse cx="530" cy="137" rx="35" ry="36" fill="#FFFEEE"/>
<ellipse cx="803" cy="120" rx="50" ry="49" fill="#FFFEEE"/>
<ellipse cx="952" cy="116" rx="50" ry="49" fill="#FFFEEE"/>
<ellipse cx="863.5" cy="113" rx="25.5" ry="25" fill="#FFFEEE"/>
<ellipse cx="998.5" cy="114" rx="25.5" ry="25" fill="#FFFEEE"/>
<ellipse cx="1074.5" cy="110" rx="25.5" ry="25" fill="#FFFEEE"/>
<ellipse cx="1103.5" cy="112" rx="15.5" ry="15" fill="#FFFEEE"/>
<ellipse cx="1038.5" cy="108" rx="36.5" ry="37" fill="#FFFEEE"/>
<ellipse cx="1151.5" cy="97.5" rx="44.5" ry="46.5" fill="#FFFEEE"/>
<ellipse cx="902" cy="139" rx="35" ry="36" fill="#FFFEEE"/>
<ellipse cx="1157" cy="113" rx="50" ry="49" fill="#FFFEEE"/>
<ellipse cx="1306" cy="109" rx="50" ry="49" fill="#FFFEEE"/>
<ellipse cx="1217.5" cy="106" rx="25.5" ry="25" fill="#FFFEEE"/>
<ellipse cx="1352.5" cy="107" rx="25.5" ry="25" fill="#FFFEEE"/>
<ellipse cx="1428.5" cy="103" rx="25.5" ry="25" fill="#FFFEEE"/>
<ellipse cx="1392.5" cy="101" rx="36.5" ry="37" fill="#FFFEEE"/>
<ellipse cx="1256" cy="132" rx="35" ry="36" fill="#FFFEEE"/>
<ellipse cx="100.967" cy="156.083" rx="57.3735" ry="62.8599" transform="rotate(1.05609 100.967 156.083)" fill="#79AD91"/>
<ellipse cx="313.053" cy="156.85" rx="57.3735" ry="62.8599" transform="rotate(1.05609 313.053 156.85)" fill="#79AD91"/>
<ellipse cx="472.453" cy="178.649" rx="57.3735" ry="62.8599" transform="rotate(1.05609 472.453 178.649)" fill="#79AD91"/>
<ellipse cx="407.884" cy="135.021" rx="42.8486" ry="47.1449" transform="rotate(1.05609 407.884 135.021)" fill="#79AD91"/>
<ellipse cx="173.146" cy="180.99" rx="42.8486" ry="47.1449" transform="rotate(1.05609 173.146 180.99)" fill="#79AD91"/>
<ellipse cx="241.691" cy="166.537" rx="42.8486" ry="47.1449" transform="rotate(1.05609 241.691 166.537)" fill="#79AD91"/>
<ellipse cx="22.6911" cy="146.782" rx="42.8486" ry="47.1449" transform="rotate(1.05609 22.6911 146.782)" fill="#79AD91"/>
<ellipse cx="365.029" cy="135.017" rx="29.0499" ry="32.2157" transform="rotate(1.05609 365.029 135.017)" fill="#79AD91"/>
<ellipse cx="372.641" cy="194.884" rx="29.0499" ry="32.2157" transform="rotate(1.05609 372.641 194.884)" fill="#79AD91"/>
<ellipse cx="416.094" cy="201.973" rx="29.0499" ry="32.2157" transform="rotate(1.05609 416.094 201.973)" fill="#79AD91"/>
<ellipse cx="520.014" cy="159.878" rx="29.0499" ry="32.2157" transform="rotate(1.05609 520.014 159.878)" fill="#79AD91"/>
<ellipse cx="26.6016" cy="210.51" rx="29.0499" ry="32.2157" transform="rotate(1.05609 26.6016 210.51)" fill="#79AD91"/>
<ellipse cx="58.8399" cy="195.387" rx="29.0499" ry="32.2157" transform="rotate(1.05609 58.8399 195.387)" fill="#79AD91"/>
<ellipse cx="576.795" cy="148.083" rx="57.3735" ry="62.8599" transform="rotate(1.05609 576.795 148.083)" fill="#79AD91"/>
<ellipse cx="788.881" cy="148.85" rx="57.3735" ry="62.8599" transform="rotate(1.05609 788.881 148.85)" fill="#79AD91"/>
<ellipse cx="948.283" cy="170.649" rx="57.3735" ry="62.8599" transform="rotate(1.05609 948.283 170.649)" fill="#79AD91"/>
<ellipse cx="883.711" cy="127.021" rx="42.8486" ry="47.1449" transform="rotate(1.05609 883.711 127.021)" fill="#79AD91"/>
<ellipse cx="648.972" cy="172.99" rx="42.8486" ry="47.1449" transform="rotate(1.05609 648.972 172.99)" fill="#79AD91"/>
<ellipse cx="717.519" cy="158.537" rx="42.8486" ry="47.1449" transform="rotate(1.05609 717.519 158.537)" fill="#79AD91"/>
<ellipse cx="498.519" cy="138.782" rx="42.8486" ry="47.1449" transform="rotate(1.05609 498.519 138.782)" fill="#79AD91"/>
<ellipse cx="840.857" cy="127.017" rx="29.0499" ry="32.2157" transform="rotate(1.05609 840.857 127.017)" fill="#79AD91"/>
<ellipse cx="848.471" cy="186.884" rx="29.0499" ry="32.2157" transform="rotate(1.05609 848.471 186.884)" fill="#79AD91"/>
<ellipse cx="891.92" cy="193.973" rx="29.0499" ry="32.2157" transform="rotate(1.05609 891.92 193.973)" fill="#79AD91"/>
<ellipse cx="995.842" cy="151.878" rx="29.0499" ry="32.2157" transform="rotate(1.05609 995.842 151.878)" fill="#79AD91"/>
<ellipse cx="502.428" cy="202.51" rx="29.0499" ry="32.2157" transform="rotate(1.05609 502.428 202.51)" fill="#79AD91"/>
<ellipse cx="534.67" cy="187.387" rx="29.0499" ry="32.2157" transform="rotate(1.05609 534.67 187.387)" fill="#79AD91"/>
<ellipse cx="1085.8" cy="150.083" rx="57.3735" ry="62.8599" transform="rotate(1.05609 1085.8 150.083)" fill="#79AD91"/>
<ellipse cx="1297.88" cy="150.85" rx="57.3735" ry="62.8599" transform="rotate(1.05609 1297.88 150.85)" fill="#79AD91"/>
<ellipse cx="1457.28" cy="172.649" rx="57.3735" ry="62.8599" transform="rotate(1.05609 1457.28 172.649)" fill="#79AD91"/>
<ellipse cx="1392.71" cy="129.021" rx="42.8486" ry="47.1449" transform="rotate(1.05609 1392.71 129.021)" fill="#79AD91"/>
<ellipse cx="1157.97" cy="174.99" rx="42.8486" ry="47.1449" transform="rotate(1.05609 1157.97 174.99)" fill="#79AD91"/>
<ellipse cx="1226.52" cy="160.537" rx="42.8486" ry="47.1449" transform="rotate(1.05609 1226.52 160.537)" fill="#79AD91"/>
<ellipse cx="1007.52" cy="140.782" rx="42.8486" ry="47.1449" transform="rotate(1.05609 1007.52 140.782)" fill="#79AD91"/>
<ellipse cx="1349.86" cy="129.017" rx="29.0499" ry="32.2157" transform="rotate(1.05609 1349.86 129.017)" fill="#79AD91"/>
<ellipse cx="1357.47" cy="188.884" rx="29.0499" ry="32.2157" transform="rotate(1.05609 1357.47 188.884)" fill="#79AD91"/>
<ellipse cx="1400.92" cy="195.973" rx="29.0499" ry="32.2157" transform="rotate(1.05609 1400.92 195.973)" fill="#79AD91"/>
<ellipse cx="1011.43" cy="204.51" rx="29.0499" ry="32.2157" transform="rotate(1.05609 1011.43 204.51)" fill="#79AD91"/>
<ellipse cx="1043.67" cy="189.387" rx="29.0499" ry="32.2157" transform="rotate(1.05609 1043.67 189.387)" fill="#79AD91"/>
<ellipse cx="100.967" cy="211.415" rx="57.3735" ry="62.8599" transform="rotate(1.05609 100.967 211.415)" fill="#4F8959"/>
<ellipse cx="313.053" cy="212.181" rx="57.3735" ry="62.8599" transform="rotate(1.05609 313.053 212.181)" fill="#4F8959"/>
<ellipse cx="472.453" cy="233.98" rx="57.3735" ry="62.8599" transform="rotate(1.05609 472.453 233.98)" fill="#4F8959"/>
<ellipse cx="407.884" cy="190.352" rx="42.8486" ry="47.1449" transform="rotate(1.05609 407.884 190.352)" fill="#4F8959"/>
<ellipse cx="173.146" cy="236.322" rx="42.8486" ry="47.1449" transform="rotate(1.05609 173.146 236.322)" fill="#4F8959"/>
<ellipse cx="241.691" cy="221.868" rx="42.8486" ry="47.1449" transform="rotate(1.05609 241.691 221.868)" fill="#4F8959"/>
<ellipse cx="22.6911" cy="202.114" rx="42.8486" ry="47.1449" transform="rotate(1.05609 22.6911 202.114)" fill="#4F8959"/>
<ellipse cx="365.029" cy="190.349" rx="29.0499" ry="32.2157" transform="rotate(1.05609 365.029 190.349)" fill="#4F8959"/>
<ellipse cx="372.641" cy="250.216" rx="29.0499" ry="32.2157" transform="rotate(1.05609 372.641 250.216)" fill="#4F8959"/>
<ellipse cx="416.094" cy="257.304" rx="29.0499" ry="32.2157" transform="rotate(1.05609 416.094 257.304)" fill="#4F8959"/>
<ellipse cx="520.014" cy="215.21" rx="29.0499" ry="32.2157" transform="rotate(1.05609 520.014 215.21)" fill="#4F8959"/>
<ellipse cx="26.6016" cy="265.842" rx="29.0499" ry="32.2157" transform="rotate(1.05609 26.6016 265.842)" fill="#4F8959"/>
<ellipse cx="58.8399" cy="250.719" rx="29.0499" ry="32.2157" transform="rotate(1.05609 58.8399 250.719)" fill="#4F8959"/>
<ellipse cx="576.795" cy="203.415" rx="57.3735" ry="62.8599" transform="rotate(1.05609 576.795 203.415)" fill="#4F8959"/>
<ellipse cx="788.881" cy="204.181" rx="57.3735" ry="62.8599" transform="rotate(1.05609 788.881 204.181)" fill="#4F8959"/>
<ellipse cx="948.283" cy="225.98" rx="57.3735" ry="62.8599" transform="rotate(1.05609 948.283 225.98)" fill="#4F8959"/>
<ellipse cx="883.711" cy="182.352" rx="42.8486" ry="47.1449" transform="rotate(1.05609 883.711 182.352)" fill="#4F8959"/>
<ellipse cx="648.972" cy="228.322" rx="42.8486" ry="47.1449" transform="rotate(1.05609 648.972 228.322)" fill="#4F8959"/>
<ellipse cx="717.519" cy="213.868" rx="42.8486" ry="47.1449" transform="rotate(1.05609 717.519 213.868)" fill="#4F8959"/>
<ellipse cx="498.519" cy="194.113" rx="42.8486" ry="47.1449" transform="rotate(1.05609 498.519 194.113)" fill="#4F8959"/>
<ellipse cx="840.857" cy="182.349" rx="29.0499" ry="32.2157" transform="rotate(1.05609 840.857 182.349)" fill="#4F8959"/>
<ellipse cx="848.471" cy="242.216" rx="29.0499" ry="32.2157" transform="rotate(1.05609 848.471 242.216)" fill="#4F8959"/>
<ellipse cx="891.92" cy="249.304" rx="29.0499" ry="32.2157" transform="rotate(1.05609 891.92 249.304)" fill="#4F8959"/>
<ellipse cx="995.842" cy="207.21" rx="29.0499" ry="32.2157" transform="rotate(1.05609 995.842 207.21)" fill="#4F8959"/>
<ellipse cx="502.428" cy="257.842" rx="29.0499" ry="32.2157" transform="rotate(1.05609 502.428 257.842)" fill="#4F8959"/>
<ellipse cx="534.67" cy="242.719" rx="29.0499" ry="32.2157" transform="rotate(1.05609 534.67 242.719)" fill="#4F8959"/>
<ellipse cx="1085.8" cy="205.415" rx="57.3735" ry="62.8599" transform="rotate(1.05609 1085.8 205.415)" fill="#4F8959"/>
<ellipse cx="1297.88" cy="206.181" rx="57.3735" ry="62.8599" transform="rotate(1.05609 1297.88 206.181)" fill="#4F8959"/>
<ellipse cx="1457.28" cy="227.98" rx="57.3735" ry="62.8599" transform="rotate(1.05609 1457.28 227.98)" fill="#4F8959"/>
<ellipse cx="1392.71" cy="184.352" rx="42.8486" ry="47.1449" transform="rotate(1.05609 1392.71 184.352)" fill="#4F8959"/>
<ellipse cx="1157.97" cy="230.322" rx="42.8486" ry="47.1449" transform="rotate(1.05609 1157.97 230.322)" fill="#4F8959"/>
<ellipse cx="1226.52" cy="215.868" rx="42.8486" ry="47.1449" transform="rotate(1.05609 1226.52 215.868)" fill="#4F8959"/>
<ellipse cx="1007.52" cy="196.113" rx="42.8486" ry="47.1449" transform="rotate(1.05609 1007.52 196.113)" fill="#4F8959"/>
<ellipse cx="1349.86" cy="184.349" rx="29.0499" ry="32.2157" transform="rotate(1.05609 1349.86 184.349)" fill="#4F8959"/>
<ellipse cx="1357.47" cy="244.216" rx="29.0499" ry="32.2157" transform="rotate(1.05609 1357.47 244.216)" fill="#4F8959"/>
<ellipse cx="1400.92" cy="251.304" rx="29.0499" ry="32.2157" transform="rotate(1.05609 1400.92 251.304)" fill="#4F8959"/>
<ellipse cx="1011.43" cy="259.842" rx="29.0499" ry="32.2157" transform="rotate(1.05609 1011.43 259.842)" fill="#4F8959"/>
<ellipse cx="1043.67" cy="244.719" rx="29.0499" ry="32.2157" transform="rotate(1.05609 1043.67 244.719)" fill="#4F8959"/>
<g filter="url(#filter0_d_1339_20392)">
<ellipse cx="100.967" cy="266.746" rx="57.3735" ry="62.8599" transform="rotate(1.05609 100.967 266.746)" fill="#4F8959"/>
<ellipse cx="313.053" cy="267.512" rx="57.3735" ry="62.8599" transform="rotate(1.05609 313.053 267.512)" fill="#4F8959"/>
<ellipse cx="472.453" cy="289.311" rx="57.3735" ry="62.8599" transform="rotate(1.05609 472.453 289.311)" fill="#4F8959"/>
<ellipse cx="407.884" cy="245.683" rx="42.8486" ry="47.1449" transform="rotate(1.05609 407.884 245.683)" fill="#4F8959"/>
<ellipse cx="173.146" cy="291.653" rx="42.8486" ry="47.1449" transform="rotate(1.05609 173.146 291.653)" fill="#4F8959"/>
<ellipse cx="241.691" cy="277.199" rx="42.8486" ry="47.1449" transform="rotate(1.05609 241.691 277.199)" fill="#4F8959"/>
<ellipse cx="22.6911" cy="257.445" rx="42.8486" ry="47.1449" transform="rotate(1.05609 22.6911 257.445)" fill="#4F8959"/>
<ellipse cx="365.029" cy="245.68" rx="29.0499" ry="32.2157" transform="rotate(1.05609 365.029 245.68)" fill="#4F8959"/>
<ellipse cx="372.641" cy="305.547" rx="29.0499" ry="32.2157" transform="rotate(1.05609 372.641 305.547)" fill="#4F8959"/>
<ellipse cx="416.094" cy="312.635" rx="29.0499" ry="32.2157" transform="rotate(1.05609 416.094 312.635)" fill="#4F8959"/>
<ellipse cx="520.014" cy="270.541" rx="29.0499" ry="32.2157" transform="rotate(1.05609 520.014 270.541)" fill="#4F8959"/>
<ellipse cx="26.6016" cy="321.173" rx="29.0499" ry="32.2157" transform="rotate(1.05609 26.6016 321.173)" fill="#4F8959"/>
<ellipse cx="58.8399" cy="306.05" rx="29.0499" ry="32.2157" transform="rotate(1.05609 58.8399 306.05)" fill="#4F8959"/>
<ellipse cx="576.795" cy="258.746" rx="57.3735" ry="62.8599" transform="rotate(1.05609 576.795 258.746)" fill="#4F8959"/>
<ellipse cx="788.881" cy="259.512" rx="57.3735" ry="62.8599" transform="rotate(1.05609 788.881 259.512)" fill="#4F8959"/>
<ellipse cx="948.283" cy="281.311" rx="57.3735" ry="62.8599" transform="rotate(1.05609 948.283 281.311)" fill="#4F8959"/>
<ellipse cx="883.711" cy="237.683" rx="42.8486" ry="47.1449" transform="rotate(1.05609 883.711 237.683)" fill="#4F8959"/>
<ellipse cx="648.972" cy="283.653" rx="42.8486" ry="47.1449" transform="rotate(1.05609 648.972 283.653)" fill="#4F8959"/>
<ellipse cx="717.519" cy="269.199" rx="42.8486" ry="47.1449" transform="rotate(1.05609 717.519 269.199)" fill="#4F8959"/>
<ellipse cx="498.519" cy="249.444" rx="42.8486" ry="47.1449" transform="rotate(1.05609 498.519 249.444)" fill="#4F8959"/>
<ellipse cx="840.857" cy="237.68" rx="29.0499" ry="32.2157" transform="rotate(1.05609 840.857 237.68)" fill="#4F8959"/>
<ellipse cx="848.471" cy="297.547" rx="29.0499" ry="32.2157" transform="rotate(1.05609 848.471 297.547)" fill="#4F8959"/>
<ellipse cx="891.92" cy="304.635" rx="29.0499" ry="32.2157" transform="rotate(1.05609 891.92 304.635)" fill="#4F8959"/>
<ellipse cx="995.842" cy="262.541" rx="29.0499" ry="32.2157" transform="rotate(1.05609 995.842 262.541)" fill="#4F8959"/>
<ellipse cx="502.428" cy="313.173" rx="29.0499" ry="32.2157" transform="rotate(1.05609 502.428 313.173)" fill="#4F8959"/>
<ellipse cx="534.67" cy="298.05" rx="29.0499" ry="32.2157" transform="rotate(1.05609 534.67 298.05)" fill="#4F8959"/>
<ellipse cx="1085.8" cy="260.746" rx="57.3735" ry="62.8599" transform="rotate(1.05609 1085.8 260.746)" fill="#4F8959"/>
<ellipse cx="1297.88" cy="261.512" rx="57.3735" ry="62.8599" transform="rotate(1.05609 1297.88 261.512)" fill="#4F8959"/>
<ellipse cx="1457.28" cy="283.311" rx="57.3735" ry="62.8599" transform="rotate(1.05609 1457.28 283.311)" fill="#4F8959"/>
<ellipse cx="1392.71" cy="239.683" rx="42.8486" ry="47.1449" transform="rotate(1.05609 1392.71 239.683)" fill="#4F8959"/>
<ellipse cx="1157.97" cy="285.653" rx="42.8486" ry="47.1449" transform="rotate(1.05609 1157.97 285.653)" fill="#4F8959"/>
<ellipse cx="1226.52" cy="271.199" rx="42.8486" ry="47.1449" transform="rotate(1.05609 1226.52 271.199)" fill="#4F8959"/>
<ellipse cx="1007.52" cy="251.444" rx="42.8486" ry="47.1449" transform="rotate(1.05609 1007.52 251.444)" fill="#4F8959"/>
<ellipse cx="1349.86" cy="239.68" rx="29.0499" ry="32.2157" transform="rotate(1.05609 1349.86 239.68)" fill="#4F8959"/>
<ellipse cx="1357.47" cy="299.547" rx="29.0499" ry="32.2157" transform="rotate(1.05609 1357.47 299.547)" fill="#4F8959"/>
<ellipse cx="1400.92" cy="306.635" rx="29.0499" ry="32.2157" transform="rotate(1.05609 1400.92 306.635)" fill="#4F8959"/>
<ellipse cx="1011.43" cy="315.173" rx="29.0499" ry="32.2157" transform="rotate(1.05609 1011.43 315.173)" fill="#4F8959"/>
<ellipse cx="1043.67" cy="300.05" rx="29.0499" ry="32.2157" transform="rotate(1.05609 1043.67 300.05)" fill="#4F8959"/>
</g>
<defs>
<filter id="filter0_d_1339_20392" x="-24.1582" y="190.54" width="1562.05" height="170.848" filterUnits="userSpaceOnUse" color-interpolation-filters="sRGB">
<feFlood flood-opacity="0" result="BackgroundImageFix"/>
<feColorMatrix in="SourceAlpha" type="matrix" values="0 0 0 0 0 0 0 0 0 0 0 0 0 0 0 0 0 0 127 0" result="hardAlpha"/>
<feOffset dy="4"/>
<feGaussianBlur stdDeviation="2"/>
<feComposite in2="hardAlpha" operator="out"/>
<feColorMatrix type="matrix" values="0 0 0 0 0.0658333 0 0 0 0 0.114167 0 0 0 0 0.0741666 0 0 0 0.4 0"/>
<feBlend mode="normal" in2="BackgroundImageFix" result="effect1_dropShadow_1339_20392"/>
<feBlend mode="normal" in="SourceGraphic" in2="effect1_dropShadow_1339_20392" result="shape"/>
</filter>
</defs>
</svg>
