<svg width="1440" height="357" viewBox="0 0 1440 357" fill="none" xmlns="http://www.w3.org/2000/svg">
<ellipse cx="47.169" cy="102.414" rx="33.8741" ry="34.8022" fill="#EAFFBD"/>
<ellipse cx="3.54953" cy="63.8994" rx="44.0827" ry="45.4748" fill="#EAFFBD"/>
<ellipse cx="111.206" cy="84.3166" rx="44.0827" ry="45.4748" fill="#EAFFBD"/>
<ellipse cx="224.583" cy="76.7101" rx="44.0827" ry="45.4748" fill="#EAFFBD"/>
<ellipse cx="372.919" cy="56.4748" rx="44.0827" ry="45.4748" fill="#EAFFBD"/>
<ellipse cx="162.249" cy="94.9892" rx="33.8741" ry="34.8022" fill="#EAFFBD"/>
<ellipse cx="266.19" cy="102.414" rx="33.8741" ry="34.8022" fill="#EAFFBD"/>
<ellipse cx="316.308" cy="83.8526" rx="33.8741" ry="34.8022" fill="#EAFFBD"/>
<ellipse cx="330.692" cy="49.5144" rx="19.4892" ry="19.9532" fill="#EAFFBD"/>
<ellipse cx="539.171" cy="101.414" rx="33.8741" ry="34.8022" fill="#EAFFBD"/>
<ellipse cx="495.551" cy="62.8994" rx="44.0827" ry="45.4748" fill="#EAFFBD"/>
<ellipse cx="603.204" cy="83.3166" rx="44.0827" ry="45.4748" fill="#EAFFBD"/>
<ellipse cx="437.083" cy="93.5253" rx="44.0827" ry="45.4748" fill="#EAFFBD"/>
<ellipse cx="716.583" cy="75.7101" rx="44.0827" ry="45.4748" fill="#EAFFBD"/>
<ellipse cx="864.919" cy="55.4748" rx="44.0827" ry="45.4748" fill="#EAFFBD"/>
<ellipse cx="654.249" cy="93.9892" rx="33.8741" ry="34.8022" fill="#EAFFBD"/>
<ellipse cx="758.19" cy="101.414" rx="33.8741" ry="34.8022" fill="#EAFFBD"/>
<ellipse cx="808.308" cy="82.8526" rx="33.8741" ry="34.8022" fill="#EAFFBD"/>
<ellipse cx="822.692" cy="48.5144" rx="19.4892" ry="19.9532" fill="#EAFFBD"/>
<ellipse cx="412.489" cy="63.3633" rx="19.4892" ry="19.9532" fill="#EAFFBD"/>
<ellipse cx="1036.38" cy="96.4162" rx="33.8741" ry="34.8022" transform="rotate(1.98268 1036.38 96.4162)" fill="#EAFFBD"/>
<ellipse cx="994.12" cy="56.4157" rx="44.0827" ry="45.4748" transform="rotate(1.98268 994.12 56.4157)" fill="#EAFFBD"/>
<ellipse cx="1101" cy="80.5452" rx="44.0827" ry="45.4748" transform="rotate(1.98268 1101 80.5452)" fill="#EAFFBD"/>
<ellipse cx="934.628" cy="85.0005" rx="44.0827" ry="45.4748" transform="rotate(1.98268 934.628 85.0005)" fill="#EAFFBD"/>
<ellipse cx="1214.58" cy="76.8659" rx="44.0827" ry="45.4748" transform="rotate(1.98268 1214.58 76.8659)" fill="#EAFFBD"/>
<ellipse cx="1363.52" cy="61.7747" rx="44.0827" ry="45.4748" transform="rotate(1.98268 1363.52 61.7747)" fill="#EAFFBD"/>
<ellipse cx="1151.65" cy="92.9774" rx="33.8741" ry="34.8022" transform="rotate(1.98268 1151.65 92.9774)" fill="#EAFFBD"/>
<ellipse cx="1255.27" cy="103.994" rx="33.8741" ry="34.8022" transform="rotate(1.98268 1255.27 103.994)" fill="#EAFFBD"/>
<ellipse cx="1306" cy="87.1775" rx="33.8741" ry="34.8022" transform="rotate(1.98268 1306 87.1775)" fill="#EAFFBD"/>
<ellipse cx="1321.56" cy="53.3573" rx="19.4892" ry="19.9532" transform="rotate(1.98268 1321.56 53.3573)" fill="#EAFFBD"/>
<ellipse cx="911.092" cy="54.0056" rx="19.4892" ry="19.9532" transform="rotate(1.98268 911.092 54.0056)" fill="#EAFFBD"/>
<ellipse cx="75" cy="119" rx="50" ry="49" fill="#FFFEEE"/>
<ellipse cx="-13.5" cy="116" rx="25.5" ry="25" fill="#FFFEEE"/>
<ellipse cx="121.5" cy="117" rx="25.5" ry="25" fill="#FFFEEE"/>
<ellipse cx="197.5" cy="113" rx="25.5" ry="25" fill="#FFFEEE"/>
<ellipse cx="226.5" cy="115" rx="15.5" ry="15" fill="#FFFEEE"/>
<ellipse cx="161.5" cy="111" rx="36.5" ry="37" fill="#FFFEEE"/>
<ellipse cx="274.5" cy="100.5" rx="44.5" ry="46.5" fill="#FFFEEE"/>
<ellipse cx="25" cy="142" rx="35" ry="36" fill="#FFFEEE"/>
<ellipse cx="336" cy="118" rx="50" ry="49" fill="#FFFEEE"/>
<ellipse cx="485" cy="114" rx="50" ry="49" fill="#FFFEEE"/>
<ellipse cx="396.5" cy="111" rx="25.5" ry="25" fill="#FFFEEE"/>
<ellipse cx="531.5" cy="112" rx="25.5" ry="25" fill="#FFFEEE"/>
<ellipse cx="607.5" cy="108" rx="25.5" ry="25" fill="#FFFEEE"/>
<ellipse cx="636.5" cy="110" rx="15.5" ry="15" fill="#FFFEEE"/>
<ellipse cx="571.5" cy="106" rx="36.5" ry="37" fill="#FFFEEE"/>
<ellipse cx="684.5" cy="95.5" rx="44.5" ry="46.5" fill="#FFFEEE"/>
<ellipse cx="435" cy="137" rx="35" ry="36" fill="#FFFEEE"/>
<ellipse cx="708" cy="120" rx="50" ry="49" fill="#FFFEEE"/>
<ellipse cx="857" cy="116" rx="50" ry="49" fill="#FFFEEE"/>
<ellipse cx="768.5" cy="113" rx="25.5" ry="25" fill="#FFFEEE"/>
<ellipse cx="903.5" cy="114" rx="25.5" ry="25" fill="#FFFEEE"/>
<ellipse cx="979.5" cy="110" rx="25.5" ry="25" fill="#FFFEEE"/>
<ellipse cx="1008.5" cy="112" rx="15.5" ry="15" fill="#FFFEEE"/>
<ellipse cx="943.5" cy="108" rx="36.5" ry="37" fill="#FFFEEE"/>
<ellipse cx="1056.5" cy="97.5" rx="44.5" ry="46.5" fill="#FFFEEE"/>
<ellipse cx="807" cy="139" rx="35" ry="36" fill="#FFFEEE"/>
<ellipse cx="1062" cy="113" rx="50" ry="49" fill="#FFFEEE"/>
<ellipse cx="1211" cy="109" rx="50" ry="49" fill="#FFFEEE"/>
<ellipse cx="1122.5" cy="106" rx="25.5" ry="25" fill="#FFFEEE"/>
<ellipse cx="1257.5" cy="107" rx="25.5" ry="25" fill="#FFFEEE"/>
<ellipse cx="1333.5" cy="103" rx="25.5" ry="25" fill="#FFFEEE"/>
<ellipse cx="1362.5" cy="105" rx="15.5" ry="15" fill="#FFFEEE"/>
<ellipse cx="1297.5" cy="101" rx="36.5" ry="37" fill="#FFFEEE"/>
<ellipse cx="1410.5" cy="90.5" rx="44.5" ry="46.5" fill="#FFFEEE"/>
<ellipse cx="1161" cy="132" rx="35" ry="36" fill="#FFFEEE"/>
<ellipse cx="47.8829" cy="150.083" rx="57.3735" ry="62.8599" transform="rotate(1.05609 47.8829 150.083)" fill="#C7EDFC"/>
<ellipse cx="259.969" cy="150.849" rx="57.3735" ry="62.8599" transform="rotate(1.05609 259.969 150.849)" fill="#C7EDFC"/>
<ellipse cx="419.369" cy="172.649" rx="57.3735" ry="62.8599" transform="rotate(1.05609 419.369 172.649)" fill="#C7EDFC"/>
<ellipse cx="354.801" cy="129.021" rx="42.8486" ry="47.1449" transform="rotate(1.05609 354.801 129.021)" fill="#C7EDFC"/>
<ellipse cx="120.062" cy="174.99" rx="42.8486" ry="47.1449" transform="rotate(1.05609 120.062 174.99)" fill="#C7EDFC"/>
<ellipse cx="188.607" cy="160.537" rx="42.8486" ry="47.1449" transform="rotate(1.05609 188.607 160.537)" fill="#C7EDFC"/>
<ellipse cx="-30.3929" cy="140.782" rx="42.8486" ry="47.1449" transform="rotate(1.05609 -30.3929 140.782)" fill="#C7EDFC"/>
<ellipse cx="311.943" cy="129.017" rx="29.0499" ry="32.2157" transform="rotate(1.05609 311.943 129.017)" fill="#C7EDFC"/>
<ellipse cx="319.557" cy="188.884" rx="29.0499" ry="32.2157" transform="rotate(1.05609 319.557 188.884)" fill="#C7EDFC"/>
<ellipse cx="363.01" cy="195.973" rx="29.0499" ry="32.2157" transform="rotate(1.05609 363.01 195.973)" fill="#C7EDFC"/>
<ellipse cx="466.928" cy="153.879" rx="29.0499" ry="32.2157" transform="rotate(1.05609 466.928 153.879)" fill="#C7EDFC"/>
<ellipse cx="-26.4824" cy="204.51" rx="29.0499" ry="32.2157" transform="rotate(1.05609 -26.4824 204.51)" fill="#C7EDFC"/>
<ellipse cx="5.75587" cy="189.387" rx="29.0499" ry="32.2157" transform="rotate(1.05609 5.75587 189.387)" fill="#C7EDFC"/>
<ellipse cx="523.709" cy="142.083" rx="57.3735" ry="62.8599" transform="rotate(1.05609 523.709 142.083)" fill="#C7EDFC"/>
<ellipse cx="735.795" cy="142.849" rx="57.3735" ry="62.8599" transform="rotate(1.05609 735.795 142.849)" fill="#C7EDFC"/>
<ellipse cx="895.197" cy="164.649" rx="57.3735" ry="62.8599" transform="rotate(1.05609 895.197 164.649)" fill="#C7EDFC"/>
<ellipse cx="830.625" cy="121.021" rx="42.8486" ry="47.1449" transform="rotate(1.05609 830.625 121.021)" fill="#C7EDFC"/>
<ellipse cx="595.886" cy="166.99" rx="42.8486" ry="47.1449" transform="rotate(1.05609 595.886 166.99)" fill="#C7EDFC"/>
<ellipse cx="664.433" cy="152.536" rx="42.8486" ry="47.1449" transform="rotate(1.05609 664.433 152.536)" fill="#C7EDFC"/>
<ellipse cx="445.433" cy="132.782" rx="42.8486" ry="47.1449" transform="rotate(1.05609 445.433 132.782)" fill="#C7EDFC"/>
<ellipse cx="787.771" cy="121.017" rx="29.0499" ry="32.2157" transform="rotate(1.05609 787.771 121.017)" fill="#C7EDFC"/>
<ellipse cx="795.385" cy="180.884" rx="29.0499" ry="32.2157" transform="rotate(1.05609 795.385 180.884)" fill="#C7EDFC"/>
<ellipse cx="838.834" cy="187.973" rx="29.0499" ry="32.2157" transform="rotate(1.05609 838.834 187.973)" fill="#C7EDFC"/>
<ellipse cx="942.756" cy="145.879" rx="29.0499" ry="32.2157" transform="rotate(1.05609 942.756 145.879)" fill="#C7EDFC"/>
<ellipse cx="449.342" cy="196.51" rx="29.0499" ry="32.2157" transform="rotate(1.05609 449.342 196.51)" fill="#C7EDFC"/>
<ellipse cx="481.584" cy="181.387" rx="29.0499" ry="32.2157" transform="rotate(1.05609 481.584 181.387)" fill="#C7EDFC"/>
<ellipse cx="1032.71" cy="144.083" rx="57.3735" ry="62.8599" transform="rotate(1.05609 1032.71 144.083)" fill="#C7EDFC"/>
<ellipse cx="1244.8" cy="144.849" rx="57.3735" ry="62.8599" transform="rotate(1.05609 1244.8 144.849)" fill="#C7EDFC"/>
<ellipse cx="1404.2" cy="166.649" rx="57.3735" ry="62.8599" transform="rotate(1.05609 1404.2 166.649)" fill="#C7EDFC"/>
<ellipse cx="1339.62" cy="123.021" rx="42.8486" ry="47.1449" transform="rotate(1.05609 1339.62 123.021)" fill="#C7EDFC"/>
<ellipse cx="1104.89" cy="168.99" rx="42.8486" ry="47.1449" transform="rotate(1.05609 1104.89 168.99)" fill="#C7EDFC"/>
<ellipse cx="1173.43" cy="154.536" rx="42.8486" ry="47.1449" transform="rotate(1.05609 1173.43 154.536)" fill="#C7EDFC"/>
<ellipse cx="954.433" cy="134.782" rx="42.8486" ry="47.1449" transform="rotate(1.05609 954.433 134.782)" fill="#C7EDFC"/>
<ellipse cx="1296.77" cy="123.017" rx="29.0499" ry="32.2157" transform="rotate(1.05609 1296.77 123.017)" fill="#C7EDFC"/>
<ellipse cx="1304.38" cy="182.884" rx="29.0499" ry="32.2157" transform="rotate(1.05609 1304.38 182.884)" fill="#C7EDFC"/>
<ellipse cx="1347.83" cy="189.973" rx="29.0499" ry="32.2157" transform="rotate(1.05609 1347.83 189.973)" fill="#C7EDFC"/>
<ellipse cx="1451.76" cy="147.879" rx="29.0499" ry="32.2157" transform="rotate(1.05609 1451.76 147.879)" fill="#C7EDFC"/>
<ellipse cx="958.342" cy="198.51" rx="29.0499" ry="32.2157" transform="rotate(1.05609 958.342 198.51)" fill="#C7EDFC"/>
<ellipse cx="990.584" cy="183.387" rx="29.0499" ry="32.2157" transform="rotate(1.05609 990.584 183.387)" fill="#C7EDFC"/>
<ellipse cx="47.8829" cy="205.415" rx="57.3735" ry="62.8599" transform="rotate(1.05609 47.8829 205.415)" fill="#7BCBE8"/>
<ellipse cx="259.969" cy="206.181" rx="57.3735" ry="62.8599" transform="rotate(1.05609 259.969 206.181)" fill="#7BCBE8"/>
<ellipse cx="419.369" cy="227.98" rx="57.3735" ry="62.8599" transform="rotate(1.05609 419.369 227.98)" fill="#7BCBE8"/>
<ellipse cx="354.801" cy="184.352" rx="42.8486" ry="47.1449" transform="rotate(1.05609 354.801 184.352)" fill="#7BCBE8"/>
<ellipse cx="120.062" cy="230.322" rx="42.8486" ry="47.1449" transform="rotate(1.05609 120.062 230.322)" fill="#7BCBE8"/>
<ellipse cx="188.607" cy="215.867" rx="42.8486" ry="47.1449" transform="rotate(1.05609 188.607 215.867)" fill="#7BCBE8"/>
<ellipse cx="-30.3929" cy="196.113" rx="42.8486" ry="47.1449" transform="rotate(1.05609 -30.3929 196.113)" fill="#7BCBE8"/>
<ellipse cx="311.943" cy="184.348" rx="29.0499" ry="32.2157" transform="rotate(1.05609 311.943 184.348)" fill="#7BCBE8"/>
<ellipse cx="319.557" cy="244.215" rx="29.0499" ry="32.2157" transform="rotate(1.05609 319.557 244.215)" fill="#7BCBE8"/>
<ellipse cx="363.01" cy="251.304" rx="29.0499" ry="32.2157" transform="rotate(1.05609 363.01 251.304)" fill="#7BCBE8"/>
<ellipse cx="466.928" cy="209.21" rx="29.0499" ry="32.2157" transform="rotate(1.05609 466.928 209.21)" fill="#7BCBE8"/>
<ellipse cx="-26.4824" cy="259.842" rx="29.0499" ry="32.2157" transform="rotate(1.05609 -26.4824 259.842)" fill="#7BCBE8"/>
<ellipse cx="5.75587" cy="244.719" rx="29.0499" ry="32.2157" transform="rotate(1.05609 5.75587 244.719)" fill="#7BCBE8"/>
<ellipse cx="523.709" cy="197.415" rx="57.3735" ry="62.8599" transform="rotate(1.05609 523.709 197.415)" fill="#7BCBE8"/>
<ellipse cx="735.795" cy="198.181" rx="57.3735" ry="62.8599" transform="rotate(1.05609 735.795 198.181)" fill="#7BCBE8"/>
<ellipse cx="895.197" cy="219.98" rx="57.3735" ry="62.8599" transform="rotate(1.05609 895.197 219.98)" fill="#7BCBE8"/>
<ellipse cx="830.625" cy="176.352" rx="42.8486" ry="47.1449" transform="rotate(1.05609 830.625 176.352)" fill="#7BCBE8"/>
<ellipse cx="595.886" cy="222.322" rx="42.8486" ry="47.1449" transform="rotate(1.05609 595.886 222.322)" fill="#7BCBE8"/>
<ellipse cx="664.433" cy="207.867" rx="42.8486" ry="47.1449" transform="rotate(1.05609 664.433 207.867)" fill="#7BCBE8"/>
<ellipse cx="445.433" cy="188.113" rx="42.8486" ry="47.1449" transform="rotate(1.05609 445.433 188.113)" fill="#7BCBE8"/>
<ellipse cx="787.771" cy="176.348" rx="29.0499" ry="32.2157" transform="rotate(1.05609 787.771 176.348)" fill="#7BCBE8"/>
<ellipse cx="795.385" cy="236.215" rx="29.0499" ry="32.2157" transform="rotate(1.05609 795.385 236.215)" fill="#7BCBE8"/>
<ellipse cx="838.834" cy="243.304" rx="29.0499" ry="32.2157" transform="rotate(1.05609 838.834 243.304)" fill="#7BCBE8"/>
<ellipse cx="942.756" cy="201.21" rx="29.0499" ry="32.2157" transform="rotate(1.05609 942.756 201.21)" fill="#7BCBE8"/>
<ellipse cx="449.342" cy="251.842" rx="29.0499" ry="32.2157" transform="rotate(1.05609 449.342 251.842)" fill="#7BCBE8"/>
<ellipse cx="481.584" cy="236.719" rx="29.0499" ry="32.2157" transform="rotate(1.05609 481.584 236.719)" fill="#7BCBE8"/>
<ellipse cx="1032.71" cy="199.415" rx="57.3735" ry="62.8599" transform="rotate(1.05609 1032.71 199.415)" fill="#7BCBE8"/>
<ellipse cx="1244.8" cy="200.181" rx="57.3735" ry="62.8599" transform="rotate(1.05609 1244.8 200.181)" fill="#7BCBE8"/>
<ellipse cx="1404.2" cy="221.98" rx="57.3735" ry="62.8599" transform="rotate(1.05609 1404.2 221.98)" fill="#7BCBE8"/>
<ellipse cx="1339.62" cy="178.352" rx="42.8486" ry="47.1449" transform="rotate(1.05609 1339.62 178.352)" fill="#7BCBE8"/>
<ellipse cx="1104.89" cy="224.322" rx="42.8486" ry="47.1449" transform="rotate(1.05609 1104.89 224.322)" fill="#7BCBE8"/>
<ellipse cx="1173.43" cy="209.867" rx="42.8486" ry="47.1449" transform="rotate(1.05609 1173.43 209.867)" fill="#7BCBE8"/>
<ellipse cx="954.433" cy="190.113" rx="42.8486" ry="47.1449" transform="rotate(1.05609 954.433 190.113)" fill="#7BCBE8"/>
<ellipse cx="1296.77" cy="178.348" rx="29.0499" ry="32.2157" transform="rotate(1.05609 1296.77 178.348)" fill="#7BCBE8"/>
<ellipse cx="1304.38" cy="238.215" rx="29.0499" ry="32.2157" transform="rotate(1.05609 1304.38 238.215)" fill="#7BCBE8"/>
<ellipse cx="1347.83" cy="245.304" rx="29.0499" ry="32.2157" transform="rotate(1.05609 1347.83 245.304)" fill="#7BCBE8"/>
<ellipse cx="1451.76" cy="203.21" rx="29.0499" ry="32.2157" transform="rotate(1.05609 1451.76 203.21)" fill="#7BCBE8"/>
<ellipse cx="958.342" cy="253.842" rx="29.0499" ry="32.2157" transform="rotate(1.05609 958.342 253.842)" fill="#7BCBE8"/>
<ellipse cx="990.584" cy="238.719" rx="29.0499" ry="32.2157" transform="rotate(1.05609 990.584 238.719)" fill="#7BCBE8"/>
<g filter="url(#filter0_d_1546_18067)">
<ellipse cx="47.8829" cy="260.746" rx="57.3735" ry="62.8599" transform="rotate(1.05609 47.8829 260.746)" fill="#7BCBE8"/>
<ellipse cx="259.969" cy="261.512" rx="57.3735" ry="62.8599" transform="rotate(1.05609 259.969 261.512)" fill="#7BCBE8"/>
<ellipse cx="419.369" cy="283.312" rx="57.3735" ry="62.8599" transform="rotate(1.05609 419.369 283.312)" fill="#7BCBE8"/>
<ellipse cx="354.801" cy="239.684" rx="42.8486" ry="47.1449" transform="rotate(1.05609 354.801 239.684)" fill="#7BCBE8"/>
<ellipse cx="120.062" cy="285.653" rx="42.8486" ry="47.1449" transform="rotate(1.05609 120.062 285.653)" fill="#7BCBE8"/>
<ellipse cx="188.607" cy="271.199" rx="42.8486" ry="47.1449" transform="rotate(1.05609 188.607 271.199)" fill="#7BCBE8"/>
<ellipse cx="-30.3929" cy="251.445" rx="42.8486" ry="47.1449" transform="rotate(1.05609 -30.3929 251.445)" fill="#7BCBE8"/>
<ellipse cx="311.943" cy="239.68" rx="29.0499" ry="32.2157" transform="rotate(1.05609 311.943 239.68)" fill="#7BCBE8"/>
<ellipse cx="319.557" cy="299.547" rx="29.0499" ry="32.2157" transform="rotate(1.05609 319.557 299.547)" fill="#7BCBE8"/>
<ellipse cx="363.01" cy="306.635" rx="29.0499" ry="32.2157" transform="rotate(1.05609 363.01 306.635)" fill="#7BCBE8"/>
<ellipse cx="466.928" cy="264.541" rx="29.0499" ry="32.2157" transform="rotate(1.05609 466.928 264.541)" fill="#7BCBE8"/>
<ellipse cx="-26.4824" cy="315.173" rx="29.0499" ry="32.2157" transform="rotate(1.05609 -26.4824 315.173)" fill="#7BCBE8"/>
<ellipse cx="5.75587" cy="300.05" rx="29.0499" ry="32.2157" transform="rotate(1.05609 5.75587 300.05)" fill="#7BCBE8"/>
<ellipse cx="523.709" cy="252.746" rx="57.3735" ry="62.8599" transform="rotate(1.05609 523.709 252.746)" fill="#7BCBE8"/>
<ellipse cx="735.795" cy="253.512" rx="57.3735" ry="62.8599" transform="rotate(1.05609 735.795 253.512)" fill="#7BCBE8"/>
<ellipse cx="895.197" cy="275.312" rx="57.3735" ry="62.8599" transform="rotate(1.05609 895.197 275.312)" fill="#7BCBE8"/>
<ellipse cx="830.625" cy="231.684" rx="42.8486" ry="47.1449" transform="rotate(1.05609 830.625 231.684)" fill="#7BCBE8"/>
<ellipse cx="595.886" cy="277.653" rx="42.8486" ry="47.1449" transform="rotate(1.05609 595.886 277.653)" fill="#7BCBE8"/>
<ellipse cx="664.433" cy="263.199" rx="42.8486" ry="47.1449" transform="rotate(1.05609 664.433 263.199)" fill="#7BCBE8"/>
<ellipse cx="445.433" cy="243.445" rx="42.8486" ry="47.1449" transform="rotate(1.05609 445.433 243.445)" fill="#7BCBE8"/>
<ellipse cx="787.771" cy="231.68" rx="29.0499" ry="32.2157" transform="rotate(1.05609 787.771 231.68)" fill="#7BCBE8"/>
<ellipse cx="795.385" cy="291.547" rx="29.0499" ry="32.2157" transform="rotate(1.05609 795.385 291.547)" fill="#7BCBE8"/>
<ellipse cx="838.834" cy="298.635" rx="29.0499" ry="32.2157" transform="rotate(1.05609 838.834 298.635)" fill="#7BCBE8"/>
<ellipse cx="942.756" cy="256.541" rx="29.0499" ry="32.2157" transform="rotate(1.05609 942.756 256.541)" fill="#7BCBE8"/>
<ellipse cx="449.342" cy="307.173" rx="29.0499" ry="32.2157" transform="rotate(1.05609 449.342 307.173)" fill="#7BCBE8"/>
<ellipse cx="481.584" cy="292.05" rx="29.0499" ry="32.2157" transform="rotate(1.05609 481.584 292.05)" fill="#7BCBE8"/>
<ellipse cx="1032.71" cy="254.746" rx="57.3735" ry="62.8599" transform="rotate(1.05609 1032.71 254.746)" fill="#7BCBE8"/>
<ellipse cx="1244.8" cy="255.512" rx="57.3735" ry="62.8599" transform="rotate(1.05609 1244.8 255.512)" fill="#7BCBE8"/>
<ellipse cx="1404.2" cy="277.312" rx="57.3735" ry="62.8599" transform="rotate(1.05609 1404.2 277.312)" fill="#7BCBE8"/>
<ellipse cx="1339.62" cy="233.684" rx="42.8486" ry="47.1449" transform="rotate(1.05609 1339.62 233.684)" fill="#7BCBE8"/>
<ellipse cx="1104.89" cy="279.653" rx="42.8486" ry="47.1449" transform="rotate(1.05609 1104.89 279.653)" fill="#7BCBE8"/>
<ellipse cx="1173.43" cy="265.199" rx="42.8486" ry="47.1449" transform="rotate(1.05609 1173.43 265.199)" fill="#7BCBE8"/>
<ellipse cx="954.433" cy="245.445" rx="42.8486" ry="47.1449" transform="rotate(1.05609 954.433 245.445)" fill="#7BCBE8"/>
<ellipse cx="1296.77" cy="233.68" rx="29.0499" ry="32.2157" transform="rotate(1.05609 1296.77 233.68)" fill="#7BCBE8"/>
<ellipse cx="1304.38" cy="293.547" rx="29.0499" ry="32.2157" transform="rotate(1.05609 1304.38 293.547)" fill="#7BCBE8"/>
<ellipse cx="1347.83" cy="300.635" rx="29.0499" ry="32.2157" transform="rotate(1.05609 1347.83 300.635)" fill="#7BCBE8"/>
<ellipse cx="1451.76" cy="258.541" rx="29.0499" ry="32.2157" transform="rotate(1.05609 1451.76 258.541)" fill="#7BCBE8"/>
<ellipse cx="958.342" cy="309.173" rx="29.0499" ry="32.2157" transform="rotate(1.05609 958.342 309.173)" fill="#7BCBE8"/>
<ellipse cx="990.584" cy="294.05" rx="29.0499" ry="32.2157" transform="rotate(1.05609 990.584 294.05)" fill="#7BCBE8"/>
</g>
<defs>
<filter id="filter0_d_1546_18067" x="-77.2422" y="184.54" width="1562.05" height="170.848" filterUnits="userSpaceOnUse" color-interpolation-filters="sRGB">
<feFlood flood-opacity="0" result="BackgroundImageFix"/>
<feColorMatrix in="SourceAlpha" type="matrix" values="0 0 0 0 0 0 0 0 0 0 0 0 0 0 0 0 0 0 127 0" result="hardAlpha"/>
<feOffset dy="4"/>
<feGaussianBlur stdDeviation="2"/>
<feComposite in2="hardAlpha" operator="out"/>
<feColorMatrix type="matrix" values="0 0 0 0 0.0474837 0 0 0 0 0.212645 0 0 0 0 0.272516 0 0 0 0.4 0"/>
<feBlend mode="normal" in2="BackgroundImageFix" result="effect1_dropShadow_1546_18067"/>
<feBlend mode="normal" in="SourceGraphic" in2="effect1_dropShadow_1546_18067" result="shape"/>
</filter>
</defs>
</svg>
