<svg width="53" height="64" viewBox="0 0 53 64" fill="none" xmlns="http://www.w3.org/2000/svg">
<path d="M8.95381 2.18822C22.85 2.12548 36.7252 2.06274 50.6214 2C51.1229 2 51.499 2.481 51.3737 2.98291C49.7228 9.34046 48.0511 15.7189 46.4003 22.0765C47.9466 27.953 49.5139 33.8296 51.0602 39.7061C51.1647 40.0826 51.1647 40.459 51.0811 40.8354C49.6184 47.4858 48.1347 54.1361 46.672 60.7864C46.5048 61.4975 45.8779 62.0203 45.1465 61.9994C31.0623 61.8112 16.9781 61.602 2.89383 61.4138C2.28783 61.4138 1.8699 60.8283 2.03707 60.2427C3.81327 54.1779 5.61037 48.1132 7.38657 42.0484C5.77754 35.3353 4.48196 29.9607 2.85204 23.2267C2.24604 22.6411 2.05797 21.8255 2.24604 21.0727C3.81327 15.3007 5.35961 9.52868 6.90595 3.75669C7.15671 2.83652 7.99257 2.18822 8.95381 2.18822Z" stroke="black" stroke-width="2.98605" stroke-miterlimit="10"/>
<path d="M35.0106 9.50756H12.6513C12.3588 9.50756 12.1289 9.27752 12.1289 8.98474C12.1289 8.69196 12.3588 8.46191 12.6513 8.46191H35.0106C35.3031 8.46191 35.533 8.69196 35.533 8.98474C35.533 9.27752 35.3031 9.50756 35.0106 9.50756Z" fill="black" stroke="black" stroke-width="1.62875" stroke-miterlimit="10"/>
<path d="M32.9207 15.7815H10.5615C10.2689 15.7815 10.0391 15.5514 10.0391 15.2587C10.0391 14.9659 10.2689 14.7358 10.5615 14.7358H32.9207C33.2133 14.7358 33.4431 14.9659 33.4431 15.2587C33.4431 15.5514 33.2133 15.7815 32.9207 15.7815Z" fill="black" stroke="black" stroke-width="1.62875" stroke-miterlimit="10"/>
<path d="M45.6688 22.4739H3.45796C3.16541 22.4739 2.93555 22.2438 2.93555 21.951C2.93555 21.6583 3.16541 21.4282 3.45796 21.4282H45.6688C45.9614 21.4282 46.1913 21.6583 46.1913 21.951C46.1913 22.2438 45.9614 22.4739 45.6688 22.4739Z" fill="black" stroke="black" stroke-width="1.62875" stroke-miterlimit="10"/>
<path d="M32.7117 29.1658H10.3525C10.0599 29.1658 9.83008 28.9357 9.83008 28.6429C9.83008 28.3502 10.0599 28.1201 10.3525 28.1201H32.7117C33.0043 28.1201 33.2341 28.3502 33.2341 28.6429C33.2341 28.9357 33.0043 29.1658 32.7117 29.1658Z" fill="black" stroke="black" stroke-width="1.62875" stroke-miterlimit="10"/>
<path d="M35.0106 35.4402H12.6513C12.3588 35.4402 12.1289 35.2101 12.1289 34.9174C12.1289 34.6246 12.3588 34.3945 12.6513 34.3945H35.0106C35.3031 34.3945 35.533 34.6246 35.533 34.9174C35.533 35.2101 35.3031 35.4402 35.0106 35.4402Z" fill="black" stroke="black" stroke-width="1.62875" stroke-miterlimit="10"/>
<path d="M50.0575 42.3411H8.05562C7.76306 42.3411 7.5332 42.111 7.5332 41.8182C7.5332 41.5255 7.76306 41.2954 8.05562 41.2954H50.0575C50.3501 41.2954 50.58 41.5255 50.58 41.8182C50.58 42.111 50.3501 42.3411 50.0575 42.3411Z" fill="black" stroke="black" stroke-width="1.62875" stroke-miterlimit="10"/>
<path d="M34.8035 48.824H12.4443C12.1517 48.824 11.9219 48.5939 11.9219 48.3011C11.9219 48.0084 12.1517 47.7783 12.4443 47.7783H34.8035C35.0961 47.7783 35.3259 48.0084 35.3259 48.3011C35.3259 48.5939 35.0961 48.824 34.8035 48.824Z" fill="black" stroke="black" stroke-width="1.62875" stroke-miterlimit="10"/>
<path d="M33.1316 55.3074H10.7724C10.4799 55.3074 10.25 55.0773 10.25 54.7845C10.25 54.4918 10.4799 54.2617 10.7724 54.2617H33.1316C33.4242 54.2617 33.6541 54.4918 33.6541 54.7845C33.6541 55.0773 33.4242 55.3074 33.1316 55.3074Z" fill="black" stroke="black" stroke-width="1.62875" stroke-miterlimit="10"/>
<path d="M38.9788 9.44516C39.0415 9.52881 39.0832 9.61246 39.1459 9.71703C39.1668 9.73794 39.2713 9.96798 39.2295 9.88433C39.2086 9.82159 39.2086 9.8425 39.2504 9.94707C39.2713 10.0098 39.2922 10.0516 39.3131 10.1144C39.334 10.198 39.3758 10.2817 39.3967 10.3653C39.4176 10.449 39.4385 10.5326 39.4594 10.6372C39.5012 10.8463 39.4594 10.5326 39.4803 10.7418C39.5012 10.9509 39.5012 11.16 39.4803 11.3692C39.4385 12.0593 40.3161 12.5612 40.9012 12.1848C42.8446 10.9091 44.1402 9.00598 45.791 7.4166C46.1463 7.08199 46.1672 6.43369 45.791 6.07816C45.4149 5.72264 44.8298 5.72264 44.4536 6.07816C43.6596 6.83103 42.97 7.66755 42.2386 8.48316C41.8834 8.88051 41.5072 9.25694 41.1102 9.63337C40.9221 9.80068 40.7341 9.9889 40.5251 10.1353C40.5251 10.1353 40.337 10.2817 40.4206 10.2189C40.5042 10.1562 40.2952 10.3026 40.3161 10.3026C40.1908 10.3862 40.0863 10.4699 39.9609 10.5535C40.4415 10.8254 40.9012 11.0973 41.3819 11.3692C41.4445 10.3653 41.1729 9.36151 40.6505 8.52499C40.3788 8.10673 39.7937 7.8976 39.3549 8.19038C38.8952 8.42042 38.6862 9.00598 38.9788 9.44516Z" fill="black"/>
<path d="M37.0825 28.5179C37.1452 28.6016 37.187 28.6852 37.2497 28.7898C37.2706 28.8107 37.375 29.0407 37.3333 28.9571C37.3124 28.8943 37.3124 28.9153 37.3541 29.0198C37.375 29.0826 37.3959 29.1244 37.4168 29.1871C37.4377 29.2708 37.4795 29.3544 37.5004 29.4381C37.5213 29.5217 37.5422 29.6054 37.5631 29.71C37.6049 29.9191 37.5631 29.6054 37.584 29.8145C37.6049 30.0236 37.6049 30.2328 37.584 30.4419C37.5422 31.132 38.4199 31.6339 39.005 31.2575C40.9483 29.9818 42.2439 28.0787 43.8947 26.4893C44.25 26.1547 44.2709 25.5064 43.8947 25.1509C43.5186 24.7954 42.9335 24.7954 42.5574 25.1509C41.7633 25.9038 41.0737 26.7403 40.3423 27.5559C39.9871 27.9533 39.611 28.3297 39.2139 28.7061C39.0259 28.8734 38.8378 29.0616 38.6288 29.208C38.6288 29.208 38.4408 29.3544 38.5244 29.2917C38.6079 29.229 38.399 29.3753 38.4199 29.3753C38.2945 29.459 38.19 29.5426 38.0646 29.6263C38.5452 29.8982 39.005 30.17 39.4856 30.4419C39.5483 29.4381 39.2766 28.4343 38.7542 27.5977C38.4826 27.1795 37.8975 26.9703 37.4586 27.2631C37.0198 27.4932 36.8108 28.0787 37.0825 28.5179Z" fill="black"/>
<path d="M38.3344 34.7913C38.3971 34.875 38.4389 34.9587 38.5016 35.0632C38.5225 35.0841 38.627 35.3142 38.5852 35.2305C38.5643 35.1678 38.5643 35.1887 38.6061 35.2933C38.627 35.356 38.6479 35.3978 38.6688 35.4606C38.6897 35.5442 38.7315 35.6279 38.7524 35.7115C38.7733 35.7952 38.7942 35.8788 38.8151 35.9834C38.8569 36.1925 38.8151 35.8788 38.836 36.088C38.8569 36.2971 38.8569 36.5062 38.836 36.7153C38.7942 37.4055 39.6718 37.9074 40.2569 37.531C42.2003 36.2553 43.4959 34.3522 45.1467 32.7628C45.5019 32.4282 45.5228 31.7799 45.1467 31.4244C44.7706 31.0688 44.1855 31.0688 43.8093 31.4244C43.0153 32.1772 42.3257 33.0137 41.5943 33.8294C41.2391 34.2267 40.8629 34.6031 40.4659 34.9796C40.2778 35.1469 40.0898 35.3351 39.8808 35.4815C39.8808 35.4815 39.6927 35.6279 39.7763 35.5651C39.8599 35.5024 39.6509 35.6488 39.6718 35.6488C39.5464 35.7324 39.442 35.8161 39.3166 35.8997C39.7972 36.1716 40.2569 36.4435 40.7375 36.7153C40.8002 35.7115 40.5286 34.7077 40.0062 33.8712C39.7345 33.4529 39.1494 33.2438 38.7106 33.5366C38.2718 33.7666 38.0628 34.3522 38.3344 34.7913Z" fill="black"/>
</svg>
