<svg width="57" height="88" viewBox="0 0 57 88" fill="none" xmlns="http://www.w3.org/2000/svg">
<path d="M21.9703 77.975V84.1154C21.9703 85.9484 23.462 87.4331 25.3016 87.4331H31.7185C33.5581 87.4331 35.0498 85.9484 35.0498 84.1154V77.975H21.9703Z" fill="#F7CF52"/>
<path d="M0.0298424 27.0546C-0.301647 34.3621 2.14769 41.0931 6.41203 46.2927C12.9109 54.2131 18.6874 62.6876 23.9994 71.443H26.5715C24.2961 62.6876 21.8201 54.2131 19.0373 46.2927C17.2079 41.0931 16.1582 34.3621 16.3015 27.0546C16.5838 12.5151 21.6564 0.712821 27.9159 0.0325861C28.1123 0.0122198 28.3046 0 28.499 0C28.0468 0 27.5925 0.0122198 27.1342 0.0325861C12.5282 0.712821 0.690775 12.5151 0.0298424 27.0546Z" fill="#0088B3"/>
<path d="M30.4386 71.443H33.0271C38.4885 62.5572 44.5209 54.0298 50.9707 45.8161C54.7501 41.0056 57.001 34.9507 57.001 28.3703C57.001 12.7025 44.2426 0.00407327 28.5008 0C35.2452 0.00407327 40.7128 12.7025 40.7128 28.3703C40.7128 34.9507 39.747 41.0056 38.1284 45.8161C35.366 54.0298 32.7795 62.5572 30.4386 71.443Z" fill="#0088B3"/>
<path d="M16.2991 27.0546C16.1559 34.3621 17.2056 41.0931 19.0349 46.2927C21.8178 54.2131 24.2938 62.6876 26.5692 71.443H30.4387C32.7796 62.5572 35.366 54.0298 38.1285 45.8161C39.7471 41.0056 40.7129 34.9507 40.7129 28.3703C40.7129 12.7025 35.2453 0.00407327 28.5009 0C28.4988 0 28.4988 0 28.4968 0C28.3024 0 28.1101 0.0122198 27.9136 0.0325861C21.6541 0.712821 16.5815 12.5151 16.2991 27.0546Z" fill="#E6E6E6"/>
</svg>
