<svg width="1487" height="91" viewBox="0 0 1487 91" fill="none" xmlns="http://www.w3.org/2000/svg">
<path d="M100 70C100 42.3858 77.6142 20 50 20C22.3858 20 0 42.3858 0 70C0 97.6142 22.3858 89.5 50 89.5C77.6142 89.5 100 97.6142 100 70Z" fill="white"/>
<path d="M182 86C182 58.3858 159.614 36 132 36C104.386 36 82 58.3858 82 86C82 90.4748 96.3858 86 124 86C151.614 86 182 86 182 86Z" fill="white"/>
<path d="M243 62C243 34.3858 220.614 12 193 12C165.386 12 143 34.3858 143 62C143 89.6142 165.386 86 193 86C220.614 86 243 89.6142 243 62Z" fill="white"/>
<path d="M313 70C313 42.3858 290.614 20 263 20C235.386 20 213 42.3858 213 70C213 89.5 235.386 82.5 263 82.5C290.614 82.5 313 75.1343 313 70Z" fill="white"/>
<path d="M387 50C387 22.3858 364.614 0 337 0C309.386 0 287 22.3858 287 50C287 77.6142 309.386 75.5 337 75.5C364.614 75.5 387 77.6142 387 50Z" fill="white"/>
<path d="M465 70C465 42.3858 442.614 20 415 20C387.386 20 365 42.3858 365 70C365 75.5 387.386 70 415 70C442.614 70 465 70 465 70Z" fill="white"/>
<path d="M531 50C531 22.3858 508.614 0 481 0C453.386 0 431 22.3858 431 50C431 77.6142 453.386 70 481 70C508.614 70 531 77.6142 531 50Z" fill="white"/>
<path d="M596 56C596 28.3858 573.614 6 546 6C518.386 6 496 28.3858 496 56C496 83.6142 518.386 70 546 70C573.614 70 596 83.6142 596 56Z" fill="white"/>
<path d="M663 62C663 34.3858 640.614 12 613 12C585.386 12 563 34.3858 563 62C563 77 585.386 70 613 70C640.614 70 663 89.6142 663 62Z" fill="white"/>
<path d="M739 50C739 22.3858 716.614 0 689 0C661.386 0 639 22.3858 639 50C639 77.6142 656.886 70 684.5 70C712.114 70 739 77.6142 739 50Z" fill="white"/>
<path d="M813 77C813 49.3858 790.614 27 763 27C735.386 27 713 49.3858 713 77C710 67 735.386 70 763 70C790.614 70 812.063 67.3152 813 77Z" fill="white"/>
<path d="M884 62C884 34.3858 861.614 12 834 12C806.386 12 784 34.3858 784 62C784 80.5 806.386 77 834 77C861.614 77 884 89.6142 884 62Z" fill="white"/>
<path d="M958 50C958 22.3858 935.614 0 908 0C880.386 0 858 22.3858 858 50C858 77.6142 880.386 77 908 77C935.614 77 958 77.6142 958 50Z" fill="white"/>
<path d="M1028 77C1028 49.3858 1005.61 27 978 27C950.386 27 928 49.3858 928 77C923 76.8705 950.386 77 978 77C1005.61 77 1028 82 1028 77Z" fill="white"/>
<path d="M1090 50C1090 22.3858 1067.61 0 1040 0C1012.39 0 990 22.3858 990 50C990 77.6142 1012.39 77 1040 77C1067.61 77 1090 77.6142 1090 50Z" fill="white"/>
<path d="M1163 62C1163 34.3858 1140.61 12 1113 12C1085.39 12 1063 34.3858 1063 62C1063 89.6142 1085.39 77 1113 77C1140.61 77 1163 89.6142 1163 62Z" fill="white"/>
<path d="M1225 70C1225 42.3858 1202.61 20 1175 20C1147.39 20 1125 42.3858 1125 70C1125 84 1147.39 77 1175 77C1202.61 77 1225 82 1225 70Z" fill="white"/>
<path d="M1280 50C1280 22.3858 1257.61 0 1230 0C1202.39 0 1180 22.3858 1180 50C1180 77.6142 1202.39 77 1230 77C1257.61 77 1280 77.6142 1280 50Z" fill="white"/>
<path d="M1352 62C1352 34.3858 1329.61 12 1302 12C1274.39 12 1252 34.3858 1252 62C1252 89.6142 1274.39 77 1302 77C1329.61 77 1352 89.6142 1352 62Z" fill="white"/>
<path d="M1424 50C1424 22.3858 1401.61 0 1374 0C1346.39 0 1324 22.3858 1324 50C1324 77.6142 1346.39 80.5 1374 80.5C1401.61 80.5 1424 77.6142 1424 50Z" fill="white"/>
<path d="M1487 62C1487 34.3858 1464.61 12 1437 12C1409.39 12 1387 34.3858 1387 62C1387 89.6142 1405.89 80.5 1433.5 80.5C1461.11 80.5 1487 89.6142 1487 62Z" fill="white"/>
</svg>
