<svg width="1487" height="91" viewBox="0 0 1487 91" fill="none" xmlns="http://www.w3.org/2000/svg">
<path d="M1387 20.6118C1387 48.2261 1409.39 70.6118 1437 70.6118C1464.61 70.6118 1487 48.2261 1487 20.6118C1487 -7.00242 1464.61 1.11182 1437 1.11182C1409.39 1.11182 1387 -7.00242 1387 20.6118Z" fill="white"/>
<path d="M1305 4.61182C1305 32.2261 1327.39 54.6118 1355 54.6118C1382.61 54.6118 1405 32.2261 1405 4.61182C1405 0.137034 1390.61 4.61182 1363 4.61182C1335.39 4.61182 1305 4.61182 1305 4.61182Z" fill="white"/>
<path d="M1244 28.6118C1244 56.2261 1266.39 78.6118 1294 78.6118C1321.61 78.6118 1344 56.2261 1344 28.6118C1344 0.99758 1321.61 4.61182 1294 4.61182C1266.39 4.61182 1244 0.99758 1244 28.6118Z" fill="white"/>
<path d="M1174 20.6118C1174 48.2261 1196.39 70.6118 1224 70.6118C1251.61 70.6118 1274 48.2261 1274 20.6118C1274 1.11182 1251.61 8.11182 1224 8.11182C1196.39 8.11182 1174 15.4775 1174 20.6118Z" fill="white"/>
<path d="M1100 40.6118C1100 68.2261 1122.39 90.6118 1150 90.6118C1177.61 90.6118 1200 68.2261 1200 40.6118C1200 12.9976 1177.61 15.1118 1150 15.1118C1122.39 15.1118 1100 12.9976 1100 40.6118Z" fill="white"/>
<path d="M1022 20.6118C1022 48.2261 1044.39 70.6118 1072 70.6118C1099.61 70.6118 1122 48.2261 1122 20.6118C1122 15.1118 1099.61 20.6118 1072 20.6118C1044.39 20.6118 1022 20.6118 1022 20.6118Z" fill="white"/>
<path d="M956 40.6118C956 68.2261 978.386 90.6118 1006 90.6118C1033.61 90.6118 1056 68.2261 1056 40.6118C1056 12.9976 1033.61 20.6118 1006 20.6118C978.386 20.6118 956 12.9976 956 40.6118Z" fill="white"/>
<path d="M891 34.6118C891 62.2261 913.386 84.6118 941 84.6118C968.614 84.6118 991 62.2261 991 34.6118C991 6.99758 968.614 20.6118 941 20.6118C913.386 20.6118 891 6.99758 891 34.6118Z" fill="white"/>
<path d="M824 28.6118C824 56.2261 846.386 78.6118 874 78.6118C901.614 78.6118 924 56.2261 924 28.6118C924 13.6118 901.614 20.6118 874 20.6118C846.386 20.6118 824 0.99758 824 28.6118Z" fill="white"/>
<path d="M748 40.6118C748 68.2261 770.386 90.6118 798 90.6118C825.614 90.6118 848 68.2261 848 40.6118C848 12.9976 830.114 20.6118 802.5 20.6118C774.886 20.6118 748 12.9976 748 40.6118Z" fill="white"/>
<path d="M674 13.6118C674 41.2261 696.386 63.6118 724 63.6118C751.614 63.6118 774 41.2261 774 13.6118C777 23.6118 751.614 20.6118 724 20.6118C696.386 20.6118 674.937 23.2967 674 13.6118Z" fill="white"/>
<path d="M603 28.6118C603 56.2261 625.386 78.6118 653 78.6118C680.614 78.6118 703 56.2261 703 28.6118C703 10.1118 680.614 13.6118 653 13.6118C625.386 13.6118 603 0.99758 603 28.6118Z" fill="white"/>
<path d="M529 40.6118C529 68.2261 551.386 90.6118 579 90.6118C606.614 90.6118 629 68.2261 629 40.6118C629 12.9976 606.614 13.6118 579 13.6118C551.386 13.6118 529 12.9976 529 40.6118Z" fill="white"/>
<path d="M459 13.6118C459 41.2261 481.386 63.6118 509 63.6118C536.614 63.6118 559 41.2261 559 13.6118C564 13.7413 536.614 13.6118 509 13.6118C481.386 13.6118 459 8.61182 459 13.6118Z" fill="white"/>
<path d="M397 40.6118C397 68.2261 419.386 90.6118 447 90.6118C474.614 90.6118 497 68.2261 497 40.6118C497 12.9976 474.614 13.6118 447 13.6118C419.386 13.6118 397 12.9976 397 40.6118Z" fill="white"/>
<path d="M324 28.6118C324 56.2261 346.386 78.6118 374 78.6118C401.614 78.6118 424 56.2261 424 28.6118C424 0.99758 401.614 13.6118 374 13.6118C346.386 13.6118 324 0.99758 324 28.6118Z" fill="white"/>
<path d="M262 20.6118C262 48.2261 284.386 70.6118 312 70.6118C339.614 70.6118 362 48.2261 362 20.6118C362 6.61182 339.614 13.6118 312 13.6118C284.386 13.6118 262 8.61182 262 20.6118Z" fill="white"/>
<path d="M207 40.6118C207 68.2261 229.386 90.6118 257 90.6118C284.614 90.6118 307 68.2261 307 40.6118C307 12.9976 284.614 13.6118 257 13.6118C229.386 13.6118 207 12.9976 207 40.6118Z" fill="white"/>
<path d="M135 28.6118C135 56.2261 157.386 78.6118 185 78.6118C212.614 78.6118 235 56.2261 235 28.6118C235 0.99758 212.614 13.6118 185 13.6118C157.386 13.6118 135 0.99758 135 28.6118Z" fill="white"/>
<path d="M63 40.6118C63 68.2261 85.3858 90.6118 113 90.6118C140.614 90.6118 163 68.2261 163 40.6118C163 12.9976 140.614 10.1118 113 10.1118C85.3858 10.1118 63 12.9976 63 40.6118Z" fill="white"/>
<path d="M0 28.6118C0 56.2261 22.3858 78.6118 50 78.6118C77.6142 78.6118 100 56.2261 100 28.6118C100 0.99758 81.1142 10.1118 53.5 10.1118C25.8858 10.1118 0 0.99758 0 28.6118Z" fill="white"/>
</svg>
