<svg width="135" height="56" viewBox="0 0 135 56" fill="none" xmlns="http://www.w3.org/2000/svg">
<path d="M51.8737 23.9726L50.4592 24.4065L8.28635 22.5233L7.99512 19.5281L12.1917 17.9861L49.7719 18.0296C53.1356 18.0296 51.4515 22.0392 51.8737 23.9726Z" fill="#008DB3"/>
<path d="M77.0041 19.624C76.1196 19.624 75.4023 18.9104 75.4023 18.0298V3.82654C75.4023 2.94594 76.1196 2.2323 77.0041 2.2323C77.8886 2.2323 78.6059 2.94594 78.6059 3.82654V18.0298C78.6059 18.9104 77.8886 19.624 77.0041 19.624Z" fill="#008DB3"/>
<path d="M90.2664 42.9027L91.7949 54.7367L94.6833 54.3671L93.1548 42.5331L90.2664 42.9027Z" fill="#008DB3"/>
<path d="M69.0037 42.9027L70.5322 54.7367L73.4206 54.3671L71.8921 42.5331L69.0037 42.9027Z" fill="#008DB3"/>
<path d="M105.159 56.0002H66.0771V53.1016H105.159C108.004 53.1016 110.644 51.8245 112.402 49.5975L113.302 48.458L115.592 50.2488L114.692 51.3885C112.379 54.3193 108.904 56.0002 105.159 56.0002Z" fill="#008DB3"/>
<path d="M6.40705 2.02903L12.1938 17.9859H12.1909L1.74738 17.9743V17.9714L0 0L6.40705 2.02903Z" fill="#F4581B"/>
<path d="M1.728 17.9697V17.9668L1.74838 17.9697V17.9726L12.1919 17.9842H12.1948L9.98143 22.1466L5.44117 30.6772L0.333008 32.2946L1.728 17.9697Z" fill="#008DB3"/>
<path d="M110.935 39.4785L111.466 39.548C111.037 43.2611 107.869 46.1453 104.022 46.1453H78.0266C70.2245 46.1453 63.1652 42.9974 58.0512 37.9103C54.2972 34.1711 51.5946 29.3884 50.4239 24.0346L49.7773 18.0287H90.7649L89.5796 25.4694C88.406 32.8232 94.117 39.4785 101.599 39.4785H110.935Z" fill="#F4581B"/>
<path d="M111.519 38.6842C111.519 38.977 111.502 39.2639 111.467 39.548L110.937 39.4784H101.6C94.1185 39.4784 88.4075 32.8232 89.5811 25.4694L90.2888 21.0317L90.7664 18.0287C96.4949 18.0287 101.685 20.3389 105.441 24.0781C109.195 27.8173 111.519 32.9797 111.519 38.6842Z" fill="#76CDCE"/>
<path d="M81.2216 28.0282H64.2575C63.0512 28.0282 62.0732 27.0549 62.0732 25.8543C62.0732 24.6537 63.0512 23.6803 64.2575 23.6803H81.2216C82.4281 23.6803 83.4058 24.6537 83.4058 25.8543C83.4058 27.0549 82.4281 28.0282 81.2216 28.0282Z" fill="#DB481B"/>
<path d="M58.4088 28.0288C58.2661 28.0288 58.1234 28.0143 57.9807 27.9853C57.8438 27.9563 57.7041 27.9158 57.573 27.8607C57.4419 27.8085 57.3138 27.739 57.1973 27.6607C57.0779 27.5824 56.9643 27.4926 56.8653 27.3911C56.4576 26.9853 56.2246 26.4259 56.2246 25.8549C56.2246 25.7128 56.2392 25.5708 56.2683 25.4288C56.2945 25.2896 56.3382 25.1534 56.3935 25.023C56.4459 24.8925 56.5158 24.765 56.5945 24.6461C56.6731 24.5273 56.7634 24.4171 56.8653 24.3157C56.9643 24.2171 57.0779 24.1244 57.1973 24.0461C57.3138 23.9679 57.4419 23.9012 57.573 23.8461C57.7041 23.791 57.8438 23.7505 57.9807 23.7215C58.6913 23.5795 59.4456 23.8113 59.9523 24.3157C60.0543 24.4171 60.1445 24.5273 60.2261 24.6461C60.3047 24.765 60.3717 24.8925 60.4241 25.023C60.4795 25.1534 60.5231 25.2896 60.5494 25.4288C60.5785 25.5708 60.593 25.7128 60.593 25.8549C60.593 26.4259 60.3601 26.9853 59.9523 27.3911C59.5475 27.7969 58.9855 28.0288 58.4088 28.0288Z" fill="#DB481B"/>
<path d="M132.478 9.47584H21.5202C20.3139 9.47584 19.3359 8.50249 19.3359 7.30189C19.3359 6.10128 20.3139 5.12793 21.5202 5.12793H132.478C133.685 5.12793 134.663 6.10128 134.663 7.30189C134.663 8.50249 133.685 9.47584 132.478 9.47584Z" fill="#666666"/>
<path d="M111.513 38.6842C111.513 38.977 111.495 39.2639 111.46 39.548L110.93 39.4784H108.816L90.2822 21.0317L90.7598 18.0287C96.4883 18.0287 101.678 20.3389 105.435 24.0781C109.189 27.8173 111.513 32.9797 111.513 38.6842Z" fill="#96E0DE"/>
</svg>
