<svg width="246" height="98" viewBox="0 0 246 98" fill="none" xmlns="http://www.w3.org/2000/svg">
<g id="Group 123">
<g id="Group 65">
<path id="Ellipse 43" d="M175.492 59.2152C175.492 75.9868 175.492 73.0306 144.838 73.0306C114.184 73.0306 114.184 75.9868 114.184 59.2152C114.184 42.4437 127.908 28.8477 144.838 28.8477C161.768 28.8477 175.492 42.4437 175.492 59.2152Z" fill="white"/>
<path id="Ellipse 44" d="M224.539 54.1695C224.539 76.546 224.539 72.6019 183.156 72.6019C141.772 72.6019 141.772 76.546 141.772 54.1695C141.772 31.7929 160.3 13.6531 183.156 13.6531C206.011 13.6531 224.539 31.7929 224.539 54.1695Z" fill="white"/>
<path id="Ellipse 45" d="M246 65.2337C246 74.4138 246 72.7957 229.141 72.7957C212.281 72.7957 212.281 74.4138 212.281 65.2337C212.281 56.0535 219.829 48.6116 229.141 48.6116C238.452 48.6116 246 56.0535 246 65.2337Z" fill="white"/>
<path id="Ellipse 41" d="M61.3084 58.2387C61.3084 75.0102 61.3084 72.054 30.6542 72.054C0 72.054 0 75.0102 0 58.2387C0 41.4671 13.7244 27.8711 30.6542 27.8711C47.584 27.8711 61.3084 41.4671 61.3084 58.2387Z" fill="white"/>
<path id="Ellipse 42" d="M141.774 49.8663C141.774 77.4067 141.774 72.5524 91.1947 72.5524C40.6152 72.5524 40.6152 77.4067 40.6152 49.8663C40.6152 22.3259 63.2604 0 91.1947 0C119.129 0 141.774 22.3259 141.774 49.8663Z" fill="white"/>
</g>
<path id="Rectangle 161" d="M0 60.6763H246V87.8699C246 93.3927 241.523 97.8699 236 97.8699H10C4.47715 97.8699 0 93.3927 0 87.8699V60.6763Z" fill="white"/>
</g>
</svg>
