<svg width="205" height="211" viewBox="0 0 205 211" fill="none" xmlns="http://www.w3.org/2000/svg">
<path d="M76.9127 10.98C78.2083 4.47714 86.3981 2.28267 90.7716 7.26654L125.323 46.6408C128.797 50.599 133.996 52.5946 139.225 51.9772L191.249 45.8361C197.834 45.0588 202.452 52.1697 199.063 57.8692L172.293 102.897C169.602 107.424 169.311 112.985 171.514 117.768L193.431 165.347C196.205 171.37 190.869 177.959 184.401 176.498L133.305 164.952C128.168 163.792 122.789 165.233 118.921 168.806L80.4427 204.353C75.5723 208.853 67.6567 205.814 67.0479 199.212L62.2385 147.048C61.755 141.804 58.7222 137.134 54.1283 134.559L8.43073 108.949C2.64651 105.707 3.09024 97.2402 9.18165 94.6209L57.3059 73.9275C62.1437 71.8472 65.6481 67.5196 66.6771 62.3551L76.9127 10.98Z" fill="white" stroke="#FFCA42" stroke-width="8"/>
</svg>
