<svg width="11010" height="11010" viewBox="0 0 11010 11010" fill="none" xmlns="http://www.w3.org/2000/svg">
<path d="M2902.94 3930.66C2925.47 3882.5 2945.15 3836.15 2968.19 3791.1C3156.44 3422.89 3435.32 3147.38 3813.36 2976.48C4459.67 2684.14 5207.22 2853.74 5665.54 3396.99C5911.79 3688.82 6042.29 4027.76 6061.2 4409.44C6061.46 4416.69 6062.23 4423.94 6062.49 4431.19C6062.75 4448.28 6070.52 4448.54 6084.5 4443.1C6269.38 4370.34 6462.55 4371.37 6656.23 4379.66C6745.31 4383.54 6833.35 4395.71 6918.54 4423.16C7095.91 4480.65 7200.52 4609.6 7267.84 4776.87C7325.33 4919.54 7352.51 5068.43 7361.06 5220.95C7374.27 5458.65 7354.84 5692.47 7271.98 5917.75C7222.53 6052.91 7150.8 6171.24 7020.82 6245.04C6930.97 6296.05 6833.09 6320.39 6731.84 6332.3C6584.51 6349.65 6437.17 6347.84 6289.32 6329.2C6042.81 6298.38 5878.9 6166.32 5787.5 5937.17C5694.8 5704.64 5671.5 5463.31 5683.67 5215.51C5690.92 5067.91 5692.47 4919.54 5656.22 4774.02C5615.31 4609.34 5512.51 4501.1 5357.15 4438.96C5247.88 4395.2 5133.68 4379.4 5017.42 4377.07C4802.25 4372.67 4589.92 4392.87 4384.58 4463.04C4369.56 4468.22 4354.28 4469.51 4339.78 4460.97C4240.87 4403.74 4130.56 4391.57 4020 4383.54C3710.57 4361.02 3404.5 4394.94 3099.99 4446.47C3053.13 4454.49 3047.69 4461.74 3047.69 4509.65C3047.69 5088.37 3047.69 5667.35 3047.95 6246.08C3047.95 6305.37 3051.57 6308.74 3111.9 6308.74C3226.87 6308.74 3341.58 6308.74 3456.55 6308.74C3506.27 6308.74 3512.74 6302.78 3512.74 6254.1C3512.74 5778.7 3512.48 5303.55 3512.22 4828.14C3512.22 4764.7 3517.92 4756.41 3579.8 4748.64C3697.1 4734.14 3814.4 4724.56 3932.22 4742.95C3954.49 4746.31 3976.75 4752.27 3997.99 4760.04C4078.26 4789.04 4114.51 4836.94 4116.58 4922.65C4118.91 5021.05 4118.13 5119.44 4118.13 5217.84C4118.65 5561.71 4119.17 5905.32 4119.43 6249.18C4119.43 6305.89 4122.28 6308.48 4179.5 6308.74C4296.54 6308.74 4413.32 6308.74 4530.36 6308.74C4577.75 6308.74 4582.41 6304.34 4582.41 6257.21C4582.41 5777.66 4582.15 5298.37 4581.89 4818.82C4581.89 4770.4 4588.1 4759.52 4635.75 4752.53C4764.96 4733.11 4894.69 4720.68 5024.15 4749.16C5132.91 4773.24 5191.94 4843.67 5209.03 4952.43C5215.25 4991.53 5216.03 5030.63 5216.03 5069.99C5216.54 5469.78 5216.8 5869.32 5217.58 6269.12C5217.58 6283.36 5212.14 6291.65 5203.08 6300.97C5014.06 6496.21 4806.39 6669.96 4586.29 6828.69C4172.51 7126.72 3725.58 7364.94 3259.5 7569.5C3187.51 7601.09 3114.75 7630.35 3043.03 7662.2C3014.28 7674.89 2989.17 7674.11 2960.68 7660.91C2742.66 7560.44 2527.22 7455.57 2320.59 7333.35C1959.12 7119.73 1615.25 6882.03 1309.7 6592.02C962.469 6262.39 684.111 5884.34 504.409 5438.71C418.701 5226.38 366.137 5005.51 371.574 4774.02C385.039 4191.93 735.122 3655.67 1291.32 3449.04C1675.84 3306.11 2050.78 3341.06 2413.03 3527.24C2594.03 3620.2 2739.81 3757.95 2878.08 3904.25C2885.85 3912.28 2893.36 3920.56 2902.94 3930.66ZM6892.13 5345.24C6893.94 5278.95 6890.83 5212.66 6884.88 5146.63C6876.59 5054.97 6864.16 4963.82 6830.76 4877.08C6800.98 4800.17 6751.26 4745.8 6666.85 4733.63C6568.19 4719.13 6468.76 4717.57 6370.37 4736.99C6308.22 4749.42 6261.87 4784.64 6232.61 4842.12C6199.73 4906.6 6183.16 4975.73 6172.28 5046.16C6146.13 5213.95 6147.16 5382.52 6161.15 5551.09C6169.17 5648.97 6183.93 5746.07 6219.67 5838.77C6250.22 5918.26 6307.19 5964.35 6390.05 5979.63C6459.7 5992.58 6530.13 5989.47 6600.56 5986.62C6735.21 5981.44 6802.79 5929.14 6841.89 5800.45C6844.22 5792.42 6846.55 5784.65 6848.36 5776.62C6882.8 5634.99 6891.61 5490.76 6892.13 5345.49V5345.24Z" fill="white"/>
<path d="M8388 5378.9C8388 5087.85 8388 4797.06 8388 4506.02C8388 4462.52 8393.18 4454.75 8434.87 4448.28C8715.82 4404 8997.54 4365.42 9283.41 4378.36C9410.55 4384.06 9536.91 4396.75 9657.05 4444.13C9805.43 4502.65 9890.61 4612.7 9921.95 4766.77C9938.78 4849.11 9947.58 4932.23 9947.58 5016.38C9947.58 5430.42 9948.1 5844.72 9948.1 6258.76C9948.1 6305.63 9944.22 6309.26 9895.79 6309.26C9776.68 6309.26 9657.83 6309.26 9538.72 6309.26C9489.78 6309.26 9484.08 6303.3 9483.83 6253.33C9483.83 5958.14 9483.57 5663.21 9483.31 5368.02C9483.31 5259.27 9483.31 5150.51 9482.01 5042.02C9481.49 5005.77 9478.91 4969.52 9473.99 4933.78C9459.23 4821.4 9400.45 4760.55 9285.22 4744.76C9160.67 4727.41 9035.61 4730.52 8911.32 4750.71C8857.97 4759.52 8853.05 4767.03 8853.05 4822.18C8853.05 5298.37 8853.31 5774.55 8853.57 6251C8853.57 6305.11 8849.69 6309.26 8795.05 6309.26C8678.01 6309.26 8561.23 6309.26 8444.19 6309.26C8394.48 6309.26 8388.26 6303.56 8388.26 6254.62C8388.26 5962.54 8388.26 5670.72 8388.26 5378.64C8388.26 5378.64 8387.75 5378.64 8387.49 5378.64L8388 5378.9Z" fill="white"/>
<path d="M8071.32 5473.41C8071.32 5757.98 8072.1 6042.81 8071.07 6327.38C8070.55 6446.23 8066.66 6565.34 8037.4 6681.61C7998.56 6836.45 7894.21 6917.76 7741.18 6942.62C7583.75 6968.25 7426.31 6968.25 7268.88 6942.62C7253.6 6940.28 7238.84 6935.37 7224.08 6930.96C7204.4 6925.01 7197.93 6911.8 7199.23 6890.83C7203.37 6813.41 7205.96 6735.73 7208.55 6658.3C7210.36 6609.36 7220.46 6600.82 7269.66 6609.1C7336.2 6620.5 7403.27 6623.61 7470.59 6616.61C7537.66 6609.62 7572.61 6568.71 7587.37 6506.31C7601.87 6445.2 7601.35 6383.05 7601.35 6321.17C7601.35 5761.09 7601.35 5201.26 7601.35 4641.18C7601.35 4578 7601.35 4514.82 7601.35 4451.64C7601.35 4412.8 7609.12 4403.74 7648.48 4403.74C7774.58 4402.96 7900.94 4402.96 8027.05 4403.74C8063.3 4403.74 8070.81 4413.58 8070.81 4455.01C8070.81 4794.47 8070.81 5133.94 8070.81 5473.67H8071.32V5473.41Z" fill="white"/>
<path d="M9966.23 8325.6C9966.23 8439.27 9965.45 8553.2 9966.74 8666.88C9966.74 8689.92 9959.49 8701.83 9937.48 8705.72C9843.23 8722.29 9748.46 8728.51 9653.95 8711.67C9567.46 8696.14 9518.52 8642.54 9505.06 8555.79C9491.85 8470.35 9488.75 8385.15 9510.76 8300.48C9535.35 8205.97 9599.83 8152.89 9697.45 8148.75C9731.37 8147.19 9765.81 8147.19 9799.73 8150.56C9825.88 8153.15 9831.32 8144.08 9830.54 8120.26C9828.99 8074.69 9832.1 8029.12 9829.25 7983.8C9827.44 7953.77 9838.57 7946 9866.28 7948.33C9889.84 7950.4 9913.92 7950.14 9937.48 7948.33C9961.05 7946.52 9967.26 7955.32 9967 7978.11C9965.97 8093.85 9966.48 8209.85 9966.48 8325.6H9966.23ZM9830.03 8437.2C9830.03 8383.6 9829.77 8329.74 9830.03 8276.14C9830.03 8260.61 9826.66 8249.73 9809.05 8248.69C9778.24 8246.62 9747.17 8244.55 9716.35 8249.99C9681.65 8255.94 9657.83 8276.4 9649.55 8310.84C9629.61 8394.48 9629.87 8478.63 9649.55 8562.01C9656.28 8589.97 9675.18 8607.84 9703.92 8615.61C9735.51 8624.41 9767.36 8620.01 9799.21 8620.53C9823.03 8620.79 9830.8 8609.65 9830.03 8585.83C9828.47 8536.37 9829.51 8486.66 9829.51 8437.2H9830.03Z" fill="white"/>
<path d="M5408.16 8323.01C5408.16 8437.72 5407.64 8552.69 5408.68 8667.4C5408.68 8688.37 5403.24 8700.28 5381.49 8704.42C5286.2 8722.55 5190.39 8729.54 5095.1 8710.64C5005.25 8693.03 4961.49 8645.13 4946.99 8554.5C4931.97 8461.8 4929.38 8369.62 4959.42 8278.73C4987.39 8194.32 5049.53 8155.74 5133.68 8148.49C5169.42 8145.38 5206.19 8146.67 5241.92 8150.04C5266.78 8152.37 5272.48 8144.34 5271.7 8121.56C5270.4 8072.88 5272.22 8024.2 5270.66 7975.77C5269.89 7953.76 5277.4 7946.51 5298.89 7947.55C5325.56 7949.1 5352.75 7949.36 5379.42 7947.55C5403.76 7945.74 5408.68 7955.84 5408.42 7978.1C5407.38 8092.81 5407.9 8207.78 5407.9 8322.49L5408.16 8323.01ZM5271.18 8431.5C5271.18 8379.72 5271.18 8327.93 5271.18 8276.14C5271.18 8261.64 5269.89 8249.21 5250.72 8248.44C5220.69 8247.14 5190.65 8244.81 5160.87 8249.47C5125.14 8255.43 5099.76 8275.36 5091.22 8311.62C5071.54 8394.48 5072.32 8477.59 5091.22 8560.71C5097.69 8589.2 5116.85 8606.8 5144.82 8615.35C5175.37 8624.67 5206.45 8620.01 5237.26 8621.05C5261.86 8621.82 5272.73 8613.54 5271.7 8586.87C5269.89 8535.08 5271.18 8483.29 5271.18 8431.5Z" fill="white"/>
<path d="M7830.25 4191.93C7694.31 4190.38 7586.33 4080.59 7587.63 3945.94C7588.92 3809.74 7701.82 3699.43 7836.47 3702.28C7971.63 3705.13 8079.09 3815.95 8077.54 3950.6C8075.98 4084.99 7964.64 4193.48 7830.25 4191.93Z" fill="white"/>
<path d="M3893.12 8147.45C3920.05 8147.71 3947.49 8146.67 3973.13 8154.7C3992.81 8160.92 4002.91 8156 4013 8138.65C4033.98 8102.91 4085.51 8086.34 4123.83 8100.32C4135.74 8104.73 4134.19 8110.94 4129.01 8119.23C4117.1 8138.39 4106.22 8158.84 4092.76 8176.97C4078.77 8195.87 4079.81 8210.89 4090.43 8232.64C4154.64 8365.48 4151.79 8500.38 4092.5 8633.73C4068.42 8688.11 4018.96 8710.12 3963.29 8718.67C3909.95 8726.95 3856.09 8726.69 3802.75 8716.08C3786.69 8712.71 3778.41 8716.59 3770.38 8730.84C3762.61 8744.56 3758.99 8766.05 3741.12 8768.64C3714.71 8772.27 3687.52 8770.97 3660.59 8769.68C3647.64 8769.16 3651.01 8759.32 3655.15 8751.29C3670.95 8722.29 3702.02 8696.4 3700.99 8665.32C3699.95 8636.06 3671.98 8609.65 3663.44 8578.58C3633.66 8471.12 3631.59 8364.44 3674.31 8259.57C3703.83 8187.33 3761.58 8155.48 3836.67 8150.04C3855.31 8148.75 3873.96 8148.23 3892.34 8147.45H3893.12ZM3997.73 8428.92C3998.5 8390.59 3995.4 8352.79 3985.82 8315.5C3973.65 8268.12 3954.48 8251.8 3905.8 8249.99C3889.49 8249.47 3872.92 8251.03 3856.61 8252.58C3825.02 8255.43 3806.37 8273.29 3797.83 8303.33C3773.23 8390.85 3776.34 8478.37 3797.83 8565.89C3806.37 8600.07 3829.68 8615.09 3861.79 8619.23C3876.03 8621.05 3890.53 8620.27 3905.03 8620.01C3953.45 8618.72 3973.65 8602.4 3984.78 8554.76C3994.62 8513.33 3998.25 8471.38 3997.47 8428.92H3997.73Z" fill="white"/>
<path d="M6996.48 8159.36C7043.26 8159.36 7071.48 8182.06 7081.15 8227.46C7104.97 8337.51 7128.79 8447.56 7152.62 8557.35C7154.17 8564.34 7156.24 8571.33 7157.54 8578.32C7159.61 8587.9 7162.2 8596.19 7174.89 8596.19C7187.31 8596.19 7190.16 8587.65 7192.23 8578.32C7205.96 8520.06 7220.46 8461.8 7232.89 8403.28C7248.42 8330.52 7262.92 8257.5 7276.65 8184.48C7280.01 8165.84 7287.26 8157.55 7306.94 8158.59C7330.77 8159.88 7354.59 8158.85 7378.41 8158.85C7418.8 8158.85 7420.36 8160.14 7410.78 8198.2C7389.54 8282.36 7368.83 8366.51 7345.52 8450.15C7317.82 8550.62 7294 8652.38 7255.16 8749.48C7201.3 8884.65 7128.28 8906.14 6992.85 8899.15C6976.8 8898.37 6967.48 8891.12 6966.18 8872.22C6962.04 8809.04 6961.26 8806.96 7024.18 8803.86C7081.15 8801.01 7115.85 8772.78 7136.3 8721.77C7143.81 8703.13 7141.22 8695.88 7119.73 8695.1C7066.39 8693.03 7066.65 8692.51 7050.6 8640.99C7006.06 8497.02 6966.96 8351.49 6933.04 8204.42C6922.42 8159.1 6922.94 8158.85 6968.77 8159.1C6978.09 8159.1 6987.41 8159.1 6996.74 8159.1L6996.48 8159.36Z" fill="white"/>
<path d="M4307.68 8440.31C4307.68 8359.52 4307.93 8278.73 4307.68 8197.94C4307.68 8181.89 4309.23 8170.24 4328.91 8167.65C4426.27 8153.92 4523.63 8139.68 4622.28 8153.92C4717.31 8167.39 4760.04 8211.67 4762.37 8307.73C4765.22 8435.13 4764.18 8562.53 4765.22 8689.66C4765.22 8708.31 4758.48 8715.3 4739.58 8714.52C4711.62 8713.23 4683.65 8712.97 4655.69 8714.52C4632.9 8715.82 4627.46 8706.24 4627.46 8685.52C4627.98 8577.8 4627.46 8470.09 4627.2 8362.37C4627.2 8355.12 4627.2 8347.87 4627.2 8340.62C4624.87 8273.55 4605.97 8255.17 4538.65 8253.87C4475.98 8252.49 4444.65 8282.87 4444.65 8345.02C4444.65 8454.81 4444.65 8564.6 4444.65 8674.39C4444.65 8700.97 4430.93 8714.26 4403.48 8714.26C4381.73 8714.26 4359.98 8712.71 4338.23 8714.78C4312.6 8717.37 4307.16 8706.24 4307.42 8682.93C4308.71 8602.14 4307.93 8521.36 4307.93 8440.57L4307.68 8440.31Z" fill="white"/>
<path d="M8866 8440.05C8866 8359.26 8866.26 8278.73 8865.74 8197.94C8865.74 8181.37 8868.07 8169.98 8886.98 8167.39C8986.41 8153.92 9085.58 8138.91 9186.31 8154.18C9273.05 8167.39 9317.33 8211.67 9319.4 8298.15C9322.77 8427.36 9320.95 8556.83 9321.99 8686.04C9321.99 8707.01 9315.78 8715.82 9293.77 8714.52C9267.1 8712.97 9239.91 8712.71 9213.24 8714.52C9187.34 8716.34 9185.27 8702.35 9185.53 8682.41C9186.05 8577.8 9186.05 8473.45 9185.53 8368.84C9185.01 8266.56 9170.25 8252.32 9068.75 8253.87C9024.56 8254.56 9002.46 8276.83 9002.46 8320.68C9002.46 8440.83 9001.94 8560.71 9002.98 8680.86C9002.98 8705.98 8997.02 8716.85 8970.35 8714.52C8945.75 8712.45 8920.64 8712.45 8896.04 8714.52C8869.89 8716.85 8865.48 8704.94 8865.74 8682.16C8866.78 8601.37 8866.26 8520.84 8866.26 8440.05H8866Z" fill="white"/>
<path d="M5878.65 8477.6C5834.11 8477.6 5789.83 8478.11 5745.29 8477.6C5729.5 8477.6 5724.32 8482.52 5724.06 8498.83C5723.54 8570.3 5763.94 8614.57 5837.22 8620.27C5893.4 8624.67 5948.82 8619.49 6002.68 8602.92C6024.43 8596.19 6031.94 8601.89 6034.01 8624.41C6040.48 8695.36 6038.15 8700.28 5966.42 8714.01C5897.81 8727.21 5828.93 8730.58 5760.31 8714.52C5672.27 8693.81 5617.64 8639.69 5598.73 8550.62C5580.87 8466.2 5580.09 8382.31 5606.24 8299.45C5629.81 8224.87 5677.97 8174.9 5755.39 8156.51C5810.55 8143.57 5866.22 8143.57 5921.11 8159.1C5998.53 8180.85 6034.01 8237.82 6045.14 8312.91C6051.62 8356.93 6052.39 8401.47 6048.25 8446.01C6046.18 8469.57 6035.04 8478.37 6012 8477.85C5967.46 8477.08 5923.18 8477.85 5878.65 8477.85V8477.6ZM5826.6 8392.41C5840.06 8392.41 5853.53 8392.41 5866.99 8392.41C5935.09 8392.41 5942.09 8383.6 5927.33 8315.5C5920.33 8282.62 5906.87 8255.95 5869.58 8246.88C5777.92 8224.87 5713.18 8281.32 5722.77 8375.57C5724.32 8390.07 5731.31 8392.41 5742.96 8392.41C5770.93 8392.41 5798.89 8392.41 5826.6 8392.41Z" fill="white"/>
<path d="M3260.79 8719.7C3205.38 8722.81 3155.41 8713.49 3105.17 8707.02C3086.01 8704.69 3077.21 8698.21 3077.72 8675.94C3080.31 8595.15 3079.28 8594.64 3158.25 8602.4C3192.17 8605.77 3226.35 8608.88 3260.28 8607.58C3288.76 8606.55 3318.02 8603.44 3330.45 8572.63C3344.17 8538.97 3342.36 8505.82 3316.72 8477.08C3276.85 8431.77 3227.39 8397.33 3180.52 8360.3C3133.14 8323.01 3093.52 8280.29 3086.53 8216.59C3082.64 8181.37 3083.94 8146.42 3093.52 8111.98C3108.02 8060.45 3142.98 8029.12 3193.99 8016.69C3280.99 7995.46 3368.25 8000.64 3455.25 8018.24C3470.53 8021.35 3476.49 8028.86 3476.75 8045.69C3477.26 8129.59 3477.78 8128.81 3396.48 8120.01C3364.63 8116.64 3332.52 8116.9 3300.41 8116.9C3272.7 8116.9 3245.26 8120.52 3234.12 8151.6C3222.47 8183.44 3223.77 8214.52 3247.59 8241.71C3275.29 8273.3 3310.77 8294.79 3343.39 8320.16C3361.26 8334.15 3379.9 8347.35 3398.03 8361.08C3468.2 8414.68 3492.54 8486.66 3480.37 8572.11C3467.17 8666.1 3414.6 8713.49 3318.28 8719.7C3297.56 8721 3276.85 8719.7 3260.79 8719.7Z" fill="white"/>
<path d="M8668.69 8484.59C8668.69 8547.77 8667.91 8610.95 8669.21 8674.13C8669.73 8695.88 8662.99 8705.98 8640.98 8709.6C8534.04 8726.69 8427.1 8734.72 8320.94 8708.05C8264.49 8693.81 8238.08 8658.85 8233.42 8601.63C8222.02 8463.35 8261.64 8414.67 8399.4 8397.84C8437.46 8393.18 8475.26 8387.74 8513.33 8384.38C8530.42 8382.82 8535.86 8375.57 8536.89 8359C8541.81 8284.95 8521.1 8261.12 8446 8259.05C8400.43 8257.76 8354.86 8259.05 8309.8 8266.56C8291.16 8269.67 8281.84 8265.27 8280.29 8244.03C8272.78 8148.23 8265.27 8169.46 8345.54 8156.51C8416.74 8144.86 8489.77 8140.2 8560.97 8160.66C8632.44 8181.37 8666.88 8226.68 8668.43 8301.52C8669.21 8332.59 8668.69 8363.66 8668.69 8394.74C8668.69 8424.77 8668.69 8454.81 8668.69 8484.84V8484.59ZM8536.63 8548.8C8536.63 8528.09 8536.11 8507.37 8536.63 8486.66C8537.15 8472.16 8531.71 8465.94 8516.95 8466.2C8481.74 8466.98 8446.52 8464.39 8411.82 8470.6C8389.3 8474.75 8375.32 8486.66 8368.32 8508.93C8342.17 8595.15 8370.4 8635.29 8459.21 8636.84C8463.35 8636.84 8467.5 8636.84 8471.64 8636.84C8514.8 8635.8 8536.46 8613.62 8536.63 8570.29C8536.63 8563.04 8536.63 8555.79 8536.63 8548.54V8548.8Z" fill="white"/>
<path d="M5282.05 7447.29C5282.05 7362.36 5283.35 7277.68 5281.28 7192.75C5280.76 7164.27 5290.34 7158.06 5316.49 7158.83C5379.41 7160.64 5442.6 7158.83 5505.78 7159.61C5605.98 7160.64 5674.6 7213.73 5697.91 7310.83C5719.92 7402.75 5719.66 7495.71 5697.91 7587.37C5674.86 7684.21 5604.69 7737.56 5505 7738.07C5439.75 7738.33 5374.75 7737.3 5309.5 7738.59C5287.75 7739.11 5281.28 7732.38 5281.54 7710.63C5282.57 7622.85 5282.05 7534.81 5282.05 7446.77V7447.29ZM5395.21 7447.03C5395.21 7488.46 5395.21 7529.63 5395.21 7571.06C5395.21 7624.75 5421.97 7651.33 5475.48 7650.81C5539.96 7650.29 5571.29 7627.77 5584.75 7564.07C5601.06 7487.68 5601.06 7409.74 5586.05 7333.1C5573.62 7271.21 5539.7 7247.13 5476.52 7246.87C5456.84 7246.87 5437.16 7247.91 5417.74 7246.87C5399.87 7245.83 5394.95 7253.34 5395.21 7270.43C5395.99 7329.47 5395.47 7388.25 5395.47 7447.29L5395.21 7447.03Z" fill="white"/>
<path d="M9426.6 7506.32C9428.41 7551.12 9421.94 7594.88 9408.22 7637.86C9389.05 7698.2 9349.44 7733.67 9286.77 7742.73C9246.64 7748.43 9206.25 7748.69 9166.11 7742.99C9111.73 7735.48 9072.63 7706.74 9051.92 7654.69C9012.82 7556.04 9011.27 7457.13 9052.95 7359.25C9074.45 7309.27 9114.84 7283.9 9168.7 7277.94C9203.66 7274.06 9238.61 7272.5 9273.83 7276.91C9351.25 7285.97 9391.13 7318.59 9412.88 7392.91C9423.75 7429.94 9427.9 7467.74 9426.34 7506.32H9426.6ZM9137.89 7514.35C9138.66 7530.66 9138.66 7553.45 9141.25 7575.98C9149.54 7648.74 9182.68 7672.04 9254.93 7659.36C9279.52 7655.21 9295.06 7642.27 9300.76 7619.48C9319.66 7546.2 9320.95 7472.4 9301.02 7399.12C9294.54 7375.04 9277.97 7360.54 9251.82 7359.51C9237.32 7358.99 9222.82 7359.25 9208.58 7358.99C9177.24 7358.47 9158.86 7374.53 9149.54 7403.53C9138.4 7437.45 9138.92 7472.66 9138.15 7514.35H9137.89Z" fill="white"/>
<path d="M7900.68 8288.06C7900.68 8185.52 7901.46 8082.98 7900.17 7980.44C7899.65 7953.77 7908.71 7946 7933.83 7947.81C7959.46 7949.62 7985.62 7949.37 8011.51 7947.81C8032.22 7946.52 8037.92 7954.03 8037.92 7974.22C8037.15 8070.55 8037.66 8166.87 8037.92 8263.2C8037.92 8361.59 8037.92 8459.99 8037.92 8558.39C8037.92 8610.69 8045.69 8619.75 8096.18 8618.72C8121.04 8618.2 8125.18 8627.26 8123.89 8649.53C8120.26 8715.82 8118.97 8718.15 8050.61 8720.22C8046.47 8720.22 8042.32 8720.48 8038.18 8720.48C7935.38 8721.26 7901.46 8688.63 7900.94 8586.35C7900.43 8486.92 7900.94 8387.49 7900.94 8288.06H7900.68Z" fill="white"/>
<path d="M7552.41 8289.87C7552.41 8186.55 7552.93 8082.98 7551.89 7979.66C7551.89 7956.36 7557.07 7945.74 7582.71 7948.07C7609.38 7950.4 7636.57 7949.89 7663.24 7948.07C7684.73 7946.78 7689.65 7955.84 7689.39 7975C7688.61 8030.93 7689.39 8086.6 7689.39 8142.53C7689.39 8281.07 7689.39 8419.6 7689.39 8558.13C7689.39 8611.47 7695.86 8618.72 7749.98 8618.98C7770.7 8618.98 7778.72 8625.19 7775.36 8645.65C7774.84 8648.76 7774.84 8651.86 7774.84 8654.97C7772.25 8715.3 7769.66 8717.89 7709.59 8719.96C7690.94 8720.48 7672.3 8721 7653.92 8719.7C7593.58 8715.3 7560.96 8685.01 7555.52 8624.67C7548.01 8540 7553.97 8455.33 7552.41 8370.4C7551.9 8343.47 7552.41 8316.54 7552.41 8289.87Z" fill="white"/>
<path d="M6791.14 8504.01C6789.07 8582.21 6795.02 8680.6 6787.26 8778.74C6780.26 8869.89 6745.57 8903.03 6653.64 8906.14C6621.8 8907.17 6589.69 8907.95 6557.84 8902.77C6539.97 8899.92 6532.2 8891.38 6534.79 8873.51C6535.05 8871.44 6534.79 8869.37 6535.05 8867.3C6537.12 8827.59 6557.67 8807.48 6596.68 8806.97C6633.71 8806.45 6648.21 8794.8 6649.76 8757.77C6652.35 8698.99 6652.61 8639.95 6652.87 8580.91C6653.39 8452.74 6653.9 8324.31 6652.35 8196.13C6651.83 8165.58 6661.15 8155.74 6690.67 8158.85C6711.13 8161.18 6732.1 8160.92 6752.56 8158.85C6781.82 8155.48 6792.44 8164.8 6791.66 8195.62C6789.85 8291.68 6790.88 8388.01 6790.88 8504.01H6791.14Z" fill="white"/>
<path d="M9579.37 7515.13C9579.37 7449.87 9580.15 7384.88 9578.86 7319.63C9578.6 7298.91 9584.55 7291.92 9606.04 7288.81C9679.84 7278.72 9753.12 7269.14 9828.21 7277.16C9910.81 7285.97 9950.17 7322.99 9952.5 7406.37C9955.35 7509.69 9953.54 7613.26 9954.06 7716.58C9954.06 7731.86 9950.17 7739.36 9933.08 7738.59C9910.29 7737.55 9887.51 7737.29 9864.98 7738.59C9845.04 7739.88 9841.16 7730.82 9841.16 7712.95C9841.94 7624.14 9841.94 7535.06 9841.42 7446.25C9841.16 7373.49 9826.92 7360.02 9753.64 7360.28C9747.42 7360.28 9741.21 7360.28 9734.99 7360.8C9705.82 7363.04 9691.23 7378.84 9691.23 7408.18C9691.23 7508.39 9690.72 7608.86 9691.75 7709.07C9691.75 7731.6 9686.06 7739.37 9662.23 7739.11C9579.11 7738.33 9579.11 7739.36 9579.11 7654.69C9579.11 7630.87 9579.11 7607.05 9579.11 7583.23C9579.11 7560.44 9579.11 7537.65 9579.11 7514.87L9579.37 7515.13Z" fill="white"/>
<path d="M7393.43 7542.06C7393.43 7475.77 7393.95 7409.48 7393.17 7343.19C7393.17 7325.84 7397.05 7318.07 7416.47 7315.49C7491.31 7305.13 7565.88 7295.03 7641.75 7303.32C7724.87 7312.38 7763.97 7348.63 7766.3 7432.27C7769.15 7535.84 7767.33 7639.42 7768.11 7742.99C7768.11 7758.53 7763.19 7763.96 7746.88 7764.74C7655.73 7769.4 7655.99 7769.66 7655.73 7679.55C7655.73 7606.01 7655.99 7532.47 7654.95 7458.94C7654.18 7403.52 7637.86 7387.99 7581.93 7386.18C7530.66 7384.62 7505.03 7409.22 7505.03 7459.97C7505.03 7551.12 7504.51 7642.26 7505.55 7733.41C7505.81 7757.49 7499.33 7765.26 7474.22 7765C7392.91 7763.71 7392.91 7765 7392.91 7684.99C7392.91 7637.34 7392.91 7589.7 7392.91 7542.06H7393.43Z" fill="white"/>
<path d="M6089.42 7545.16C6054.21 7545.16 6019.25 7545.68 5984.03 7545.16C5968.24 7544.91 5962.28 7549.82 5963.06 7566.66C5965.65 7618.96 5989.99 7648.74 6041.26 7659.35C6091.23 7669.97 6140.17 7660.65 6188.08 7648.48C6210.09 7642.78 6214.49 7649 6216.3 7669.19C6221.48 7726.94 6221.74 7727.45 6164.51 7738.59C6117.39 7747.91 6070 7748.95 6022.62 7744.54C5933.54 7736.26 5878.91 7686.54 5858.71 7597.73C5843.95 7532.73 5845.24 7467.74 5864.15 7404.56C5893.92 7305.65 5962.8 7267.07 6075.96 7275.35C6177.46 7282.86 6218.63 7329.21 6228.73 7432.01C6231.06 7455.83 6230.02 7479.39 6230.28 7503.22C6230.54 7534.55 6218.11 7548.01 6185.49 7545.68C6153.64 7543.35 6121.53 7545.16 6089.42 7545.16ZM6046.96 7475.77C6067.67 7475.77 6088.39 7475.77 6109.1 7475.77C6117.13 7475.77 6125.41 7476.8 6130.85 7467.74C6147.42 7439.52 6119.2 7367.79 6087.09 7356.66C6015.11 7331.8 5950.37 7385.4 5960.73 7460.75C5962.54 7473.44 5968.5 7476.03 5979.11 7475.77C6001.9 7475.77 6024.69 7475.77 6047.47 7475.77H6046.96Z" fill="white"/>
<path d="M8265.27 7551.9C8265.27 7602.65 8264.49 7653.14 8265.79 7703.89C8266.3 7723.31 8258.79 7732.89 8240.67 7735.74C8156.51 7748.43 8071.84 7753.87 7987.95 7736.52C7936.68 7725.9 7916.22 7700.01 7907.68 7647.18C7903.02 7616.89 7905.6 7587.11 7912.6 7558.11C7922.18 7518.49 7954.03 7500.63 7990.28 7490.53C8035.33 7478.1 8081.68 7473.44 8127.77 7469.29C8152.63 7466.96 8158.33 7455.05 8157.29 7433.3C8155.22 7383.85 8139.17 7367.02 8088.67 7365.46C8049.31 7364.17 8010.22 7364.17 7971.12 7371.42C7954.8 7374.52 7947.55 7370.38 7946 7351.74C7940.3 7280.53 7928.39 7291.92 8000.89 7280.79C8058.9 7271.98 8118.19 7267.58 8176.19 7284.67C8234.71 7301.76 8263.2 7339.05 8264.49 7400.16C8265.01 7426.05 8264.49 7451.95 8264.49 7477.84C8264.49 7502.7 8264.49 7527.56 8264.49 7552.41L8265.27 7551.9ZM8157.03 7604.72C8154.7 7522.89 8173.6 7536.62 8083.75 7535.58C8073.4 7535.58 8063.3 7537.4 8052.94 7538.95C8038.96 7541.28 8028.6 7549.05 8021.87 7561.74C7990.54 7619.22 8020.83 7674.11 8085.05 7675.67C8133.04 7676.88 8157.03 7653.23 8157.03 7604.72Z" fill="white"/>
<path d="M6226.66 8440.31C6226.66 8359.78 6227.18 8278.99 6226.4 8198.46C6226.4 8180.08 6230.54 8169.98 6250.48 8166.61C6331.27 8152.89 6412.06 8144.34 6493.88 8149.52C6514.85 8150.82 6524.18 8156.25 6521.07 8178.78C6518.48 8198.2 6518.48 8218.14 6519.26 8237.56C6520.03 8257.5 6511.49 8262.42 6493.1 8260.09C6463.33 8256.46 6433.55 8254.65 6403.51 8256.46C6372.7 8258.27 6362.08 8269.93 6362.6 8302.29C6364.67 8427.36 6362.6 8552.43 6363.89 8677.49C6363.89 8704.42 6358.71 8718.41 6328.16 8714.26C6295.79 8709.86 6253.85 8728.24 6232.87 8706.75C6213.45 8686.81 6227.69 8645.64 6227.18 8613.79C6226.4 8555.79 6227.18 8498.05 6227.18 8440.05L6226.66 8440.31Z" fill="white"/>
<path d="M6467.21 7747.39C6427.85 7744.54 6397.81 7745.06 6368.04 7740.4C6350.43 7737.55 6346.8 7730.3 6347.32 7713.99C6349.39 7652.88 6348.88 7652.62 6408.95 7659.35C6433.55 7662.2 6458.41 7664.53 6483 7661.68C6498.02 7659.87 6515.37 7659.09 6521.07 7640.71C6527.02 7621.29 6528.06 7602.13 6513.04 7585.3C6496.47 7566.4 6475.75 7552.67 6455.56 7538.43C6438.73 7526.52 6421.9 7514.35 6404.81 7502.96C6344.21 7462.04 6340.07 7405.08 6361.05 7340.86C6373.99 7300.99 6409.98 7287 6447.79 7279.75C6501.13 7269.65 6554.73 7274.83 6608.33 7280.27C6625.94 7282.08 6631.63 7290.11 6630.86 7308.75C6627.75 7370.38 6628.53 7370.64 6567.42 7363.65C6544.63 7361.06 6522.1 7359.76 6499.58 7363.13C6485.33 7365.2 6469.28 7365.72 6464.62 7383.33C6459.44 7402.23 6460.48 7420.87 6476.79 7434.6C6491.03 7446.51 6506.05 7457.38 6521.59 7467.74C6545.67 7483.79 6569.75 7499.33 6592.79 7517.2C6652.09 7563.03 6645.1 7640.71 6624.64 7686.8C6606.78 7727.2 6568.97 7740.14 6528.58 7744.8C6505.01 7747.65 6481.19 7747.39 6466.95 7748.17L6467.21 7747.39Z" fill="white"/>
<path d="M8449.63 7529.11C8449.63 7484.57 8449.11 7440.04 8449.89 7395.76C8450.15 7376.08 8443.94 7367.79 8423.22 7368.83C8408.46 7369.35 8386.71 7377.37 8380.24 7362.1C8371.18 7340.61 8374.54 7314.97 8378.94 7291.92C8381.53 7277.94 8398.36 7283.64 8408.72 7283.64C8455.85 7282.6 8448.08 7286.23 8450.15 7241.17C8451.44 7216.06 8436.94 7181.1 8456.62 7167.89C8479.67 7152.36 8514.63 7163.49 8544.4 7162.72C8560.2 7162.46 8562.53 7172.81 8562.27 7185.5C8562.01 7209.32 8563.05 7233.15 8561.49 7256.97C8560.2 7276.91 8567.19 7283.9 8587.9 7284.16C8651.6 7284.67 8651.09 7285.45 8646.42 7348.89C8645.39 7364.95 8639.43 7369.35 8623.9 7370.12C8562.27 7372.45 8562.01 7373.23 8562.01 7434.86C8562.01 7497 8563.05 7558.89 8561.75 7621.03C8560.98 7652.11 8574.18 7664.28 8603.96 7663.76C8615.87 7663.5 8635.81 7658.58 8630.89 7680.85C8626.49 7701.82 8648.24 7733.93 8609.4 7742.22C8577.81 7748.69 8545.7 7750.5 8514.11 7743.51C8474.49 7734.97 8451.45 7706.22 8450.41 7663.24C8449.37 7618.7 8450.41 7574.17 8450.41 7529.89H8450.15L8449.63 7529.11Z" fill="white"/>
<path d="M6864.16 7739.11C6825.32 7729.78 6805.38 7704.93 6804.86 7660.91C6804.08 7575.2 6803.31 7489.23 6804.86 7403.52C6805.38 7376.08 6797.87 7366.5 6770.42 7368.57C6757.74 7369.6 6736.76 7377.63 6732.88 7358.73C6727.96 7336.2 6726.15 7311.08 6734.69 7288.81C6738.57 7278.72 6753.59 7283.64 6763.43 7283.38C6805.38 7282.6 6804.34 7290.89 6804.34 7240.91C6804.34 7181.87 6834.81 7155.46 6895.75 7161.68C6911.8 7163.23 6916.72 7170.22 6916.46 7185.24C6915.69 7211.13 6916.98 7237.03 6916.21 7262.66C6915.69 7278.98 6921.64 7285.45 6937.7 7283.38C6943.91 7282.6 6950.13 7282.86 6956.34 7282.86C6986.2 7282.86 7001.22 7297.79 7001.4 7327.66C7001.57 7357.52 6987.5 7371.33 6959.19 7369.09C6930.88 7366.84 6916.55 7381.43 6916.21 7412.85C6916.21 7481.98 6916.72 7551.38 6916.21 7620.51C6916.21 7641.23 6920.09 7657.02 6941.84 7663.76C6942.88 7670.49 6945.98 7676.18 6953.23 7675.67C6989.48 7673.34 6978.35 7699.49 6977.57 7717.87C6977.57 7725.64 6965.92 7729.53 6966.44 7738.85L6965.14 7739.88L6963.85 7738.85C6930.71 7738.85 6897.56 7738.85 6864.42 7738.85L6864.16 7739.11Z" fill="white"/>
<path d="M7116.36 7508.14C7116.36 7442.11 7116.88 7375.82 7116.11 7309.79C7115.85 7289.85 7122.06 7283.38 7142.26 7282.34C7228.48 7278.98 7228.48 7278.2 7228.48 7363.39C7228.48 7479.14 7227.97 7594.88 7229 7710.37C7229 7731.34 7224.08 7738.59 7201.81 7738.85C7116.62 7738.85 7116.62 7739.89 7116.62 7653.66C7116.62 7605.24 7116.62 7556.56 7116.62 7508.14H7116.36Z" fill="white"/>
<path d="M8874.29 7508.4C8874.29 7574.68 8873.51 7640.97 8874.8 7707.26C8875.32 7730.56 8870.14 7739.63 8844.25 7739.37C8762.17 7738.33 8762.17 7739.37 8762.17 7656.77C8762.17 7543.87 8762.94 7430.97 8761.65 7318.08C8761.39 7291.92 8766.57 7281.83 8795.31 7282.34C8874.03 7283.9 8874.03 7282.34 8874.29 7362.61C8874.29 7411.29 8874.29 7459.97 8874.29 7508.65V7508.4Z" fill="white"/>
<path d="M6722.78 7942.63C6792.95 7942.63 6793.47 7942.63 6792.95 8011.51C6792.43 8075.73 6802.27 8066.41 6737.28 8066.92C6649.76 8067.7 6649.76 8066.92 6649.76 7987.17C6649.76 7957.65 6664.86 7942.89 6695.07 7942.89C6704.4 7942.89 6713.72 7942.89 6723.04 7942.89L6722.78 7942.63Z" fill="white"/>
<path d="M7174.88 7104.97C7213.03 7104.97 7232.02 7124.13 7231.85 7162.45C7231.85 7192.49 7216.83 7207.6 7186.8 7207.77C7114.03 7208.55 7115.07 7208.55 7114.03 7137.34C7113.78 7111.7 7120.77 7100.83 7146.92 7104.71C7155.98 7106.01 7165.56 7104.71 7174.88 7104.71V7104.97Z" fill="white"/>
<path d="M8820.17 7105.23C8858.84 7105.23 8878.17 7124.22 8878.17 7162.2C8878.17 7192.75 8862.12 7208.03 8830.01 7208.03C8760.1 7207.77 8761.13 7207.77 8759.84 7138.12C8759.32 7113 8765.53 7101.09 8792.2 7105.23C8801.27 7106.52 8810.85 7105.23 8820.17 7105.23Z" fill="white"/>
</svg>
