<svg width="1628" height="281" viewBox="0 0 1628 281" fill="none" xmlns="http://www.w3.org/2000/svg">
<ellipse cx="171.169" cy="102.414" rx="33.8741" ry="34.8022" fill="#E3F1FF"/>
<ellipse cx="127.55" cy="63.8996" rx="44.0827" ry="45.4748" fill="#E3F1FF"/>
<ellipse cx="235.204" cy="84.3166" rx="44.0827" ry="45.4748" fill="#E3F1FF"/>
<ellipse cx="69.0827" cy="94.5251" rx="44.0827" ry="45.4748" fill="#E3F1FF"/>
<ellipse cx="348.583" cy="76.7102" rx="44.0827" ry="45.4748" fill="#E3F1FF"/>
<ellipse cx="496.919" cy="56.4748" rx="44.0827" ry="45.4748" fill="#E3F1FF"/>
<ellipse cx="286.249" cy="94.9892" rx="33.8741" ry="34.8022" fill="#E3F1FF"/>
<ellipse cx="390.19" cy="102.414" rx="33.8741" ry="34.8022" fill="#E3F1FF"/>
<ellipse cx="440.308" cy="83.8524" rx="33.8741" ry="34.8022" fill="#E3F1FF"/>
<ellipse cx="454.692" cy="49.5143" rx="19.4892" ry="19.9532" fill="#E3F1FF"/>
<ellipse cx="44.4892" cy="64.3634" rx="19.4892" ry="19.9532" fill="#E3F1FF"/>
<ellipse cx="663.171" cy="101.414" rx="33.8741" ry="34.8022" fill="#E3F1FF"/>
<ellipse cx="619.552" cy="62.8996" rx="44.0827" ry="45.4748" fill="#E3F1FF"/>
<ellipse cx="727.204" cy="83.3166" rx="44.0827" ry="45.4748" fill="#E3F1FF"/>
<ellipse cx="561.083" cy="93.5251" rx="44.0827" ry="45.4748" fill="#E3F1FF"/>
<ellipse cx="840.583" cy="75.7102" rx="44.0827" ry="45.4748" fill="#E3F1FF"/>
<ellipse cx="988.919" cy="55.4748" rx="44.0827" ry="45.4748" fill="#E3F1FF"/>
<ellipse cx="778.249" cy="93.9892" rx="33.8741" ry="34.8022" fill="#E3F1FF"/>
<ellipse cx="882.19" cy="101.414" rx="33.8741" ry="34.8022" fill="#E3F1FF"/>
<ellipse cx="932.308" cy="82.8524" rx="33.8741" ry="34.8022" fill="#E3F1FF"/>
<ellipse cx="946.692" cy="48.5143" rx="19.4892" ry="19.9532" fill="#E3F1FF"/>
<ellipse cx="536.489" cy="63.3634" rx="19.4892" ry="19.9532" fill="#E3F1FF"/>
<ellipse cx="1160.38" cy="96.4162" rx="33.8741" ry="34.8022" transform="rotate(1.98268 1160.38 96.4162)" fill="#E3F1FF"/>
<ellipse cx="1118.12" cy="56.4156" rx="44.0827" ry="45.4748" transform="rotate(1.98268 1118.12 56.4156)" fill="#E3F1FF"/>
<ellipse cx="1225" cy="80.545" rx="44.0827" ry="45.4748" transform="rotate(1.98268 1225 80.545)" fill="#E3F1FF"/>
<ellipse cx="1058.63" cy="85.0006" rx="44.0827" ry="45.4748" transform="rotate(1.98268 1058.63 85.0006)" fill="#E3F1FF"/>
<ellipse cx="1338.58" cy="76.8658" rx="44.0827" ry="45.4748" transform="rotate(1.98268 1338.58 76.8658)" fill="#E3F1FF"/>
<ellipse cx="1487.52" cy="61.7745" rx="44.0827" ry="45.4748" transform="rotate(1.98268 1487.52 61.7745)" fill="#E3F1FF"/>
<ellipse cx="1275.65" cy="92.9772" rx="33.8741" ry="34.8022" transform="rotate(1.98268 1275.65 92.9772)" fill="#E3F1FF"/>
<ellipse cx="1379.27" cy="103.994" rx="33.8741" ry="34.8022" transform="rotate(1.98268 1379.27 103.994)" fill="#E3F1FF"/>
<ellipse cx="1430" cy="87.1774" rx="33.8741" ry="34.8022" transform="rotate(1.98268 1430 87.1774)" fill="#E3F1FF"/>
<ellipse cx="1445.56" cy="53.3573" rx="19.4892" ry="19.9532" transform="rotate(1.98268 1445.56 53.3573)" fill="#E3F1FF"/>
<ellipse cx="1035.09" cy="54.0057" rx="19.4892" ry="19.9532" transform="rotate(1.98268 1035.09 54.0057)" fill="#E3F1FF"/>
<ellipse cx="50" cy="123" rx="50" ry="49" fill="#FFFEEE"/>
<ellipse cx="199" cy="119" rx="50" ry="49" fill="#FFFEEE"/>
<ellipse cx="110.5" cy="116" rx="25.5" ry="25" fill="#FFFEEE"/>
<ellipse cx="245.5" cy="117" rx="25.5" ry="25" fill="#FFFEEE"/>
<ellipse cx="321.5" cy="113" rx="25.5" ry="25" fill="#FFFEEE"/>
<ellipse cx="350.5" cy="115" rx="15.5" ry="15" fill="#FFFEEE"/>
<ellipse cx="285.5" cy="111" rx="36.5" ry="37" fill="#FFFEEE"/>
<ellipse cx="398.5" cy="100.5" rx="44.5" ry="46.5" fill="#FFFEEE"/>
<ellipse cx="149" cy="142" rx="35" ry="36" fill="#FFFEEE"/>
<ellipse cx="460" cy="118" rx="50" ry="49" fill="#FFFEEE"/>
<ellipse cx="609" cy="114" rx="50" ry="49" fill="#FFFEEE"/>
<ellipse cx="520.5" cy="111" rx="25.5" ry="25" fill="#FFFEEE"/>
<ellipse cx="655.5" cy="112" rx="25.5" ry="25" fill="#FFFEEE"/>
<ellipse cx="731.5" cy="108" rx="25.5" ry="25" fill="#FFFEEE"/>
<ellipse cx="760.5" cy="110" rx="15.5" ry="15" fill="#FFFEEE"/>
<ellipse cx="695.5" cy="106" rx="36.5" ry="37" fill="#FFFEEE"/>
<ellipse cx="808.5" cy="95.5" rx="44.5" ry="46.5" fill="#FFFEEE"/>
<ellipse cx="559" cy="137" rx="35" ry="36" fill="#FFFEEE"/>
<ellipse cx="832" cy="120" rx="50" ry="49" fill="#FFFEEE"/>
<ellipse cx="981" cy="116" rx="50" ry="49" fill="#FFFEEE"/>
<ellipse cx="892.5" cy="113" rx="25.5" ry="25" fill="#FFFEEE"/>
<ellipse cx="1027.5" cy="114" rx="25.5" ry="25" fill="#FFFEEE"/>
<ellipse cx="1103.5" cy="110" rx="25.5" ry="25" fill="#FFFEEE"/>
<ellipse cx="1132.5" cy="112" rx="15.5" ry="15" fill="#FFFEEE"/>
<ellipse cx="1067.5" cy="108" rx="36.5" ry="37" fill="#FFFEEE"/>
<ellipse cx="1180.5" cy="97.5" rx="44.5" ry="46.5" fill="#FFFEEE"/>
<ellipse cx="931" cy="139" rx="35" ry="36" fill="#FFFEEE"/>
<ellipse cx="1186" cy="113" rx="50" ry="49" fill="#FFFEEE"/>
<ellipse cx="1335" cy="109" rx="50" ry="49" fill="#FFFEEE"/>
<ellipse cx="1246.5" cy="106" rx="25.5" ry="25" fill="#FFFEEE"/>
<ellipse cx="1381.5" cy="107" rx="25.5" ry="25" fill="#FFFEEE"/>
<ellipse cx="1457.5" cy="103" rx="25.5" ry="25" fill="#FFFEEE"/>
<ellipse cx="1486.5" cy="105" rx="15.5" ry="15" fill="#FFFEEE"/>
<ellipse cx="1421.5" cy="101" rx="36.5" ry="37" fill="#FFFEEE"/>
<ellipse cx="1534.5" cy="90.5" rx="44.5" ry="46.5" fill="#FFFEEE"/>
<ellipse cx="1285" cy="132" rx="35" ry="36" fill="#FFFEEE"/>
<ellipse cx="191.169" cy="163.414" rx="33.8741" ry="34.8022" fill="#FFE49D"/>
<ellipse cx="147.55" cy="124.9" rx="44.0827" ry="45.4748" fill="#FFE49D"/>
<ellipse cx="255.204" cy="145.317" rx="44.0827" ry="45.4748" fill="#FFE49D"/>
<ellipse cx="89.0827" cy="155.525" rx="44.0827" ry="45.4748" fill="#FFE49D"/>
<ellipse cx="368.583" cy="137.71" rx="44.0827" ry="45.4748" fill="#FFE49D"/>
<ellipse cx="516.919" cy="117.475" rx="44.0827" ry="45.4748" fill="#FFE49D"/>
<ellipse cx="306.249" cy="155.989" rx="33.8741" ry="34.8022" fill="#FFE49D"/>
<ellipse cx="410.19" cy="163.414" rx="33.8741" ry="34.8022" fill="#FFE49D"/>
<ellipse cx="460.308" cy="144.852" rx="33.8741" ry="34.8022" fill="#FFE49D"/>
<ellipse cx="474.692" cy="110.514" rx="19.4892" ry="19.9532" fill="#FFE49D"/>
<ellipse cx="64.4892" cy="125.363" rx="19.4892" ry="19.9532" fill="#FFE49D"/>
<ellipse cx="683.171" cy="162.414" rx="33.8741" ry="34.8022" fill="#FFE49D"/>
<ellipse cx="639.552" cy="123.9" rx="44.0827" ry="45.4748" fill="#FFE49D"/>
<ellipse cx="747.204" cy="144.317" rx="44.0827" ry="45.4748" fill="#FFE49D"/>
<ellipse cx="581.083" cy="154.525" rx="44.0827" ry="45.4748" fill="#FFE49D"/>
<ellipse cx="860.583" cy="136.71" rx="44.0827" ry="45.4748" fill="#FFE49D"/>
<ellipse cx="1008.92" cy="116.475" rx="44.0827" ry="45.4748" fill="#FFE49D"/>
<ellipse cx="798.249" cy="154.989" rx="33.8741" ry="34.8022" fill="#FFE49D"/>
<ellipse cx="902.19" cy="162.414" rx="33.8741" ry="34.8022" fill="#FFE49D"/>
<ellipse cx="952.308" cy="143.852" rx="33.8741" ry="34.8022" fill="#FFE49D"/>
<ellipse cx="966.692" cy="109.514" rx="19.4892" ry="19.9532" fill="#FFE49D"/>
<ellipse cx="556.489" cy="124.363" rx="19.4892" ry="19.9532" fill="#FFE49D"/>
<ellipse cx="1180.38" cy="157.416" rx="33.8741" ry="34.8022" transform="rotate(1.98268 1180.38 157.416)" fill="#FFE49D"/>
<ellipse cx="1138.12" cy="117.416" rx="44.0827" ry="45.4748" transform="rotate(1.98268 1138.12 117.416)" fill="#FFE49D"/>
<ellipse cx="1245" cy="141.545" rx="44.0827" ry="45.4748" transform="rotate(1.98268 1245 141.545)" fill="#FFE49D"/>
<ellipse cx="1078.63" cy="146.001" rx="44.0827" ry="45.4748" transform="rotate(1.98268 1078.63 146.001)" fill="#FFE49D"/>
<ellipse cx="1358.58" cy="137.866" rx="44.0827" ry="45.4748" transform="rotate(1.98268 1358.58 137.866)" fill="#FFE49D"/>
<ellipse cx="1507.52" cy="122.774" rx="44.0827" ry="45.4748" transform="rotate(1.98268 1507.52 122.774)" fill="#FFE49D"/>
<ellipse cx="1295.65" cy="153.977" rx="33.8741" ry="34.8022" transform="rotate(1.98268 1295.65 153.977)" fill="#FFE49D"/>
<ellipse cx="1399.27" cy="164.994" rx="33.8741" ry="34.8022" transform="rotate(1.98268 1399.27 164.994)" fill="#FFE49D"/>
<ellipse cx="1450" cy="148.177" rx="33.8741" ry="34.8022" transform="rotate(1.98268 1450 148.177)" fill="#FFE49D"/>
<ellipse cx="1465.56" cy="114.357" rx="19.4892" ry="19.9532" transform="rotate(1.98268 1465.56 114.357)" fill="#FFE49D"/>
<ellipse cx="1055.09" cy="115.006" rx="19.4892" ry="19.9532" transform="rotate(1.98268 1055.09 115.006)" fill="#FFE49D"/>
<ellipse cx="70" cy="184" rx="50" ry="49" fill="#FFCA42"/>
<ellipse cx="219" cy="180" rx="50" ry="49" fill="#FFCA42"/>
<ellipse cx="130.5" cy="177" rx="25.5" ry="25" fill="#FFCA42"/>
<ellipse cx="265.5" cy="178" rx="25.5" ry="25" fill="#FFCA42"/>
<ellipse cx="341.5" cy="174" rx="25.5" ry="25" fill="#FFCA42"/>
<ellipse cx="370.5" cy="176" rx="15.5" ry="15" fill="#FFCA42"/>
<ellipse cx="305.5" cy="172" rx="36.5" ry="37" fill="#FFCA42"/>
<ellipse cx="418.5" cy="161.5" rx="44.5" ry="46.5" fill="#FFCA42"/>
<ellipse cx="169" cy="203" rx="35" ry="36" fill="#FFCA42"/>
<ellipse cx="480" cy="179" rx="50" ry="49" fill="#FFCA42"/>
<ellipse cx="629" cy="175" rx="50" ry="49" fill="#FFCA42"/>
<ellipse cx="540.5" cy="172" rx="25.5" ry="25" fill="#FFCA42"/>
<ellipse cx="675.5" cy="173" rx="25.5" ry="25" fill="#FFCA42"/>
<ellipse cx="751.5" cy="169" rx="25.5" ry="25" fill="#FFCA42"/>
<ellipse cx="780.5" cy="171" rx="15.5" ry="15" fill="#FFCA42"/>
<ellipse cx="715.5" cy="167" rx="36.5" ry="37" fill="#FFCA42"/>
<ellipse cx="828.5" cy="156.5" rx="44.5" ry="46.5" fill="#FFCA42"/>
<ellipse cx="579" cy="198" rx="35" ry="36" fill="#FFCA42"/>
<ellipse cx="852" cy="181" rx="50" ry="49" fill="#FFCA42"/>
<ellipse cx="1001" cy="177" rx="50" ry="49" fill="#FFCA42"/>
<ellipse cx="912.5" cy="174" rx="25.5" ry="25" fill="#FFCA42"/>
<ellipse cx="1047.5" cy="175" rx="25.5" ry="25" fill="#FFCA42"/>
<ellipse cx="1123.5" cy="171" rx="25.5" ry="25" fill="#FFCA42"/>
<ellipse cx="1152.5" cy="173" rx="15.5" ry="15" fill="#FFCA42"/>
<ellipse cx="1087.5" cy="169" rx="36.5" ry="37" fill="#FFCA42"/>
<ellipse cx="1200.5" cy="158.5" rx="44.5" ry="46.5" fill="#FFCA42"/>
<ellipse cx="951" cy="200" rx="35" ry="36" fill="#FFCA42"/>
<ellipse cx="1206" cy="174" rx="50" ry="49" fill="#FFCA42"/>
<ellipse cx="1355" cy="170" rx="50" ry="49" fill="#FFCA42"/>
<ellipse cx="1266.5" cy="167" rx="25.5" ry="25" fill="#FFCA42"/>
<ellipse cx="1401.5" cy="168" rx="25.5" ry="25" fill="#FFCA42"/>
<ellipse cx="1477.5" cy="164" rx="25.5" ry="25" fill="#FFCA42"/>
<ellipse cx="1506.5" cy="166" rx="15.5" ry="15" fill="#FFCA42"/>
<ellipse cx="1441.5" cy="162" rx="36.5" ry="37" fill="#FFCA42"/>
<ellipse cx="1554.5" cy="151.5" rx="44.5" ry="46.5" fill="#FFCA42"/>
<ellipse cx="1305" cy="193" rx="35" ry="36" fill="#FFCA42"/>
<g filter="url(#filter0_d_1339_20179)">
<ellipse cx="95" cy="218" rx="50" ry="49" fill="#FFCA42"/>
<ellipse cx="244" cy="214" rx="50" ry="49" fill="#FFCA42"/>
<ellipse cx="155.5" cy="211" rx="25.5" ry="25" fill="#FFCA42"/>
<ellipse cx="290.5" cy="212" rx="25.5" ry="25" fill="#FFCA42"/>
<ellipse cx="366.5" cy="208" rx="25.5" ry="25" fill="#FFCA42"/>
<ellipse cx="395.5" cy="210" rx="15.5" ry="15" fill="#FFCA42"/>
<ellipse cx="330.5" cy="206" rx="36.5" ry="37" fill="#FFCA42"/>
<ellipse cx="443.5" cy="195.5" rx="44.5" ry="46.5" fill="#FFCA42"/>
<ellipse cx="194" cy="237" rx="35" ry="36" fill="#FFCA42"/>
<ellipse cx="505" cy="213" rx="50" ry="49" fill="#FFCA42"/>
<ellipse cx="654" cy="209" rx="50" ry="49" fill="#FFCA42"/>
<ellipse cx="565.5" cy="206" rx="25.5" ry="25" fill="#FFCA42"/>
<ellipse cx="700.5" cy="207" rx="25.5" ry="25" fill="#FFCA42"/>
<ellipse cx="776.5" cy="203" rx="25.5" ry="25" fill="#FFCA42"/>
<ellipse cx="805.5" cy="205" rx="15.5" ry="15" fill="#FFCA42"/>
<ellipse cx="740.5" cy="201" rx="36.5" ry="37" fill="#FFCA42"/>
<ellipse cx="853.5" cy="190.5" rx="44.5" ry="46.5" fill="#FFCA42"/>
<ellipse cx="604" cy="232" rx="35" ry="36" fill="#FFCA42"/>
<ellipse cx="877" cy="215" rx="50" ry="49" fill="#FFCA42"/>
<ellipse cx="1026" cy="211" rx="50" ry="49" fill="#FFCA42"/>
<ellipse cx="937.5" cy="208" rx="25.5" ry="25" fill="#FFCA42"/>
<ellipse cx="1072.5" cy="209" rx="25.5" ry="25" fill="#FFCA42"/>
<ellipse cx="1148.5" cy="205" rx="25.5" ry="25" fill="#FFCA42"/>
<ellipse cx="1177.5" cy="207" rx="15.5" ry="15" fill="#FFCA42"/>
<ellipse cx="1112.5" cy="203" rx="36.5" ry="37" fill="#FFCA42"/>
<ellipse cx="1225.5" cy="192.5" rx="44.5" ry="46.5" fill="#FFCA42"/>
<ellipse cx="976" cy="234" rx="35" ry="36" fill="#FFCA42"/>
<ellipse cx="1231" cy="208" rx="50" ry="49" fill="#FFCA42"/>
<ellipse cx="1380" cy="204" rx="50" ry="49" fill="#FFCA42"/>
<ellipse cx="1291.5" cy="201" rx="25.5" ry="25" fill="#FFCA42"/>
<ellipse cx="1426.5" cy="202" rx="25.5" ry="25" fill="#FFCA42"/>
<ellipse cx="1502.5" cy="198" rx="25.5" ry="25" fill="#FFCA42"/>
<ellipse cx="1531.5" cy="200" rx="15.5" ry="15" fill="#FFCA42"/>
<ellipse cx="1466.5" cy="196" rx="36.5" ry="37" fill="#FFCA42"/>
<ellipse cx="1579.5" cy="185.5" rx="44.5" ry="46.5" fill="#FFCA42"/>
<ellipse cx="1330" cy="227" rx="35" ry="36" fill="#FFCA42"/>
</g>
<defs>
<filter id="filter0_d_1339_20179" x="41" y="139" width="1587" height="142" filterUnits="userSpaceOnUse" color-interpolation-filters="sRGB">
<feFlood flood-opacity="0" result="BackgroundImageFix"/>
<feColorMatrix in="SourceAlpha" type="matrix" values="0 0 0 0 0 0 0 0 0 0 0 0 0 0 0 0 0 0 127 0" result="hardAlpha"/>
<feOffset dy="4"/>
<feGaussianBlur stdDeviation="2"/>
<feComposite in2="hardAlpha" operator="out"/>
<feColorMatrix type="matrix" values="0 0 0 0 0.639811 0 0 0 0 0.460393 0 0 0 0 0 0 0 0 0.25 0"/>
<feBlend mode="normal" in2="BackgroundImageFix" result="effect1_dropShadow_1339_20179"/>
<feBlend mode="normal" in="SourceGraphic" in2="effect1_dropShadow_1339_20179" result="shape"/>
</filter>
</defs>
</svg>
