<svg width="1440" height="281" viewBox="0 0 1440 281" fill="none" xmlns="http://www.w3.org/2000/svg">
<ellipse cx="107.171" cy="102.414" rx="33.8741" ry="34.8022" fill="#E3F1FF"/>
<ellipse cx="63.5515" cy="63.8996" rx="44.0827" ry="45.4748" fill="#E3F1FF"/>
<ellipse cx="171.204" cy="84.3166" rx="44.0827" ry="45.4748" fill="#E3F1FF"/>
<ellipse cx="5.08273" cy="94.5251" rx="44.0827" ry="45.4748" fill="#E3F1FF"/>
<ellipse cx="284.583" cy="76.7102" rx="44.0827" ry="45.4748" fill="#E3F1FF"/>
<ellipse cx="432.919" cy="56.4748" rx="44.0827" ry="45.4748" fill="#E3F1FF"/>
<ellipse cx="222.249" cy="94.9892" rx="33.8741" ry="34.8022" fill="#E3F1FF"/>
<ellipse cx="326.19" cy="102.414" rx="33.8741" ry="34.8022" fill="#E3F1FF"/>
<ellipse cx="376.308" cy="83.8524" rx="33.8741" ry="34.8022" fill="#E3F1FF"/>
<ellipse cx="390.692" cy="49.5143" rx="19.4892" ry="19.9532" fill="#E3F1FF"/>
<ellipse cx="599.171" cy="101.414" rx="33.8741" ry="34.8022" fill="#E3F1FF"/>
<ellipse cx="555.552" cy="62.8996" rx="44.0827" ry="45.4748" fill="#E3F1FF"/>
<ellipse cx="663.204" cy="83.3166" rx="44.0827" ry="45.4748" fill="#E3F1FF"/>
<ellipse cx="497.083" cy="93.5251" rx="44.0827" ry="45.4748" fill="#E3F1FF"/>
<ellipse cx="776.583" cy="75.7102" rx="44.0827" ry="45.4748" fill="#E3F1FF"/>
<ellipse cx="924.919" cy="55.4748" rx="44.0827" ry="45.4748" fill="#E3F1FF"/>
<ellipse cx="714.249" cy="93.9892" rx="33.8741" ry="34.8022" fill="#E3F1FF"/>
<ellipse cx="818.19" cy="101.414" rx="33.8741" ry="34.8022" fill="#E3F1FF"/>
<ellipse cx="868.308" cy="82.8524" rx="33.8741" ry="34.8022" fill="#E3F1FF"/>
<ellipse cx="882.692" cy="48.5143" rx="19.4892" ry="19.9532" fill="#E3F1FF"/>
<ellipse cx="472.489" cy="63.3634" rx="19.4892" ry="19.9532" fill="#E3F1FF"/>
<ellipse cx="1096.38" cy="96.4162" rx="33.8741" ry="34.8022" transform="rotate(1.98268 1096.38 96.4162)" fill="#E3F1FF"/>
<ellipse cx="1054.12" cy="56.4156" rx="44.0827" ry="45.4748" transform="rotate(1.98268 1054.12 56.4156)" fill="#E3F1FF"/>
<ellipse cx="1161" cy="80.545" rx="44.0827" ry="45.4748" transform="rotate(1.98268 1161 80.545)" fill="#E3F1FF"/>
<ellipse cx="994.628" cy="85.0006" rx="44.0827" ry="45.4748" transform="rotate(1.98268 994.628 85.0006)" fill="#E3F1FF"/>
<ellipse cx="1274.58" cy="76.8658" rx="44.0827" ry="45.4748" transform="rotate(1.98268 1274.58 76.8658)" fill="#E3F1FF"/>
<ellipse cx="1423.52" cy="61.7745" rx="44.0827" ry="45.4748" transform="rotate(1.98268 1423.52 61.7745)" fill="#E3F1FF"/>
<ellipse cx="1211.65" cy="92.9772" rx="33.8741" ry="34.8022" transform="rotate(1.98268 1211.65 92.9772)" fill="#E3F1FF"/>
<ellipse cx="1315.27" cy="103.994" rx="33.8741" ry="34.8022" transform="rotate(1.98268 1315.27 103.994)" fill="#E3F1FF"/>
<ellipse cx="1366" cy="87.1774" rx="33.8741" ry="34.8022" transform="rotate(1.98268 1366 87.1774)" fill="#E3F1FF"/>
<ellipse cx="1381.56" cy="53.3573" rx="19.4892" ry="19.9532" transform="rotate(1.98268 1381.56 53.3573)" fill="#E3F1FF"/>
<ellipse cx="971.092" cy="54.0057" rx="19.4892" ry="19.9532" transform="rotate(1.98268 971.092 54.0057)" fill="#E3F1FF"/>
<ellipse cx="-14" cy="123" rx="50" ry="49" fill="#FFFEEE"/>
<ellipse cx="135" cy="119" rx="50" ry="49" fill="#FFFEEE"/>
<ellipse cx="46.5" cy="116" rx="25.5" ry="25" fill="#FFFEEE"/>
<ellipse cx="181.5" cy="117" rx="25.5" ry="25" fill="#FFFEEE"/>
<ellipse cx="257.5" cy="113" rx="25.5" ry="25" fill="#FFFEEE"/>
<ellipse cx="286.5" cy="115" rx="15.5" ry="15" fill="#FFFEEE"/>
<ellipse cx="221.5" cy="111" rx="36.5" ry="37" fill="#FFFEEE"/>
<ellipse cx="334.5" cy="100.5" rx="44.5" ry="46.5" fill="#FFFEEE"/>
<ellipse cx="85" cy="142" rx="35" ry="36" fill="#FFFEEE"/>
<ellipse cx="396" cy="118" rx="50" ry="49" fill="#FFFEEE"/>
<ellipse cx="545" cy="114" rx="50" ry="49" fill="#FFFEEE"/>
<ellipse cx="456.5" cy="111" rx="25.5" ry="25" fill="#FFFEEE"/>
<ellipse cx="591.5" cy="112" rx="25.5" ry="25" fill="#FFFEEE"/>
<ellipse cx="667.5" cy="108" rx="25.5" ry="25" fill="#FFFEEE"/>
<ellipse cx="696.5" cy="110" rx="15.5" ry="15" fill="#FFFEEE"/>
<ellipse cx="631.5" cy="106" rx="36.5" ry="37" fill="#FFFEEE"/>
<ellipse cx="744.5" cy="95.5" rx="44.5" ry="46.5" fill="#FFFEEE"/>
<ellipse cx="495" cy="137" rx="35" ry="36" fill="#FFFEEE"/>
<ellipse cx="768" cy="120" rx="50" ry="49" fill="#FFFEEE"/>
<ellipse cx="917" cy="116" rx="50" ry="49" fill="#FFFEEE"/>
<ellipse cx="828.5" cy="113" rx="25.5" ry="25" fill="#FFFEEE"/>
<ellipse cx="963.5" cy="114" rx="25.5" ry="25" fill="#FFFEEE"/>
<ellipse cx="1039.5" cy="110" rx="25.5" ry="25" fill="#FFFEEE"/>
<ellipse cx="1068.5" cy="112" rx="15.5" ry="15" fill="#FFFEEE"/>
<ellipse cx="1003.5" cy="108" rx="36.5" ry="37" fill="#FFFEEE"/>
<ellipse cx="1116.5" cy="97.5" rx="44.5" ry="46.5" fill="#FFFEEE"/>
<ellipse cx="867" cy="139" rx="35" ry="36" fill="#FFFEEE"/>
<ellipse cx="1122" cy="113" rx="50" ry="49" fill="#FFFEEE"/>
<ellipse cx="1271" cy="109" rx="50" ry="49" fill="#FFFEEE"/>
<ellipse cx="1182.5" cy="106" rx="25.5" ry="25" fill="#FFFEEE"/>
<ellipse cx="1317.5" cy="107" rx="25.5" ry="25" fill="#FFFEEE"/>
<ellipse cx="1393.5" cy="103" rx="25.5" ry="25" fill="#FFFEEE"/>
<ellipse cx="1422.5" cy="105" rx="15.5" ry="15" fill="#FFFEEE"/>
<ellipse cx="1357.5" cy="101" rx="36.5" ry="37" fill="#FFFEEE"/>
<ellipse cx="1470.5" cy="90.5" rx="44.5" ry="46.5" fill="#FFFEEE"/>
<ellipse cx="1221" cy="132" rx="35" ry="36" fill="#FFFEEE"/>
<ellipse cx="127.171" cy="163.414" rx="33.8741" ry="34.8022" fill="#FFE49D"/>
<ellipse cx="83.5515" cy="124.9" rx="44.0827" ry="45.4748" fill="#FFE49D"/>
<ellipse cx="191.204" cy="145.317" rx="44.0827" ry="45.4748" fill="#FFE49D"/>
<ellipse cx="25.0827" cy="155.525" rx="44.0827" ry="45.4748" fill="#FFE49D"/>
<ellipse cx="304.583" cy="137.71" rx="44.0827" ry="45.4748" fill="#FFE49D"/>
<ellipse cx="452.919" cy="117.475" rx="44.0827" ry="45.4748" fill="#FFE49D"/>
<ellipse cx="242.249" cy="155.989" rx="33.8741" ry="34.8022" fill="#FFE49D"/>
<ellipse cx="346.19" cy="163.414" rx="33.8741" ry="34.8022" fill="#FFE49D"/>
<ellipse cx="396.308" cy="144.852" rx="33.8741" ry="34.8022" fill="#FFE49D"/>
<ellipse cx="410.692" cy="110.514" rx="19.4892" ry="19.9532" fill="#FFE49D"/>
<ellipse cx="0.489208" cy="125.363" rx="19.4892" ry="19.9532" fill="#FFE49D"/>
<ellipse cx="619.171" cy="162.414" rx="33.8741" ry="34.8022" fill="#FFE49D"/>
<ellipse cx="575.552" cy="123.9" rx="44.0827" ry="45.4748" fill="#FFE49D"/>
<ellipse cx="683.204" cy="144.317" rx="44.0827" ry="45.4748" fill="#FFE49D"/>
<ellipse cx="517.083" cy="154.525" rx="44.0827" ry="45.4748" fill="#FFE49D"/>
<ellipse cx="796.583" cy="136.71" rx="44.0827" ry="45.4748" fill="#FFE49D"/>
<ellipse cx="944.919" cy="116.475" rx="44.0827" ry="45.4748" fill="#FFE49D"/>
<ellipse cx="734.249" cy="154.989" rx="33.8741" ry="34.8022" fill="#FFE49D"/>
<ellipse cx="838.19" cy="162.414" rx="33.8741" ry="34.8022" fill="#FFE49D"/>
<ellipse cx="888.308" cy="143.852" rx="33.8741" ry="34.8022" fill="#FFE49D"/>
<ellipse cx="902.692" cy="109.514" rx="19.4892" ry="19.9532" fill="#FFE49D"/>
<ellipse cx="492.489" cy="124.363" rx="19.4892" ry="19.9532" fill="#FFE49D"/>
<ellipse cx="1116.38" cy="157.416" rx="33.8741" ry="34.8022" transform="rotate(1.98268 1116.38 157.416)" fill="#FFE49D"/>
<ellipse cx="1074.12" cy="117.416" rx="44.0827" ry="45.4748" transform="rotate(1.98268 1074.12 117.416)" fill="#FFE49D"/>
<ellipse cx="1181" cy="141.545" rx="44.0827" ry="45.4748" transform="rotate(1.98268 1181 141.545)" fill="#FFE49D"/>
<ellipse cx="1014.63" cy="146.001" rx="44.0827" ry="45.4748" transform="rotate(1.98268 1014.63 146.001)" fill="#FFE49D"/>
<ellipse cx="1294.58" cy="137.866" rx="44.0827" ry="45.4748" transform="rotate(1.98268 1294.58 137.866)" fill="#FFE49D"/>
<ellipse cx="1443.52" cy="122.774" rx="44.0827" ry="45.4748" transform="rotate(1.98268 1443.52 122.774)" fill="#FFE49D"/>
<ellipse cx="1231.65" cy="153.977" rx="33.8741" ry="34.8022" transform="rotate(1.98268 1231.65 153.977)" fill="#FFE49D"/>
<ellipse cx="1335.27" cy="164.994" rx="33.8741" ry="34.8022" transform="rotate(1.98268 1335.27 164.994)" fill="#FFE49D"/>
<ellipse cx="1386" cy="148.177" rx="33.8741" ry="34.8022" transform="rotate(1.98268 1386 148.177)" fill="#FFE49D"/>
<ellipse cx="1401.56" cy="114.357" rx="19.4892" ry="19.9532" transform="rotate(1.98268 1401.56 114.357)" fill="#FFE49D"/>
<ellipse cx="991.092" cy="115.006" rx="19.4892" ry="19.9532" transform="rotate(1.98268 991.092 115.006)" fill="#FFE49D"/>
<ellipse cx="6" cy="184" rx="50" ry="49" fill="#FFCA42"/>
<ellipse cx="155" cy="180" rx="50" ry="49" fill="#FFCA42"/>
<ellipse cx="66.5" cy="177" rx="25.5" ry="25" fill="#FFCA42"/>
<ellipse cx="201.5" cy="178" rx="25.5" ry="25" fill="#FFCA42"/>
<ellipse cx="277.5" cy="174" rx="25.5" ry="25" fill="#FFCA42"/>
<ellipse cx="306.5" cy="176" rx="15.5" ry="15" fill="#FFCA42"/>
<ellipse cx="241.5" cy="172" rx="36.5" ry="37" fill="#FFCA42"/>
<ellipse cx="354.5" cy="161.5" rx="44.5" ry="46.5" fill="#FFCA42"/>
<ellipse cx="105" cy="203" rx="35" ry="36" fill="#FFCA42"/>
<ellipse cx="416" cy="179" rx="50" ry="49" fill="#FFCA42"/>
<ellipse cx="565" cy="175" rx="50" ry="49" fill="#FFCA42"/>
<ellipse cx="476.5" cy="172" rx="25.5" ry="25" fill="#FFCA42"/>
<ellipse cx="611.5" cy="173" rx="25.5" ry="25" fill="#FFCA42"/>
<ellipse cx="687.5" cy="169" rx="25.5" ry="25" fill="#FFCA42"/>
<ellipse cx="716.5" cy="171" rx="15.5" ry="15" fill="#FFCA42"/>
<ellipse cx="651.5" cy="167" rx="36.5" ry="37" fill="#FFCA42"/>
<ellipse cx="764.5" cy="156.5" rx="44.5" ry="46.5" fill="#FFCA42"/>
<ellipse cx="515" cy="198" rx="35" ry="36" fill="#FFCA42"/>
<ellipse cx="788" cy="181" rx="50" ry="49" fill="#FFCA42"/>
<ellipse cx="937" cy="177" rx="50" ry="49" fill="#FFCA42"/>
<ellipse cx="848.5" cy="174" rx="25.5" ry="25" fill="#FFCA42"/>
<ellipse cx="983.5" cy="175" rx="25.5" ry="25" fill="#FFCA42"/>
<ellipse cx="1059.5" cy="171" rx="25.5" ry="25" fill="#FFCA42"/>
<ellipse cx="1088.5" cy="173" rx="15.5" ry="15" fill="#FFCA42"/>
<ellipse cx="1023.5" cy="169" rx="36.5" ry="37" fill="#FFCA42"/>
<ellipse cx="1136.5" cy="158.5" rx="44.5" ry="46.5" fill="#FFCA42"/>
<ellipse cx="887" cy="200" rx="35" ry="36" fill="#FFCA42"/>
<ellipse cx="1142" cy="174" rx="50" ry="49" fill="#FFCA42"/>
<ellipse cx="1291" cy="170" rx="50" ry="49" fill="#FFCA42"/>
<ellipse cx="1202.5" cy="167" rx="25.5" ry="25" fill="#FFCA42"/>
<ellipse cx="1337.5" cy="168" rx="25.5" ry="25" fill="#FFCA42"/>
<ellipse cx="1413.5" cy="164" rx="25.5" ry="25" fill="#FFCA42"/>
<ellipse cx="1442.5" cy="166" rx="15.5" ry="15" fill="#FFCA42"/>
<ellipse cx="1377.5" cy="162" rx="36.5" ry="37" fill="#FFCA42"/>
<ellipse cx="1241" cy="193" rx="35" ry="36" fill="#FFCA42"/>
<g filter="url(#filter0_d_1346_20393)">
<ellipse cx="31" cy="218" rx="50" ry="49" fill="#FFCA42"/>
<ellipse cx="180" cy="214" rx="50" ry="49" fill="#FFCA42"/>
<ellipse cx="91.5" cy="211" rx="25.5" ry="25" fill="#FFCA42"/>
<ellipse cx="226.5" cy="212" rx="25.5" ry="25" fill="#FFCA42"/>
<ellipse cx="302.5" cy="208" rx="25.5" ry="25" fill="#FFCA42"/>
<ellipse cx="331.5" cy="210" rx="15.5" ry="15" fill="#FFCA42"/>
<ellipse cx="266.5" cy="206" rx="36.5" ry="37" fill="#FFCA42"/>
<ellipse cx="379.5" cy="195.5" rx="44.5" ry="46.5" fill="#FFCA42"/>
<ellipse cx="130" cy="237" rx="35" ry="36" fill="#FFCA42"/>
<ellipse cx="441" cy="213" rx="50" ry="49" fill="#FFCA42"/>
<ellipse cx="590" cy="209" rx="50" ry="49" fill="#FFCA42"/>
<ellipse cx="501.5" cy="206" rx="25.5" ry="25" fill="#FFCA42"/>
<ellipse cx="636.5" cy="207" rx="25.5" ry="25" fill="#FFCA42"/>
<ellipse cx="712.5" cy="203" rx="25.5" ry="25" fill="#FFCA42"/>
<ellipse cx="741.5" cy="205" rx="15.5" ry="15" fill="#FFCA42"/>
<ellipse cx="676.5" cy="201" rx="36.5" ry="37" fill="#FFCA42"/>
<ellipse cx="789.5" cy="190.5" rx="44.5" ry="46.5" fill="#FFCA42"/>
<ellipse cx="540" cy="232" rx="35" ry="36" fill="#FFCA42"/>
<ellipse cx="813" cy="215" rx="50" ry="49" fill="#FFCA42"/>
<ellipse cx="962" cy="211" rx="50" ry="49" fill="#FFCA42"/>
<ellipse cx="873.5" cy="208" rx="25.5" ry="25" fill="#FFCA42"/>
<ellipse cx="1008.5" cy="209" rx="25.5" ry="25" fill="#FFCA42"/>
<ellipse cx="1084.5" cy="205" rx="25.5" ry="25" fill="#FFCA42"/>
<ellipse cx="1113.5" cy="207" rx="15.5" ry="15" fill="#FFCA42"/>
<ellipse cx="1048.5" cy="203" rx="36.5" ry="37" fill="#FFCA42"/>
<ellipse cx="1161.5" cy="192.5" rx="44.5" ry="46.5" fill="#FFCA42"/>
<ellipse cx="912" cy="234" rx="35" ry="36" fill="#FFCA42"/>
<ellipse cx="1167" cy="208" rx="50" ry="49" fill="#FFCA42"/>
<ellipse cx="1316" cy="204" rx="50" ry="49" fill="#FFCA42"/>
<ellipse cx="1227.5" cy="201" rx="25.5" ry="25" fill="#FFCA42"/>
<ellipse cx="1362.5" cy="202" rx="25.5" ry="25" fill="#FFCA42"/>
<ellipse cx="1438.5" cy="198" rx="25.5" ry="25" fill="#FFCA42"/>
<ellipse cx="1402.5" cy="196" rx="36.5" ry="37" fill="#FFCA42"/>
<ellipse cx="1266" cy="227" rx="35" ry="36" fill="#FFCA42"/>
</g>
<defs>
<filter id="filter0_d_1346_20393" x="-23" y="139" width="1587" height="142" filterUnits="userSpaceOnUse" color-interpolation-filters="sRGB">
<feFlood flood-opacity="0" result="BackgroundImageFix"/>
<feColorMatrix in="SourceAlpha" type="matrix" values="0 0 0 0 0 0 0 0 0 0 0 0 0 0 0 0 0 0 127 0" result="hardAlpha"/>
<feOffset dy="4"/>
<feGaussianBlur stdDeviation="2"/>
<feComposite in2="hardAlpha" operator="out"/>
<feColorMatrix type="matrix" values="0 0 0 0 0.639811 0 0 0 0 0.460393 0 0 0 0 0 0 0 0 0.25 0"/>
<feBlend mode="normal" in2="BackgroundImageFix" result="effect1_dropShadow_1346_20393"/>
<feBlend mode="normal" in="SourceGraphic" in2="effect1_dropShadow_1346_20393" result="shape"/>
</filter>
</defs>
</svg>
