<svg width="242" height="81" viewBox="0 0 242 81" fill="none" xmlns="http://www.w3.org/2000/svg">
<g clip-path="url(#clip0_1382_17638)">
<path d="M69.3562 64.9228C69.3562 83.3106 69.3562 80.0695 99.5121 80.0695C129.668 80.0695 129.668 83.3106 129.668 64.9228C129.668 46.5351 116.167 31.6289 99.5121 31.6289C82.8575 31.6289 69.3562 46.5351 69.3562 64.9228Z" fill="white"/>
<path d="M21.1062 59.4012C21.1062 83.9341 21.1062 79.6099 61.8167 79.6099C102.527 79.6099 102.527 83.9341 102.527 59.4012C102.527 34.8683 84.3005 14.9805 61.8167 14.9805C39.333 14.9805 21.1062 34.8683 21.1062 59.4012Z" fill="white"/>
<path d="M0.000244141 71.4934C0.000244141 81.5582 0.000244141 79.7842 16.586 79.7842C33.1718 79.7842 33.1718 81.5582 33.1718 71.4934C33.1718 61.4286 25.7461 53.2695 16.586 53.2695C7.42594 53.2695 0.000244141 61.4286 0.000244141 71.4934Z" fill="white"/>
<path d="M181.688 63.8525C181.688 82.2403 181.688 78.9992 211.844 78.9992C242 78.9992 242 82.2403 242 63.8525C242 45.4648 228.499 30.5586 211.844 30.5586C195.189 30.5586 181.688 45.4648 181.688 63.8525Z" fill="white"/>
<path d="M102.528 54.6717C102.528 84.866 102.528 79.5439 152.286 79.5439C202.043 79.5439 202.043 84.866 202.043 54.6717C202.043 24.4773 179.766 0 152.286 0C124.806 0 102.528 24.4773 102.528 54.6717Z" fill="white"/>
</g>
<defs>
<clipPath id="clip0_1382_17638">
<rect width="242" height="81" fill="white"/>
</clipPath>
</defs>
</svg>
