<svg width="250" height="254" viewBox="0 0 250 254" fill="none" xmlns="http://www.w3.org/2000/svg">
<path d="M141.428 6.09625C137.011 8.27784 134.066 8.78519 130.816 13.9601C130.968 14.4675 135.437 13.5542 140.768 14.7719C140.819 16.9027 135.538 14.9748 135.132 15.0763C134.218 15.2792 132.441 17.5116 132.238 17.6638C124.875 21.5703 123.758 19.0336 122.59 18.9321C116.598 18.6277 111.368 20.2512 119.036 17.0042C120.254 16.4969 122.387 16.1925 122.742 16.0402C126.601 14.3153 124.469 13.5542 124.672 12.641C125.027 11.0175 126.551 6.14699 125.332 5.38597C125.383 5.2845 125.332 4.82788 125.637 4.42201C126.652 4.77715 127.414 7.41535 128.074 7.61829C128.886 7.9227 129.14 7.00948 129.191 6.95874C130.968 6.50213 136.351 2.44335 136.909 3.55952C132.339 5.18303 127.922 11.7785 129.039 12.0829C131.933 8.68372 137.062 6.6036 141.428 6.09625Z" fill="#3F1710"/>
<path d="M123.759 9.9502C124.165 9.34139 123.708 8.52963 125.384 5.43481C126.653 6.19583 125.13 11.0156 124.724 12.6899C124.521 13.5524 126.653 14.3134 122.794 16.0891C121.779 14.6178 121.423 14.8207 120.56 12.8928C120.408 12.4869 120.357 9.49359 117.006 5.48555C121.931 5.63775 121.982 12.5884 123.759 9.9502Z" fill="#582914"/>
<path d="M129.19 7.05993C129.139 7.05993 128.885 8.02389 128.073 7.71948C127.464 7.46581 126.702 4.82761 125.636 4.5232C127.616 1.98647 131.12 1.42838 133.862 0.0078125C131.983 2.08793 129.495 4.01585 129.19 7.05993Z" fill="#6D4B38"/>
<path d="M123.757 9.95112C121.98 12.5893 121.98 5.6894 117.004 5.43573C116.801 5.23279 116.547 4.67471 116.344 4.47177L119.238 3.50781C121.574 5.13132 123.046 7.05924 123.757 9.95112Z" fill="#764327"/>
<path d="M119.239 3.50723L116.345 4.47119C114.771 2.89842 112.232 1.78225 110.404 0.615356C113.959 1.17344 116.193 1.37638 119.239 3.50723Z" fill="#846C5E"/>
<path d="M72.8808 239.576V241.656C75.6736 243.634 73.1347 240.337 74.1503 239.88C76.5876 241.656 75.1658 243.127 74.4549 244.7C72.17 246.12 71.9668 243.279 69.3264 245.359C67.9047 243.939 67.8031 243.584 68.3617 241.503C69.885 241.098 72.0176 241.757 70.2912 239.576C71.5099 239.119 71.6622 239.271 72.8808 239.576Z" fill="#AF7F45"/>
<path d="M84.764 244.701C83.4438 246.528 81.0065 247.187 78.9754 246.325C77.8075 245.817 77.5537 244.549 77.706 243.433C79.534 242.875 82.8852 244.549 83.1899 241.505C85.4749 243.331 84.4593 243.94 84.764 244.701Z" fill="#582914"/>
<path d="M65.4693 244.397C63.8445 244.955 61.9657 244.295 60.6455 243.433C60.8994 241.657 60.0362 240.186 62.7273 240.541C64.6061 241.403 64.7584 242.773 65.4693 244.397Z" fill="#FAC287"/>
<path d="M65.4678 244.397C65.7217 244.905 65.9756 245.615 66.4326 246.021C66.2295 246.072 67.245 246.579 62.8782 246.681C62.015 246.681 61.1518 246.681 60.2886 246.681C60.0347 245.564 60.4409 244.55 60.5932 243.484C61.9642 244.296 63.843 244.956 65.4678 244.397Z" fill="#76300C"/>
<path d="M83.189 241.506C82.8843 244.55 79.5838 242.876 77.7051 243.434C77.8066 242.013 79.0761 241.252 80.2947 240.846C80.7009 241.506 81.5641 241.303 80.9548 240.542C82.5289 240.39 82.6305 241.1 83.189 241.506Z" fill="#87521F"/>
<path d="M74.5054 244.7C74.4039 244.954 74.5562 246.374 73.9977 246.628C73.8961 246.679 72.6267 246.577 71.9158 246.628C71.8142 246.628 71.7127 246.628 71.6111 246.628C70.494 246.121 70.3417 246.273 69.377 245.36C72.0174 243.33 72.1697 246.171 74.5054 244.7Z" fill="#6B1D0E"/>
<path d="M74.1503 239.882C73.1347 240.339 75.6736 243.637 72.8809 241.658V239.578C73.2363 239.679 73.5917 239.477 74.1503 239.882Z" fill="#FAC287"/>
<path d="M70.2928 239.578C72.0192 241.76 69.8866 241.1 68.3633 241.506C68.5156 240.44 69.4296 239.882 70.2928 239.578Z" fill="#EFCD95"/>
<path d="M80.2939 240.844C80.5986 240.743 80.7002 240.54 80.9541 240.54C81.5634 241.301 80.6494 241.504 80.2939 240.844Z" fill="#F1AE72"/>
<path d="M83.1877 19.2355C88.9255 20.7068 92.8353 22.1274 99.284 21.3156C96.0851 22.9899 92.683 24.867 89.9411 27.2516C69.3764 27.9111 48.6086 5.63859 34.5942 20.6561L36.8284 20.8083C26.673 25.5266 14.2834 42.1168 5.2959 49.4226C10.8306 40.3411 19.8689 29.1795 27.4854 21.7722C52.7723 -1.97161 56.6822 12.5385 83.1877 19.2355Z" fill="#E1C8A7"/>
<path d="M83.1867 18.9288V19.2332C56.6811 12.4855 52.7713 -1.97385 27.4844 21.8207C32.4097 17.0517 40.1786 9.13705 47.2874 8.32529C59.7785 6.85398 72.0158 17.0009 83.1867 18.9288Z" fill="#837565"/>
<path d="M89.9416 27.3014C84.9147 31.6646 80.8017 38.463 79.0246 44.8556C78.2121 47.646 78.0598 52.4658 77.095 52.7195C77.3489 46.3776 80.294 39.6299 76.4349 33.8969C71.7127 26.8448 50.7926 18.1184 42.4652 18.9302C40.5356 19.1331 38.6061 20.0463 36.8289 20.8581L34.5947 20.7059C48.6092 5.6884 69.3769 27.9609 89.9416 27.3014Z" fill="#B49386"/>
<path d="M246.385 52.3657C237.245 44.6033 226.125 27.1506 216.122 21.4683C217.137 18.5764 211.907 15.9889 209.521 15.6845C197.994 14.2132 177.633 30.0424 163.974 28.216C161.384 25.5778 158.388 23.7006 155.291 21.7727C163.771 22.3815 164.025 22.28 171.387 19.8448C182.558 16.1411 198.35 5.48684 210.181 9.85002C213.989 11.2706 227.09 24.8675 230.289 28.6726C234.605 33.8475 243.389 46.5312 246.385 52.3657Z" fill="#C2AA99"/>
<path d="M171.387 19.8958C164.025 22.331 163.771 22.4832 155.291 21.8237C154.935 21.6207 154.072 21.3163 154.021 21.0119C154.021 20.9104 154.986 20.9104 154.682 19.8958C160.115 20.9104 165.853 20.2509 171.387 19.8958Z" fill="#6B1D0E"/>
<path d="M216.122 21.5198C207.693 16.7508 200.939 19.7441 192.764 23.4478C173.164 32.3771 173.824 36.9432 175.855 54.3452C174.129 44.5534 171.082 35.5226 163.923 28.3183C177.582 30.1447 197.943 14.2648 209.47 15.7868C211.907 16.0405 217.137 18.628 216.122 21.5198Z" fill="#C2AA99"/>
<path d="M76.7403 61.3957C76.7403 66.3677 76.9434 83.3131 79.9392 80.3705C79.9392 80.5734 79.9392 80.8271 79.9392 81.03C79.8377 85.3425 79.8884 87.6256 80.5993 91.9887C80.7009 92.5976 80.8024 93.3078 80.904 93.9166C81.0055 94.3733 81.1071 94.7284 81.2087 95.185L80.0916 93.5615L78.619 96.149C77.2988 88.8432 76.0294 83.1609 75.7247 75.5507C75.5216 70.0206 76.1817 62.6133 76.0294 61.0913L76.7403 61.3957Z" fill="#3F1710"/>
<path d="M107.004 246.628C106.243 247.642 106.547 249.063 106.344 250.179C106.192 250.991 105.583 252.158 106.04 253.071C105.176 253.071 104.313 253.071 103.45 253.071C103.907 252.462 103.755 251.853 103.755 251.143C103.755 250.737 103.805 250.281 103.755 249.875C103.501 246.78 103.247 246.577 100.556 245.055C100.606 245.055 100.556 244.497 101.368 244.751C101.927 244.903 104.262 246.425 107.004 246.628Z" fill="#100E0D"/>
<path d="M121.779 251.45C118.022 252.718 118.428 251.399 118.225 251.45C117.92 249.877 118.631 249.522 118.885 248.558C119.088 248.609 119.342 248.761 119.545 248.862C121.525 250.232 122.49 248.304 123.404 246.63C123.607 246.935 127.365 249.623 121.779 251.45Z" fill="#76300C"/>
<path d="M89.9431 245.362C89.9939 245.412 89.8923 245.717 90.2477 245.666C90.2985 246.173 91.4664 247.036 90.5524 248.253C89.3338 247.797 87.7597 248.406 86.6934 247.949C86.7441 247.188 86.6934 246.427 86.6934 245.717C88.0136 244.854 88.2674 244.804 89.9431 245.362Z" fill="#FEA344"/>
<path d="M90.5524 248.252C90.6032 248.252 90.8571 249.013 91.2125 248.911C91.2125 249.673 92.6343 250.941 90.5524 252.108C87.5566 251.499 86.5411 250.992 86.6934 247.948C87.8105 248.404 89.3338 247.795 90.5524 248.252Z" fill="#76300C"/>
<path d="M115.382 248.915C115.382 250.133 115.687 252.315 114.113 252.467C111.523 252.721 108.68 253.076 106.039 253.126C105.633 252.213 106.243 251.046 106.344 250.234C110.102 253.786 111.32 249.372 111.676 249.271C112.183 249.017 112.742 250.793 115.382 248.915Z" fill="#9D520C"/>
<path d="M114.722 246.631C114.823 247.189 114.976 247.494 115.027 248.255C115.027 248.559 115.331 248.61 115.331 248.914C112.742 250.792 112.183 249.067 111.625 249.219C111.32 249.32 110.101 253.734 106.293 250.183C106.496 249.067 106.191 247.697 106.953 246.631C107.918 245.363 112.539 243.942 114.722 246.631Z" fill="#EFCD95"/>
<path d="M145.287 246.022C145.389 246.022 145.49 246.022 145.592 246.022C145.389 248.407 148.892 247.595 147.521 250.385C145.795 252.161 144.678 250.335 142.697 250.538C140.819 249.168 138.737 246.834 141.428 245.058C142.139 247.24 144.221 248.813 145.287 246.022Z" fill="#963C11"/>
<path d="M145.288 246.022C144.221 248.863 142.14 247.29 141.429 245.058V244.753C141.835 244.5 141.733 244.449 141.733 244.449C144.272 243.891 145.085 245.971 145.288 246.022Z" fill="#F2BB5B"/>
<path d="M173.623 88.388C173.623 88.5909 173.623 88.8446 173.623 89.0475C172.76 94.6283 171.643 100.209 170.729 105.79C170.12 109.544 168.799 113.806 168.495 117.51C168.089 121.924 167.327 140.188 173.979 139.884C175.756 139.782 179.615 137.043 179.92 136.992C181.544 136.687 181.9 137.296 182.001 137.296C179.513 137.398 179.615 139.275 179.412 141.152C179.209 143.334 179.818 145.82 179.107 147.9C178.853 147.291 179.564 146.023 178.599 145.312C178.295 145.109 173.877 144.399 171.846 143.08C168.749 141.051 168.089 136.586 164.433 133.44C157.832 127.657 150.672 129.28 145.594 136.18C138.536 145.718 147.676 170.781 146.254 188.589C145.594 196.757 142.091 200.816 144.325 215.428C143.208 215.529 143.868 220.958 143.36 225.219C143.005 228.416 139.501 243.585 140.161 245.158C140.161 245.209 141.38 244.702 141.431 244.651V244.955C138.79 246.731 140.821 249.065 142.7 250.435C141.685 250.536 142.192 251.043 141.888 251.094C135.236 251.906 128.584 253.123 121.932 253.986C122.186 251.754 120.409 253.428 121.78 251.398C127.365 249.521 123.557 246.883 123.405 246.579C123.354 246.477 123.456 245.97 122.745 245.31C120.155 242.672 119.343 246.528 118.886 248.507C118.683 249.471 117.921 249.826 118.226 251.398C117.159 251.601 116.042 252.16 114.062 252.362C115.636 252.261 115.382 250.079 115.331 248.811C115.331 248.507 115.027 248.456 115.027 248.152C116.042 249.065 119.698 244.854 119.85 244.143C120.054 243.027 116.702 229.329 115.687 221.769C114.722 214.616 114.722 207.361 113.453 200.207C115.738 199.193 113.351 189.046 113.148 183.972C112.589 170.832 113.91 166.114 111.218 150.031C111.168 149.878 111.726 149.27 111.218 146.631C110.457 142.877 106.141 136.18 102.993 133.948C99.5397 131.462 92.634 130.295 88.8257 132.679C86.8454 133.897 83.7988 139.275 83.4942 139.579C80.346 142.978 77.2486 144.348 77.0455 144.703C76.1823 146.175 76.6393 149.016 76.3854 150.639C76.3346 150.842 74.4051 154.14 75.573 154.191C78.4672 152.263 81.3615 150.335 84.2558 148.407L84.4081 149.067C83.4434 150.031 75.4206 157.996 75.7253 158.554C82.5294 157.286 97.8133 150.842 82.631 158.047C79.4828 160.685 73.1357 162.511 73.4403 166.722C72.1709 167.737 73.8973 165.302 72.1709 165.454C72.7294 156.626 74.2528 147.798 74.1004 138.92L75.3699 138.768C76.7408 138.97 77.5025 139.021 78.9242 138.768C79.1781 138.717 79.2797 138.97 79.432 139.072C86.9978 129.179 81.3107 109.392 79.2797 97.9261C79.1781 97.4695 79.0258 97.1143 78.975 96.6577C78.9242 96.3533 78.7211 96.3026 78.6704 95.9982L80.1429 93.4107L81.26 95.0342C84.8651 111.827 93.091 119.285 109.238 124.308C109.847 124.511 110.254 124.765 110.863 124.308C112.335 132.933 114.113 141.558 115.382 150.183C116.753 159.619 117.362 169.208 118.936 178.645C119.292 180.928 122.694 198.381 123.608 198.888C123.659 198.939 124.37 198.127 125.08 198.736C125.182 198.837 124.979 199.649 125.08 199.852L123.456 199.345C125.487 202.237 122.085 209.745 124.928 211.724C127.467 213.55 132.799 211.064 134.88 209.137C136.048 208.071 135.642 207.614 135.693 207.513C135.693 207.513 135.744 207.564 135.998 207.209C136.607 206.245 137.572 205.636 137.927 204.165C139.196 198.888 134.576 179.102 134.068 168.295C133.662 159.163 134.525 149.878 136.658 140.949C137.876 135.673 140.212 129.635 142.446 124.714C143.208 123.04 144.985 121.366 145.036 121.163C145.493 119.691 143.512 120.402 146.001 117.459C147.575 115.531 151.789 112.335 153.414 110.052C152.957 111.219 152.145 113.299 151.484 114.212C151.484 114.263 151.231 114.313 150.824 114.871C149.047 117.307 141.837 125.018 144.883 124.815C145.29 124.815 147.422 123.395 147.93 123.192C155.14 120.3 160.066 117.053 164.686 110.66C167.327 107.008 168.952 103.71 170.17 99.3974C170.627 97.7232 170.83 95.9474 171.135 94.2732C171.643 91.6857 172.201 89.149 172.405 86.5615L173.623 88.388Z" fill="#100E0D"/>
<path d="M138.689 165.251C140.973 172.1 142.497 179.406 140.313 186.458C138.841 186.813 137.876 167.026 138.689 165.251Z" fill="#2D2523"/>
<path d="M135.49 238.918C140.111 239.882 138.943 240.338 138.384 244.701C132.24 244.752 133.408 243.839 135.49 238.918Z" fill="#582914"/>
<path d="M132.089 240.846L127.925 239.883C128.077 238.817 128.636 235.316 129.702 235.722C132.799 237.143 132.647 237.447 132.089 240.846Z" fill="#764327"/>
<path d="M132.089 240.847C131.885 242.268 131.885 243.536 131.276 243.739C125.589 241.71 127.62 241.608 127.874 239.883L132.089 240.847Z" fill="#290F07"/>
<path d="M122.745 245.36C121.272 247.339 120.663 245.969 119.546 248.911C119.394 248.81 119.089 248.658 118.886 248.607C119.394 246.578 120.206 242.722 122.745 245.36Z" fill="#FAC287"/>
<path d="M123.406 246.63C122.492 248.304 121.527 250.232 119.547 248.862C120.715 245.97 121.324 247.289 122.746 245.311C123.457 246.072 123.355 246.579 123.406 246.63Z" fill="#C0945A"/>
<path d="M176.821 244.398C176.871 245.007 177.176 245.21 177.125 246.022C174.688 249.015 171.489 248.711 168.087 249.878C168.087 248.762 169.255 249.066 168.087 248.254C168.899 248.001 168.696 247.95 168.747 247.95C169.153 247.747 169.306 247.95 169.712 247.29C170.575 246.884 170.778 247.037 170.981 246.022C174.84 245.16 176.821 245.21 175.145 240.898L176.11 240.593C176.414 241.811 176.719 243.13 176.821 244.398Z" fill="#764327"/>
<path d="M175.245 240.845C176.87 245.158 174.94 245.158 171.081 245.969C171.893 242.266 168.694 239.78 174.788 239.222C174.94 239.323 175.042 240.389 175.245 240.845Z" fill="#F8E8C3"/>
<path d="M170.729 239.884C170.424 242.37 171.034 245.16 169.764 247.291C169.358 247.9 169.206 247.748 168.799 247.95C169.612 246.479 168.799 246.428 168.799 246.327C168.241 244.044 166.667 242.015 164.28 241.203C164.331 241.203 164.483 240.594 164.788 240.543C166.362 240.239 169.155 240.29 170.729 239.884Z" fill="#281B13"/>
<path d="M180.732 166.264C180.326 168.445 183.017 174.28 182.966 175.751C182.966 176.816 182.408 176.766 182.306 177.222C182.154 178.034 180.986 180.774 181.037 181.23C181.087 181.788 185.708 189.246 182.001 188.13C181.951 187.877 182.458 187.724 182.306 187.014C181.138 181.027 180.275 190.007 179.717 195.081C179.463 195.436 179.107 194.117 179.056 193.965C178.396 191.682 177.025 183.716 179.361 187.674C179.666 186.659 180.275 185.594 180.021 184.477C179.767 183.361 174.131 178.541 179.869 183.006C180.986 182.854 179.818 177.476 179.717 177.222C183.779 177.628 180.174 174.787 179.056 173.366C179.564 172.758 179.26 172.2 179.361 171.743C179.513 171.134 181.544 168.597 179.666 165.655C180.529 165.452 180.631 166.213 180.732 166.264Z" fill="#2D2523"/>
<path d="M144.325 215.425C144.427 215.983 146.763 217.86 146.255 226.84C146.204 228.007 143.97 241.553 143.665 242.264C143.361 243.075 142.345 243.887 141.736 244.344C141.736 244.344 141.837 244.445 141.431 244.648C141.38 244.699 140.162 245.206 140.162 245.156C139.502 243.583 143.005 228.413 143.361 225.217C143.868 220.955 143.259 215.577 144.325 215.425Z" fill="#100E0D"/>
<path d="M170.73 239.881C169.156 240.287 166.363 240.236 164.789 240.54C164.535 240.591 164.332 241.149 164.281 241.2C163.672 241.301 163.012 241.403 162.352 241.504C160.879 241.758 158.442 241.301 157.528 242.468C156.258 241.2 154.227 241.352 152.704 242.164C152.45 241.251 151.536 239.323 151.739 238.46C151.891 237.902 159.813 231.713 160.574 231.56C163.418 230.952 174.538 232.575 174.233 238.815C173.065 239.018 171.898 239.627 170.73 239.881Z" fill="#543934"/>
<path d="M179.108 147.897C179.971 150.231 181.495 150.891 182.307 153.021C179.87 157.689 177.636 156.573 180.378 161.697H179.108C178.194 158.45 177.026 157.08 174.944 154.594C178.346 154.797 176.112 158.298 179.768 153.123C179.667 152.514 172.913 148.608 171.898 147.796C170.781 147.441 170.425 148.76 169.461 149.724C163.875 155.355 156.157 167.532 153.364 174.99C149.81 184.528 149.15 192.797 148.845 202.792C148.693 207.866 148.388 212.838 148.845 217.911C148.033 219.585 146.916 219.687 151.282 222.071C162.047 228.109 168.394 221.564 173.015 212.432C173.015 212.432 173.116 212.533 173.32 212.127C175.706 212.736 172.761 217.201 174.944 215.831C174.03 213.193 177.788 207.713 175.909 205.684C176.468 203.959 178.042 199.038 178.143 197.82C178.448 193.964 176.112 193.153 178.448 193.812C179.413 197.262 177.737 200.864 177.179 204.263C176.976 205.38 177.382 207.003 177.179 208.119C176.569 211.874 174.538 216.643 174.284 223.898C173.98 232.015 175.401 235.161 176.214 240.488L175.249 240.792C175.046 240.285 174.944 239.27 174.741 239.169C168.699 239.727 171.847 242.213 171.035 245.917C170.832 246.931 170.628 246.779 169.765 247.185C171.035 245.054 170.425 242.264 170.73 239.778C171.898 239.473 173.066 238.915 174.284 238.662C174.589 232.421 163.418 230.798 160.625 231.407C159.813 231.559 151.892 237.748 151.79 238.306C151.587 239.169 152.501 241.097 152.755 242.01C150.064 243.38 150.267 246.272 150.165 246.525C149.861 247.489 147.982 247.997 150.47 250.381C146.916 249.011 150.419 245.967 149.353 245.257C144.681 244.953 145.849 245.917 145.646 245.917C145.545 245.917 145.443 245.917 145.341 245.917C145.138 245.866 144.326 243.786 141.787 244.293C142.396 243.837 143.412 243.025 143.717 242.213C143.971 241.452 146.205 227.957 146.306 226.79C146.814 217.81 144.478 215.932 144.377 215.374C142.143 200.763 145.646 196.653 146.306 188.536C147.779 170.677 138.588 145.665 145.646 136.127C150.724 129.227 157.833 127.654 164.484 133.387C168.09 136.533 168.8 140.997 171.898 143.027C173.929 144.346 178.397 145.056 178.651 145.259C179.514 146.02 178.854 147.288 179.108 147.897Z" fill="#2D2523"/>
<path d="M162.2 148.557L163.013 148.709C163.267 150.434 150.877 162.965 148.033 163.98C147.069 163.473 157.833 147.288 162.2 148.557Z" fill="#543934"/>
<path d="M173.32 212.229C174.387 210.048 175.148 208.12 175.91 205.786C177.789 207.816 174.031 213.295 174.945 215.933C172.762 217.354 175.656 212.838 173.32 212.229Z" fill="#2D2523"/>
<path d="M179.767 177.173C179.869 177.427 181.037 182.804 179.92 182.957C174.182 178.492 179.818 183.312 180.072 184.428C180.326 185.544 179.717 186.61 179.412 187.624C177.076 183.616 178.397 191.632 179.107 193.915C178.904 193.915 178.65 193.966 178.447 193.915C176.061 193.256 178.447 194.068 178.143 197.923C178.041 199.141 176.416 204.062 175.908 205.787C175.198 208.121 174.385 209.998 173.319 212.231C173.116 212.687 173.014 212.535 173.014 212.535C160.574 210.455 157.527 197.365 158.847 186.457C159.711 179.253 165.296 171.237 169.764 165.555C171.694 168.193 179.006 175.499 179.767 177.173Z" fill="#AC9D92"/>
<path d="M174.892 154.647C177.025 157.133 178.142 158.502 179.056 161.749C179.31 162.713 179.868 164.337 179.361 165.301C179.158 165.098 174.435 162.612 173.877 162.409C171.135 161.394 172.81 162.054 171.287 163.677C170.576 164.438 170.322 164.794 169.662 165.605C165.194 171.288 159.608 179.304 158.745 186.508C156.765 186.965 155.191 195.437 154.226 199.395C152.144 199.496 150.672 201.982 148.742 202.946C149.047 192.901 149.707 184.682 153.261 175.143C156.054 167.685 163.721 155.509 169.358 149.878C171.389 151.095 173.42 152.871 174.892 154.647Z" fill="#543934"/>
<path d="M158.796 186.51C157.476 197.418 160.522 210.457 172.963 212.587C168.342 221.72 161.995 228.264 151.23 222.227C146.914 219.792 148.031 219.69 148.793 218.067C153.413 208.427 152.093 208.63 154.277 199.396C155.241 195.439 156.866 186.966 158.796 186.51Z" fill="#5E4841"/>
<path d="M154.328 199.343C152.195 208.526 153.515 208.323 148.844 218.013C148.387 212.94 148.692 207.968 148.844 202.894C150.723 201.93 152.195 199.444 154.328 199.343Z" fill="#543934"/>
<path d="M174.892 154.646C173.369 152.87 171.389 151.094 169.408 149.826C170.322 148.862 170.678 147.543 171.845 147.898C172.912 148.71 179.665 152.566 179.716 153.225C176.111 158.349 178.345 154.849 174.892 154.646Z" fill="#543934"/>
<path d="M179.108 173.316C180.225 174.736 183.83 177.577 179.768 177.172C179.006 175.497 171.745 168.192 169.765 165.604C170.374 164.792 170.679 164.437 171.39 163.676C173.776 167.025 176.569 170.069 179.108 173.316Z" fill="#846C5E"/>
<path d="M173.928 162.358C174.69 165.351 177.889 168.497 179.412 171.693C179.311 172.099 179.616 172.657 179.108 173.317C176.569 170.07 173.776 167.025 171.39 163.677C172.862 162.053 171.187 161.343 173.928 162.358Z" fill="#C2AA99"/>
<path d="M179.412 165.251C179.412 165.251 179.513 165.2 179.716 165.555C181.544 168.498 179.564 171.085 179.412 171.643C177.888 168.447 174.689 165.302 173.928 162.308C174.486 162.562 179.209 165.048 179.412 165.251Z" fill="#9E756A"/>
<path d="M54.4997 162.716C55.566 165.861 55.8706 164.745 56.1245 165.151C56.6323 166.064 55.1598 165.963 55.1598 166.115C55.0582 168.855 69.8343 185.191 72.6778 188.134L73.1856 187.322C70.6975 179.103 71.7131 173.624 72.2208 165.608C73.9472 165.455 72.2716 167.891 73.4902 166.876C91.9223 159.875 80.4467 161.904 74.3027 171.696C78.9234 171.341 82.7317 168.601 86.9969 167.18C86.4384 167.637 85.9306 168.043 85.3721 168.449C83.6456 169.768 70.1897 177.327 73.6426 178.393C75.9275 177.632 78.2633 176.871 80.5482 176.16C78.9234 178.494 76.5369 180.321 75.7244 183.263C74.3027 188.337 76.1307 186.155 76.3845 186.155C78.2125 186.155 80.0405 186.409 81.8684 186.459C79.4819 187.119 75.5721 189.96 77.8571 190.011C86.3368 185.952 81.5638 189.047 79.9389 192.446C79.3296 193.765 79.9389 193.816 79.9389 193.917C79.2788 195.845 78.5679 194.679 78.6695 196.353C78.6695 196.86 81.4114 206.145 82.5285 204.217C82.0715 205.231 80.9545 206.398 81.2591 206.956C81.3607 207.159 83.6456 206.601 84.8135 206.449C85.5752 206.398 85.829 205.891 86.0829 206.297L82.2239 210.153C82.6809 210.711 89.942 209.544 85.4228 211.624C85.2705 211.675 82.9348 211.015 83.1886 213.704C83.2394 214.211 85.4736 217.915 86.3876 223.039C87.7078 230.294 87.2 243.029 87.657 243.942C87.7586 244.196 89.028 243.942 89.8912 245.362C88.2156 244.804 87.9617 244.855 86.6923 245.667C86.4891 245.768 86.286 245.921 86.0322 245.971C85.8798 245.21 84.9151 245.109 84.7627 244.703C84.4581 243.942 85.4736 243.333 83.1379 241.507C82.6301 241.101 82.4778 240.39 80.9037 240.543C80.6498 240.543 80.599 240.746 80.2436 240.847C79.0249 241.202 77.8063 242.014 77.654 243.435C77.5524 244.551 77.8063 245.819 78.9234 246.326L78.6187 247.29C75.5721 247.087 72.627 247.848 71.8654 246.631C72.5763 246.58 73.8457 246.682 73.9472 246.631C74.455 246.377 74.3027 244.957 74.455 244.703C75.1659 243.13 76.5369 241.659 74.1503 239.883C73.5918 239.427 73.2364 239.629 72.8809 239.579C71.6623 239.325 71.51 239.122 70.2913 239.579C69.3773 239.883 68.4633 240.492 68.3618 241.507C67.8032 243.587 67.9048 243.993 69.3265 245.362C70.2913 246.276 70.4436 246.174 71.5607 246.631C66.3307 246.732 69.3773 246.326 69.3265 246.123C68.9203 245.058 67.3462 245.819 66.4323 245.971C65.9753 245.565 65.7214 244.906 65.4675 244.348C64.7058 242.724 64.6043 241.405 62.7255 240.492C59.9836 240.137 60.8976 241.608 60.6437 243.384C60.4914 244.449 60.0851 245.464 60.339 246.58H60.0344C60.1359 245.87 59.5266 245.261 59.7297 243.993C60.339 239.427 62.5224 228.569 62.624 225.677C62.7255 223.191 62.167 220.147 61.9639 217.611C60.4406 199.448 51.5038 175.704 50.6914 156.019C51.9608 158.302 53.2303 160.483 54.4997 162.716Z" fill="#281B23"/>
<path d="M62.27 134.71C65.2151 135.776 68.1093 137.146 71.1052 137.907C73.644 138.566 75.0658 138.211 75.2689 138.211C75.5228 138.262 75.3704 138.871 75.4212 138.871L74.1518 139.023C74.3041 147.901 72.7808 156.729 72.2223 165.557C71.7145 173.573 70.699 179.052 73.187 187.271L72.6793 188.083C69.8358 185.141 55.0089 168.804 55.1612 166.064C55.1612 165.912 56.6337 166.014 56.126 165.1C55.8721 164.694 55.5674 165.861 54.5011 162.665C53.7395 160.433 52.927 158.15 52.2669 155.917L52.927 156.07C52.013 150.438 51.5053 144.806 52.927 139.175C54.0441 145.567 54.1965 152.112 56.126 158.302L56.7861 157.997C56.126 154.903 56.3799 135.268 55.8213 134.203C55.5674 133.746 53.8918 136.283 54.8566 132.123C57.2431 133.29 59.8327 133.848 62.27 134.71Z" fill="url(#paint0_linear_1301_1932)"/>
<path d="M52.9265 139.225C51.5048 144.856 52.0125 150.488 52.9265 156.119L52.2664 155.967C51.0986 152.162 50.4384 151.553 50.0322 145.668C50.4892 142.776 51.3524 139.529 51.6571 136.637C53.3835 135.825 52.7234 138.159 52.9265 139.225Z" fill="#80583E"/>
<path d="M51.6573 136.638C51.3526 139.53 50.4894 142.726 50.0324 145.668C49.6262 140.494 50.0324 135.623 51.3018 130.55C51.4034 130.6 51.5557 130.499 51.6065 130.55C51.9112 132.528 51.8604 134.659 51.6573 136.638Z" fill="#2D2523"/>
<path d="M54.8562 132.123C53.8914 136.283 55.5671 133.746 55.8209 134.203C56.3795 135.268 56.1256 154.903 56.7857 157.997L56.1256 158.302C54.1961 152.112 54.0437 145.567 52.9266 139.175C52.7235 138.109 53.3836 135.776 51.6572 136.587C51.8603 134.558 51.9111 132.478 51.6572 130.499C51.6572 130.499 51.708 129.941 52.165 130.195C52.9266 130.651 54.7038 132.072 54.8562 132.123Z" fill="#60534F"/>
<path d="M94.4616 247.949C92.8875 248.05 91.1611 246.528 91.2626 248.913C90.9072 249.014 90.6533 248.304 90.6025 248.253C91.5165 247.036 90.2979 246.173 90.2979 245.666C90.2979 245.26 90.2979 244.803 90.2979 244.397C97.9144 245.767 94.36 246.021 94.4616 247.949Z" fill="#0A140F"/>
<path d="M162.35 241.505C161.081 243.484 161.182 245.361 161.081 245.665C160.928 246.071 160.471 247.492 160.421 247.593C160.065 248.253 159.862 248.354 159.151 248.253C159.151 248.202 158.643 248.151 158.491 246.984C158.44 246.629 158.847 246.934 158.491 245.716C158.237 244.752 158.339 243.331 157.526 242.52C158.44 241.302 160.928 241.759 162.35 241.505Z" fill="#2D2523"/>
<path d="M103.755 251.146C103.755 251.857 103.907 252.466 103.45 253.074C100.962 253.074 98.5251 252.668 96.037 252.415C95.7831 251.502 95.123 250.284 95.0723 250.182C95.1738 249.827 95.4785 249.827 95.3769 249.219C96.6971 250.538 97.5096 249.32 98.1189 249.523C98.4743 249.624 98.6267 252.313 103.755 251.146Z" fill="#9D520C"/>
<path d="M100.556 245.058C103.247 246.58 103.552 246.783 103.755 249.877C97.6112 251.095 99.693 242.775 98.1189 247.645L95.6816 246.681C96.4941 245.261 96.5956 245.311 98.2713 244.753C98.5251 244.804 99.9977 244.855 100.556 245.058Z" fill="#DDC275"/>
<path d="M103.756 249.879C103.806 250.285 103.756 250.742 103.756 251.148C98.627 252.365 98.4239 249.626 98.1193 249.524C97.5099 249.321 96.6975 250.539 95.3773 249.22C95.2758 248.307 94.6664 248.51 95.682 246.632L98.1193 247.596C99.7441 242.777 97.6115 251.097 103.756 249.879Z" fill="#DDC275"/>
<path d="M85.4243 211.571C83.5963 214.868 88.6232 211.672 85.1196 216.543C86.2367 218.623 86.6937 214.868 88.674 215.071C88.5217 216.644 88.7248 218.826 88.674 220.551C88.674 220.601 88.0139 220.804 88.0139 221.058C87.9631 226.182 90.0958 231.103 90.6035 236.177C90.8574 238.917 90.2481 241.707 90.2989 244.396C90.2989 244.802 90.2989 245.258 90.2989 245.664C89.8926 245.715 89.9942 245.411 89.9942 245.36C89.131 243.889 87.8616 244.142 87.76 243.939C87.303 243.026 87.8108 230.292 86.4906 223.037C85.5766 217.912 83.2916 214.209 83.2916 213.701C82.9362 211.012 85.2719 211.672 85.4243 211.571Z" fill="#2D2523"/>
<path d="M114.064 222.532C114.521 222.228 115.08 221.923 115.689 221.873C116.705 229.432 120.056 243.131 119.853 244.247C119.7 245.008 116.044 249.168 115.029 248.255C114.978 247.494 114.775 247.24 114.724 246.631C114.115 242.522 113.759 240.036 109.748 237.956C104.569 235.267 99.5419 236.281 95.1243 239.731C94.8704 240.645 97.46 244.348 98.3233 244.703C96.6984 245.261 96.5461 245.211 95.7336 246.631C94.7181 248.508 95.3274 248.255 95.429 249.219C95.4798 249.827 95.1751 249.828 95.1243 250.183C94.9212 249.523 94.515 248.61 94.4642 247.95C94.4134 246.073 97.917 245.819 90.3005 244.399C90.2497 241.71 90.8591 238.92 90.6052 236.18C90.0974 231.106 87.9648 226.185 88.0155 221.061C88.0155 220.807 88.6756 220.604 88.6756 220.554C98.2725 230.142 103.147 229.331 114.064 222.532Z" fill="#392127"/>
<path d="M111.169 150.183C99.4395 137.093 99.7441 132.984 82.3784 141.812C81.9722 142.522 82.3784 143.841 82.2261 144.247C81.8199 145.109 77.4023 146.631 86.0851 144.247L85.7805 145.059C83.1908 146.175 79.281 149.371 76.4375 150.842C76.6914 149.219 76.2344 146.378 77.0976 144.906C77.3007 144.551 80.3473 143.181 83.5463 139.782C83.8509 139.478 86.8975 134.1 88.8779 132.882C92.6861 130.498 99.5918 131.715 103.045 134.151C106.193 136.383 110.509 143.08 111.27 146.834C111.727 149.371 111.169 149.98 111.169 150.183Z" fill="#281B23"/>
<path d="M106.041 194.523C108.022 204.061 107.209 214.664 114.115 222.478C103.198 229.276 98.3233 230.088 88.6757 220.55C88.7264 218.825 88.5233 216.694 88.6757 215.07C89.0819 211.367 89.9451 207.562 90.9098 203.959C88.9295 204.467 84.6643 205.228 84.8166 206.395C83.6487 206.496 81.3638 207.054 81.2622 206.902C80.9576 206.344 82.0747 205.177 82.5316 204.162C83.1917 202.742 83.9026 201.423 84.4612 200.002C85.6798 196.857 86.5938 193.812 87.3555 190.515C87.4062 188.891 86.4923 190.058 85.4259 191.022L79.942 193.914C79.942 193.863 79.3327 193.762 79.942 192.443C81.5161 189.043 86.3399 185.949 77.8602 190.007C75.5752 190.007 79.485 187.115 81.8716 186.456C82.9379 186.507 84.1057 186.71 84.1057 186.608C84.3088 186.05 83.3949 186.101 83.4456 185.949C83.6995 185.188 85.8829 182.549 87 180.621C87.457 179.86 88.4726 179.353 87.5078 179.353L75.7783 183.209C76.5908 180.317 78.9773 178.44 80.6021 176.106C82.2778 173.772 85.7814 169.764 85.4259 168.394C85.9845 167.938 86.4923 167.583 87.0508 167.126C90.6052 164.133 92.9409 160.023 93.8041 160.53C98.9834 171.489 103.553 182.702 106.041 194.523Z" fill="#723F32"/>
<path d="M111.828 193.253C107.258 191.173 110.965 195.08 107.817 195.181C107.055 194.014 109.746 191.122 106.04 194.522C103.552 182.7 98.9818 171.488 93.8025 160.58C92.9393 160.073 90.6036 164.182 87.0492 167.176C82.7332 168.545 78.9757 171.336 74.355 171.691C80.499 161.899 91.9746 159.87 73.5425 166.871C73.1871 162.66 79.585 160.783 82.7332 158.196C97.8647 150.94 82.5808 157.435 75.8275 158.703C75.5228 158.145 83.5456 150.179 84.5104 149.215C85.729 147.998 87.1507 146.882 88.3694 145.664C99.4895 158.297 107.919 176.967 111.828 193.253Z" fill="#593B25"/>
<path d="M88.6752 215.123C86.7457 214.92 86.2887 218.674 85.1208 216.594C88.6752 211.723 83.5975 214.869 85.4255 211.622C89.9447 209.593 82.6328 210.709 82.2266 210.151L86.0856 206.295C85.7809 205.889 85.5778 206.396 84.8162 206.447C84.7146 205.28 88.9799 204.57 90.9094 204.012C89.9446 207.665 89.0307 211.419 88.6752 215.123Z" fill="#543934"/>
<path d="M80.6011 176.209C78.3161 176.97 75.9804 177.731 73.6954 178.442C70.2934 177.326 83.7493 169.817 85.4249 168.498C85.7803 169.918 82.2767 173.876 80.6011 176.209Z" fill="#543934"/>
<path d="M85.4262 191.022C79.8407 195.791 80.3992 193.965 84.4614 200.053C83.9029 201.524 83.192 202.792 82.5319 204.213C81.4148 206.141 78.6728 196.806 78.6728 196.349C78.5713 194.726 79.2822 195.842 79.9423 193.914L85.4262 191.022Z" fill="#2D2523"/>
<path d="M87.0499 180.723C85.9836 182.651 83.7494 185.29 83.4955 186.051C83.4447 186.203 84.3587 186.101 84.1556 186.71C84.1048 186.812 82.9877 186.609 81.9214 186.558C80.0934 186.456 78.3162 186.253 76.4375 186.253C77.5038 184.427 84.0541 181.941 87.0499 180.723Z" fill="#543934"/>
<path d="M87.0501 180.724C84.0543 181.942 77.5548 184.428 76.4378 186.203C76.1839 186.203 74.4067 188.385 75.7777 183.312L87.5071 179.456C88.5227 179.405 87.5071 179.912 87.0501 180.724Z" fill="#2D2523"/>
<path d="M111.83 193.255C112.388 195.538 112.997 198.024 113.454 200.358C114.724 207.512 114.724 214.767 115.689 221.92C115.13 221.971 114.572 222.276 114.064 222.58C107.209 214.767 108.021 204.163 105.99 194.625C109.646 191.175 107.006 194.118 107.767 195.285C110.966 195.082 107.26 191.175 111.83 193.255Z" fill="#543934"/>
<path d="M88.32 145.666C87.1014 146.884 85.6796 148 84.461 149.218L84.3087 148.558C81.4144 150.486 78.5201 152.414 75.6258 154.342C74.4579 154.342 76.3875 150.993 76.4382 150.79C79.2817 149.319 83.1916 146.123 85.7812 145.007C86.2382 144.804 86.746 144.296 87.2537 144.043C88.5232 145.108 88.2693 145.565 88.32 145.666Z" fill="#3C2A27"/>
<path d="M84.4613 200.003C80.3991 193.965 79.8406 195.741 85.4261 190.972C86.4924 190.059 87.4064 188.841 87.3556 190.465C86.5939 193.813 85.6799 196.857 84.4613 200.003Z" fill="#543934"/>
<path d="M114.723 246.628C112.54 243.939 107.919 245.309 107.005 246.628C104.314 246.425 101.978 244.852 101.369 244.7C100.556 244.446 100.607 245.055 100.556 245.004C99.9978 244.852 98.5253 244.751 98.3222 244.7C97.4082 244.294 94.8693 240.641 95.1232 239.728C99.5916 236.278 104.618 235.263 109.747 237.952C113.758 240.032 114.114 242.518 114.723 246.628Z" fill="#543934"/>
<path d="M111.167 150.184C113.858 166.216 112.538 170.985 113.097 184.125C113.3 189.199 115.686 199.346 113.401 200.36C112.995 198.027 112.335 195.591 111.776 193.258C107.866 176.972 99.4375 158.301 88.2666 145.668C88.2158 145.618 88.4697 145.11 87.1495 144.045C86.6417 144.299 86.1847 144.806 85.677 145.009L85.9816 144.197C77.2988 146.582 81.6656 145.06 82.1226 144.197C82.3257 143.842 81.8687 142.472 82.2749 141.762C99.7422 132.985 99.4375 137.094 111.167 150.184Z" fill="#2D2523"/>
<path d="M97.5068 147.241C100.604 150.438 103.854 153.634 106.697 157.033C109.287 160.179 115.888 168.195 108.17 161.396C104.412 158.149 99.5379 151.858 97.5068 147.241Z" fill="#543934"/>
<path d="M168.137 248.251C169.305 249.012 168.137 248.759 168.137 249.875C163.77 250.332 163.11 251.752 159.099 249.215C158.591 248.556 159.048 248.657 159.099 248.251C159.81 248.353 160.063 248.251 160.368 247.592C162.298 249.672 164.481 247.896 164.735 247.896C165.243 247.947 164.684 249.368 168.137 248.251Z" fill="#87521F"/>
<path d="M168.796 246.322C168.796 246.424 169.609 246.474 168.796 247.946C168.745 247.946 168.999 247.996 168.136 248.25C164.683 249.366 165.242 247.946 164.734 247.946C164.48 247.946 162.347 249.671 160.367 247.641C160.418 247.54 160.875 246.119 161.027 245.713C165.496 247.946 164.937 246.322 165.394 246.373C167.121 246.424 167.73 247.641 168.796 246.322Z" fill="#A96D1B"/>
<path d="M164.277 241.2C166.664 242.011 168.238 244.091 168.796 246.324C167.73 247.643 167.121 246.425 165.394 246.324C164.988 246.324 165.546 247.897 161.027 245.664C161.129 245.309 161.027 243.483 162.297 241.504C163.008 241.352 163.668 241.301 164.277 241.2Z" fill="#F6F2CD"/>
<path d="M158.491 246.985C158.593 248.152 159.151 248.203 159.151 248.254C159.1 248.66 158.643 248.558 159.151 249.218C158.796 251.501 151.738 250.993 150.468 250.486C147.98 248.102 149.859 247.594 150.164 246.63C152.347 247.848 152.398 248.507 152.601 248.558C153.21 248.812 154.124 247.899 154.226 247.899C155.698 248.051 155.749 249.776 158.491 246.985Z" fill="#9D520C"/>
<path d="M157.527 242.468C158.339 243.28 158.238 244.751 158.492 245.664C155.191 241.809 154.785 249.723 152.703 242.113C154.226 241.352 156.258 241.2 157.527 242.468Z" fill="#EFCD95"/>
<path d="M158.49 245.663C158.846 246.881 158.44 246.627 158.49 246.932C155.749 249.773 155.698 248.048 154.124 247.896C154.022 247.896 153.108 248.758 152.499 248.555C152.346 248.505 152.245 247.845 150.062 246.627C150.112 246.374 149.96 243.533 152.651 242.112C154.784 249.722 155.19 241.808 158.49 245.663Z" fill="#F2BB5B"/>
<path d="M151.585 244.394C152.753 244.14 152.6 247.133 151.077 245.205L151.585 244.394Z" fill="#EFCD95"/>
<path d="M120.51 12.8412C121.374 14.8198 121.78 14.5662 122.745 16.0375C122.389 16.1897 120.257 16.4941 119.038 17.0014C111.371 20.2485 116.55 18.6249 122.592 18.9293C123.76 18.9801 124.877 21.5675 132.24 17.661C132.443 17.5595 134.22 15.3272 135.134 15.0735C135.54 14.972 140.821 16.9 140.77 14.7691C145.645 15.8853 150.52 19.1323 154.633 19.8933C154.937 20.908 153.972 20.9587 153.972 21.0095C154.023 21.3139 154.886 21.6183 155.242 21.8212C158.39 23.6984 161.335 25.6263 163.925 28.2645C171.084 35.4689 174.08 44.5504 175.857 54.2914C176.01 55.1032 176.06 55.7627 176.162 56.5237L173.572 56.6759C173.217 61.3435 174.486 70.6787 172.303 71.9471C171.795 64.692 170.577 56.4223 168.139 49.5731C168.393 47.1378 169.51 53.3275 171.338 55.3568C171.034 46.1231 164.28 37.0924 156.867 32.0189C157.933 31.5115 154.176 29.127 153.16 28.4675C136.861 18.3713 110.203 16.7985 95.6805 30.9027L96.3406 32.0189C96.2898 32.0696 96.2391 32.2726 95.6805 32.6784C91.7199 35.6718 85.0681 42.1151 83.7479 46.9856C83.7479 47.0364 84.408 47.5437 84.408 47.6452C82.377 56.0164 80.1936 71.6934 79.8889 80.2676C76.8931 83.2102 76.6392 66.2648 76.6899 61.2928C76.6899 58.4009 76.8931 55.5091 76.9946 52.6172C77.9594 52.3128 78.1117 47.5437 78.9241 44.7533C80.7521 38.3607 84.865 31.613 89.8412 27.1991C92.5831 24.8146 95.9852 22.9374 99.1841 21.2631C92.7355 22.0749 88.8256 20.6543 83.0878 19.183V18.8786C86.8453 19.5382 98.9303 19.7918 102.231 18.8786C102.992 18.6757 111.777 12.5368 117.362 13.3993C119.19 12.7397 112.335 8.37653 111.269 7.91992C115.077 8.478 117.718 10.6089 120.51 12.8412Z" fill="#883D25"/>
<path d="M156.867 32.1202C155.496 31.1563 153.82 30.6489 152.348 29.8879C143.208 25.0174 135.794 23.0387 125.334 23.4446C116.195 23.7997 103.856 26.7931 96.3916 32.1202L95.7314 31.0041C110.203 16.9506 136.861 18.4726 153.211 28.5688C154.226 29.2284 157.933 31.6129 156.867 32.1202Z" fill="#874F3C"/>
<path d="M125.334 23.4442C125.487 25.8287 126.908 24.8141 128.381 25.3721C129.752 25.8795 130.361 26.6405 130.463 26.6405L130.615 27.6045C120.764 26.539 107.105 28.4669 99.8952 35.6205C97.8133 33.236 96.4931 35.1132 95.7314 32.7287C96.2392 32.3228 96.3408 32.1198 96.3916 32.0691C103.856 26.7927 116.245 23.7994 125.334 23.4442Z" fill="#C08866"/>
<path d="M176.213 56.5764C176.72 59.9249 176.822 58.7073 176.873 58.8087C177.787 66.4697 176.111 69.8182 176.873 74.2321C176.314 76.3122 173.674 87.3724 173.674 88.3871L172.404 86.7636C172.811 81.7408 172.76 76.9718 172.404 71.949C174.638 70.6807 173.318 61.3455 173.674 56.6779L176.213 56.5764Z" fill="#54150A"/>
<path d="M130.159 164.638C130.616 164.891 132.952 166.261 133.054 166.413C133.409 166.87 133.054 168.798 134.018 168.494C134.526 179.249 139.147 199.036 137.878 204.363C137.522 205.834 136.557 206.494 135.948 207.407C133.714 206.037 133.968 207.306 133.511 207.103C130.921 205.885 129.449 201.319 128.535 198.731C124.879 188.432 122.797 174.531 121.426 163.674L130.159 164.638Z" fill="#837565"/>
<path d="M119.24 109.948L119.9 110.912C116.041 112.535 113.046 117.812 111.218 121.363L111.725 121.871C114.264 119.689 116.905 118.066 119.951 116.746C119.139 119.232 111.878 125.524 112.538 127.857C113.299 130.394 115.381 125.828 122.185 124.813C122.592 124.763 123.049 124.864 123.455 124.813L124.115 126.082C123.099 126.132 120.357 126.488 119.596 126.741C114.213 128.568 117.006 131.612 114.772 133.337C116.6 133.54 119.037 131.967 119.291 131.865C120.002 131.662 122.236 131.206 121.881 132.17C120.154 132.474 116.955 133.59 118.326 135.062C118.377 135.112 118.326 135.468 118.326 135.721C115.94 135.975 115.483 137.294 116.549 139.273C117.514 139.374 118.682 139.12 119.596 139.273C132.798 141.201 139.703 143.839 123.15 141.201C123.506 140.186 119.393 140.287 119.291 140.693C119.647 148.405 120.561 156.015 121.525 163.676C122.896 174.533 124.978 188.435 128.634 198.734C123.404 198.176 125.588 197.11 125.08 195.334C124.064 191.682 122.592 188.13 121.881 184.427C121.221 181.281 122.896 177.628 118.987 178.795C117.412 169.409 116.854 159.769 115.432 150.333C114.163 141.657 112.386 133.083 110.913 124.458C110.507 122.124 109.745 119.791 109.644 117.355C113.706 114.159 114.264 112.485 119.24 109.948Z" fill="#6F6360"/>
<path d="M136.606 141.149C134.524 150.078 133.61 159.362 134.016 168.495C133.052 168.799 133.407 166.82 133.052 166.415C132.95 166.262 130.614 164.943 130.157 164.639C129.903 164.487 122.845 161.443 125.486 161.443C133.153 166.313 125.994 159.413 121.779 159.667L122.592 158.551C139.551 161.646 120.814 157.993 121.779 155.507L123.252 154.999C135.844 157.435 130.919 155.456 122.287 153.376C119.697 150.636 133.305 151.904 123.252 150.484C120.408 148.302 128.228 151.042 131.782 150.991C128.685 149.216 120.814 148.505 121.83 146.171C136.047 145.664 134.067 147.135 121.982 142.772C120.865 141.758 121.678 140.185 123.099 141.149C139.653 143.787 132.747 141.149 119.545 139.221V136.025C122.896 135.923 132.747 136.481 135.184 138.612C136.2 139.474 135.489 142.062 136.606 141.149Z" fill="#B49386"/>
<path d="M144.629 108.325C146.305 111.876 145.797 114.616 146.102 114.768C147.574 111.826 149.808 109.34 152.195 107.057L154.632 108.528C153.718 109.289 153.413 110.202 153.363 110.304C151.738 112.587 147.574 115.783 145.949 117.711C145.695 108.224 130.97 106.803 123.76 108.071L123.607 104.216C131.732 102.846 137.52 104.672 144.629 108.325Z" fill="#C2AA99"/>
<path d="M128.583 198.733C129.497 201.321 130.97 205.887 133.559 207.104C134.016 207.307 133.712 206.039 135.997 207.409C135.743 207.764 135.692 207.713 135.692 207.713C128.532 211.112 127.466 204.72 125.08 200.001C124.978 199.798 125.181 198.987 125.08 198.885C124.369 198.276 123.709 199.088 123.607 199.037C122.693 198.53 119.291 181.027 118.936 178.794C122.896 177.627 121.221 181.28 121.83 184.426C122.591 188.13 124.013 191.732 125.029 195.334C125.537 197.11 123.353 198.175 128.583 198.733Z" fill="#5E4841"/>
<path d="M164.636 110.91C160.066 117.302 155.141 120.549 147.879 123.441C147.27 122.833 149.2 118.571 150.114 117.658C155.242 116.136 162.503 108.576 164.636 110.91Z" fill="#6D4B38"/>
<path d="M170.071 99.6494C168.852 103.962 167.227 107.26 164.587 110.913C162.505 108.579 155.193 116.138 150.115 117.66L150.775 115.073C151.182 114.565 151.385 114.464 151.435 114.413L151.943 115.377C156.97 112.079 160.677 107.463 164.993 103.455C166.465 102.085 168.598 101.324 170.071 99.6494Z" fill="#91634D"/>
<path d="M125.029 200.002C127.416 204.771 128.482 211.113 135.642 207.714C135.591 207.765 135.997 208.221 134.829 209.337C132.747 211.265 127.416 213.701 124.877 211.925C122.033 209.895 125.435 202.437 123.404 199.546L125.029 200.002Z" fill="#2D2523"/>
<path d="M171.035 94.5244C170.73 96.2494 170.527 97.9744 170.07 99.6486C168.598 101.272 166.465 102.033 164.942 103.504C162.098 103.454 159.153 103.91 156.563 102.388C162.454 100.714 166.465 98.5325 171.035 94.5244Z" fill="#CF816D"/>
<path d="M109.237 116.035C109.084 116.897 109.541 117.05 109.541 117.303C109.643 119.688 110.455 122.022 110.811 124.406C110.201 124.863 109.795 124.609 109.186 124.406C108.424 121.768 106.393 119.637 105.022 117.303C103.55 114.868 102.128 112.991 101.823 110.556C103.753 113.042 106.698 114.361 109.237 116.035Z" fill="#100E0D"/>
<path d="M150.113 117.658C149.199 118.572 147.27 122.833 147.879 123.442C147.372 123.645 145.239 125.015 144.833 125.066C141.786 125.218 149.047 117.506 150.774 115.122L150.113 117.658Z" fill="#723F32"/>
<path d="M117.311 90.0068L118.936 91.2752C117.971 91.7825 112.538 97.2112 112.843 97.8707C112.995 98.2259 116.143 96.095 120.256 94.8266L121.221 97.059C120.307 97.4141 120.307 97.6678 120.256 97.7185C116.143 99.5957 114.417 101.524 111.573 104.974C114.722 108.474 118.936 99.1898 119.952 105.126C119.038 105.785 116.905 106.394 114.823 108.322C113.808 103.046 109.644 112.229 109.187 112.178C106.902 109.489 104.566 106.8 102.281 104.111C102.332 103.705 102.23 103.249 102.281 102.843C102.535 101.27 102.738 98.7332 102.941 97.7185C103.246 96.2472 104.515 96.095 104.566 95.9428C104.617 95.6891 104.109 95.7906 104.262 93.8627C107.511 93.9641 107.257 92.4928 107.968 92.5943C108.476 92.645 109.745 94.8266 109.898 94.8266C110.05 94.8774 110.558 94.1671 112.64 92.8987C113.909 92.0362 114.011 91.4781 117.311 90.0068Z" fill="#9E846F"/>
<path d="M144.63 108.323C137.521 104.67 131.732 102.793 123.557 104.163L123.71 108.019C120.511 108.577 120.764 109.135 119.19 109.947C114.265 112.484 113.656 114.158 109.543 117.354C109.543 117.1 109.086 116.898 109.238 116.086C109.39 115.223 113.808 109.237 114.722 108.374C116.804 106.446 118.937 105.837 119.85 105.178C122.135 103.554 117.159 103.25 121.475 101.626C127.569 99.3433 141.329 101.271 144.63 108.323Z" fill="#9E846F"/>
<path d="M152.397 29.8895C152.194 31.5638 146.152 28.4689 141.937 27.6572C136.605 26.5918 131.071 26.7947 130.512 26.6932C130.411 26.6425 129.801 25.9322 128.43 25.4249C126.958 24.8668 125.536 25.8815 125.384 23.4969C135.844 23.0403 143.257 25.019 152.397 29.8895Z" fill="#C2AA99"/>
<path d="M120.205 97.7224L121.475 101.578C117.209 103.151 122.135 103.455 119.85 105.13C118.834 99.143 114.62 108.478 111.472 104.977C114.315 101.528 116.092 99.5996 120.205 97.7224Z" fill="#B1937A"/>
<path d="M82.225 82.2971C82.9867 86.1529 85.2717 87.9794 89.3338 89.0448C91.4157 89.6029 90.8063 88.0301 91.9234 89.7044C92.025 90.2117 91.9742 90.3639 92.2281 90.9727C88.9276 91.886 93.396 96.6043 96.7472 96.7565L95.7825 98.9888C90.0447 98.6337 85.4748 94.5242 80.651 91.9367C79.9909 87.6243 79.8893 85.2905 79.9908 80.978C80.5494 80.4199 80.9556 81.2317 82.225 82.2971Z" fill="#A77152"/>
<path d="M99.8958 35.674C94.0564 41.4577 89.6896 51.7061 95.3766 59.0119C97.8139 62.1575 102.79 63.8317 105.837 66.267C113.758 72.6088 113.301 77.733 113.91 78.1896C115.078 79.0014 124.726 70.5794 141.127 78.3419C130.717 75.8559 115.687 75.3485 110.559 87.0175C119.902 80.5742 132.139 78.6463 141.787 85.5462C133.713 81.9947 122.898 81.7918 115.891 87.7785C114.926 88.5903 111.574 92.0402 112.488 92.9027C110.407 94.1711 109.899 94.8814 109.747 94.8306C109.594 94.8306 108.325 92.649 107.817 92.5983C107.106 92.5476 107.36 94.0189 104.11 93.8667C104.212 92.6998 103.806 92.3446 103.806 91.9387C103.806 91.6851 104.466 90.2645 104.466 90.163C103.907 80.3205 97.5093 73.0654 89.3342 82.2992C86.3891 85.5969 88.2679 87.2712 82.2254 82.2992C80.956 81.2337 80.5498 80.422 79.9912 81.0308C79.9912 80.8279 79.9912 80.5742 79.9912 80.3712C80.2959 71.7971 82.4793 56.0693 84.5104 47.7488C84.5104 47.6981 83.8503 47.1908 83.8503 47.0893C85.1705 42.2188 91.7715 35.7755 95.7828 32.7821C96.5445 35.1666 97.8139 33.2387 99.8958 35.674Z" fill="#C08866"/>
<path d="M95.224 69.7679C100.759 69.3113 103.145 75.0444 103.602 79.7119C99.3877 73.4716 92.3297 74.6385 87.6582 79.8641C88.6737 75.9068 90.4002 70.1231 95.224 69.7679Z" fill="#462713"/>
<path d="M104.11 93.8655C103.957 95.7935 104.516 95.692 104.414 95.9457C104.364 96.0471 103.094 96.2501 102.789 97.7214C100.555 98.7361 98.2195 99.1927 95.6807 98.9897L96.6454 96.7574C98.6257 96.8589 101.317 95.4383 101.165 94.9817C97.8641 96.1486 97.1024 94.9817 96.6454 94.8295C97.6102 95.0324 98.3211 94.728 99.235 94.5251C101.469 93.967 101.368 93.7641 102.789 92.5972C102.891 92.5464 103.551 92.4957 103.754 91.9376C103.754 92.3435 104.16 92.6986 104.11 93.8655Z" fill="#DA9D76"/>
<path d="M123.1 141.151C121.679 140.187 120.815 141.709 121.983 142.775C134.068 147.087 136.048 145.616 121.831 146.174C120.815 148.508 128.686 149.218 131.783 150.994C128.229 151.095 120.409 148.356 123.253 150.486C133.306 151.907 119.698 150.689 122.288 153.378C130.92 155.458 135.845 157.437 123.253 155.002L121.78 155.509C120.765 157.995 139.552 161.648 122.592 158.553L121.78 159.669C125.995 159.365 133.154 166.316 125.487 161.445C122.846 161.445 129.854 164.489 130.158 164.641L121.475 163.677C120.511 156.017 119.597 148.406 119.241 140.695C119.343 140.238 123.405 140.137 123.1 141.151Z" fill="#837565"/>
<path d="M134.676 135.366C132.442 132.931 125.08 131.51 121.779 132.17C122.135 131.155 119.951 131.662 119.189 131.865L119.494 126.741C120.256 126.487 122.947 126.183 124.013 126.082C135.438 125.321 139.094 134.148 137.063 135.112C136.403 135.366 134.626 133.895 134.676 135.366Z" fill="#B49386"/>
<path d="M123.405 124.763C122.998 124.814 122.541 124.713 122.135 124.763C120.663 119.944 121.475 120.908 123.76 120.248C130.412 118.371 140.516 123.039 139.552 127.503C138.739 130.801 135.388 123.698 123.405 124.763Z" fill="#B49386"/>
<path d="M123.76 120.247C121.475 120.856 120.662 119.943 122.135 124.762C115.331 125.777 113.249 130.343 112.487 127.807C111.776 125.473 119.088 119.182 119.9 116.696C120.053 116.645 119.85 116.138 122.795 115.427C122.287 117.051 122.795 118.877 123.76 120.247Z" fill="#837565"/>
<path d="M124.369 109.948L124.674 115.072C123.963 115.174 123.455 115.224 122.744 115.377C119.799 116.087 120.002 116.594 119.85 116.645C116.803 117.964 114.163 119.638 111.624 121.769L111.116 121.262C112.944 117.71 115.94 112.434 119.799 110.81C120.815 110.506 123.303 110.049 124.369 109.948Z" fill="#9E846F"/>
<path d="M134.678 135.364C134.881 135.618 135.744 136.683 135.186 136.988C129.753 135.11 124.015 134.907 118.277 135.06C116.906 133.588 120.105 132.472 121.831 132.168C125.081 131.508 132.444 132.929 134.678 135.364Z" fill="#9E846F"/>
<path d="M119.241 131.815C118.987 131.866 116.55 133.439 114.722 133.287C116.956 131.562 114.163 128.518 119.545 126.691L119.241 131.815Z" fill="#846C5E"/>
<path d="M118.277 135.671C118.835 135.62 118.937 136.026 119.546 135.975V139.172C118.632 139.02 117.464 139.273 116.5 139.172C115.433 137.244 115.89 135.975 118.277 135.671Z" fill="#846C5E"/>
<path d="M124.726 115.07L124.421 109.946C129.549 109.489 135.947 110.656 140.06 114.106C142.954 116.541 142.548 116.389 141.33 119.585C136.912 115.171 130.666 114.309 124.726 115.07Z" fill="#C2AA99"/>
<path d="M145.951 117.661C143.463 120.604 145.443 119.894 144.986 121.365C144.935 121.568 143.158 123.242 142.396 124.916C140.162 129.838 137.826 135.875 136.608 141.152C135.491 142.065 136.202 139.528 135.135 138.564C132.698 136.433 122.898 135.875 119.496 135.977C118.887 135.977 118.785 135.571 118.227 135.672C118.227 135.419 118.277 135.063 118.227 135.013C123.914 134.86 129.651 135.063 135.135 136.941C135.694 136.687 134.881 135.571 134.628 135.317C134.577 133.846 136.354 135.317 137.065 135.013C139.096 134.099 135.491 125.272 124.015 125.982L123.355 124.713C135.338 123.648 138.69 130.802 139.451 127.453C140.467 122.989 130.362 118.321 123.66 120.198C122.695 118.879 122.187 117.002 122.695 115.378C123.406 115.226 123.914 115.125 124.624 115.074C130.565 114.313 136.811 115.125 141.178 119.589C142.396 116.393 142.803 116.596 139.908 114.11C135.846 110.66 129.448 109.493 124.269 109.95C123.203 110.051 120.664 110.508 119.75 110.914L119.09 109.95C120.664 109.138 120.359 108.58 123.609 108.022C130.972 106.804 145.697 108.174 145.951 117.661Z" fill="#938079"/>
<path d="M126.148 115.427C134.831 114.818 143.615 122.124 139.655 122.834C131.276 117.406 124.168 121.87 126.148 115.427Z" fill="#B49386"/>
<path d="M84.4606 98.3826C86.7964 102.391 87.9642 106.5 93.6513 111.269C95.073 112.436 104.568 119.032 105.076 117.357C106.447 119.64 108.529 121.771 109.24 124.46C93.0419 119.438 84.8668 112.03 81.2617 95.1863C81.1601 94.7297 81.0078 94.3746 80.957 93.918C81.871 94.4761 83.8513 97.3679 84.4606 98.3826Z" fill="#6B1D0E"/>
<path d="M95.7321 98.9908C98.2202 99.143 100.556 98.7372 102.841 97.7225C102.638 98.7879 102.435 101.274 102.181 102.847C97.4585 102.187 92.5839 101.477 88.1663 99.6504C86.9477 99.143 85.9322 97.3166 84.4596 98.382C83.8503 97.3673 81.87 94.4755 80.9053 93.8666C80.8037 93.2578 80.7021 92.5475 80.6006 91.9387C85.4244 94.5769 89.9943 98.6357 95.7321 98.9908Z" fill="#D37243"/>
<path d="M102.181 102.897C102.13 103.303 102.232 103.76 102.181 104.165C101.876 106.753 101.47 107.818 101.876 110.609C102.232 113.044 103.654 114.972 105.075 117.356C104.568 118.98 95.0723 112.435 93.6506 111.268C87.9636 106.499 86.8465 102.44 84.46 98.3817C85.9325 97.367 86.948 99.1427 88.1667 99.6501C92.5843 101.527 97.4589 102.187 102.181 102.897Z" fill="#91634D"/>
<path d="M114.722 108.322C113.808 109.185 109.391 115.171 109.238 116.034C106.7 114.359 103.704 113.04 101.825 110.554C101.47 107.815 101.876 106.699 102.13 104.111C104.415 106.8 106.75 109.489 109.035 112.178C109.543 112.279 113.707 103.046 114.722 108.322Z" fill="#846C5E"/>
<path d="M152.398 29.8873C153.871 30.6483 155.496 31.2064 156.917 32.1196C164.331 37.1931 171.084 46.2239 171.389 55.4576C169.561 53.4282 168.393 47.2386 168.19 49.6739C170.678 56.523 171.896 64.7928 172.353 72.0479C172.709 77.0706 172.76 81.8396 172.353 86.8624C172.15 89.4498 171.541 91.9866 171.084 94.574C166.463 98.6328 162.503 100.764 156.613 102.438C159.151 103.96 162.147 103.503 164.991 103.554C160.726 107.562 156.968 112.179 151.941 115.477L151.433 114.513C152.093 113.549 152.906 111.469 153.363 110.353C153.414 110.251 153.769 109.389 154.632 108.577L152.195 107.106C149.809 109.389 147.574 111.875 146.102 114.817C145.797 114.665 146.356 111.925 144.629 108.374C141.278 101.322 127.517 99.3431 121.475 101.626L120.206 97.7703C120.256 97.7196 120.256 97.4659 121.17 97.1108C127.67 94.7262 133.56 95.3351 139.704 98.3791L146.305 103.351C141.43 93.0013 130.259 91.6822 120.206 94.8277C116.093 96.0961 112.944 98.2269 112.792 97.8718C112.487 97.2122 117.971 91.7836 118.885 91.2763C125.131 87.9278 134.271 88.6888 140.313 92.2403C143.766 94.2696 148.742 101.322 144.68 94.6755C139.196 85.6955 125.791 86.2536 117.311 90.0079C114.011 91.4792 113.909 91.9866 112.487 92.8998C111.523 92.0373 114.925 88.5874 115.89 87.7756C122.897 81.7889 133.712 81.9411 141.786 85.5433C132.138 78.6434 119.901 80.5205 110.558 87.0146C115.686 75.3456 130.767 75.853 141.126 78.3389C124.725 70.5765 115.077 78.9985 113.909 78.1867C113.3 77.7809 113.757 72.6059 105.836 66.2641C102.789 63.8288 97.8129 62.1546 95.3756 59.009C89.6886 51.7032 94.0554 41.4548 99.8948 35.6711C107.156 28.5175 120.815 26.5896 130.615 27.655L130.463 26.691C131.021 26.7925 136.556 26.5896 141.887 27.655C146.153 28.4668 152.195 31.5616 152.398 29.8873Z" fill="#EAB48C"/>
<path d="M121.168 97.0599L120.203 94.8276C130.206 91.6821 141.428 93.0012 146.302 103.351L139.701 98.379C133.557 95.2842 127.667 94.6754 121.168 97.0599Z" fill="#C08866"/>
<path d="M118.884 91.2773L117.259 90.0089C125.688 86.2546 139.144 85.6965 144.628 94.6765C148.69 101.323 143.714 94.2707 140.261 92.2413C134.269 88.7406 125.129 87.9288 118.884 91.2773Z" fill="#C08866"/>
<path d="M154.63 95.4892C157.931 96.3517 159.809 95.6921 161.739 92.9017C163.059 90.9738 162.958 90.1621 163.008 90.0099C165.09 91.0245 165.649 89.8069 165.903 89.7055C166.512 89.4518 167.274 89.4518 167.832 89.0459C167.731 89.2996 168.492 90.3143 165.598 94.0179C160.825 100.055 152.802 100.258 154.63 95.4892Z" fill="#C08866"/>
<path d="M165.903 77.7815C165.7 77.8322 165.395 77.7307 165.243 77.7815C159.657 68.5478 157.322 71.4396 150.771 77.4771C153.564 65.6051 163.516 67.1272 165.903 77.7815Z" fill="#846C5E"/>
<path d="M165.244 77.7822C164.482 78.0866 162.146 76.1587 160.724 75.8543C152.905 74.0786 150.823 79.9131 150.264 79.7102C149.96 79.6087 150.569 78.2388 150.772 77.4778C157.373 71.4404 159.658 68.5485 165.244 77.7822Z" fill="#462713"/>
<path d="M165.244 77.7828C165.346 77.732 165.65 77.8335 165.904 77.7828C166.412 80.0658 167.072 82.4504 166.209 84.8349C165.295 82.3489 162.807 80.9283 161.385 79.0511C160.623 78.0365 159.659 76.9203 160.725 75.8549C162.147 76.1593 164.533 78.0872 165.244 77.7828Z" fill="#B1937A"/>
<path d="M151.076 84.8812C148.791 91.1723 155.595 98.9855 161.688 92.948C159.759 95.6877 157.931 96.3473 154.579 95.5355C148.385 93.9627 148.74 87.7731 151.025 83.004C151.837 84.9827 151.076 84.7797 151.076 84.8812Z" fill="#052318"/>
<path d="M163.008 90.009C162.957 90.1612 163.059 90.973 161.739 92.9009C155.646 98.9383 148.841 91.1252 151.126 84.8341C150.72 93.459 157.372 95.8435 161.434 90.7701C161.739 90.3642 162.145 88.6899 162.247 88.6899C162.348 88.6899 162.45 89.7554 163.008 90.009Z" fill="#19725D"/>
<path d="M161.382 79.0487C162.804 80.9259 165.292 82.3972 166.206 84.8325C169.151 85.2891 172.299 77.3745 167.831 88.9927C167.221 89.3986 166.511 89.3986 165.901 89.6523C165.546 89.2971 163.616 88.6376 163.464 88.6883C163.312 88.739 163.362 89.2464 162.956 89.9567C162.398 89.703 162.296 88.6376 162.144 88.6883C162.042 88.739 161.636 90.4133 161.331 90.7684C157.269 95.8419 150.617 93.4066 151.024 84.8325C151.024 84.731 151.735 84.9339 151.024 82.9046C153.207 78.5921 156.914 77.4759 161.382 79.0487Z" fill="#100E0D"/>
<path d="M157.217 85.8482C162.498 82.9056 153.612 79.3541 155.288 85.1886C152.14 85.2901 154.323 79.5571 158.69 80.6733C160.315 81.0791 164.072 85.696 162.244 86.7614C159.959 84.4276 158.639 86.457 157.725 86.457C157.471 86.457 157.268 85.8482 157.217 85.8482Z" fill="#100E0D"/>
<path d="M157.218 85.8488C156.557 85.7474 155.745 86.001 155.288 85.1893C153.612 79.3041 162.498 82.8555 157.218 85.8488Z" fill="#D0CBDF"/>
<path d="M153.513 86.8101C158.032 86.7594 155.341 91.2748 153.665 88.5858L153.513 86.8101Z" fill="#C2C1BC"/>
<path d="M165.9 89.7034C165.646 89.8049 165.138 91.0225 163.006 90.0078C163.361 89.2975 163.311 88.7902 163.514 88.7395C163.615 88.6887 165.545 89.3483 165.9 89.7034Z" fill="#622B22"/>
<path d="M95.7316 94.1684C95.8839 94.2699 96.6456 94.7773 96.6964 94.828C97.1533 94.9802 97.915 96.1471 101.215 94.9802C101.419 95.4368 98.7274 96.8574 96.6964 96.7559C93.3451 96.6037 88.8767 91.8854 92.1772 90.9722C92.9388 92.8494 94.259 93.4074 95.7316 94.1684Z" fill="#80583E"/>
<path d="M89.2826 82.2961C90.1966 84.7314 87.3023 87.0145 89.2826 89.0439C85.2204 87.9784 82.9863 86.152 82.1738 82.2961C88.2163 87.2681 86.3375 85.5939 89.2826 82.2961Z" fill="#290F07"/>
<path d="M103.756 91.9378C103.552 92.4959 102.892 92.4959 102.791 92.5974L102.283 90.0099C97.4593 96.9098 92.4323 90.6695 91.9753 84.5306C91.366 86.2048 91.4676 87.9805 91.823 89.6548C90.7059 87.9805 91.3153 89.5533 89.2334 88.9952C87.2531 86.9658 90.1474 84.6828 89.2334 82.2475C97.4085 73.0645 103.806 80.3196 104.365 90.1114C104.416 90.2636 103.756 91.6842 103.756 91.9378Z" fill="#0A140F"/>
<path d="M102.792 92.5958C101.421 93.7627 101.472 94.0164 99.2374 94.5238L95.683 94.2193C94.2105 93.4076 92.8903 92.9002 92.1286 91.0231C91.8747 90.3635 91.9255 90.262 91.824 89.7547C91.4685 88.0804 91.367 86.254 91.9763 84.6305C92.4333 90.7694 97.4602 97.0097 102.284 90.1098L102.792 92.5958Z" fill="#216160"/>
<path d="M98.7789 82.2971C105.481 84.3265 96.3416 89.5014 97.6618 83.1089L98.7789 82.2971Z" fill="#EBEEFC"/>
<path d="M99.2849 94.5228C98.3709 94.7257 97.66 95.0301 96.6952 94.8272C96.6445 94.8272 95.8828 94.2691 95.7305 94.1676L99.2849 94.5228Z" fill="#23462B"/>
<path d="M77.0454 52.7216C76.9439 55.6135 76.7407 58.5054 76.7407 61.3973L76.0807 61.0929C75.8268 57.7951 71.5107 55.8165 69.3273 53.3812C67.9055 51.8084 66.4838 49.9312 65.1636 48.257C65.6206 46.5827 70.0382 40.2409 69.9874 39.7336C69.9366 38.9725 61.203 28.0139 60.6445 27.5065C56.7854 23.9551 47.7979 22.7882 42.771 23.4985C32.7171 24.919 16.6208 44.8578 13.0157 54.0408C9.61363 62.7164 7.63333 71.8486 6.56702 81.0316C5.75459 80.6257 5.75458 82.7058 5.90691 83.9235H5.60226C4.78983 81.7926 0.778448 78.5963 0.118348 68.2972C-0.440199 59.4186 0.930781 56.6282 5.24682 49.4746C14.2851 42.1181 26.6239 25.5279 36.7793 20.8603C38.5057 20.0485 40.486 19.1353 42.4155 18.9324C50.7429 18.1206 71.6123 26.847 76.3853 33.8991C80.2444 39.6321 77.2993 46.3798 77.0454 52.7216Z" fill="#2D2523"/>
<path d="M24.5931 95.7937C21.8512 98.9393 22.105 106.144 21.3942 110.101C27.8936 109.543 32.6159 113.196 38.7599 114.464C38.9122 117.001 39.7754 119.74 40.3847 122.176C39.4707 121.871 35.5609 121.719 35.4086 121.516C35.0532 121.11 35.3578 120.197 35.2563 120.045C34.19 119.03 31.1433 115.885 30.8895 115.682C30.6356 115.479 30.3309 116.646 28.1475 114.413C27.7921 113.855 26.5734 110.963 26.3703 110.862C24.7962 110.152 21.9527 114.464 13.6761 102.643C7.2274 93.4092 7.17662 87.8791 5.60254 83.8203H5.9072C6.36419 87.0166 10.6295 94.221 13.473 96.3518C14.2854 96.4533 20.2771 91.1261 21.3434 90.2636C22.9175 89.046 24.3392 87.6254 25.8625 86.4078C28.1475 84.5814 30.5848 82.8564 32.7682 80.9285L33.5806 81.0807C29.9247 85.4946 26.7257 90.5173 24.5931 95.7937Z" fill="#2D2D2D"/>
<path d="M54.8554 109.644C54.703 124.357 71.9672 119.639 77.4003 110.913C79.1268 122.582 76.3848 134.657 62.2688 134.707C59.8315 133.845 57.2419 133.236 54.8554 132.12C54.703 132.069 52.9258 130.649 52.1134 130.192C51.6564 129.938 51.6564 130.547 51.6056 130.496C51.5041 130.446 51.3518 130.547 51.301 130.496C50.844 130.243 44.1414 125.372 42.7705 124.408C42.1611 123.952 41.7041 122.531 41.1456 122.176C41.0948 122.176 40.8917 122.582 40.6378 122.48C40.6378 122.48 40.7902 122.328 40.3332 122.176C39.7239 119.69 38.8606 117.001 38.7083 114.464C38.4544 110.761 39.0637 102.947 39.9777 99.3452C41.6026 100.106 39.927 109.543 40.4855 109.644C47.8989 98.5842 42.872 103.455 46.9342 109.949C52.6212 103.658 48.3559 109.898 48.7114 111.065C48.7622 111.217 51.5041 112.891 51.758 112.841C52.0119 112.841 53.6367 110.862 54.8554 109.644Z" fill="#4A4D53"/>
<path d="M65.1626 48.2048C63.0807 45.5159 65.061 45.871 62.2683 44.6534C60.4911 43.8924 58.46 43.7909 56.7844 42.7255C57.8507 41.7615 58.6123 40.341 59.6786 39.3263C56.1243 37.0432 51.6051 32.2741 47.4414 31.4624C36.9306 29.3823 20.682 47.799 16.5183 56.8805C15.5535 55.9165 14.081 54.8003 12.9639 53.9886C16.6198 44.7549 32.7161 24.8669 42.7699 23.4463C47.7968 22.736 56.7844 23.9029 60.6434 27.4543C61.202 27.9617 69.9356 38.9204 69.9864 39.6814C69.9864 40.138 65.6196 46.4799 65.1626 48.2048Z" fill="#84150E"/>
<path d="M16.5704 56.883C17.332 57.644 18.3984 58.9124 19.16 59.7748C18.9569 59.7748 18.5507 59.7241 18.4999 59.927C18.1445 61.3984 21.8512 85.9032 21.3942 90.3171C20.2771 91.1796 14.3362 96.5575 13.5238 96.4053C10.6803 94.2744 6.415 87.0701 5.95801 83.8738C6.31345 83.6709 6.51656 81.9459 6.61811 80.9819C7.68443 71.799 9.66472 62.616 13.0668 53.9911C14.1331 54.8028 15.6056 55.9697 16.5704 56.883Z" fill="#534B4E"/>
<path d="M76.0811 61.0416C76.1826 62.5636 75.5225 69.9709 75.7764 75.501C73.136 73.8267 71.6127 62.4622 69.6832 63.9335C69.3277 64.2379 67.8552 64.8467 67.7537 64.8974C66.8397 64.4915 65.8241 64.4408 64.8594 64.2379C65.4179 63.3246 65.164 61.8026 65.164 61.6504C65.4687 60.6864 68.363 55.1564 69.3277 53.2792C71.5111 55.8159 75.8272 57.7946 76.0811 61.0416Z" fill="#A12815"/>
<path d="M65.1628 48.2055C66.483 49.9305 67.9048 51.7569 69.3265 53.3297C68.3618 55.1561 65.4675 60.7369 65.1628 61.7009C64.5535 61.295 64.2489 60.2803 63.8934 59.773C63.3349 54.7503 62.8271 49.6768 62.2686 44.6541C65.0105 45.8717 63.081 45.5165 65.1628 48.2055Z" fill="#C73D1F"/>
<path d="M6.56735 80.9798C6.4658 81.9438 6.26269 83.618 5.90725 83.8717C5.75492 82.7048 5.75492 80.6247 6.56735 80.9798Z" fill="#2D2D2D"/>
<path d="M40.0277 99.3465C39.1137 102.949 38.5044 110.762 38.7583 114.465C32.6143 113.197 27.892 109.544 21.3926 110.102C22.1035 106.094 21.8496 98.9406 24.5915 95.795C25.2009 95.1355 31.4464 90.4679 33.1221 89.3517C31.1418 93.9178 24.2869 100.97 28.6029 99.6509C32.3604 98.484 43.5821 89.9605 46.9334 86.4598C44.8515 91.0767 41.2971 94.3237 40.0277 99.3465Z" fill="#2D2D2D"/>
<path d="M19.108 59.7741C21.4437 62.5137 21.9007 62.5137 22.0023 62.6659C22.1546 62.9196 23.881 67.5365 23.9318 67.7901C24.0333 68.196 23.424 68.7541 23.6271 69.8703C24.5919 75.3496 25.3536 80.8797 25.8613 86.4605C24.338 87.6781 22.9163 89.0987 21.3422 90.3164C21.7992 85.9024 18.0925 61.3976 18.4479 59.9263C18.5494 59.7233 18.9049 59.7741 19.108 59.7741Z" fill="#667371"/>
<path d="M79.3296 98.0789C79.3296 104.37 81.2591 110.813 81.5638 117.206C81.9192 124.157 81.7669 132.477 78.9742 138.92C77.5524 139.174 76.7908 139.123 75.4198 138.92C75.369 138.92 75.5213 138.312 75.2675 138.261C75.0136 138.21 73.6426 138.565 71.1037 137.956C68.0571 137.195 65.1628 135.775 62.2686 134.76C76.3845 134.709 79.1265 122.634 77.4001 110.966C76.8415 107.211 75.6737 102.747 73.8457 99.398C75.5721 98.6877 77.3493 97.7238 78.9742 96.8105C79.0757 97.2164 79.2281 97.5716 79.3296 98.0789Z" fill="#2D2D2D"/>
<path d="M75.7758 75.5512C76.0804 83.1106 77.3499 88.8437 78.6701 96.1495C78.7208 96.4539 78.9239 96.5046 78.9747 96.809C77.2991 97.7222 75.5727 98.6355 73.8462 99.3965C73.5416 99.5487 72.526 99.2443 72.2214 99.3965C71.5105 96.9105 70.495 94.4752 69.6318 91.9892C69.3271 91.076 68.9209 88.7422 68.667 88.1334C69.3271 84.2775 68.8701 80.4217 68.9717 76.5659C69.124 72.4056 69.7841 68.1947 69.6318 64.0344C71.5613 62.5124 73.1354 73.8769 75.7758 75.5512Z" fill="#C73D1F"/>
<path d="M78.9746 138.919C81.7673 132.476 81.8689 124.156 81.5642 117.205C81.2596 110.812 79.3301 104.318 79.3301 98.0779C81.3611 109.595 87.0481 129.381 79.4824 139.224C79.33 139.122 79.2285 138.869 78.9746 138.919Z" fill="#715D4F"/>
<path d="M73.8465 99.3481C75.6745 102.697 76.8423 107.161 77.4009 110.916C71.9678 119.642 54.7544 124.31 54.8559 109.647C58.6642 105.893 56.9378 108.43 58.258 107.719C62.4217 105.487 69.1242 100.769 72.2724 99.3481C72.5263 99.1959 73.4911 99.5003 73.8465 99.3481Z" fill="#556263"/>
<path d="M47.4427 31.4649C47.2904 31.8708 47.138 32.1752 46.7826 32.4289C46.0209 32.987 43.5329 34.509 42.2634 35.3207C28.1474 44.5037 23.7806 43.8949 22.0034 62.6667C21.9019 62.5145 21.4449 62.5145 19.1092 59.7749C18.3983 58.9124 17.2812 57.644 16.5195 56.883C20.6832 47.8522 36.9319 29.3848 47.4427 31.4649Z" fill="#9D4C2F"/>
<path d="M62.2694 44.655C62.8279 49.6777 63.3357 54.7512 63.8942 59.7739C62.5233 57.9475 60.3399 56.0195 58.7658 54.2946C53.3326 48.4093 52.1648 50.8446 54.9067 43.9954C55.3637 43.7925 55.2114 43.691 55.2114 43.691C55.4145 43.5895 55.6684 43.7417 56.8363 42.7271C58.4103 43.7925 60.4922 43.894 62.2694 44.655Z" fill="#DC5027"/>
<path d="M56.7843 42.7262C55.6164 43.7409 55.3626 43.5887 55.1594 43.6902C52.3667 39.9358 49.574 36.1815 46.7812 32.4271C47.1367 32.1734 47.2383 31.8183 47.4414 31.4631C51.5543 32.2749 56.1242 37.044 59.6786 39.327C58.6123 40.3417 57.8506 41.7623 56.7843 42.7262Z" fill="#DC5027"/>
<path d="M69.0212 76.5155C67.0409 76.414 67.9041 72.3045 66.9393 72.3552C64.959 74.6383 63.9435 78.3419 60.643 78.7985C60.3891 78.0375 66.8885 65.7597 67.7518 64.948C67.8025 64.8972 69.3258 64.2884 69.6813 63.984C69.8336 68.1443 69.1735 72.3552 69.0212 76.5155Z" fill="#C73D1F"/>
<path d="M64.5041 94.1704C66.0274 95.7939 64.758 97.3667 69.6326 91.9381C70.4958 94.4241 71.4605 96.8086 72.2222 99.3453C69.074 100.766 62.3715 105.484 58.2078 107.717C56.8876 108.427 58.614 105.89 54.8057 109.644C53.5871 110.862 51.9622 112.841 51.7591 112.841C51.5052 112.891 48.7633 111.217 48.7125 111.065C48.357 109.898 52.6223 103.658 46.9353 109.949C42.8731 103.455 47.9 98.5336 40.4866 109.644C39.9788 109.543 41.6037 100.106 39.9788 99.3453C41.2483 94.3226 44.8026 91.0756 46.8845 86.4587C43.5332 89.9594 32.3115 98.4828 28.554 99.6497C24.1872 100.969 31.0421 93.9674 33.0732 89.3506C31.3975 90.4668 25.152 95.1343 24.5427 95.7939C26.6753 90.5175 29.8742 85.4948 33.5809 81.1823L32.7685 81.0301C30.5343 82.958 28.1478 84.6323 25.8628 86.5095C25.3551 80.9794 24.5934 75.4493 23.6287 69.9699C23.4256 68.8538 24.0349 68.2957 23.9333 67.8898C27.6908 66.9766 32.3623 63.6281 31.3468 66.1141C25.8121 69.8177 27.8939 70.5788 28.1478 77.0728C36.8307 76.464 40.2327 70.8324 36.1706 79.6603C39.725 81.1823 42.3654 78.0368 40.3343 83.8205C40.6389 85.3933 44.5995 80.3706 51.6068 84.7845C50.9467 85.7484 47.2907 91.2785 48.5601 91.6844C50.2866 90.9741 59.7311 88.5896 60.4927 88.7925C60.9497 88.8432 63.1331 92.6991 64.5041 94.1704Z" fill="#667371"/>
<path d="M34.0898 92.2434L34.5468 92.7C29.0629 99.1941 27.8442 97.9257 34.0898 92.2434Z" fill="#4A4D53"/>
<path d="M69.0217 76.5144C68.8694 80.3703 69.3772 84.2768 68.7171 88.082C68.6663 87.9805 68.057 86.9658 67.7523 86.4584C66.4321 84.2261 61.1005 80.1166 60.6436 78.7468C63.9441 78.2902 64.9596 74.5865 66.9399 72.3035C67.8539 72.3035 67.0414 76.413 69.0217 76.5144Z" fill="#CD6546"/>
<path d="M54.8556 44.0471C52.1136 50.8963 53.2815 48.461 58.7147 54.3462C58.0546 55.1073 56.6836 60.891 56.7851 61.2462C57.0898 62.1594 63.64 64.0873 64.8587 64.2902C65.8234 64.4932 66.839 64.4932 67.753 64.9498C66.9405 65.7615 60.4411 78.0393 60.6442 78.8004C61.1012 80.1702 66.382 84.2797 67.753 86.512C64.1986 87.6282 61.812 90.6215 64.554 94.2237C63.183 92.7524 60.9996 88.8966 60.5426 88.7444C59.8317 88.5414 50.3365 90.9259 48.61 91.6362C47.3406 91.2303 51.0473 85.7003 51.6567 84.7363C44.6494 80.3224 40.6888 85.3451 40.3842 83.7723C42.3645 77.9886 39.7749 81.1341 36.2205 79.6121C40.2826 70.7843 36.8298 76.4158 28.1469 77.0246C27.8931 70.5813 25.8112 69.8203 31.3459 66.0659C32.3614 63.5799 27.7407 66.8777 23.9324 67.8417C23.8817 67.588 22.1553 62.9711 22.0029 62.7175C23.8309 43.9456 28.1977 44.5544 42.2629 35.3715C44.5479 36.2339 51.0981 44.8081 52.0629 45.0111C52.9261 45.1633 54.1447 44.3515 54.8556 44.0471Z" fill="#FA8235"/>
<path d="M63.8426 59.7721C64.1981 60.2795 64.5027 61.2942 65.1121 61.7C65.0613 61.8015 65.3659 63.3743 64.8074 64.2875C63.6395 64.0846 57.0385 62.1566 56.7339 61.2434C56.6323 60.8883 58.0033 55.1045 58.6634 54.3435C60.2882 56.0178 62.4717 57.9457 63.8426 59.7721Z" fill="#E5815E"/>
<path d="M67.7036 86.4583C68.0083 86.9656 68.6176 87.9803 68.6683 88.0818C68.9222 88.6906 69.3284 91.0244 69.6331 91.9376C64.7077 97.3662 65.9772 95.7934 64.5046 94.1699C61.7627 90.6185 64.2 87.5744 67.7036 86.4583Z" fill="#FA8235"/>
<path d="M55.16 43.69C55.16 43.69 55.2616 43.7914 54.8554 43.9944C54.1445 44.2988 52.9258 45.1613 52.1134 44.9583C51.0979 44.7554 44.5477 36.1812 42.3135 35.3188C43.5829 34.507 46.071 32.985 46.8326 32.4269C49.5746 36.1812 52.3673 39.9356 55.16 43.69Z" fill="#D37243"/>
<path d="M216.125 21.5186C226.128 27.2009 237.249 44.6029 246.388 52.3653C247.607 54.7499 249.13 57.2359 249.587 59.9248C250.603 65.7593 249.943 77.6819 245.424 81.9437C245.017 82.3495 244.205 82.2988 244.154 83.212C244.56 76.2614 240.295 60.838 237.706 53.9381C234.964 46.5816 233.034 43.2838 227.702 37.3479C219.68 28.3678 211.758 21.265 199.217 24.3091C189.924 26.5921 192.311 28.8244 189.061 33.1369C186.421 36.739 181.394 41.2544 181.343 41.8125C181.242 42.5735 184.593 45.8713 184.897 46.4801C185.558 47.9007 185.761 50.9955 185.862 51.2999C182.866 53.7859 179.871 56.2212 176.824 58.7072C176.824 58.555 176.672 59.7726 176.164 56.4748C176.062 55.7138 175.961 55.0035 175.859 54.2425C173.828 36.8405 173.168 32.3251 192.768 23.3451C200.943 19.6922 207.696 16.6989 216.125 21.5186Z" fill="#2D2523"/>
<path d="M213.23 108.984C213.23 110.202 213.383 110.811 213.23 112.18C212.773 116.189 212.215 118.522 210.336 122.124C210.133 122.53 209.828 122.733 210.336 122.784C209.676 123.19 204.598 129.278 202.313 130.191C199.927 129.126 191.853 132.88 188.451 133.743C187.994 133.844 186.928 135.62 181.85 133.083C174.386 129.38 173.015 119.943 173.624 112.485C184.135 124.458 206.629 119.233 196.474 110.405L197.134 109.948C198.911 110.811 200.638 111.572 202.11 112.84C207.391 105.331 205.665 103.048 202.415 95.4888C206.02 100.004 209.625 104.469 213.23 108.984Z" fill="#60534F"/>
<path d="M226.434 96.1011C228.008 99.3989 230.902 107.111 229.328 110.408C228.617 111.93 226.129 111.626 227.094 112.488C226.231 112.742 224.758 113.047 223.895 113.148C223.641 113.148 222.118 113.148 221.661 113.148C218.817 113.097 216.025 111.778 213.283 112.184C213.435 110.763 213.283 110.205 213.283 108.988C213.333 100.008 211.912 95.6953 207.646 87.7806C208.865 89.7593 222.88 101.682 224.251 99.8555C216.482 86.8167 215.06 86.9689 226.434 96.1011Z" fill="#2D2D2D"/>
<path d="M226.076 88.7407C229.783 91.937 233.439 95.2347 237.196 98.3803C240.091 93.9664 243.797 88.6392 244.102 83.2613C244.204 82.3481 244.965 82.3481 245.372 81.993C243.747 91.0745 236.435 109.694 227.041 112.535C226.076 111.673 228.564 111.977 229.275 110.455C230.799 107.157 227.955 99.4457 226.381 96.148C223.842 90.7701 219.678 85.3415 216.073 80.5217L216.581 80.0651C219.526 83.2106 222.877 85.8995 226.076 88.7407Z" fill="#2D2D2D"/>
<path d="M223.842 113.197C218.307 121.974 211.656 122.076 210.335 122.837C209.828 122.837 210.132 122.583 210.335 122.177C212.316 122.431 211.757 121.163 212.113 120.909C214.905 118.423 219.425 116.292 221.608 113.197C222.065 113.197 223.588 113.197 223.842 113.197Z" fill="#2D2D2D"/>
<path d="M176.213 96.7573C176.873 98.7866 177.482 98.8881 177.482 98.9896C177.533 99.1925 177.482 99.4462 177.482 99.6491C177.482 100.309 174.08 106.803 173.623 112.536C173.014 119.943 174.385 129.43 181.849 133.134C186.927 135.671 187.993 133.895 188.45 133.794C186.013 138.766 186.317 136.99 182.001 137.345C181.9 137.345 181.544 136.685 179.92 137.041C179.615 137.091 175.756 139.831 173.979 139.932C167.479 131.105 170.932 116.29 170.78 105.839C171.694 100.258 172.811 94.7279 173.674 89.0963C173.725 91.7853 175.35 94.2713 176.213 96.7573Z" fill="#2D2D2D"/>
<path d="M237.705 53.9869C236.892 54.5958 234.759 57.4369 234.506 58.1472H234.201C230.85 47.7973 216.683 28.5689 204.598 31.4607C203.329 31.7652 196.778 34.8092 196.575 35.8239C196.474 36.2298 197.337 40.39 196.88 43.6878C195.001 43.84 193.224 44.2966 191.396 44.6518C189.162 45.1084 186.928 45.3113 184.947 46.5797C184.643 45.9709 181.291 42.6731 181.393 41.9121C181.444 41.354 186.471 36.7879 189.111 33.2365C192.31 28.924 189.974 26.641 199.266 24.4086C211.808 21.3645 219.729 28.4674 227.752 37.4474C232.982 43.3327 234.912 46.6304 237.705 53.9869Z" fill="#A12815"/>
<path d="M237.705 53.9886C240.244 60.8886 244.56 76.2612 244.154 83.2626C243.849 88.6404 240.142 93.9676 237.248 98.3815C233.491 95.2359 229.835 91.9382 226.128 88.7419C229.835 79.3053 231.46 68.3973 234.811 59.0114C235.065 58.2504 234.455 58.2504 234.506 58.1996C234.76 57.4386 236.842 54.5975 237.705 53.9886Z" fill="#2D2D2D"/>
<path d="M189.416 60.4341C189.873 61.4488 190.228 62.6157 190.685 63.6304C189.568 63.7826 184.693 64.1378 184.389 64.29C184.084 64.4422 184.287 65.2032 184.236 65.2539C183.272 65.7105 182.459 66.2686 181.342 66.2179C181.291 66.1164 180.479 65.9135 179.717 65.1017C178.702 68.1966 177.686 71.1392 176.823 74.2847C176.061 69.8201 177.737 66.5223 176.823 58.8614C179.819 56.3754 182.815 53.9401 185.861 51.4541C187.029 54.5489 187.994 57.3393 189.416 60.4341Z" fill="#A12815"/>
<path d="M191.345 44.6554C191.447 45.6701 194.747 47.6995 194.9 47.8517C196.22 49.5767 190.177 57.7449 189.416 60.3831C187.994 57.2883 187.029 54.5487 185.861 51.3524C185.76 51.048 185.557 47.9531 184.896 46.5326C186.877 45.3149 189.111 45.112 191.345 44.6554Z" fill="#C73D1F"/>
<path d="M226.076 88.7413C222.826 85.9002 219.475 83.2113 216.581 80.0657L216.073 80.5223C219.678 85.2914 223.791 90.72 226.381 96.1486C215.007 86.9656 216.428 86.8134 224.146 99.8522C222.826 101.679 208.812 89.756 207.542 87.7774C211.808 95.692 213.229 100.004 213.179 108.984C209.573 104.469 205.968 99.9537 202.414 95.489C205.664 103.049 207.39 105.332 202.109 112.84C200.586 111.572 198.91 110.76 197.133 109.948C190.38 106.752 183.626 103.962 177.482 99.6493C177.482 99.4463 177.533 99.1927 177.482 98.9897C181.697 91.3795 182.662 94.1192 185.201 92.5464C188.501 90.517 184.693 89.3501 192.766 90.9229C190.38 84.9362 194.442 88.6906 203.683 88.031C205.207 87.4222 200.688 82.8561 200.129 80.6238C204.293 81.4863 208.507 82.3488 212.671 83.2113C213.382 82.7039 211.148 75.6518 210.894 74.3834C214.397 75.3981 217.85 76.4128 221.354 77.4275C221.354 74.6371 220.186 72.3033 221.201 69.5636C216.733 60.8373 222.014 67.2806 225.568 69.7158C226.127 69.7666 227.955 67.0776 228.005 65.2004C229.783 64.6931 232.271 60.3806 234.099 58.1483H234.403C234.403 58.1991 235.013 58.1991 234.708 58.9601C231.408 68.346 229.783 79.2539 226.076 88.7413Z" fill="#74817D"/>
<path d="M197.133 109.95L196.473 110.406C206.628 119.234 184.134 124.46 173.623 112.487C174.08 106.754 177.482 100.31 177.482 99.6C183.626 103.963 190.379 106.754 197.133 109.95Z" fill="#6F6360"/>
<path d="M221.607 113.194C219.424 116.289 214.905 118.47 212.112 120.905C211.807 121.159 212.315 122.478 210.335 122.174C212.214 118.521 212.772 116.238 213.229 112.23C215.971 111.824 218.764 113.092 221.607 113.194Z" fill="#2D2D2D"/>
<path d="M181.341 66.2168C182.255 67.7896 182.154 70.7322 183.931 73.2689C184.083 76.6174 184.388 79.9151 184.591 83.2129C180.427 86.4092 177.838 91.8885 176.213 96.7083C175.349 94.2223 173.775 91.6856 173.623 88.9967C173.623 88.7937 173.623 88.54 173.623 88.3371C173.623 87.3224 176.263 76.313 176.822 74.1821C177.685 71.0366 178.701 68.094 179.716 64.9991C180.529 65.9124 181.29 66.1153 181.341 66.2168Z" fill="#AB5242"/>
<path d="M173.929 139.885C167.277 140.24 168.038 121.975 168.445 117.511C168.8 113.807 170.07 109.545 170.679 105.791C170.933 116.192 167.429 131.006 173.929 139.885Z" fill="#646564"/>
<path d="M234.15 58.1478C232.322 60.4309 229.783 64.6926 228.057 65.2C228.057 64.236 226.736 56.1184 226.432 55.053C224.147 47.1384 216.784 40.0355 210.335 35.2665C208.406 33.8459 206.73 32.4253 204.547 31.4107C216.632 28.6202 230.799 47.798 234.15 58.1478Z" fill="#C73D1F"/>
<path d="M185.201 92.594C182.663 94.1668 181.698 91.4271 177.483 99.0373C177.483 98.9359 176.874 98.8344 176.214 96.805C177.839 91.9852 180.428 86.5059 184.592 83.3096C184.744 86.3537 184.541 89.4992 185.201 92.594Z" fill="#D37243"/>
<path d="M204.548 31.4587C206.731 32.4734 208.457 33.894 210.336 35.3146C208.559 40.591 197.439 47.1358 197.134 47.9982C196.982 48.4041 197.185 53.1225 196.829 55.7099C195.458 65.2988 195.712 62.9142 190.736 63.5738C190.228 62.5591 189.924 61.3922 189.467 60.3775C190.228 57.7393 196.22 49.571 194.951 47.846C196.068 46.7806 196.728 44.7005 196.88 43.6858C197.337 40.3373 196.474 36.1771 196.576 35.8219C196.728 34.8072 203.278 31.7631 204.548 31.4587Z" fill="#EB602C"/>
<path d="M196.779 43.6843C196.626 44.7498 195.966 46.7791 194.849 47.8446C194.697 47.6416 191.447 45.663 191.295 44.6483C193.174 44.2931 194.951 43.8365 196.779 43.6843Z" fill="#C73D1F"/>
<path d="M228.006 65.2477C227.955 67.0742 226.178 69.7631 225.569 69.7631C222.065 67.2771 216.734 60.8845 221.202 69.6109C220.237 72.3506 221.354 74.6844 221.354 77.4748C217.851 76.4601 214.398 75.4454 210.894 74.4307C211.148 75.6991 213.382 82.7512 212.671 83.2585C208.508 82.396 204.293 81.5336 200.129 80.6711C200.688 82.9034 205.207 87.4695 203.684 88.0783C194.392 88.7379 190.33 84.9835 192.767 90.9702C184.693 89.3974 188.502 90.5136 185.201 92.5937C184.541 89.5496 184.744 86.3533 184.541 83.2585C184.338 79.91 184.084 76.6123 183.881 73.3145C183.982 73.416 185.506 75.1917 185.81 75.5469C186.826 81.1277 185.709 81.838 189.974 79.7071L190.634 79.2505C188.502 74.5829 186.826 69.6616 184.186 65.2477C184.236 65.197 184.033 64.436 184.338 64.2838C184.642 64.1316 189.517 63.7764 190.634 63.6242C195.61 62.9647 195.356 65.3492 196.727 55.7603C197.083 53.1729 196.88 48.4545 197.032 48.0487C197.337 47.1862 208.457 40.6414 210.234 35.365C216.683 40.1341 224.045 47.2369 226.33 55.1515C226.737 56.1662 228.057 64.2838 228.006 65.2477Z" fill="#E29150"/>
<path d="M190.026 79.7078C188.553 78.4395 187.081 76.9682 185.862 75.5476C185.506 75.1417 184.034 73.4167 183.932 73.3153C182.155 70.7278 182.257 67.8359 181.343 66.2632C182.46 66.3139 183.272 65.7558 184.237 65.2992C186.877 69.7131 188.553 74.6344 190.686 79.302L190.026 79.7078Z" fill="#B55A2B"/>
<path d="M190.026 79.7058C185.71 81.8366 186.827 81.0756 185.862 75.5455C187.132 77.0168 188.553 78.4374 190.026 79.7058Z" fill="#FA8235"/>
<defs>
<linearGradient id="paint0_linear_1301_1932" x1="57.1666" y1="159.718" x2="69.6931" y2="160.506" gradientUnits="userSpaceOnUse">
<stop stop-color="#392E2E"/>
<stop offset="1" stop-color="#1F191B"/>
</linearGradient>
</defs>
</svg>
