<svg width="155" height="191" viewBox="0 0 155 191" fill="none" xmlns="http://www.w3.org/2000/svg">
<g id="Vector">
<path d="M69.3858 64.2621C75.635 65.704 81.6546 68.2031 87.9241 69.5581V71.0402C87.7587 72.636 88.1368 73.4557 88.1334 73.5828C88.0895 75.2221 87.5865 77.0086 87.5088 78.6647C86.4386 78.8587 85.5844 72.6059 80.3211 70.1937C79.028 71.5019 79.2475 72.0137 79.1766 72.1007C77.3062 74.3121 75.1792 74.5497 77.0935 77.6075C76.6377 78.4773 75.6418 84.0209 75.949 84.1715C76.6749 82.231 77.9274 80.5449 78.7613 78.6647C78.8592 81.1036 78.0152 83.489 77.7215 85.8643C76.6749 94.3285 76.8876 101.605 78.1367 110.006C78.5891 113.047 79.234 115.931 80.0105 118.902C82.0598 126.73 85.8039 133.538 89.3826 140.822C78.4237 142.314 84.575 141.474 82.0935 134.679C81.2495 132.367 79.3353 131.658 78.9706 130.762C78.6431 129.955 78.1772 125.017 77.7215 122.926C78.0523 117.68 76.0874 114.322 72.9308 110.431C73.4743 110.892 73.6195 110.053 73.7647 109.477C74.6863 105.837 76.3406 94.2449 76.263 90.5213C76.1651 85.784 74.7674 81.1672 74.5952 76.4365C74.3622 75.9013 69.8079 76.4432 68.9706 76.5436C68.6093 76.5871 68.1299 76.6975 67.7214 76.7544C66.8673 76.8782 66.0367 77.2294 65.2231 77.39C63.768 77.6777 62.2892 77.8383 60.8476 78.2365C55.4763 79.7252 51.0434 81.8195 46.4755 85.0145C42.988 87.4501 40.807 89.531 38.1433 92.8498C35.6754 95.9244 34.2135 98.1492 32.5187 101.746C30.6213 102.181 30.9792 105.496 28.9772 105.77C34.882 88.8251 48.9604 78.7751 65.949 75.6972C70.9524 74.7905 74.9598 76.3094 76.0503 71.9903C76.8403 68.8723 75.949 70.2607 74.0719 71.8833C72.8666 72.084 76.8234 68.6381 76.0503 67.7548C72.8362 66.8248 66.9922 66.1189 74.5918 66.062C72.978 65.888 63.3122 62.8503 69.3858 64.2621Z" fill="#84150E"/>
<path d="M151.56 66.5939C151.925 66.4936 155.105 66.6374 154.997 67.1225C152.739 67.0289 150.298 67.0054 151.56 66.5939Z" fill="#646564"/>
<path d="M150.936 70.1937L153.333 72.4185C152.739 72.4821 150.767 70.8394 150.936 70.1937Z" fill="#646564"/>
<path d="M151.979 69.3473C155.808 70.2941 155.473 71.2777 151.874 69.4544L151.979 69.3473Z" fill="#737471"/>
<path d="M153.853 68.7117L154.997 69.0295C154.994 69.1767 153.35 69.344 153.853 68.7117Z" fill="#828380"/>
<path d="M78.552 21.6967C78.3697 27.1599 79.71 32.5095 83.1334 36.7316C83.525 37.2133 84.1665 38.0397 84.5919 38.4244C84.1259 38.6151 85.4258 39.5184 85.4258 39.5887C85.4258 39.6589 85.0713 39.6288 84.5919 40.7529C83.2009 44.0148 79.4399 47.8789 81.6749 47.3169C81.1651 48.0194 80.7465 48.916 80.2164 49.6454C80.0206 48.0997 79.1428 49.0599 79.0719 49.0097C75.8477 46.8652 73.4304 35.38 73.1367 31.5393C72.8126 27.3205 73.9335 20.3618 72.5121 18.9399C72.5425 18.7358 72.4784 18.5083 72.5121 18.3043C74.2812 21.3353 75.1083 21.3922 78.552 21.6933V21.6967Z" fill="url(#paint0_linear_1301_1113)"/>
<path d="M80.2198 49.6521C76.4588 54.841 74.6695 60.6188 68.346 63.2049C67.897 63.2417 65.8173 64.0078 65.8477 63.312C69.423 61.5455 74.4399 57.0959 75.8477 53.3589C77.556 48.8157 75.2907 48.0261 73.974 43.8275C71.5668 36.1528 71.3035 26.8455 72.5155 18.9433C73.9368 20.3685 72.816 27.3272 73.1401 31.5426C73.4372 35.3866 75.8545 46.8686 79.0753 49.0131C79.1496 49.0633 80.0273 48.0997 80.2198 49.6487V49.6521Z" fill="#9C2315"/>
<path d="M87.0936 40.5455C85.7836 42.0945 82.7822 45.8013 81.6783 47.3236C79.4433 47.8856 83.2043 44.0215 84.5952 40.7596C84.9598 40.7763 85.6688 39.9199 85.7397 39.9132C85.814 39.9065 86.8066 40.5455 87.0936 40.5488V40.5455Z" fill="#9C2315"/>
<path d="M127.712 181.591C127.928 182.698 128.009 183.855 127.921 184.98C127.766 186.947 128.123 186.98 125.942 187.522C121.017 188.74 120.419 186.876 120.109 186.887C119.801 186.897 119.194 188.258 118.859 188.369C117.813 188.72 113.714 188.081 112.506 188.158C117.583 185.99 122.651 183.799 127.712 181.594V181.591Z" fill="#081212"/>
<path d="M89.1766 83.325C89.1901 83.4856 89.207 83.5592 89.3859 83.5358C89.3117 84.7569 90.203 85.7071 90.6351 86.7141C90.9153 87.3598 91.3981 87.8516 91.469 87.9854C91.5399 88.1226 92.0362 90.6183 92.9275 90.528C92.941 90.9863 93.049 91.1837 93.1368 91.5885C93.3461 92.5387 93.6668 92.6022 93.7614 92.8599C94.4569 94.73 95.6858 97.7745 97.5122 98.5774C97.7519 99.0157 97.9579 99.5108 98.3461 99.8487C96.8201 105.192 94.2712 108.561 95.6385 117.001C95.1422 116.921 95.2469 117.212 95.2232 117.212C94.4602 117.202 88.3461 114.445 87.4109 113.823C79.3758 108.494 79.6222 94.449 78.3494 85.7606L77.7248 85.8676C78.0186 83.4923 78.866 81.1036 78.7647 78.668C79.1124 77.8818 79.629 77.1525 79.5986 76.2325C79.5378 76.1354 77.5999 76.9016 77.5155 76.9752C77.5965 74.4794 78.0287 75.4028 78.3494 75.4931C78.3697 75.4998 78.2785 75.8946 78.4541 75.918C78.714 75.9481 82.3163 73.1947 83.0355 73.3754C83.8862 73.5895 86.9923 83.5893 87.8262 80.575C87.8363 81.4448 88.1807 84.9108 89.18 83.3284L89.1766 83.325Z" fill="url(#paint1_linear_1301_1113)"/>
<path d="M95.2165 117.209C95.3898 118.056 95.5631 118.904 95.7364 119.751C94.575 119.373 90.7803 119.467 90.5304 119.326C90.3718 119.24 90.257 118.206 90.2165 118.162C88.9369 116.694 80.9862 112.739 78.1333 110.009C76.8842 101.608 76.6681 94.3319 77.7181 85.8676L78.3427 85.7606C79.6121 94.4456 79.369 108.49 87.4042 113.823C88.3393 114.442 94.4535 117.199 95.2165 117.212V117.209Z" fill="#DC5027"/>
<path d="M95.2165 117.209C95.2401 117.209 95.1388 116.918 95.6317 116.998C95.8073 118.085 95.9153 119.189 96.4656 120.176C94.0348 120.106 91.6007 119.915 89.1766 119.751C86.1145 119.547 83.049 119.367 80.0105 118.905C79.234 115.937 78.5891 113.05 78.1367 110.009C80.9862 112.739 88.9369 116.694 90.2198 118.162C90.2603 118.209 90.3751 119.24 90.5338 119.326C90.787 119.464 94.5784 119.373 95.7398 119.751C95.5665 118.904 95.3932 118.056 95.2199 117.209H95.2165Z" fill="#B6361B"/>
<path d="M87.5088 78.6647C91.6952 70.2239 88.9335 80.1166 89.1766 83.325C88.1773 84.9075 87.8329 81.4415 87.8228 80.5716C86.9889 83.586 83.8829 73.5861 83.0321 73.372C82.313 73.1914 78.7073 75.9447 78.4507 75.9146C78.2785 75.8946 78.3663 75.4964 78.346 75.4898C78.7613 74.1749 79.6864 72.4687 79.1799 72.1007C79.2508 72.0171 79.0314 71.5019 80.3244 70.1937C85.5878 72.6059 86.442 78.8587 87.5122 78.6647H87.5088Z" fill="#9C2315"/>
<path d="M78.7613 78.6647C77.9274 80.5449 76.6749 82.231 75.949 84.1715C75.6418 84.0209 76.6411 78.4773 77.0935 77.6075C77.2285 77.3532 77.2758 77.1726 77.5088 76.9718C77.5932 76.8982 79.5311 76.1321 79.5918 76.2291C79.6222 77.1491 79.1057 77.8785 78.7579 78.6647H78.7613Z" fill="#C74520"/>
<path d="M78.3427 75.4898C78.0219 75.3994 77.5898 74.4761 77.5088 76.9718C77.2724 77.1726 77.2252 77.3532 77.0935 77.6075C75.1792 74.5497 77.3062 74.3121 79.1766 72.1007C79.6864 72.4687 78.7579 74.1716 78.3427 75.4898Z" fill="#9C2315"/>
<path d="M130.21 124.833C129.369 134.602 128.819 144.401 127.918 154.164C134.822 160.236 133.309 157.436 136.56 157.871C141.081 158.476 142.256 163.612 142.81 163.799C144.433 164.351 147.458 162.518 149.997 169.941C139.086 165.278 135.068 158.76 122.502 152.153C122.357 151.755 122.911 151.531 122.917 151.41C122.944 151.036 121.064 145.248 120.834 144.211C119.622 138.694 118.967 133.157 117.917 127.69C117.998 127.563 118.279 127.644 118.751 127.373C119.015 127.222 119.501 127.031 119.791 126.948C120.605 126.713 124.622 125.974 126.874 125.466C127.62 125.298 128.407 125.211 129.167 125.041C129.528 124.96 129.825 124.783 130.207 124.83L130.21 124.833Z" fill="#081212"/>
<path d="M118.755 127.376C118.282 127.647 118.002 127.567 117.921 127.694C118.967 133.16 119.626 138.694 120.838 144.214C121.064 145.251 122.948 151.039 122.921 151.414C122.911 151.531 122.36 151.758 122.506 152.156C120.004 150.842 117.425 149.594 114.798 148.557C114.524 145.709 113.934 142.919 113.549 140.086C113.366 138.747 112.847 132.521 112.715 132.143C112.657 131.979 112.435 132.036 112.3 132.036C112.691 130.869 112.36 130.086 112.509 129.072C112.536 128.885 112.664 128.848 112.718 128.647H112.928L118.761 127.376H118.755Z" fill="#081212"/>
<path d="M132.502 105.349C132.171 106.72 131.459 108.116 131.253 109.477C131.027 110.969 130.591 120.414 130.213 124.83C129.832 124.783 129.535 124.96 129.173 125.041C129.224 122.983 130.284 114.074 130.213 113.499C130.203 113.418 129.879 113.268 129.798 112.97C130.514 112.632 130.169 109.895 130.632 108.099C130.915 106.998 133.633 100.672 132.506 105.345L132.502 105.349Z" fill="#6B1D0E"/>
<path d="M128.751 111.28C126.26 116.754 122.799 121.745 119.795 126.951C119.501 127.035 119.015 127.222 118.755 127.376L112.921 128.647C116.53 124.837 119.616 120.745 122.502 116.362C122.867 118.35 123.235 116.704 124.17 115.937C126.189 114.288 127.539 113.154 128.127 110.22C128.802 110.11 128.66 111.1 128.751 111.28Z" fill="#84150E"/>
<path d="M129.795 112.763C128.056 112.037 127.583 122.107 126.878 125.469C124.626 125.977 120.608 126.717 119.795 126.951C122.799 121.745 126.26 116.754 128.751 111.28C128.957 111.679 129.66 112.331 129.791 112.763H129.795Z" fill="#DC5027"/>
<path d="M129.795 112.763C129.815 112.826 129.778 112.91 129.795 112.973C129.876 113.271 130.203 113.425 130.21 113.502C130.277 114.077 129.217 122.987 129.17 125.044C128.41 125.211 127.627 125.298 126.878 125.469C127.583 122.107 128.053 112.037 129.795 112.763Z" fill="#EB602C"/>
<path d="M57.7214 138.6C66.6951 141.481 76.0334 142.016 85.3211 143.046C86.6783 143.197 88.3258 142.906 89.6965 143.046C94.2509 143.511 98.8087 144.308 103.339 144.953C105.341 145.238 107.522 145.957 107.715 145.271C107.023 143.478 106.786 141.477 106.256 139.657C106.233 139.4 106.456 139.457 106.466 139.447C108.617 139.942 110.77 140.436 112.924 140.929C112.617 142.411 112.563 145.773 112.509 147.493C106.52 145.412 100.027 144.565 93.7614 143.893C86.4149 143.103 78.9031 143.207 71.5769 142.2C66.7795 141.541 62.0495 140.209 57.3095 139.236C57.1609 138.383 57.7146 138.637 57.7247 138.6H57.7214Z" fill="#081212"/>
<path d="M114.795 148.553C114.038 148.252 113.258 147.757 112.502 147.493C112.556 145.77 112.61 142.411 112.917 140.929C112.928 140.879 113.299 140.056 113.542 140.082C113.927 142.916 114.518 145.706 114.791 148.553H114.795Z" fill="#646564"/>
<path d="M32.5187 101.749C32.1034 102.632 31.8502 103.619 31.4788 104.502C30.5605 106.684 29.6389 108.781 28.9805 111.066C27.728 115.402 27.1 117.61 27.7314 122.291C28.2547 126.168 30.8408 131.317 34.2911 133.304C35.3783 133.93 37.8293 134.181 37.9374 134.997C34.2304 134.064 23.3492 131.023 20.6483 129.069C20.3039 128.821 19.757 128.222 19.3991 127.904C25.0879 129.353 31.256 133.729 26.2729 129.279C28.3087 129.544 24.1662 124.991 24.6051 118.373C24.227 118.008 21.4552 118.952 20.8542 119.116C17.1 120.136 16.9649 120.782 15.4389 121.658C10.8305 124.301 9.61177 125.154 6.69143 129.704C5.60095 131.401 4.94598 132.699 4.19311 134.576C2.29236 139.32 1.51923 142.478 1.69479 147.707C2.00201 156.877 4.26738 160.808 11.5902 165.92C19.0345 171.119 29.3181 174.899 38.0454 177.144C42.7855 178.365 55.689 180.915 60.3345 181.38C61.6343 181.51 66.928 181.734 67.8328 181.591C69.1563 181.38 69.7538 179.75 71.165 179.473C72.5155 179.208 74.9463 179.951 74.8113 179.048C82.2117 179.202 89.5412 178.723 96.7864 177.141C99.7776 176.489 102.752 174.893 105.848 175.023C105.271 175.492 104.582 175.863 103.974 176.295C102.161 177.579 100.21 178.74 98.5588 180.212C98.7276 180.44 99.3218 180.266 99.5987 180.319C99.4906 181.667 100.757 180.092 101.682 181.483C100.426 182.658 98.3698 182.102 97.8296 182.226C94.8012 182.905 93.7917 183.668 88.0389 184.555C87.8397 184.585 88.0287 185.16 87.8295 185.19C87.6877 185.21 87.762 184.745 87.6202 184.765C86.3981 184.949 84.1226 184.993 82.6202 185.19C82.4176 185.217 82.6202 185.742 82.4109 185.826C81.7053 186.107 81.6242 185.398 81.577 185.401C80.8579 185.478 80.1489 186.017 79.9092 186.037C79.0618 186.104 68.579 185.916 66.9956 185.826C59.8314 185.411 55.4087 184.21 48.8726 183.073C45.8746 182.551 42.6808 182.464 39.7064 181.801C29.5376 179.54 23.2074 175.953 14.2944 171.634C13.2377 171.122 12.1067 171.343 11.3775 170.999C9.94938 170.326 7.30588 166.03 6.06685 166.338C5.79001 165.92 5.71911 165.264 5.02701 165.278C-4.66243 148.597 -0.465926 125.85 18.6699 118.898C22.3397 117.567 26.2155 117.195 26.4822 116.888C26.8536 116.459 26.7489 112.177 28.9805 105.77C30.9826 105.499 30.6247 102.181 32.5221 101.746L32.5187 101.749Z" fill="#9C2315"/>
<path d="M6.06348 166.342C24.4498 194.11 77.0024 189.526 105.736 190.061C106.381 189.62 105.497 189.627 105.632 188.79C106.388 188.941 107.749 189.429 108.13 189.426C108.957 190.115 104.129 190.838 103.235 190.908C99.6797 191.196 76.2799 190.741 70.949 190.483C52.4715 189.596 30.9218 187.703 15.4356 176.505C11.3032 173.518 7.61312 169.744 5.02026 165.281C5.71574 165.264 5.78663 165.923 6.0601 166.342H6.06348Z" fill="#84150E"/>
<path d="M15.4356 121.655C15.5706 121.638 15.7428 121.685 15.8508 121.655C18.1196 123.739 22.1574 126.887 24.703 128.644C25.0339 128.875 25.6551 129.366 26.0568 129.069C26.0669 129.082 26.2864 129.022 26.2661 129.279C31.2493 133.726 25.0811 129.35 19.3924 127.904C19.7502 128.226 20.2972 128.821 20.6415 129.069L20.4322 129.811C21.8941 133.321 57.0799 139.674 62.404 141.778C68.2346 142.571 74.0618 143.836 79.9024 144.532C83.5959 144.97 87.6641 144.816 91.2563 145.168C92.0564 145.244 98.8863 146.154 98.964 146.543L92.7148 148.235C93.8942 149.188 95.0747 150.141 96.2563 151.096C98.1503 153.04 100.254 154.726 102.296 156.496L97.0902 157.767L101.466 165.074C94.4062 165.856 87.3738 164.344 80.3244 164.649C75.1185 164.876 70.7194 166.522 61.5769 165.284C55.0644 164.404 39.3249 159.339 32.8327 156.813C21.7253 152.491 9.05471 146.506 6.90075 133.2C6.45173 130.42 7.34303 129.614 6.69144 129.708C9.61177 125.154 10.8306 124.305 15.4389 121.662L15.4356 121.655Z" fill="#EB602C"/>
<path d="M97.2995 167.613C96.469 168.061 101.638 172.698 101.986 172.909C105.257 174.873 107.607 173.591 105.838 175.027C102.742 174.896 99.7675 176.492 96.7762 177.144C89.5311 178.727 82.2016 179.205 74.8011 179.051C61.3541 178.77 39.3958 174.364 26.9954 169.098C20.0575 166.151 9.15937 159.607 4.81094 153.321C3.18703 150.972 2.60296 147.981 1.68803 147.707C1.51248 142.478 2.28561 139.32 4.18636 134.576C4.74679 134.371 4.1526 136.446 4.81094 139.129C8.45714 153.99 39.4498 164.505 52.6167 167.191C62.1643 169.138 72.0631 169.627 81.7795 169.309C83.2076 169.262 95.051 168.389 95.7364 168.248C96.0571 168.185 96.6446 167.81 97.2995 167.613Z" fill="#B6361B"/>
<path d="M149.997 172.273C150.021 172.531 149.798 172.474 149.788 172.484C149.322 172.618 148.809 172.745 148.329 172.695C140.132 171.875 134.481 169.269 122.813 170.366C118.859 170.738 114.396 171.788 110.73 173.33C108.036 174.464 104.467 177.409 103.961 176.295C104.568 175.863 105.257 175.492 105.834 175.023C107.6 173.588 105.254 174.869 101.982 172.905C101.634 172.695 96.4623 168.061 97.2962 167.609C98.3765 167.282 102.971 165.455 101.462 165.067L97.0868 157.76L102.293 156.489C100.25 154.719 98.1436 153.033 96.2529 151.089C95.5136 150.333 94.8586 149.47 94.0652 148.761C101.223 145.465 118.042 152.879 124.687 156.807C130.409 160.192 144.292 171.915 149.994 172.266L149.997 172.273Z" fill="#D3D0BD"/>
<path d="M112.506 147.493C113.262 147.757 114.038 148.252 114.798 148.553C117.425 149.594 120.004 150.838 122.506 152.153C135.071 158.76 139.089 165.281 150.001 169.941C154.548 171.885 157.003 171.621 150.001 172.27C144.298 171.919 130.416 160.196 124.693 156.81C118.049 152.882 101.229 145.465 94.072 148.764C94.862 149.477 95.5203 150.336 96.2597 151.092C95.0803 150.14 93.8998 149.187 92.7181 148.232L98.9673 146.539C98.8897 146.148 92.0632 145.241 91.2597 145.164C92.0598 144.529 93.8593 144.478 93.758 143.893C100.024 144.565 106.516 145.412 112.506 147.493Z" fill="#F7F6F3"/>
<path d="M148.333 172.695C144.136 175.09 139.349 176.331 134.896 178.201C132.462 179.225 130.119 180.54 127.708 181.591C122.647 183.799 117.58 185.987 112.502 188.154C110.895 188.255 109.548 189.406 108.127 189.426C107.745 189.432 106.385 188.941 105.628 188.79C104.906 188.646 98.5453 186.957 98.5453 186.565C104.97 184.1 106.901 184.267 98.8593 182.858C102.387 181.845 106.915 181.403 103.859 180.741C103.302 180.62 101.402 180.65 99.5885 180.316C99.3083 180.266 98.7175 180.436 98.5487 180.209C100.2 178.737 102.151 177.576 103.964 176.291C104.47 177.405 108.042 174.461 110.733 173.327C114.396 171.781 118.859 170.734 122.816 170.363C134.484 169.269 140.136 171.875 148.333 172.691V172.695Z" fill="url(#paint2_linear_1301_1113)"/>
<path d="M101.466 165.07C102.975 165.455 98.3799 167.285 97.2995 167.613C96.6446 167.81 96.0571 168.182 95.7364 168.248C95.051 168.389 83.2076 169.262 81.7795 169.309C72.0631 169.627 62.1677 169.138 52.6167 167.191C39.4498 164.508 8.45714 153.99 4.81094 139.129C4.1526 136.446 4.74342 134.371 4.18636 134.576C4.93923 132.699 5.59757 131.404 6.68468 129.704C7.33627 129.614 6.4416 130.42 6.894 133.197C9.04796 146.502 21.7185 152.488 32.8259 156.81C39.3182 159.336 55.0576 164.401 61.5701 165.281C70.7127 166.519 75.1117 164.873 80.3177 164.645C87.3704 164.341 94.4028 165.85 101.459 165.07H101.466Z" fill="#DC5027"/>
<path d="M99.5885 180.319C101.402 180.654 103.302 180.624 103.859 180.744C106.918 181.407 102.387 181.848 98.8593 182.862C106.901 184.27 104.97 184.103 98.5453 186.569C98.5453 186.96 104.906 188.65 105.628 188.793C105.493 189.63 106.378 189.623 105.733 190.065C77.0024 189.53 24.4498 194.113 6.0601 166.345C7.30251 166.037 9.94601 170.333 11.3707 171.005C12.1 171.35 13.231 171.129 14.2877 171.641C23.2006 175.957 29.5308 179.543 39.6997 181.808C42.674 182.47 45.8645 182.557 48.8658 183.079C55.402 184.217 59.8247 185.418 66.9888 185.833C68.5756 185.923 79.055 186.11 79.9024 186.043C80.1421 186.023 80.8511 185.485 81.5702 185.408C81.6175 185.404 81.6985 186.11 82.4041 185.833C82.6134 185.749 82.4109 185.224 82.6134 185.197C84.1158 185 86.3913 184.959 87.6135 184.772C87.7553 184.752 87.681 185.217 87.8228 185.197C88.022 185.167 87.8329 184.591 88.0321 184.561C93.785 183.675 94.7945 182.912 97.8228 182.233C98.3664 182.112 100.422 182.664 101.675 181.49C100.75 180.098 99.4839 181.674 99.5919 180.326L99.5885 180.319Z" fill="#9C2315"/>
<path d="M74.8011 179.048C74.9362 179.951 72.5054 179.208 71.1549 179.473C69.7437 179.75 69.1428 181.38 67.8227 181.591C66.9179 181.734 61.6242 181.51 60.3244 181.38C55.6788 180.915 42.7753 178.365 38.0353 177.144C29.308 174.899 19.0244 171.119 11.58 165.92C4.25726 160.808 1.99189 156.877 1.68466 147.707C2.59959 147.978 3.18703 150.969 4.80757 153.321C9.15262 159.607 20.0541 166.151 26.992 169.098C39.3891 174.364 61.3507 178.77 74.7977 179.051L74.8011 179.048Z" fill="#9C2315"/>
<path d="M37.934 134.997C43.0961 136.298 51.8166 138.102 57.3061 139.233C62.0462 140.206 66.7795 141.538 71.5736 142.197C78.8997 143.204 86.4116 143.103 93.758 143.89C93.8593 144.475 92.0598 144.522 91.2597 145.161C87.6675 144.81 83.5993 144.963 79.9058 144.525C74.0685 143.829 68.238 142.565 62.4074 141.772C57.0799 139.671 21.8974 133.318 20.4356 129.805L20.6449 129.062C23.3458 131.019 34.227 134.057 37.934 134.99V134.997Z" fill="#FA8235"/>
<path d="M26.2695 129.279C26.2931 129.022 26.0703 129.079 26.0602 129.069C23.9231 126.198 23.3964 123.947 22.728 123.14C23.5889 121.739 21.7286 120.273 20.8542 119.116C21.4518 118.952 24.227 118.012 24.6051 118.373C24.1662 124.991 28.3053 129.544 26.2729 129.279H26.2695Z" fill="#9C2315"/>
<path d="M20.8509 119.116C21.7253 120.27 23.5855 121.739 22.7246 123.14C20.9926 121.056 18.285 120.969 15.8508 121.658C15.7428 121.688 15.5672 121.642 15.4356 121.658C16.9616 120.782 17.1 120.136 20.8509 119.116Z" fill="#B6361B"/>
<path d="M22.728 123.137C23.3964 123.943 23.9231 126.195 26.0602 129.065C25.6584 129.363 25.0372 128.871 24.7064 128.641C22.1608 126.884 18.1196 123.736 15.8542 121.652C18.2884 120.962 20.996 121.049 22.728 123.134V123.137Z" fill="#DC5027"/>
<path d="M96.0504 91.1603C96.1989 92.5353 96.5197 95.9946 96.675 96.6671C96.837 97.3763 97.1679 97.9551 97.5089 98.574C95.6824 97.7678 94.4535 94.7267 93.758 92.8565C94.4265 92.0603 94.9059 90.354 96.0504 91.1637V91.1603Z" fill="#B6361B"/>
<path d="M89.1766 119.751C91.6007 119.915 94.0382 120.106 96.4656 120.176C96.9518 120.19 97.438 120.166 97.9241 120.176H100.422C100.395 121.514 102.08 125.777 102.506 127.376C103.312 130.424 104.126 133.455 105.004 136.482C105.689 138.838 106.206 139.497 106.253 139.661C106.783 141.481 107.019 143.481 107.711 145.275C107.522 145.96 105.338 145.241 103.336 144.957C103.302 144.709 103.39 144.368 103.336 144.214C103.181 143.782 98.3056 138.296 97.5021 137.225C93.4069 131.762 89.9632 125.787 85.6283 120.494C85.2603 119.022 87.2759 120.561 89.1699 119.751H89.1766Z" fill="#081212"/>
<path d="M89.1766 119.751C87.2826 120.561 85.2671 119.022 85.6351 120.494C89.97 125.783 93.4136 131.762 97.5089 137.225C98.3124 138.296 103.187 143.782 103.343 144.214C103.397 144.368 103.309 144.706 103.343 144.957C98.812 144.311 94.2509 143.515 89.6999 143.05C88.3292 142.909 86.685 143.2 85.3245 143.05C76.0368 142.019 66.6985 141.484 57.7247 138.604C57.7518 138.533 57.7349 138.312 57.7247 138.179C64.0718 134.405 71.2157 128.855 78.9706 130.765C79.3353 131.662 81.2495 132.371 82.0935 134.683C84.5784 141.477 78.4237 142.314 89.3826 140.825C85.8005 133.545 82.0598 126.734 80.0105 118.905C83.049 119.367 86.1145 119.547 89.1766 119.751Z" fill="#081212"/>
<path d="M77.7181 122.926C78.1739 125.017 78.6398 129.955 78.9672 130.762C71.2089 128.851 64.0685 134.398 57.7214 138.175C57.6842 137.72 54.5309 132.789 53.9705 131.611C53.8388 131.334 53.7038 130.892 53.5552 130.551C62.4581 132.377 64.9564 129.939 71.2596 126.74C75.6755 124.499 79.001 125.208 76.6749 120.598C76.7356 120.477 76.4926 119.919 77.0901 119.751C77.2286 120.089 77.5257 122.053 77.7147 122.93L77.7181 122.926Z" fill="#8FA098"/>
<path d="M74.8011 114.455C75.6283 115.884 76.658 117.677 76.6749 119.326C76.3508 118.751 76.5162 118.353 75.7363 118.055C67.7653 120.253 59.6728 122.143 51.5735 123.562C50.9388 123.933 51.8976 126.088 52.3027 127.373C52.0495 127.396 52.117 127.199 52.0934 127.162C51.3068 125.814 50.4357 122.291 50.0103 120.598C49.6153 119.032 49.2169 117.543 48.9705 115.937C48.7983 114.823 48.3729 112.876 48.3459 111.913C53.9975 105.138 61.7558 103.85 69.0719 108.949C71.2393 110.461 72.8194 113.151 74.8011 114.455Z" fill="#D3D0BD"/>
<path d="M76.6783 119.326C76.6918 119.353 76.9281 119.34 77.0935 119.751C76.4959 119.919 76.739 120.477 76.6783 120.598C76.2427 121.454 75.2299 122.401 74.5952 123.14C74.3318 123.02 74.2137 122.853 73.8659 122.93C73.2346 123.063 66.3744 126.279 61.7828 127.59C59.4837 128.246 53.849 129.136 53.4506 129.283C53.2649 129.35 53.3662 129.738 53.3459 129.919C52.9746 129.022 52.6066 128.329 52.3061 127.376C51.901 126.091 50.9421 123.933 51.5769 123.565C59.6761 122.147 67.7687 120.257 75.7397 118.059C76.5196 118.356 76.3508 118.754 76.6783 119.33V119.326Z" fill="#D3D0BD"/>
<path d="M74.5952 123.137C73.525 124.385 72.3129 125.472 71.263 126.737C64.9598 129.935 62.4614 132.374 53.5586 130.547C53.3797 130.139 53.3628 129.942 53.3493 129.912C53.3662 129.734 53.2683 129.343 53.454 129.276C53.8524 129.129 59.4871 128.236 61.7862 127.583C66.3777 126.272 73.2346 123.06 73.8693 122.923C74.2171 122.849 74.3352 123.017 74.5986 123.134L74.5952 123.137Z" fill="#D3D0BD"/>
<path d="M71.2596 126.74C72.3095 125.476 73.5216 124.388 74.5918 123.14C75.2265 122.404 76.2393 121.458 76.6749 120.598C79.001 125.208 75.6755 124.499 71.2596 126.74Z" fill="#B6BBAD"/>
<path d="M74.8011 114.455C72.8194 113.151 71.2393 110.461 69.0719 108.949C61.7592 103.85 53.9975 105.138 48.3459 111.913C48.2379 108.116 48.8557 104.947 52.9273 103.867C61.4824 101.595 70.5371 107.085 74.7978 114.455H74.8011Z" fill="#F7F6F3"/>
<path d="M67.7214 76.7577C68.4574 78.2365 68.2211 81.4314 68.5553 82.7931C69.1158 85.0848 70.5574 86.597 70.6384 86.8178C71.2461 88.4605 71.1853 90.4477 71.263 90.6284C72.0057 92.3915 74.9699 92.6491 72.3028 96.3459C70.7228 98.5372 64.1765 102.539 61.2629 103.017C52.2858 100.959 42.4006 103.606 34.8077 108.734C33.6058 109.547 32.2081 109.835 32.3094 110.324C37.1372 113.719 43.2108 115.108 48.9739 115.937C49.2203 117.543 49.6221 119.029 50.0137 120.598C49.146 120.788 50.4762 121.976 49.6997 122.291C44.3689 122.09 32.9745 118.922 30.017 114.245C29.3924 113.254 28.7611 112.287 28.9771 111.066C29.6355 108.781 30.5572 106.684 31.4755 104.502C35.2736 103.268 38.9266 101.608 42.8293 100.692C46.587 99.8052 60.4797 98.3867 61.9922 97.7276C62.2082 97.6339 61.9854 97.199 62.2015 97.092C66.9652 94.7099 65.0408 94.5995 65.2231 92.3279C65.5708 87.9519 65.2366 85.9446 65.0138 81.7392C64.9125 79.7821 65.5607 78.7617 64.8045 78.0324C64.8652 77.9521 64.8315 77.5908 65.2197 77.3967C66.0334 77.2361 66.8673 76.8848 67.718 76.7611L67.7214 76.7577Z" fill="#DC5027"/>
<path d="M31.4755 104.502C31.8468 103.619 32.1001 102.632 32.5153 101.749C34.2101 98.1559 35.672 95.9311 38.1399 92.8532C40.2365 94.0007 45.8678 90.8525 47.826 90.3105C48.3425 90.17 49.801 90.4577 50.1184 90.3105C50.2602 90.2436 50.2602 87.5806 51.8875 89.7819C49.9023 90.809 50.3513 92.5454 49.0751 92.4283C48.876 92.4082 47.0832 90.4678 46.6781 93.5925L47.198 94.3352C50.3007 93.2078 62.3601 91.535 63.5485 88.5106C64.2069 86.8345 63.0455 80.6586 63.1333 80.2505C63.2717 79.5881 64.3824 78.5911 64.8011 78.0257C65.554 78.755 64.9057 79.7754 65.0104 81.7326C65.2299 85.9379 65.5675 87.9452 65.2197 92.3212C65.0374 94.5962 66.9618 94.7032 62.1981 97.0853C61.982 97.1923 62.2048 97.6273 61.9888 97.7209C60.4763 98.38 46.5836 99.7985 42.826 100.685C38.9266 101.605 35.2702 103.265 31.4721 104.496L31.4755 104.502Z" fill="#EB602C"/>
<path d="M53.9739 131.611C54.5309 132.792 57.6842 137.72 57.7247 138.175C57.7349 138.309 57.7518 138.527 57.7247 138.6C57.7112 138.637 57.1576 138.379 57.3095 139.236C51.8199 138.105 43.0994 136.302 37.9374 135C37.8327 134.181 35.3783 133.93 34.2911 133.308C30.8374 131.32 28.2513 126.175 27.7314 122.294C28.464 122.167 28.8759 123.525 29.3992 124.094C34.3013 129.437 46.9077 132.635 53.9773 131.611H53.9739Z" fill="#B6361B"/>
<path d="M30.017 114.245C28.258 114.994 29.8887 114.756 28.7678 115.834C29.335 116.001 29.541 117.844 29.6017 117.951C33.0454 124.178 45.5167 126.77 52.0968 127.165C52.117 127.202 52.0495 127.399 52.3061 127.376C52.6066 128.329 52.9746 129.022 53.3459 129.919C53.3594 129.949 53.3763 130.146 53.5553 130.554C53.7038 130.895 53.8422 131.337 53.9705 131.615C46.8976 132.638 34.2912 129.44 29.3924 124.097C28.8691 123.529 28.4572 122.17 27.7246 122.297C27.0933 117.617 27.7246 115.409 28.9738 111.073C28.7577 112.291 29.389 113.261 30.0136 114.251L30.017 114.245Z" fill="#B6361B"/>
<path d="M65.2197 77.3934C64.8315 77.5874 64.8618 77.9487 64.8045 78.029C64.3858 78.5944 63.2785 79.5914 63.1367 80.2538C63.0522 80.6586 64.2103 86.8379 63.5519 88.514C62.3635 91.5384 50.3041 93.2111 47.2014 94.3386L46.6815 93.5959C47.0832 90.4678 48.876 92.4116 49.0785 92.4316C50.3547 92.5487 49.9057 90.8124 51.8908 89.7853C50.2602 87.5873 50.2635 90.2503 50.1217 90.3139C49.8078 90.4611 48.3459 90.1734 47.8294 90.3139C45.8712 90.8525 40.2399 94.004 38.1433 92.8565C40.807 89.5377 42.988 87.4568 46.4755 85.0212C47.4175 86.5769 50.8712 83.5291 54.0785 82.0571C57.4074 80.5282 61.8504 80.2137 60.8476 78.2465C62.2892 77.8484 63.7646 77.6878 65.2231 77.4001L65.2197 77.3934Z" fill="#EB602C"/>
<path d="M76.2596 90.5247C76.3339 94.2449 74.683 105.841 73.7613 109.481C73.6161 110.056 73.4709 110.896 72.9274 110.434C69.6559 106.406 66.3102 104.178 61.2629 103.02C64.1765 102.542 70.7228 98.5406 72.3028 96.3493C74.9666 92.6524 72.0057 92.3948 71.263 90.6317C71.1853 90.4511 71.2461 88.4638 70.6384 86.8211C70.5574 86.6037 69.1158 85.0881 68.5553 82.7964C68.2211 81.4348 68.4574 78.2398 67.7214 76.7611C68.1299 76.7008 68.6093 76.5904 68.9706 76.5503C69.7099 79.297 74.5108 90.2403 76.2596 90.528V90.5247Z" fill="#B6361B"/>
<path d="M61.2629 103.02C66.3102 104.178 69.6559 106.403 72.9274 110.434C76.084 114.325 78.0523 117.684 77.7181 122.93C77.5256 122.056 77.2319 120.093 77.0935 119.751C76.9281 119.343 76.6918 119.353 76.6783 119.326C76.6614 117.677 75.6316 115.884 74.8045 114.455C70.5438 107.085 61.4891 101.595 52.934 103.867C52.5796 103.388 51.5026 103.763 50.851 103.867C45.5978 104.71 40.9488 106.242 36.0602 108.313C35.6517 108.487 35.304 108.828 34.8111 108.738C42.4006 103.609 52.2892 100.963 61.2663 103.02H61.2629Z" fill="#84150E"/>
<path d="M76.2596 90.5247C74.5074 90.2369 69.7099 79.2936 68.9706 76.547C69.8079 76.4466 74.3622 75.9079 74.5952 76.4399C74.7674 81.1705 76.1651 85.7874 76.263 90.5247H76.2596Z" fill="#B6361B"/>
<path d="M46.4722 85.0179C51.04 81.8262 55.4729 79.7286 60.8443 78.2398C61.847 80.2103 57.4006 80.5215 54.0752 82.0504C50.8679 83.5224 47.4141 86.5702 46.4722 85.0145V85.0179Z" fill="#EB602C"/>
<path d="M52.9307 103.867C48.8591 104.947 48.2412 108.119 48.3493 111.913C48.3763 112.876 48.8017 114.823 48.9739 115.937C43.2108 115.111 37.1372 113.719 32.3094 110.324C32.2115 109.835 33.6058 109.547 34.8077 108.734C35.304 108.828 35.6483 108.484 36.0569 108.31C40.2567 108.072 44.514 106.506 48.6599 106.617C49.6592 104.747 51.3473 104.352 50.8476 103.863C51.4992 103.76 52.5762 103.385 52.9307 103.863V103.867Z" fill="#EB602C"/>
<path d="M30.017 114.245C32.9778 118.922 44.3722 122.09 49.6997 122.291C50.4762 121.973 49.1427 120.788 50.0137 120.598C50.4391 122.291 51.3101 125.817 52.0968 127.162C45.5167 126.767 33.0454 124.174 29.6017 117.948C29.541 117.841 29.335 115.998 28.7678 115.83C29.8887 114.753 28.258 114.991 30.017 114.241L30.017 114.245Z" fill="#C74520"/>
<path d="M36.0569 108.313C40.9455 106.239 45.591 104.706 50.8476 103.867C51.3473 104.355 49.6592 104.75 48.6599 106.62C44.514 106.513 40.2601 108.075 36.0569 108.313Z" fill="#FA8235"/>
<path d="M113.545 140.082C113.302 140.056 112.931 140.879 112.921 140.929C110.769 140.434 108.616 139.94 106.462 139.447C107.3 138.507 112.131 132.528 112.296 132.033C112.435 132.033 112.657 131.973 112.711 132.14C112.84 132.518 113.363 138.741 113.545 140.082Z" fill="#84150E"/>
<path d="M120.838 11.3188C124.565 11.5697 127.063 13.296 127.398 13.2257C127.607 13.1822 126.841 11.6567 131.044 13.5436L130.004 14.9186C127.755 13.6138 128.751 13.6841 128.65 13.6473C128.576 13.6205 127.148 13.935 127.296 14.39C138.269 20.6763 142.749 26.0626 143.961 39.1671H144.795C144.366 35.3833 144.163 31.4188 142.712 27.8357C143.62 28.2339 144.622 32.3556 144.795 33.4496C146.159 42.0276 143.228 49.4513 150.21 56.216C147.587 55.567 143.255 55.8848 140.419 55.7911C139.501 54.754 138.424 53.8507 137.712 52.6129C136.871 51.3516 141.317 51.0438 142.502 50.4952C143.032 50.2509 143.39 50.8732 142.918 48.0596C142.354 44.6906 138.741 40.9001 143.647 43.0814C144.768 42.787 144.558 36.397 139.065 39.4816C135.696 41.3718 133.967 48.993 136.044 50.281C136.064 50.5888 136.189 50.8163 136.253 51.1275C135.943 51.3483 135.777 51.3315 135.419 51.3382C133.194 51.375 128.289 51.9873 127.087 54.3024C126.662 55.122 126.273 57.6981 127.192 58.3271C127.583 58.5947 135.153 59.9463 136.462 60.234C138.522 60.6857 140.409 61.144 142.502 61.5054C143.424 61.6659 145.277 62.4889 145.419 61.7161C145.666 61.9603 146.138 62.054 146.044 62.5625C144.16 62.586 139.663 63.0778 138.336 62.9874C135.142 62.7633 130.858 60.8229 128.13 60.234C127.32 60.0601 126.476 59.6988 125.632 59.5984C123.775 54.0515 123.37 47.5745 120.007 42.6565C121.246 43.4595 118.559 39.495 117.404 38.6318C111.83 34.4733 106.756 40.5187 107.404 40.7496C111.412 36.0022 116.945 38.1735 120.007 42.6565C116.145 39.6924 111.662 37.4241 107.509 41.1744C107.202 41.3083 107.013 40.9503 106.989 40.9637C105.693 41.6629 101.786 49.3309 100.429 51.0237C100.368 51.7865 101.469 50.7528 102.722 50.4952C108.555 49.2874 115.156 51.5189 118.967 56.2127C119.886 57.3435 120.686 58.9761 121.466 60.2374C121.371 60.4649 121.841 60.1169 121.256 60.873C111.584 54.6737 94.9396 54.5633 84.2846 57.9089C80.2198 59.1835 76.4554 61.7362 72.3062 62.78C70.9321 63.1246 69.7268 63.0945 68.3494 63.2049C74.6728 60.6154 76.4622 54.841 80.2232 49.6521C80.7498 48.9227 81.1719 48.0261 81.6816 47.3236C82.7856 45.8013 85.787 42.0945 87.0969 40.5455C91.6952 35.1123 96.9991 29.91 102.718 25.7214C104.653 24.3062 109.42 21.1848 111.466 20.2146C116.678 17.7422 120.456 17.7556 121.047 17.2504C122.354 17.4478 119.042 14.1959 118.859 14.0722C118.809 14.0353 118.448 14.1926 117.921 13.8614C117.83 13.5636 115.112 10.2415 116.152 10.2616C118.583 11.8139 121.012 13.3674 123.441 14.9219C122.965 12.6804 119.356 11.6132 120.838 11.3221V11.3188Z" fill="#EB602C"/>
<path d="M121.253 60.8764C119.17 63.5763 115.551 64.8676 116.567 65.7475C120.102 65.7576 119.477 67.1593 121.047 68.7117C111.581 67.7314 101.989 65.0583 92.4042 64.0513C88.1503 63.6064 76.0199 62.9239 72.3028 63.2049V62.78C76.452 61.7362 80.2164 59.1835 84.2812 57.9089C94.9363 54.5667 111.584 54.6737 121.253 60.873V60.8764Z" fill="#E9DFCC"/>
<path d="M72.3028 63.2049C76.0199 62.9239 88.1503 63.6064 92.4042 64.0513C101.989 65.055 111.581 67.7314 121.047 68.7117C123.87 71.5019 126.516 73.9474 130.419 75.0649C129.676 76.8848 133.907 76.664 135.625 76.9718C134.693 77.283 133.468 77.5573 132.708 78.4539C132.438 78.4305 132.144 78.4405 131.874 78.4539C122.09 74.7437 111.655 73.6096 101.462 71.6758C96.9923 70.8294 92.3704 70.5183 87.9241 69.5581C81.6546 68.2031 75.635 65.7074 69.3858 64.2621C68.714 63.5261 70.6755 63.3253 72.3028 63.2016V63.2049Z" fill="#8FA098"/>
<path d="M112.296 10.8939C112.975 11.6132 113.778 11.8674 114.795 12.376C113.802 12.7339 113.042 11.6767 110.314 11.9511C110.122 11.9711 106.861 12.8912 106.564 13.0116C103.076 14.4234 107.435 13.2793 110.105 13.4365C113.988 13.664 117.809 15.0825 121.04 17.2471C120.446 17.7523 116.668 17.7422 111.459 20.2112C108.079 18.6321 103.194 19.3046 101.044 15.765C103.586 13.5737 105.385 12.58 108.542 11.4225C107.151 10.9876 106.03 10.0976 104.791 9.4118C107.384 9.32147 109.805 10.4288 112.289 10.8939H112.296Z" fill="#B6361B"/>
<path d="M138.542 20.2146C139.447 21.0911 141.456 23.8646 142.293 25.0857C142.786 25.805 143.9 28.3041 144.271 28.264C145.07 26.8522 145.869 25.4403 146.668 24.0285C146.351 24.8615 144.41 28.3275 144.376 28.5818C144.322 29.0134 145.976 34.4231 146.25 37.0527C147.182 45.982 144.292 49.826 152.914 56.748C151.608 58.8523 150.5 61.2009 148.539 62.7834C148.421 62.7298 147.553 62.3685 147.499 62.3585C148.019 61.4318 148.748 60.6824 149.373 59.8159C150.088 58.8256 150.737 57.7383 151.456 56.7446C151.506 56.2896 150.568 56.3064 150.207 56.216C143.225 49.4513 146.155 42.0276 144.791 33.4496C144.619 32.3589 143.616 28.2339 142.708 27.8357C140.899 23.3728 136.965 19.502 133.127 16.8222C133.819 16.4375 138.002 19.686 138.542 20.2112V20.2146Z" fill="#84150E"/>
<path d="M120.838 11.108V11.3188C119.356 11.6098 122.965 12.6771 123.441 14.9186C121.01 13.3662 118.58 11.8128 116.152 10.2582C115.115 10.2382 117.83 13.5603 117.921 13.858C117.1 13.3395 115.676 12.8142 114.798 12.376C113.778 11.8674 112.975 11.6132 112.3 10.8939C112.681 10.9641 114.44 11.4325 114.592 11.2117C110.655 4.91538 111.213 7.06657 115.321 8.98692C115.966 9.28802 120.547 11.1147 120.841 11.1046L120.838 11.108Z" fill="#9C2315"/>
<path d="M147.499 62.3585C147.553 62.3685 148.424 62.7298 148.539 62.7834C148.566 62.7967 148.583 62.9506 148.954 63.2082C148.157 63.8907 147.526 62.412 144.893 62.9975C143.37 63.5829 147.533 64.8944 150.203 64.058C151.587 65.9416 149.653 70.438 148.329 72.2111C145.764 75.6503 143.762 74.359 143.019 74.6467C142.573 74.8206 141.371 79.4074 135.521 79.9427C135.764 80.9597 136.304 82.1006 136.459 83.1209L136.044 83.3317C135.926 82.5288 135.635 80.9765 135.21 80.3676C134.575 79.4576 134.335 79.762 132.712 79.307C132.08 79.1297 131.473 79.026 130.838 78.8821C130.922 78.7383 131.824 78.4606 131.878 78.4573C132.148 78.4439 132.441 78.4338 132.712 78.4573C132.762 78.4606 133.589 78.8788 133.65 78.8821C141.608 79.1197 142.06 73.4925 142.816 73.3754C143.35 73.2917 145.882 76.7142 150.21 67.5508C150.305 66.5973 149.926 67.2764 148.961 68.0794C147.404 69.1432 144.342 70.729 142.502 70.4079C142.158 70.3476 139.619 68.7652 139.379 68.5009C138.235 67.2497 138.056 65.8847 138.13 64.2654C138.15 63.8037 138.198 63.429 138.34 62.9941C139.666 63.0878 144.163 62.5927 146.047 62.5692C146.898 62.5592 146.51 62.1778 147.506 62.3585H147.499Z" fill="#100E0D"/>
<path d="M148.957 63.2049C149.356 63.4792 149.903 63.6365 150.207 64.0513C147.536 64.8877 143.373 63.5796 144.896 62.9908C147.529 62.4053 148.161 63.884 148.957 63.2016V63.2049Z" fill="#3F4D5F"/>
<path d="M120.004 42.6632C123.363 47.5812 123.768 54.0582 125.629 59.6051C125.443 59.5817 122.641 60.0835 121.878 59.8159C121.219 59.585 120.855 57.6847 120.628 57.0625C119.359 53.5898 118.583 46.5441 115.838 44.3561C117.026 43.8843 114.474 40.967 113.025 40.5455C111.067 39.9734 109.298 40.405 107.506 41.1811C111.658 37.4308 116.138 39.6991 120.004 42.6632Z" fill="#B6361B"/>
<path d="M128.127 60.2407C127.337 60.6623 127.03 61.5288 126.459 62.1477C123.1 65.7943 120.102 65.5869 120.001 66.0653C122.931 69.0295 124.71 70.6421 128.542 72.3115C133.812 74.6099 138.708 76.0585 142.499 70.4045C144.339 70.7257 147.401 69.1399 148.957 68.076C147.84 69.0061 147.252 69.6484 145.835 70.4045C143.606 70.1804 143.431 70.8896 142.918 71.4651C142.087 72.3985 141.783 74.0344 139.795 75.0649C136.992 76.5168 133.35 75.9013 130.423 75.0649C126.516 73.9475 123.87 71.5019 121.05 68.7117C119.481 67.1593 120.105 65.7576 116.57 65.7475C115.558 64.8676 119.173 63.5763 121.256 60.8764C121.837 60.1236 121.371 60.4682 121.466 60.2407C121.476 60.214 121.837 60.1638 121.881 59.8159C122.641 60.0835 125.443 59.5817 125.632 59.6051C126.476 59.7055 127.32 60.0668 128.13 60.2407H128.127Z" fill="#081212"/>
<path d="M115.838 44.3561C110.747 40.3013 105.639 46.8552 102.715 50.4985C101.462 50.7561 100.362 51.7899 100.422 51.0271C101.78 49.3342 105.689 41.6662 106.982 40.967C107.006 40.9536 107.195 41.3116 107.502 41.1778C109.295 40.4016 111.064 39.9701 113.022 40.5421C114.47 40.967 117.023 43.881 115.834 44.3527L115.838 44.3561Z" fill="#DC5027"/>
<path d="M111.462 20.2146C109.413 21.1848 104.649 24.3028 102.715 25.7214L102.3 25.5106C102.489 24.8114 102.043 22.4193 101.884 21.4859C101.58 19.6994 101.219 17.9864 100.217 16.404C100.503 16.2233 100.794 15.9892 101.05 15.7683C103.201 19.3079 108.086 18.6355 111.466 20.2146L111.462 20.2146Z" fill="#9C2315"/>
<path d="M142.499 50.4985C141.547 39.1872 135.541 43.2387 136.04 50.2877C133.964 48.9963 135.693 41.3785 139.062 39.4883C144.555 36.4037 144.764 42.797 143.643 43.0881C138.738 40.9035 142.35 44.694 142.914 48.0663C143.387 50.8799 143.026 50.2576 142.499 50.5018V50.4985Z" fill="#B6361B"/>
<path d="M150.207 56.216C150.568 56.3064 151.506 56.2896 151.456 56.7446C150.737 57.7383 150.088 58.8222 149.373 59.8159C148.748 60.0802 147.516 61.9403 146.976 61.9336C146.412 61.9269 141.186 56.6643 140.416 55.7912C143.252 55.8815 147.583 55.5637 150.207 56.216Z" fill="#E9DFCC"/>
<path d="M130.001 14.9186C130.801 15.3836 131.739 15.8988 132.499 16.4007C132.701 16.5345 132.924 16.685 133.123 16.8255C136.962 19.5053 140.895 23.3728 142.705 27.8391C144.157 31.4188 144.359 35.3833 144.788 39.1705H143.954C142.742 26.066 138.265 20.6796 127.29 14.3933C127.141 13.9417 128.569 13.6272 128.643 13.6506C128.745 13.6841 127.749 13.6172 129.997 14.9219L130.001 14.9186Z" fill="#FA8235"/>
<path d="M114.795 12.376C115.676 12.8142 117.097 13.3395 117.917 13.858C118.444 14.1892 118.802 14.0353 118.856 14.0688C119.038 14.1926 122.35 17.4445 121.044 17.2471C117.813 15.0792 113.991 13.664 110.109 13.4365C107.438 13.2793 103.083 14.4234 106.567 13.0116C106.861 12.8912 110.122 11.9711 110.318 11.9511C113.046 11.6734 113.802 12.7339 114.798 12.376L114.795 12.376Z" fill="#EB602C"/>
<path d="M138.333 62.9941C138.191 63.429 138.147 63.8037 138.123 64.2654C134.373 63.3287 130.524 62.7532 126.668 62.5726C126.645 62.3618 126.449 62.3384 126.459 62.1477C127.026 61.5321 127.337 60.6623 128.127 60.2407C130.855 60.8296 135.142 62.77 138.333 62.9941Z" fill="#F7F6F3"/>
<path d="M135.419 51.3449C134.444 53.8407 138.88 58.5211 140.73 60.0266C141.567 60.7091 142.725 60.8429 142.499 61.5087C140.406 61.1474 138.518 60.689 136.459 60.2374C136.013 59.6151 136.986 59.7623 136.354 59.1769C135.325 58.2267 128.735 56.1692 127.084 54.3057C128.286 51.9906 133.191 51.3784 135.416 51.3416L135.419 51.3449Z" fill="#FA8235"/>
<path d="M137.084 53.0378C138.822 56.1926 142.843 59.1769 145.416 61.7195C145.274 62.4889 143.424 61.6659 142.499 61.5087C142.725 60.8429 141.567 60.7058 140.73 60.0266C138.876 58.5211 134.44 53.8407 135.419 51.3449C135.777 51.3382 135.943 51.355 136.253 51.1342C136.446 52.0809 136.655 52.2616 137.087 53.0411L137.084 53.0378Z" fill="#FEA344"/>
<path d="M136.459 60.2407C135.152 59.953 127.583 58.6048 127.188 58.3338C126.27 57.7048 126.658 55.1321 127.084 54.3091C128.735 56.1726 135.321 58.2301 136.354 59.1802C136.986 59.7623 136.013 59.6185 136.459 60.2407Z" fill="#FA8235"/>
<path d="M137.708 52.6162C138.421 53.8507 139.498 54.7574 140.416 55.7945C141.189 56.6643 146.415 61.9302 146.976 61.9369C147.512 61.9436 148.745 60.0835 149.373 59.8192C148.748 60.6824 148.019 61.4318 147.499 62.3618C146.503 62.1845 146.891 62.5625 146.04 62.5726C146.135 62.0641 145.662 61.9704 145.416 61.7262C142.843 59.1835 138.822 56.196 137.084 53.0445L137.708 52.6196V52.6162Z" fill="#6B1D0E"/>
<path d="M120.004 42.6632C116.942 38.1802 111.408 36.0089 107.401 40.7563C106.753 40.5254 111.824 34.48 117.401 38.6385C118.556 39.5017 121.243 43.4662 120.004 42.6632Z" fill="#B6361B"/>
<path d="M131.878 78.4539C131.82 78.4539 130.922 78.7316 130.838 78.8788C122.607 77.0187 114.146 75.5266 105.841 74.0077C104.251 73.7166 102.644 73.4423 101.05 73.1613C102.117 72.713 101.371 72.7163 101.466 71.6792C111.658 73.6096 122.094 74.747 131.878 78.4573V78.4539Z" fill="#2E3537"/>
<path d="M132.708 78.4539C133.464 77.5573 134.693 77.283 135.625 76.9718C136.756 76.5938 139.39 76.3696 139.791 75.0649C141.783 74.0344 142.084 72.3951 142.914 71.4651C144.055 71.4383 144.866 70.9197 145.831 70.4045C147.249 69.6484 147.84 69.0061 148.954 68.076C149.92 67.2731 150.298 66.5939 150.203 67.5474C145.875 76.7109 143.34 73.2884 142.81 73.372C142.053 73.4891 141.601 79.1163 133.643 78.8788C133.583 78.8788 132.755 78.4606 132.705 78.4539L132.708 78.4539Z" fill="#D3D0BD"/>
<path d="M139.791 75.0649C139.39 76.3696 136.756 76.5904 135.625 76.9718C133.903 76.664 129.673 76.8848 130.419 75.0649C133.35 75.9013 136.989 76.5168 139.791 75.0649Z" fill="#8FA098"/>
<path d="M147.29 22.1182L143.539 20.2112C144.322 17.2036 145.092 14.2361 146.456 11.4225C146.108 10.7835 144.541 12.7841 143.333 13.0116C140.77 13.49 137.627 11.7671 132.502 16.4007C131.743 15.8988 130.804 15.3803 130.004 14.9186L131.044 13.5436C126.841 11.6567 127.607 13.1822 127.398 13.2257C127.063 13.2993 124.565 11.5697 120.838 11.3188V11.108C121.253 11.0946 125.206 8.736 126.148 8.35461C133.556 5.3503 141.905 3.39985 149.896 3.27272C152.816 7.77583 149.065 17.2069 147.293 22.1215L147.29 22.1182Z" fill="#081212"/>
<path d="M147.29 22.1182C147.07 22.7304 146.901 23.4062 146.665 24.0252C145.866 25.437 145.067 26.8488 144.268 28.2606C143.897 28.3008 142.783 25.8016 142.29 25.0824C142.573 23.423 143.117 21.8305 143.539 20.2112L147.29 22.1182Z" fill="#B6361B"/>
<path d="M143.542 20.2146C143.12 21.8338 142.577 23.4263 142.293 25.0857C141.456 23.8646 139.45 21.0911 138.542 20.2146C140.14 17.8147 141.737 15.4148 143.333 13.015C144.545 12.7875 146.108 10.7868 146.456 11.4258C145.092 14.2394 144.325 17.2069 143.539 20.2146H143.542Z" fill="#D3D0BD"/>
<path d="M143.333 13.0116C141.735 15.4115 140.138 17.8114 138.542 20.2112C138.002 19.6893 133.819 16.4375 133.127 16.8222C132.928 16.6817 132.705 16.5345 132.502 16.3973C137.627 11.7637 140.77 13.4867 143.333 13.0083V13.0116Z" fill="#DC5027"/>
<path d="M138.127 64.2621C138.053 65.8813 138.232 67.2497 139.376 68.4976C139.238 68.5645 138.775 68.8923 138.751 68.9224C139.369 67.3333 137.705 68.8555 134.065 68.7117C130.882 68.5845 128.545 67.0088 126.672 67.0188C125.669 64.8409 126.824 63.971 126.672 62.5726C130.527 62.7532 134.376 63.332 138.127 64.2654V64.2621Z" fill="#E9DFCC"/>
<path d="M142.499 70.4045C138.708 76.0552 133.812 74.6099 128.542 72.3115L128.437 71.8866C130.443 72.365 132.786 72.4286 134.791 71.8866C136.679 71.3747 137.624 70.4146 138.748 68.9224C138.772 68.8923 139.234 68.5645 139.373 68.4976C139.612 68.7585 142.151 70.3443 142.496 70.4045H142.499Z" fill="#B6BBAD"/>
<path d="M115.838 44.3561C118.583 46.5441 119.359 53.5898 120.628 57.0625C118.94 56.6309 120.26 52.449 118.13 54.8377L118.964 56.2127C115.149 51.5189 108.549 49.2874 102.718 50.4952C105.642 46.8519 110.75 40.2979 115.841 44.3527L115.838 44.3561Z" fill="#100E0D"/>
<path d="M120.628 57.0625C120.855 57.6847 121.219 59.585 121.878 59.8159C121.83 60.1604 121.473 60.2106 121.462 60.2407C120.682 58.9795 119.882 57.3468 118.964 56.216L118.13 54.841C120.26 52.4523 118.94 56.6342 120.628 57.0658V57.0625Z" fill="#290F07"/>
<path d="M115.942 48.8023C116.479 48.8224 116.422 51.3416 115.213 49.9666L115.942 48.8023Z" fill="#A9AAA8"/>
<path d="M114.484 46.4738C115.071 46.1627 116.115 48.0864 115.942 48.1666L114.484 46.4738Z" fill="#C2C1BC"/>
<path d="M117.401 52.4055C118.046 52.4389 118.572 54.8946 116.881 52.9341L117.401 52.4055Z" fill="#F7F6F3"/>
<path d="M107.61 48.3808C108.461 48.2603 106.101 50.2442 105.841 49.7558L107.61 48.3808Z" fill="#BB8E6C"/>
<path d="M126.668 62.5692C126.82 63.971 125.666 64.8375 126.668 67.0155C127.823 69.5313 132.799 70.3577 134.791 71.8866C132.786 72.4286 130.443 72.365 128.437 71.8866L128.542 72.3115C124.71 70.6387 122.931 69.0262 120.001 66.0653C120.098 65.5869 123.096 65.7943 126.459 62.1477C126.449 62.3351 126.645 62.3585 126.668 62.5726V62.5692Z" fill="#D3D0BD"/>
<path d="M145.831 70.4045C144.866 70.9197 144.055 71.435 142.914 71.4651C143.427 70.8896 143.603 70.1837 145.831 70.4045Z" fill="#7C9094"/>
<path d="M142.499 50.4985C141.314 51.0472 136.864 51.355 137.708 52.6162L137.084 53.0411C136.655 52.2616 136.442 52.0843 136.25 51.1342C136.186 50.823 136.064 50.5955 136.04 50.2877C135.537 43.2387 141.547 39.1905 142.499 50.4985Z" fill="#100E0D"/>
<path d="M139.271 48.5915C140.72 48.3875 140.196 51.2379 138.542 49.545L139.271 48.5915Z" fill="#EBEEFC"/>
<path d="M138.022 45.8381L138.961 46.3667C139.14 47.5879 136.415 47.2834 138.022 45.8381Z" fill="#EBEEFC"/>
<path d="M104.798 9.4118C106.034 10.0976 107.158 10.9909 108.549 11.4225C105.392 12.5767 103.593 13.5737 101.05 15.765C100.797 15.9825 100.503 16.22 100.217 16.4007C99.5919 15.4137 96.5129 12.5767 95.4258 11.7403C94.548 11.0678 94.4332 11.1381 94.386 11.1046C91.4589 9.10401 88.92 7.88958 85.4291 7.07995C85.0004 6.97959 83.3832 6.4075 83.2414 6.4443C80.7836 9.50213 78.6803 17.9363 78.5554 21.6933C75.1117 21.3922 74.2846 21.3353 72.5155 18.3043C73.0017 15.3635 77.1205 0.910758 79.7032 0.0910988C82.9916 -0.952713 100.952 7.27399 104.805 9.40845L104.798 9.4118Z" fill="#081212"/>
<path d="M102.715 25.7214C96.9923 29.91 91.6884 35.1123 87.0936 40.5455C86.8066 40.5455 85.814 39.9031 85.7397 39.9098C85.6688 39.9165 84.9598 40.773 84.5952 40.7563C85.0746 39.6322 85.4291 39.6623 85.4291 39.592C85.4291 39.5217 84.1293 38.6185 84.5952 38.4278C85.2401 39.0099 85.8916 39.5853 86.5736 40.1206C90.9727 35.4904 94.6459 31.6898 99.5919 27.625C100.227 27.1031 102.114 26.1998 102.3 25.5072L102.715 25.718L102.715 25.7214Z" fill="#6B1D0E"/>
<path d="M85.4258 7.0833C85.1455 7.54164 84.8721 7.87619 84.5919 8.35461C84.4568 8.5821 84.2644 8.74604 84.1766 8.99026C83.6735 10.3519 83.3697 11.1414 83.552 12.6971C83.6499 13.5502 85.446 16.6081 82.8228 12.8042C82.2117 16.7653 87.1476 20.5458 82.8228 18.311C81.5533 20.8134 90.868 24.1222 82.8228 21.7C82.2589 21.8271 82.6911 26.4373 86.8842 26.889C86.8234 27.2503 82.9038 27.3038 83.552 27.8424C83.3123 28.5049 83.8187 29.7996 84.1766 30.385C84.8923 31.5493 87.1712 33.0949 87.9275 34.7276C84.4703 35.1357 86.6276 36.0792 85.7397 36.3167C85.6081 36.3535 85.2603 35.7981 83.1367 36.7416C79.7134 32.5162 78.373 27.1666 78.5554 21.7067C78.6803 17.9496 80.7836 9.51551 83.2414 6.45768C83.3832 6.42088 85.0004 6.99297 85.4291 7.09333L85.4258 7.0833Z" fill="#D3D0BD"/>
<path d="M95.4224 11.7436C96.3914 14.8818 99.7067 18.6589 101.462 21.9108C100.952 22.8174 100.007 24.2861 99.3792 25.089C98.1132 21.2751 96.5433 18.7961 93.7546 15.9825C93.2043 15.4271 92.3873 13.9617 91.6716 13.8647V13.654L94.3792 11.1113C94.4298 11.1448 94.5446 11.0745 95.419 11.747L95.4224 11.7436Z" fill="#D3D0BD"/>
<path d="M94.3826 11.108L91.6749 13.6506C89.7303 11.9946 86.8809 8.91666 84.5919 8.35461C84.8721 7.87619 85.1455 7.54498 85.4258 7.0833C88.9166 7.89292 91.4555 9.10736 94.3826 11.108Z" fill="#F7F6F3"/>
<path d="M100.217 16.4007C101.219 17.9831 101.577 19.696 101.884 21.4825C101.631 21.4959 101.567 21.7268 101.469 21.9074C99.7135 18.6556 96.3981 14.8784 95.4292 11.7403C96.5163 12.5733 99.5953 15.4137 100.22 16.4007H100.217Z" fill="#F7F6F3"/>
<path d="M94.3826 26.1429C93.991 29.2609 93.2246 30.0438 91.9855 32.7069C94.0045 29.7126 97.5528 27.4175 98.3394 26.5644L99.5885 27.625C94.6425 31.6898 90.966 35.4904 86.5703 40.1206C85.8883 39.5853 85.2333 39.0099 84.5919 38.4278C84.1665 38.0397 83.525 37.2167 83.1334 36.7349C85.2569 35.7915 85.6047 36.3468 85.7364 36.31C86.6243 36.0725 84.4669 35.129 87.9241 34.7209C87.1678 33.0883 84.8923 31.5426 84.1732 30.3784C85.1084 29.9869 86.1314 29.7962 86.4656 28.6855C86.7863 28.8193 87.6033 28.8662 87.7148 29.2141C85.7532 31.5158 88.3664 30.7196 88.5487 31.3318C88.6196 31.5761 87.1847 30.9906 90.3177 35.6744C91.6378 31.6664 93.5419 27.625 93.13 23.2858C93.5149 22.5364 93.9201 26.6681 94.3792 26.1462L94.3826 26.1429Z" fill="#74817D"/>
<path d="M102.3 25.5072C102.114 26.1998 100.227 27.1031 99.5919 27.625L98.3428 26.5644C99.4332 25.3801 99.3286 25.1526 99.3826 25.0824C100.011 24.2828 100.956 22.8107 101.466 21.9041C101.567 21.7268 101.631 21.4926 101.881 21.4792C102.04 22.4126 102.485 24.8047 102.296 25.5039L102.3 25.5072Z" fill="#74817D"/>
<path d="M90.4258 14.4937C90.7735 14.8316 92.5966 16.8523 92.7181 17.0363C94.71 20.0239 94.8181 22.6836 94.3859 26.1429C93.9268 26.6681 93.5217 22.5364 93.1368 23.2824C93.5487 27.6216 91.6445 31.6631 90.3245 35.671C87.1914 30.9873 88.6263 31.5727 88.5554 31.3285C88.3765 30.7163 85.76 31.5125 87.7215 29.2108C87.6101 28.8628 86.7931 28.816 86.4723 28.6822C85.5439 28.2907 84.5007 28.187 83.5554 27.8357C82.9105 27.2971 86.8302 27.2436 86.8876 26.8823C82.6945 26.4306 82.2623 21.8204 82.8261 21.6933C90.8714 24.1155 81.5567 20.8067 82.8261 18.3043C87.1509 20.5391 82.2151 16.7586 82.8261 12.7975C85.4494 16.6014 83.6533 13.5436 83.5554 12.6904C83.3731 11.1348 83.6769 10.3486 84.18 8.98357C85.5709 11.4693 88.4946 12.6101 90.4291 14.4903L90.4258 14.4937Z" fill="#100E0D"/>
<path d="M91.6749 13.6473V13.858C90.9423 13.7577 90.6385 13.7744 90.4258 14.4937C88.4913 12.6168 85.5675 11.4727 84.1766 8.98692C84.2677 8.74269 84.4602 8.57876 84.5919 8.35126C86.8809 8.91331 89.7303 11.9912 91.6749 13.6473Z" fill="#556263"/>
<path d="M86.4656 28.6855C86.1314 29.7962 85.1084 29.9869 84.1732 30.3784C83.8153 29.7962 83.3056 28.5015 83.5486 27.8357C84.4939 28.187 85.5338 28.2941 86.4656 28.6822V28.6855Z" fill="#B6BBAD"/>
<path d="M93.758 15.9791C96.5467 18.7927 98.1166 21.2718 99.3826 25.0857C99.3252 25.156 99.4299 25.3835 98.3428 26.5678C97.5561 27.4209 94.0078 29.7159 91.9889 32.7102C93.2246 30.0438 93.9943 29.2643 94.386 26.1462C94.8215 22.6869 94.7134 20.0272 92.7182 17.0397C93.7377 17.304 92.7182 16.0828 93.758 15.9791Z" fill="#8FA098"/>
<path d="M91.6749 13.8614C92.3907 13.9584 93.2077 15.4238 93.758 15.9791C92.7182 16.0828 93.7344 17.3006 92.7182 17.0397C92.5966 16.859 90.7769 14.8383 90.4258 14.497C90.6419 13.7777 90.9457 13.761 91.6749 13.8614Z" fill="#74817D"/>
<path d="M138.751 68.9224C137.627 70.4146 136.682 71.3781 134.795 71.8866C132.799 70.3577 127.826 69.5313 126.672 67.0155C128.549 67.0054 130.882 68.5812 134.065 68.7083C137.705 68.8555 139.369 67.3333 138.751 68.9191V68.9224Z" fill="#D3D0BD"/>
<path d="M134.585 103.231C134.319 101.699 134.049 100.14 134.17 98.5707C134.275 97.189 134.751 96.0582 134.795 95.6065C134.943 94.081 135.335 92.9769 135.21 90.6284C135.139 89.2901 133.724 85.8242 135.625 89.4641C136.159 91.4279 136.506 86.4866 136.04 83.3217L136.456 83.1109C137.465 89.7384 135.912 90.1968 135.622 92.5353C135.183 96.0883 135.196 99.6982 134.582 103.231H134.585Z" fill="#6B1D0E"/>
<path d="M119.795 85.0179C120.372 85.3457 121.976 87.0085 122.607 86.9248C122.816 86.8981 125.959 84.6131 125.21 83.9607C126.189 83.673 127.256 83.0239 128.127 82.4786C128.194 82.4786 128.269 82.4853 128.336 82.4786C128.076 83.7265 128.252 85.4762 128.127 86.5033C128.073 86.955 128.309 87.4401 127.813 87.7746C122.094 81.2675 128.599 89.7318 129.167 92.5387C129.751 95.4292 129.123 99.5744 129.167 100.163C129.319 102.12 129.899 104.054 130.207 105.988C129.734 108.112 130.875 108.791 128.123 110.012C129.933 100.284 126.945 94.6966 124.271 85.871C123.373 85.8375 125.534 94.1178 125.416 94.8705C119.224 83.6997 122.563 88.0055 121.874 95.9311C121.753 97.3496 121.202 98.8685 120.936 100.274C120.676 96.7976 120.652 92.7361 118.437 89.8957L118.228 90.7421L117.914 90.4243L118.123 92.542C114.592 86.5602 114.136 85.0915 116.456 92.542L116.142 92.8599C115.811 92.1774 109.818 85.1149 109.582 85.5532C111.331 92.8398 108.603 87.8582 104.271 83.1176L103.231 90.1065C100.446 80.6954 102.387 80.6352 98.2313 90.7421C97.8487 87.6709 97.4672 84.5997 97.0868 81.5285C95.1051 87.3464 95.2941 82.2979 94.4839 82.2712C94.0787 82.579 94.2543 82.8567 93.9639 83.3317C93.0389 84.8272 92.2759 86.4297 91.4656 87.9921C91.3947 87.8583 90.9119 87.3665 90.6317 86.7208L91.2563 79.839C90.7431 80.478 89.4163 82.9671 89.3826 83.5458C89.207 83.5693 89.1867 83.4957 89.1732 83.3351C88.9302 80.1267 91.6952 70.2372 87.5054 78.6747C87.5831 77.0187 88.0861 75.2321 88.13 73.5928C94.6797 75.0816 101.371 76.3864 107.188 79.946C111.395 82.5188 113.066 85.7405 110.625 80.8995C110.534 80.2672 110.777 80.3408 111.354 80.3709C113.886 82.1541 116.955 83.4087 119.791 85.0313L119.795 85.0179Z" fill="#B6BBAD"/>
<path d="M97.5055 72.5223C96.6007 75.0716 99.8857 74.2285 101.358 74.64C106.547 76.0853 110.233 79.5078 112.607 80.3575C112.678 80.381 113.252 79.8958 114.065 80.1468C114.886 80.401 116.115 81.2809 116.773 81.4181C120.335 82.1675 124.396 82.134 128.022 82.0537C128.191 82.0504 128.103 82.4786 128.127 82.4786C127.256 83.0239 126.189 83.673 125.21 83.9607C121.999 84.9075 119.494 84.2484 119.795 85.0212C116.959 83.402 113.893 82.1441 111.358 80.3609C110.78 80.3341 110.537 80.2572 110.628 80.8895C113.069 85.7305 111.398 82.5087 107.192 79.936C101.375 76.3763 94.6831 75.0716 88.1334 73.5828C88.1334 73.4557 87.7587 72.636 87.9241 71.0402C91.1314 71.445 94.3218 71.9702 97.5055 72.5223Z" fill="#74817D"/>
<path d="M101.466 71.6758C101.371 72.7163 102.117 72.7096 101.05 73.1579C99.8688 72.9471 98.6905 72.7263 97.5089 72.5223C94.3252 71.9702 91.1348 71.4416 87.9275 71.0402V69.5581C92.3738 70.5183 96.9957 70.8294 101.466 71.6758Z" fill="#4A4D53"/>
<path d="M132.708 79.3003C134.332 79.7553 134.575 79.4475 135.207 80.3609C132.404 81.0869 135.578 84.5997 133.748 84.5963C130.534 78.8955 135.169 88.6512 132.394 84.1715C131.776 84.7369 131.537 92.0268 131.145 92.0067C130.828 91.99 128.762 86.7944 128.123 86.5C128.248 85.4762 128.073 83.7232 128.333 82.4753C128.481 82.4585 130.315 80.8058 130.625 80.5683C131.243 80.0999 131.945 79.5178 132.708 79.297V79.3003Z" fill="#B6BBAD"/>
<path d="M135.21 80.3575C135.632 80.9664 135.926 82.5188 136.044 83.3217C136.506 86.4866 136.162 91.4279 135.629 89.4641C135.483 87.7579 134.579 86.0583 133.755 84.593C135.581 84.5963 132.411 81.0835 135.213 80.3575H135.21Z" fill="#B6BBAD"/>
<path d="M130.625 108.102C130.163 109.899 130.51 112.635 129.791 112.973C129.774 112.906 129.811 112.826 129.791 112.763C129.656 112.331 128.954 111.679 128.751 111.28C128.66 111.103 128.802 110.11 128.127 110.22C128.14 110.153 128.113 110.076 128.127 110.009C130.878 108.791 129.737 108.109 130.21 105.984C130.345 106.838 130.348 107.992 130.625 108.102Z" fill="#A78A79"/>
<path d="M133.751 84.593C134.579 86.0583 135.483 87.7579 135.625 89.4641C133.724 85.8242 135.139 89.2901 135.21 90.6284C135.335 92.9769 134.94 94.081 134.795 95.6065C134.649 95.6065 134.471 95.6735 134.379 95.4995C133.461 93.7799 131.159 85.8409 132.712 94.2282C132.88 95.1348 133.755 98.4837 134.17 98.5707C134.052 100.14 134.322 101.699 134.585 103.231C134.511 103.666 134.39 104.332 134.17 104.713C133.154 98.206 132.175 100.524 133.961 105.774C133.026 105.499 133.407 104.676 132.502 105.349C133.63 100.675 130.912 107.001 130.629 108.102C130.352 107.992 130.348 106.838 130.213 105.984C129.903 104.051 129.322 102.12 129.173 100.16C129.13 99.571 129.757 95.4259 129.173 92.5353C128.606 89.7284 122.1 81.2608 127.82 87.7713C128.316 87.4367 128.076 86.9516 128.134 86.5C128.768 86.7944 130.838 91.99 131.155 92.0067C131.547 92.0268 131.787 84.7335 132.404 84.1715C135.18 88.6478 130.544 78.8955 133.758 84.5963L133.751 84.593Z" fill="#D3D0BD"/>
<path d="M134.167 104.713L133.957 105.774C132.171 100.528 133.15 98.206 134.167 104.713Z" fill="#84150E"/>
<path d="M134.791 95.6065C134.747 96.0582 134.271 97.189 134.167 98.5707C133.751 98.4837 132.877 95.1348 132.708 94.2282C131.155 85.8409 133.458 93.7765 134.376 95.4995C134.467 95.6735 134.646 95.6032 134.791 95.6065Z" fill="#BDB4A0"/>
<path d="M131.564 96.453C132.695 98.099 131.574 98.7514 131.459 96.56L131.564 96.453Z" fill="#BDB4A0"/>
<path d="M131.148 95.3958C131.844 96.1452 131.304 96.6872 131.044 95.5028L131.148 95.3958Z" fill="#D3D0BD"/>
<path d="M130.834 78.8755C131.469 79.0193 132.077 79.123 132.708 79.3003C131.945 79.5211 131.243 80.1033 130.625 80.5716C130.983 79.7152 127.276 80.5616 123.856 80.3609C122.229 80.2639 121.682 79.7386 121.564 79.7252C121.358 79.7018 118.903 79.8022 117.398 79.5145C116.574 79.3572 114.275 78.2766 113.441 78.0324C112.806 77.8484 113.022 78.6546 112.401 78.4573C111.523 78.1762 105.075 75.2656 105.841 74.011C114.146 75.5299 122.604 77.022 130.838 78.8821L130.834 78.8755Z" fill="#556263"/>
<path d="M99.1733 107.256C97.5224 111.321 97.438 115.857 97.9241 120.173C97.438 120.163 96.9518 120.186 96.4656 120.173C95.9153 119.189 95.8073 118.085 95.6317 116.995C94.2644 108.554 96.8168 105.185 98.3394 99.842C98.3563 99.7785 98.3191 99.6948 98.3394 99.6312C99.2712 101.311 98.5116 105.121 98.5487 107.574L99.1733 107.256Z" fill="#E9DFCC"/>
<path d="M100.841 89.4641C100.453 91.6755 99.943 93.8568 99.3826 96.0281C99.072 97.2358 98.6871 98.4302 98.3428 99.6279C98.3225 99.6915 98.3596 99.7751 98.3428 99.8387C97.9579 99.5008 97.7519 99.0056 97.5089 98.5674C97.1679 97.9484 96.837 97.3697 96.675 96.6604C97.4346 95.6567 98.1605 94.5995 98.758 93.4821C100.216 90.7522 100.858 87.7445 100.841 89.4574V89.4641Z" fill="#9C2315"/>
<path d="M92.9241 90.5247C92.0328 90.615 91.5365 88.1192 91.4656 87.982C92.2793 86.423 93.0423 84.8205 93.9639 83.3217C93.7783 85.4695 92.8633 88.4939 92.9241 90.5213V90.5247Z" fill="#84150E"/>
<path d="M96.0504 89.6782C96.1112 90.16 95.9997 90.6786 96.0504 91.1603C94.9059 90.354 94.4265 92.0603 93.758 92.8532C93.6635 92.5989 93.3427 92.532 93.1334 91.5818C94.0022 90.2414 94.8699 88.8998 95.7364 87.5572C95.9052 87.6609 96.0065 89.3403 96.0504 89.6749V89.6782Z" fill="#9C2315"/>
<path d="M90.6317 86.7141C90.1996 85.7104 89.3083 84.7569 89.3826 83.5358C89.4163 82.957 90.7465 80.4679 91.2563 79.8289L90.6317 86.7107V86.7141Z" fill="#54150A"/>
<path d="M101.047 73.1579C102.641 73.4389 104.248 73.7133 105.838 74.0043C105.071 75.2589 111.523 78.1695 112.398 78.4506C113.019 78.6513 112.806 77.8417 113.437 78.0257C114.271 78.2699 116.57 79.3505 117.394 79.5078C118.9 79.7955 121.354 79.6985 121.56 79.7185C121.678 79.7319 122.225 80.2572 123.853 80.3542C127.273 80.5583 130.983 79.7085 130.622 80.5649C130.311 80.7991 128.478 82.4518 128.329 82.4719C128.262 82.4786 128.191 82.4719 128.12 82.4719C128.1 82.4719 128.184 82.0437 128.015 82.047C124.393 82.1273 120.328 82.1608 116.766 81.4114C116.108 81.2742 114.879 80.3943 114.059 80.1401C113.245 79.8892 112.671 80.3776 112.6 80.3508C110.227 79.5011 106.543 76.0786 101.351 74.6333C99.8755 74.2218 96.5939 75.0649 97.4987 72.5156C98.6804 72.7196 99.8586 72.9404 101.04 73.1512L101.047 73.1579Z" fill="#667371"/>
<path d="M125.21 83.9607C125.959 84.6131 122.816 86.8981 122.607 86.9248C121.976 87.0085 120.372 85.3491 119.795 85.0179C119.494 84.2484 121.999 84.9041 125.21 83.9573V83.9607Z" fill="#8FA098"/>
<path d="M112.506 129.069C112.36 130.082 112.688 130.869 112.296 132.033C112.131 132.528 107.3 138.503 106.462 139.447C106.452 139.457 106.229 139.4 106.253 139.657C106.206 139.493 105.689 138.838 105.004 136.479C105.915 136.004 107.762 133.756 108.336 132.879C108.366 132.829 108.302 132.715 108.336 132.669C109.725 131.469 111.113 130.269 112.502 129.069H112.506Z" fill="#667371"/>
<path d="M122.921 115.516C122.894 115.556 122.961 115.673 122.506 116.362C119.619 120.745 116.533 124.837 112.924 128.647H112.715C112.718 128.627 112.374 128.634 112.506 128.329C112.715 127.858 120.389 120.712 117.296 121.658C119.872 118.276 120.919 115.158 121.672 110.963C122.533 112.11 121.817 115.058 122.921 115.516Z" fill="#B6BBAD"/>
<path d="M112.711 128.644C112.657 128.845 112.529 128.881 112.502 129.069C111.113 130.269 109.725 131.469 108.336 132.669C108.454 132.491 108.728 131.243 110.419 128.962C112.246 126.499 114.724 124.499 116.668 122.08C116.712 122.026 117.259 121.702 117.293 121.655C120.385 120.708 112.711 127.854 112.502 128.326C112.367 128.63 112.715 128.624 112.711 128.644Z" fill="#8FA098"/>
<path d="M123.961 115.091C123.971 115.145 123.333 115.566 124.17 115.937C123.235 116.7 122.87 118.346 122.502 116.362C122.958 115.67 122.894 115.556 122.917 115.516C123.157 115.145 123.545 114.857 123.751 114.455C123.748 114.489 123.819 114.231 123.961 115.091Z" fill="#9B684D"/>
<path d="M113.545 119.537C112.077 125.241 108.079 131.665 107.921 132.351C107.84 132.702 107.894 132.963 108.336 132.879C107.762 133.756 105.915 136.004 105.004 136.479C104.123 133.451 103.312 130.42 102.506 127.373C104.916 125.616 106.992 122.107 109.17 120.809C109.18 121.019 109.17 121.233 109.17 121.444C109.163 122.277 108.738 123.097 109.065 123.351C109.237 123.485 111.844 120.407 112.087 120.173C114.383 117.948 113.799 118.547 113.545 119.537Z" fill="#74817D"/>
<path d="M103.339 105.56C103.39 105.74 103.491 105.804 103.549 105.984C104.386 108.721 105.237 110.427 107.09 112.763C107.445 113.207 107.603 114.92 107.924 112.655C108.211 110.621 107.867 108.353 108.339 106.302C108.686 107.609 109.033 108.915 109.379 110.22C109.616 112.602 110.487 115.924 110.213 119.116C110.112 120.28 110.173 121.705 109.173 121.444C109.173 121.233 109.183 121.019 109.173 120.809C109.143 120.106 109.264 118.875 109.173 118.584C109.032 118.119 104.248 114.425 102.924 111.277C102.634 110.588 102.397 108.734 101.884 107.888C101.891 107.871 101.543 107.875 101.675 107.57C101.729 107.45 103.059 105.918 103.343 105.56H103.339Z" fill="#8FA098"/>
<path d="M103.339 105.56C103.059 105.918 101.726 107.45 101.672 107.57C101.537 107.875 101.888 107.871 101.881 107.888C100.21 111.926 99.3185 115.794 99.1733 120.173H97.9241C97.438 115.857 97.5224 111.321 99.1733 107.256C99.8012 105.713 101.692 103.134 102.61 101.538C102.735 102.907 102.968 104.238 103.339 105.563V105.56Z" fill="#B6BBAD"/>
<path d="M112.087 120.173C111.847 120.407 109.241 123.485 109.065 123.351C108.738 123.097 109.163 122.281 109.17 121.444C110.173 121.705 110.112 120.28 110.21 119.116C111.131 117.657 111.294 113.95 111.459 111.702C111.496 111.217 111.506 106.453 111.773 106.406C113.866 111.715 114.349 114.823 112.087 120.173Z" fill="#8FA098"/>
<path d="M107.09 112.763C105.237 110.431 104.386 108.721 103.549 105.984C105.203 105.416 103.42 99.9156 103.964 97.4065C106.614 102.154 106.364 107.547 107.087 112.759L107.09 112.763Z" fill="#B6BBAD"/>
<path d="M114.795 120.387C113.94 122.645 114.322 122.558 115.834 121.023L116.668 122.083C114.724 124.502 112.246 126.503 110.419 128.965C108.728 131.247 108.454 132.495 108.336 132.672C108.302 132.722 108.366 132.836 108.336 132.883C107.894 132.966 107.84 132.702 107.921 132.354C108.079 131.668 112.077 125.245 113.545 119.541L114.795 120.387Z" fill="#D3D0BD"/>
<path d="M98.758 93.4888C98.1604 94.6029 97.4346 95.6601 96.675 96.6671C96.5197 95.9946 96.1989 92.5387 96.0504 91.1603C95.9997 90.6786 96.1112 90.16 96.0504 89.6782C97.4413 90.5681 98.022 92.0837 98.758 93.4888Z" fill="#BEA98F"/>
<path d="M115.838 121.019C114.322 122.555 113.944 122.642 114.798 120.384C116.493 115.904 119.518 113.522 115.838 121.019Z" fill="#B6BBAD"/>
<path d="M128.127 110.009C128.113 110.076 128.14 110.153 128.127 110.22C127.539 113.154 126.189 114.288 124.17 115.937C123.333 115.566 123.971 115.145 123.961 115.091C127.475 115.131 126.986 108.353 126.044 109.056C125.696 110.976 123.93 112.846 123.751 114.455C123.545 114.857 123.157 115.141 122.917 115.516C121.81 115.058 122.529 112.11 121.668 110.963C120.919 115.155 119.869 118.276 117.293 121.658C117.259 121.705 116.712 122.026 116.668 122.083L115.834 121.023C119.511 113.529 116.486 115.907 114.795 120.387L113.545 119.541C113.802 118.55 114.383 117.951 112.087 120.176C114.349 114.83 113.869 111.719 111.773 106.409C111.51 106.456 111.496 111.217 111.459 111.705C111.054 110.668 110.321 110.936 110.21 110.752C109.923 110.277 109.46 102.375 108.647 100.692C108.221 103.957 109.501 107.283 109.585 108.209C109.744 109.979 109.366 110.12 109.376 110.22C109.029 108.913 108.683 107.607 108.336 106.302C107.863 108.353 108.208 110.621 107.921 112.655C107.6 114.917 107.441 113.207 107.087 112.763C106.361 107.547 106.614 102.157 103.964 97.4098C103.42 99.9156 105.2 105.419 103.549 105.988C103.495 105.807 103.39 105.744 103.339 105.563C102.968 104.238 102.735 102.91 102.61 101.538C101.692 103.134 99.8012 105.713 99.1733 107.256L98.5487 107.574C98.5116 105.121 99.2712 101.311 98.3394 99.6312C98.6838 98.4335 99.0686 97.2392 99.3792 96.0314L102.502 99.5242C101.946 96.1719 101.39 92.8186 100.834 89.4641C100.851 87.7512 100.21 90.7588 98.7513 93.4888C98.0153 92.0837 97.4346 90.5681 96.0436 89.6782C96.0031 89.3437 95.8984 87.6642 95.7296 87.5605C94.8609 88.9009 93.9932 90.2425 93.1267 91.5852C93.0389 91.1804 92.9308 90.9863 92.9173 90.5247C92.8566 88.4973 93.7749 85.4729 93.9572 83.325C94.2509 82.85 94.072 82.5723 94.4771 82.2645C95.2874 82.2913 95.1017 87.3397 97.0801 81.5218C97.4627 84.593 97.8442 87.6642 98.2246 90.7354C102.381 80.6285 100.439 80.6921 103.225 90.0998L104.264 83.1109C108.596 87.8516 111.324 92.8331 109.575 85.5465C109.815 85.1082 115.807 92.1707 116.135 92.8532L116.449 92.5353C114.129 85.0848 114.582 86.5535 118.117 92.5353L117.907 90.4176L118.221 90.7354L118.431 89.889C120.649 92.7294 120.669 96.7909 120.929 100.267C121.196 98.8618 121.743 97.3429 121.868 95.9244C122.556 88.0021 119.217 83.6964 125.409 94.8638C125.527 94.1111 123.366 85.8275 124.265 85.8643C126.938 94.6899 129.93 100.28 128.117 110.006L128.127 110.009Z" fill="#D3D0BD"/>
<path d="M124.69 96.0314C127.09 101.776 125.477 107.169 123.022 112.552C122.421 108.567 121.371 104.646 121.668 100.585H122.084C122.776 107.42 123.387 106.486 124.376 99.9491C124.548 98.8116 124.437 97.2124 124.69 96.0314Z" fill="#B6BBAD"/>
<path d="M116.148 99.842C119.261 104.8 119.352 112.18 119.795 105.877C120.443 104.288 119.967 109.4 119.795 110.324C119.514 111.839 118.721 113.345 118.441 114.877C117.911 109.812 117.61 104.743 116.148 99.842Z" fill="#B6BBAD"/>
<path d="M111.462 111.702C111.294 113.95 111.135 117.654 110.213 119.116C110.487 115.924 109.616 112.605 109.379 110.22C109.369 110.12 109.747 109.979 109.589 108.209C109.504 107.279 108.228 103.957 108.65 100.692C109.46 102.375 109.923 110.277 110.213 110.752C110.325 110.936 111.057 110.665 111.462 111.705V111.702Z" fill="#D3D0BD"/>
<path d="M99.3826 96.0314C99.943 93.8602 100.453 91.6789 100.841 89.4675C101.397 92.8197 101.953 96.1731 102.509 99.5275L99.386 96.0348L99.3826 96.0314Z" fill="#B6BBAD"/>
<path d="M110.733 89.2533C111.253 90.489 111.774 91.7246 112.296 92.9602C112.803 98.9554 114.703 102.709 111.982 97.9384C110.304 101.107 111.557 93.4152 110.733 89.2567V89.2533Z" fill="#B6BBAD"/>
<path d="M123.961 115.091C123.822 114.231 123.748 114.489 123.751 114.455C123.93 112.846 125.696 110.976 126.044 109.056C126.989 108.353 127.475 115.131 123.961 115.091Z" fill="#BDB4A0"/>
<path d="M112.401 100.267C113.025 100.806 117.03 108.811 116.358 108.949C115.487 105.827 112.867 103.512 112.401 100.267Z" fill="#B6BBAD"/>
<path d="M102.924 111.28C104.248 114.429 109.032 118.122 109.173 118.587C109.264 118.878 109.143 120.109 109.173 120.812C106.992 122.11 104.919 125.619 102.509 127.376C102.083 125.777 100.399 121.511 100.426 120.176C100.443 119.347 102.056 115.516 102.3 114.352C102.451 113.626 101.932 111.334 102.924 111.28Z" fill="url(#paint3_linear_1301_1113)"/>
<path d="M102.924 111.28C101.932 111.334 102.451 113.626 102.3 114.352C102.056 115.513 100.443 119.347 100.426 120.176H99.1767C99.3218 115.797 100.213 111.933 101.884 107.891C102.401 108.738 102.637 110.591 102.924 111.28Z" fill="#4A4D53"/>
</g>
<defs>
<linearGradient id="paint0_linear_1301_1113" x1="1.25507" y1="37.8004" x2="38.2691" y2="173.956" gradientUnits="userSpaceOnUse">
<stop stop-color="#C73D1F"/>
<stop offset="1" stop-color="#A12815"/>
</linearGradient>
<linearGradient id="paint1_linear_1301_1113" x1="113.424" y1="36.0494" x2="81.5736" y2="168.58" gradientUnits="userSpaceOnUse">
<stop stop-color="#C03C1F"/>
<stop offset="1" stop-color="#DA5126"/>
</linearGradient>
<linearGradient id="paint2_linear_1301_1113" x1="69.6854" y1="18.2155" x2="122.563" y2="70.1704" gradientUnits="userSpaceOnUse">
<stop stop-color="#9EADA2"/>
<stop offset="1" stop-color="#667B76"/>
</linearGradient>
<linearGradient id="paint3_linear_1301_1113" x1="30.4536" y1="74.4785" x2="57.6776" y2="134.998" gradientUnits="userSpaceOnUse">
<stop stop-color="#4C555A"/>
<stop offset="1" stop-color="#5F6A69"/>
</linearGradient>
</defs>
</svg>
