<svg width="17" height="17" viewBox="0 0 17 17" fill="none" xmlns="http://www.w3.org/2000/svg">
<mask id="mask0_931_113931" style="mask-type:alpha" maskUnits="userSpaceOnUse" x="0" y="0" width="17" height="17">
<rect width="17" height="17" fill="#D9D9D9"/>
</mask>
<g mask="url(#mask0_931_113931)">
<path d="M8.50016 8.49996C8.88975 8.49996 9.22325 8.36124 9.50068 8.08381C9.77811 7.80638 9.91683 7.47288 9.91683 7.08329C9.91683 6.69371 9.77811 6.3602 9.50068 6.08277C9.22325 5.80534 8.88975 5.66663 8.50016 5.66663C8.11058 5.66663 7.77707 5.80534 7.49964 6.08277C7.22221 6.3602 7.0835 6.69371 7.0835 7.08329C7.0835 7.47288 7.22221 7.80638 7.49964 8.08381C7.77707 8.36124 8.11058 8.49996 8.50016 8.49996ZM8.50016 13.7062C9.94044 12.384 11.0088 11.1828 11.7054 10.1026C12.4019 9.02236 12.7502 8.06315 12.7502 7.22496C12.7502 5.93815 12.3399 4.88451 11.5194 4.06402C10.6989 3.24354 9.69252 2.83329 8.50016 2.83329C7.3078 2.83329 6.30138 3.24354 5.48089 4.06402C4.66041 4.88451 4.25016 5.93815 4.25016 7.22496C4.25016 8.06315 4.59843 9.02236 5.29495 10.1026C5.99148 11.1828 7.05988 12.384 8.50016 13.7062ZM8.50016 15.5833C6.59947 13.9659 5.17985 12.4637 4.24131 11.0765C3.30277 9.68937 2.8335 8.40552 2.8335 7.22496C2.8335 5.45413 3.40311 4.04336 4.54235 2.99267C5.68159 1.94197 7.00086 1.41663 8.50016 1.41663C9.99947 1.41663 11.3187 1.94197 12.458 2.99267C13.5972 4.04336 14.1668 5.45413 14.1668 7.22496C14.1668 8.40552 13.6976 9.68937 12.759 11.0765C11.8205 12.4637 10.4009 13.9659 8.50016 15.5833Z" fill="black"/>
</g>
</svg>
