<svg width="23" height="17" viewBox="0 0 23 17" fill="none" xmlns="http://www.w3.org/2000/svg">
<path d="M11.644 0.5C8.34326 0.5 5.24365 0.75 3.59326 1.09961C2.49365 1.34961 1.54248 2.09961 1.34326 3.25C1.14404 4.44922 0.942871 6.25 0.942871 8.5C0.942871 10.75 1.14209 12.5 1.39209 13.75C1.59326 14.8496 2.54248 15.6504 3.64209 15.9004C5.39404 16.25 8.39209 16.5 11.6929 16.5C14.9937 16.5 17.9917 16.25 19.7417 15.9004C20.8433 15.6504 21.7925 14.9004 21.9917 13.75C22.1929 12.5 22.4429 10.7012 22.4917 8.45117C22.4917 6.20117 22.2417 4.40039 21.9917 3.15039C21.7925 2.05078 20.8433 1.25 19.7417 1C17.9917 0.75 14.9429 0.5 11.644 0.5ZM11.644 1.5C15.2437 1.5 18.1421 1.79883 19.5425 2.04883C20.2925 2.25 20.8921 2.75 20.9917 3.40039C21.2925 5 21.4917 6.70117 21.4917 8.45117C21.4429 10.5996 21.1929 12.3496 20.9917 13.5996C20.8433 14.5488 19.8433 14.8496 19.5425 14.9512C17.7417 15.3008 14.7417 15.5488 11.7417 15.5488C8.7417 15.5488 5.69287 15.3496 3.94287 14.9512C3.19287 14.75 2.59326 14.25 2.49365 13.5996C2.09326 12.1992 1.94287 10.3496 1.94287 8.5C1.94287 6.19922 2.14404 4.5 2.34326 3.45117C2.49365 2.5 3.54248 2.19922 3.79248 2.09961C5.44287 1.75 8.49365 1.5 11.644 1.5ZM8.94287 4.5V12.5L15.9429 8.5L8.94287 4.5ZM9.94287 6.20117L13.9429 8.5L9.94287 10.7988V6.20117Z" fill="black"/>
</svg>
