<svg width="17" height="17" viewBox="0 0 17 17" fill="none" xmlns="http://www.w3.org/2000/svg">
<path d="M5.64742 0.5C3.06503 0.5 0.942871 2.61932 0.942871 5.20455V11.7955C0.942871 14.3778 3.06219 16.5 5.64742 16.5H12.2383C14.8207 16.5 16.9429 14.3807 16.9429 11.7955V5.20455C16.9429 2.62216 14.8236 0.5 12.2383 0.5H5.64742ZM5.64742 1.95455H12.2383C14.0366 1.95455 15.4883 3.40625 15.4883 5.20455V11.7955C15.4883 13.5938 14.0366 15.0455 12.2383 15.0455H5.64742C3.84912 15.0455 2.39742 13.5938 2.39742 11.7955V5.20455C2.39742 3.40625 3.84912 1.95455 5.64742 1.95455ZM13.2383 3.54545C12.8718 3.54545 12.5792 3.83807 12.5792 4.20455C12.5792 4.57102 12.8718 4.86364 13.2383 4.86364C13.6048 4.86364 13.8974 4.57102 13.8974 4.20455C13.8974 3.83807 13.6048 3.54545 13.2383 3.54545ZM8.94287 4.13636C6.5423 4.13636 4.57923 6.09943 4.57923 8.5C4.57923 10.9006 6.5423 12.8636 8.94287 12.8636C11.3434 12.8636 13.3065 10.9006 13.3065 8.5C13.3065 6.09943 11.3434 4.13636 8.94287 4.13636ZM8.94287 5.59091C10.5593 5.59091 11.852 6.88352 11.852 8.5C11.852 10.1165 10.5593 11.4091 8.94287 11.4091C7.32639 11.4091 6.03378 10.1165 6.03378 8.5C6.03378 6.88352 7.32639 5.59091 8.94287 5.59091Z" fill="black"/>
</svg>
