<svg width="53" height="53" viewBox="0 0 53 53" fill="none" xmlns="http://www.w3.org/2000/svg">
<path d="M15.9479 0.929688C7.67901 0.929688 0.883789 7.71581 0.883789 15.9938V37.0981C0.883789 45.367 7.66991 52.1622 15.9479 52.1622H37.0522C45.3211 52.1622 52.1163 45.376 52.1163 37.0981V15.9938C52.1163 7.72491 45.3302 0.929688 37.0522 0.929688H15.9479ZM15.9479 5.58719H37.0522C42.8104 5.58719 47.4588 10.2356 47.4588 15.9938V37.0981C47.4588 42.8563 42.8104 47.5047 37.0522 47.5047H15.9479C10.1897 47.5047 5.54129 42.8563 5.54129 37.0981V15.9938C5.54129 10.2356 10.1897 5.58719 15.9479 5.58719ZM40.2542 10.6813C39.0807 10.6813 38.1438 11.6183 38.1438 12.7918C38.1438 13.9652 39.0807 14.9022 40.2542 14.9022C41.4277 14.9022 42.3646 13.9652 42.3646 12.7918C42.3646 11.6183 41.4277 10.6813 40.2542 10.6813ZM26.5 12.5734C18.8133 12.5734 12.5275 18.8592 12.5275 26.5459C12.5275 34.2326 18.8133 40.5184 26.5 40.5184C34.1867 40.5184 40.4725 34.2326 40.4725 26.5459C40.4725 18.8592 34.1867 12.5734 26.5 12.5734ZM26.5 17.2309C31.676 17.2309 35.815 21.3699 35.815 26.5459C35.815 31.7219 31.676 35.8609 26.5 35.8609C21.324 35.8609 17.185 31.7219 17.185 26.5459C17.185 21.3699 21.324 17.2309 26.5 17.2309Z" fill="white"/>
</svg>
