<svg width="199" height="227" viewBox="0 0 199 227" fill="none" xmlns="http://www.w3.org/2000/svg">
<path d="M108.101 179.956C107.535 181.058 107.038 180.513 106.959 180.534C106.118 180.785 105.51 181.122 104.675 180.534C104.553 181.32 104.5 181.556 104.104 182.267C103.781 184.258 106.198 184.702 107.668 184.001C109.032 183.348 109.375 180.598 109.524 180.25C109.36 179.608 108.44 181.128 108.096 179.962L108.101 179.956Z" fill="#723F32"/>
<path d="M103.824 180.534C101.212 183.589 98.9699 187.222 96.4055 190.346C96.4425 190.384 96.9554 191.165 96.9765 191.213C98.4306 188.864 103.126 184.028 104.109 182.267C104.506 181.556 104.559 181.326 104.68 180.534C104.696 180.443 104.68 180.341 104.68 180.245C104.426 180.181 103.935 180.4 103.824 180.534Z" fill="#2D2019"/>
<path d="M43.0663 181.69C44.0656 182.829 52.1976 190.844 52.7634 191.213C52.8321 191.256 52.9749 191.17 53.0489 191.213C55.5551 192.69 54.5875 192.112 55.8988 190.635C53.9742 188.361 43.7695 177.201 43.3465 176.35C43.2619 176.179 43.2725 175.596 43.632 175.628C40.2587 174.007 37.4246 171.278 34.506 168.988C36.8906 173.584 39.6559 177.8 43.061 181.69H43.0663Z" fill="#392127"/>
<path d="M43.6373 175.628C43.2778 175.596 43.2672 176.179 43.3518 176.35C43.7748 177.206 53.9795 188.361 55.9041 190.635C56.0468 190.469 56.3429 190.223 56.4751 190.057C57.4321 188.87 58.1988 186.804 59.6105 186.018C60.3825 185.59 61.3183 185.221 61.8947 186.307C62.7988 184.391 62.0903 183.953 63.3223 182.845C66.1933 180.25 65.8549 182.968 66.4577 188.618C66.4683 188.736 67.1451 189.763 67.0287 190.929C67.8694 191.673 68.0281 192.374 67.8853 190.64C67.6791 188.185 66.2726 186.981 67.0287 181.406C67.034 181.363 66.6851 181.508 67.0287 180.539C58.8333 179.689 51.4732 179.4 43.6426 175.633L43.6373 175.628Z" fill="#1B161E"/>
<path d="M61.8947 204.781C62.2066 205.386 62.3811 206.434 62.7512 207.092C64.2317 209.73 64.3533 209.767 66.1722 211.998C70.9626 216.225 69.3129 214.625 73.8706 212.576L70.4497 211.565C70.1113 210.672 79.47 205.386 82.7164 206.803C81.7224 202.625 83.959 204.952 83.2875 207.67C83.3139 207.691 83.1976 208.066 83.8585 207.959C84.0806 203.936 81.8652 201.785 78.0107 200.453C72.3479 198.5 65.5324 199.666 61.8947 204.781Z" fill="#392127"/>
<path d="M73.8706 212.571C75.2824 211.934 77.7463 210.522 79.1474 210.26C83.6417 209.425 83.6047 212.437 83.8532 207.948C83.1923 208.055 83.3086 207.681 83.2822 207.659C82.801 207.247 83.0178 208.087 82.7112 206.793C79.4647 205.375 70.106 210.661 70.4444 211.554L73.8653 212.565L73.8706 212.571Z" fill="#392127"/>
<path d="M82.7164 206.798C83.0231 208.093 82.8063 207.253 83.2875 207.665C83.959 204.947 81.7224 202.62 82.7164 206.798Z" fill="#C2AA99"/>
<path d="M118.655 177.939C118.539 191.614 110.38 209.248 95.126 210.265C91.3931 210.516 83.8638 208.943 85.1434 205.648C93.5926 208.494 100.635 198.751 96.9818 191.218C96.9607 191.17 96.4478 190.389 96.4108 190.352C96.3685 190.303 95.8873 190.822 95.126 190.063C94.2324 189.175 93.3282 188.329 92.4188 187.468C90.2668 188.217 86.719 188.763 85.2861 186.746C85.265 185.488 90.9648 185.82 91.2767 185.734C92.4664 185.413 96.5271 181.855 101.545 179.961C97.3096 180.513 93.1432 181.781 88.8498 181.984C83.8427 182.219 78.8514 181.438 73.8759 181.117C73.601 182.385 75.0286 182.198 75.3035 183.139C75.404 183.487 75.6419 189.586 75.589 190.357H76.4456C76.4033 189.442 76.6624 189.169 76.7311 188.623C76.8739 187.446 76.6677 184.279 78.3015 184.295C80.4587 185.087 81.0562 188.356 81.0086 190.357C85.6668 190.64 79.7344 200.608 77.8732 195.263C73.2203 194 63.3276 193.433 59.6211 196.708C59.177 197.098 58.093 198.596 58.1935 199.302C60.2609 200.533 60.5517 202.101 61.6145 204.208C61.7096 204.396 61.8048 204.599 61.9 204.786C65.5377 199.672 72.3531 198.505 78.0159 200.458C81.8705 201.785 84.0859 203.941 83.8638 207.964C83.6153 212.448 83.6523 209.441 79.158 210.276C77.7569 210.538 75.2929 211.95 73.8812 212.587C69.3235 214.641 70.9679 216.236 66.1828 212.009C78.3332 226.883 99.5938 230.836 115.525 219.515C127.707 210.859 133.105 194.428 134.062 179.978C133.74 179.817 133.269 179.009 132.92 178.822C132.74 178.726 132.529 178.635 132.349 178.533C131.741 178.196 130.456 177.431 130.351 177.377C129.415 176.923 129.542 176.821 129.494 176.8C126.226 175.366 126.597 177.115 124.788 177.377C122.938 177.645 120.49 177.95 118.655 177.955V177.939Z" fill="#1B161E"/>
<path d="M127.21 184.868C124.048 204.187 114.293 219.168 92.8418 217.193C90.05 216.937 80.9452 214.529 79.581 211.998C70.381 214.213 87.7395 220.794 90.2774 221.233C114.52 225.417 129.15 204.102 131.207 182.128C132.254 179.624 127.633 184.327 127.215 184.868H127.21Z" fill="#392127"/>
<path d="M79.5757 211.993C80.9399 214.524 90.0448 216.931 92.8365 217.188C114.287 219.162 124.043 204.187 127.205 184.862C122.24 191.282 115.789 216.145 91.1234 214.01C87.3799 213.689 83.1183 211.137 79.5704 211.988L79.5757 211.993Z" fill="#553E40"/>
<path d="M92.4135 187.462C91.7156 186.799 90.6898 186.403 91.2714 185.729C90.9648 185.815 85.265 185.483 85.2808 186.74C86.7084 188.757 90.2563 188.211 92.4135 187.462Z" fill="#392127"/>
<path d="M59.0395 196.697C58.0085 196.906 58.1565 197.334 57.8974 198.141C57.797 198.457 57.4691 198.725 57.6119 199.586L58.1829 199.297C58.0825 198.591 59.1611 197.093 59.6105 196.702C59.4255 196.718 59.214 196.665 59.0395 196.702V196.697Z" fill="#EAB48C"/>
<path d="M91.1287 190.635C84.3661 189.833 85.9629 200.998 89.4156 201.892C95.7499 203.534 96.6752 191.293 91.1287 190.635Z" fill="#392127"/>
<path d="M90.5576 194.391L88.7018 194.824C87.9298 204.503 97.4312 199.185 90.5576 194.391Z" fill="#553E40"/>
<path d="M146.033 165.527C146.745 166.971 147.459 168.414 148.174 169.855L147.175 165.238C147.122 165.259 147.614 164.853 146.033 165.527Z" fill="#23462B"/>
<path d="M108.101 179.956C108.445 181.122 109.365 179.603 109.529 180.245C110.052 179.009 110.972 177.912 110.956 176.495C106.779 178.608 109.101 178.03 108.107 179.956L108.101 179.956Z" fill="#A3D5DE"/>
<path d="M104.675 179.384C104.21 179.999 104.686 179.94 104.675 180.25C104.675 180.347 104.691 180.448 104.675 180.539C105.505 181.128 106.113 180.791 106.959 180.539C108.302 176.462 104.939 179.33 104.675 179.384Z" fill="#99DFF5"/>
<path d="M103.538 179.384L103.824 180.539C103.935 180.411 104.426 180.186 104.68 180.25C104.691 179.94 104.215 179.999 104.68 179.384C104.501 179.421 104.606 179.095 103.538 179.384Z" fill="#216160"/>
<path d="M33.6547 43.1574C33.0837 47.7764 32.5126 52.3936 31.9416 57.009C32.0526 57.1267 33.8662 59.4594 33.9402 59.6038C34.2258 54.1217 34.5113 48.6377 34.7968 43.152C34.7386 43.152 34.1306 43.136 33.6547 43.152V43.1574Z" fill="#874F3C"/>
<path d="M22.53 48.9302C23.0482 49.4599 23.4025 49.8505 23.9576 50.3748C23.8625 47.104 23.7673 43.8333 23.6721 40.5625C23.5082 40.4555 23.2967 40.3218 23.1011 40.2736C23.2438 42.1729 22.2128 46.3568 22.53 48.9302Z" fill="#80583E"/>
<path d="M64.7446 0.730451C56.8717 0.933758 52.5783 1.88074 45.3504 4.76984C44.2665 8.58987 43.9017 12.3724 43.6373 16.3155C43.8964 16.6151 44.7477 17.728 44.7794 17.9045C44.9909 19.1672 42.4265 25.4162 41.3584 26.4167V26.7056C45.7152 23.8486 52.3298 21.7781 53.9107 28.7279C59.8696 18.9585 62.7089 7.56263 73.0194 1.16381C72.9823 0.452241 65.5588 0.709051 64.7499 0.730451H64.7446Z" fill="#CCD477"/>
<path d="M37.0809 9.09813C32.4333 12.3029 30.4929 15.0636 29.9483 15.4488C31.323 18.7017 30.6568 24.3622 31.0903 28.1501C31.3071 30.0655 31.8728 32.0986 32.5179 33.923C35.5 30.4988 37.8 28.9741 40.9301 26.1331C41.2421 25.8549 41.3373 26.4381 41.3584 26.422C42.4265 25.4215 44.9909 19.1725 44.7794 17.9099C44.7529 17.7387 43.8964 16.6205 43.6373 16.3209C42.1674 14.6302 39.4285 13.4692 37.3612 14.7319C38.4292 13.9454 38.3076 8.43471 37.0757 9.10348L37.0809 9.09813Z" fill="#A8BE53"/>
<path d="M21.9643 32.4784C21.9484 32.671 21.9696 32.8636 21.9643 33.0562C21.9326 34.1102 21.8744 35.512 21.9643 36.5178C22.0542 37.5343 22.9795 38.5883 23.1064 40.2683C23.302 40.3164 23.5135 40.4502 23.6774 40.5572C25.4223 41.67 25.1685 43.4356 33.66 43.152C34.1306 43.136 34.7439 43.152 34.8021 43.152C42.0511 42.5582 47.4231 38.1443 51.6319 32.4731C51.6636 31.8631 50.9603 32.7459 49.9187 33.6287C44.6895 38.0587 34.5007 42.7026 32.5179 37.0903C32.3223 37.5397 30.662 36.5927 32.8034 41.2741C31.968 43.0878 25.6602 43.0557 26.2418 40.9852C30.9317 38.5241 32.2007 34.2761 32.5179 33.9123C31.8729 32.0879 31.3124 30.0601 31.0903 28.1394C26.7652 29.0169 23.6034 33.2328 21.9643 32.4677V32.4784Z" fill="#6D882C"/>
<path d="M29.3772 15.7377C25.7501 20.5689 22.3926 26.2508 21.959 32.4784C23.5981 33.2381 26.7599 29.0275 31.085 28.1501C30.6515 24.3622 31.3177 18.7017 29.943 15.4488C29.8108 15.5451 29.5305 15.6521 29.3719 15.7377H29.3772Z" fill="#99AB42"/>
<path d="M37.0809 9.09813C38.3129 8.42936 38.4345 13.94 37.3665 14.7265C39.4338 13.4639 42.1727 14.6249 43.6426 16.3155C43.907 12.3724 44.2665 8.58987 45.3557 4.76984C41.6704 6.24114 40.3961 6.81895 37.0862 9.09813L37.0809 9.09813Z" fill="#CCD477"/>
<path d="M41.3584 26.7056C40.1793 27.4814 35.8331 32.045 34.7968 33.3451C39.952 34.153 45.0173 31.9059 49.7707 33.0562L49.9135 33.6341C50.9551 32.7513 51.6583 31.8685 51.6266 32.4784C52.1077 31.831 52.721 31.3923 52.7686 31.3228C52.959 31.0392 53.6728 29.1132 53.9107 28.7279C52.3351 21.7781 45.7205 23.8486 41.3584 26.7056Z" fill="#A8BE53"/>
<path d="M32.5179 33.923C32.2007 34.2868 30.9317 38.5295 26.2418 40.9959C25.6549 43.0664 31.968 43.0985 32.8034 41.2848C30.662 36.6034 32.3223 37.5504 32.5179 37.101C33.3428 35.2124 33.4644 35.0304 34.8021 33.3505C35.8331 32.0504 40.1794 27.4867 41.3637 26.7109V26.422C41.3637 26.422 41.2474 25.8549 40.9355 26.1331C37.8 28.9741 35.5 30.4989 32.5232 33.923L32.5179 33.923Z" fill="#56661C"/>
<path d="M34.7968 33.3451C33.4591 35.0251 33.3375 35.207 32.5126 37.0956C34.4954 42.708 44.679 38.064 49.9135 33.6341L49.7707 33.0562C45.0173 31.9059 39.952 34.153 34.7968 33.3451Z" fill="#99AB42"/>
<path d="M179.407 82.6952C180.168 86.7934 178.434 91.2876 175.986 94.5298C173.136 98.2963 168.737 100.897 164.005 100.303C163.592 100.945 163.037 101.71 162.577 102.325C166.352 102.362 168.356 102.603 171.989 101.458C172.338 101.346 175.256 100.121 175.41 100.014C175.991 99.6178 179.936 95.1183 180.544 94.2409C180.56 94.2141 180.544 94.0964 180.829 93.6631C182.77 88.5269 184.689 85.5576 182.257 80.1004L181.4 79.9559C182.653 82.2458 180.956 81.8338 179.402 82.6952H179.407Z" fill="#B55A2B"/>
<path d="M170.852 81.5396C169.779 87.2589 167.992 93.4865 165.147 98.5692C167.981 98.6601 174.527 94.6208 175.129 91.9296C175.679 89.4685 174.014 82.1013 170.852 81.5396Z" fill="#D1793A"/>
<path d="M172.274 67.9769C172.285 69.7478 172.142 73.4715 171.989 75.1943C176.658 74.8839 180.19 75.4671 182.257 80.1004C184.689 85.5576 182.77 88.5323 180.829 93.6631C182.331 91.3411 183.907 88.2754 184.536 85.5843C184.837 84.2896 185.487 78.4846 185.392 77.2166C184.123 77.4574 183.563 75.4404 181.829 74.044C176.594 69.8173 170.313 71.0265 175.695 68.8489C177.345 66.9496 173.686 67.7201 172.274 67.9822V67.9769Z" fill="#FAC287"/>
<path d="M171.418 79.2336C171.391 79.4209 171.449 79.6242 171.418 79.8115C179.164 82.1709 176.166 89.2866 175.695 92.5128C175.6 93.1602 175.621 93.9413 175.981 94.5352C178.429 91.293 180.168 86.8042 179.402 82.7006C178.656 78.6879 174.802 77.3504 171.418 79.239V79.2336Z" fill="#D1793A"/>
<path d="M171.989 75.1943C171.936 75.8149 171.561 78.2813 171.418 79.2336C174.802 77.345 178.656 78.6826 179.402 82.6952C180.956 81.8338 182.653 82.2404 181.4 79.9559L182.257 80.1004C180.19 75.4671 176.658 74.8839 171.989 75.1943Z" fill="#9D4C2F"/>
<path d="M165.147 98.5692C164.814 99.1631 164.375 99.7248 164.005 100.303C168.732 100.897 173.136 98.2963 175.986 94.5298C175.626 93.9413 175.605 93.1548 175.701 92.5074L175.129 91.9296C174.527 94.6208 167.981 98.6601 165.147 98.5692Z" fill="#E29150"/>
<path d="M171.418 79.8115C171.402 79.9024 170.921 81.1437 170.847 81.5449C174.009 82.1067 175.674 89.4739 175.124 91.935L175.695 92.5128C176.166 89.2866 179.158 82.1762 171.418 79.8115Z" fill="#FAC287"/>
<path d="M175.701 68.8436C170.318 71.0211 176.594 69.812 181.834 74.0386C183.568 75.435 184.129 77.452 185.398 77.2113C185.033 72.2945 181.03 66.6875 175.701 68.8436Z" fill="#E8E2D7"/>
<path d="M11.9817 68.5547C10.644 77.65 13.6737 74.8625 18.5434 81.684C22.9002 87.7939 25.3482 97.3065 25.676 104.775C26.1413 115.438 23.2914 111.913 22.8261 113.432C22.7468 113.689 23.7937 115.872 23.9682 116.46C24.9887 119.954 27.5319 125.539 27.9602 128.728C28.399 132.008 27.9972 142.344 28.5312 148.064C29.3349 156.672 30.588 161.418 34.5218 168.988C37.4405 171.278 40.2745 174.007 43.6479 175.628C51.4838 179.394 58.8438 179.683 67.034 180.534C69.3287 180.775 71.5812 180.962 73.8812 181.112C78.8619 181.433 83.8479 182.214 88.8551 181.979C93.1485 181.775 97.3096 180.513 101.55 179.956C102.216 179.705 102.867 179.566 103.549 179.378C104.617 179.089 104.511 179.416 104.691 179.378C104.95 179.325 108.313 176.452 106.975 180.534C107.054 180.513 107.546 181.058 108.117 179.956C109.111 178.025 106.79 178.603 110.967 176.495C112.114 175.917 113.193 175.066 113.817 175.628C113.843 172.915 114.393 169.962 114.388 166.682C114.388 165.051 114.896 164.746 114.388 162.643C105.109 160.642 95.5965 162.702 86.1532 162.643C85.5981 163.938 88.4691 163.488 91.2873 163.799C102.211 164.986 117.122 166.179 104.263 171.305C90.0976 176.955 53.7891 173.584 43.0821 161.348C36.4887 153.815 33.4855 130.981 33.0995 120.944C32.7506 111.843 34.5165 100.372 33.6706 94.8241C33.3956 93.0371 32.4333 91.3143 31.9575 89.629C25.3976 82.1245 18.8376 74.62 12.2778 67.1155C11.712 67.2278 12.0504 68.1748 11.9922 68.56L11.9817 68.5547Z" fill="#723F32"/>
<path d="M4.849 31.3228C6.75775 34.1423 12.8382 45.8164 13.404 46.4745C15.392 48.7697 20.1507 49.6311 24.2431 56.4312C30.1967 66.329 33.8504 83.6529 35.3678 95.1076C36.8959 106.616 37.2396 116.064 39.6453 128.445C45.4773 158.411 49.4534 164.644 81.8599 164.521L81.0033 163.221C79.9406 163.071 78.1534 163.028 78.4389 162.354C69.6672 161.503 56.988 158.074 52.1976 149.797C47.9465 142.457 47.0212 122.099 45.6359 112.421C44.8428 106.878 44.1449 101.319 43.0716 95.8246C42.3049 91.9029 34.7809 61.2677 33.9455 59.6038C33.8715 59.4594 32.0579 57.1267 31.9469 57.009C29.7738 54.6496 26.3158 52.6058 23.9629 50.3694C23.4078 49.8451 23.0535 49.4599 22.5353 48.9249C18.3583 44.634 14.6571 39.7279 11.1251 34.7843C9.71338 33.6287 7.13844 29.8782 6.70488 29.8782C6.58856 29.8782 5.67912 30.9055 4.849 31.3228Z" fill="#DA9D76"/>
<path d="M5.42006 42.5796C5.69501 43.0664 7.49802 46.2712 7.4187 46.4745C5.70911 46.7634 3.99774 47.0523 2.28462 47.3412C2.28462 48.0207 6.26076 47.9083 7.27594 48.3524C7.80467 48.5825 14.7364 55.725 15.4026 56.5756C18.6756 60.7541 20.2935 65.5051 21.6788 70.5717C22.4507 71.1495 28.9754 80.9243 29.6627 82.4063C28.0818 76.1519 26.2153 66.9924 23.3866 61.3373C22.1969 58.9511 16.7774 51.6695 14.8316 49.6471C12.9599 47.705 11.1569 47.063 10.9824 46.9079C9.50722 45.5864 7.25479 41.4667 5.42006 42.5796Z" fill="#874F3C"/>
<path d="M5.42006 42.5796C7.25479 41.4667 9.50722 45.5864 10.9824 46.9079C11.1569 47.0684 12.9599 47.705 14.8316 49.6471C16.7774 51.6695 22.1969 58.9511 23.3866 61.3373C24.8724 60.4224 21.5941 56.7736 24.2431 56.4312C20.1507 49.6258 15.392 48.7697 13.404 46.4745C12.8329 45.8164 6.75246 34.1423 4.849 31.3228C3.9713 31.7615 -0.0365448 33.4629 0.000473022 34.351C1.60783 37.01 3.93958 39.9419 5.42004 42.5742L5.42006 42.5796Z" fill="#A77152"/>
<path d="M12.2619 67.1101C18.8218 74.6147 25.3817 82.1192 31.9416 89.6237C31.2437 87.1466 30.7625 84.7711 29.6575 82.4063C28.9648 80.9243 22.4454 71.1495 21.6735 70.5717C21.2716 70.2721 12.7536 67.0138 12.2619 67.1101Z" fill="#A77152"/>
<path d="M33.6547 94.8187C34.5007 100.367 32.7347 111.838 33.0837 120.938C33.4697 130.975 36.4729 153.81 43.0663 161.343C53.7733 173.579 90.0818 176.949 104.247 171.3C117.1 166.174 102.19 164.986 91.2714 163.793C92.3501 165.955 84.9636 165.211 83.573 164.949C82.542 164.756 82.2987 165.527 82.4309 163.215C82.0397 163.13 81.4581 163.28 81.0033 163.215L81.8599 164.516C49.4534 164.639 45.4773 158.406 39.6453 128.439C37.2343 116.059 36.8906 106.611 35.3678 95.1023L33.6547 94.8134V94.8187Z" fill="#A77152"/>
<path d="M23.3866 61.3373C26.2153 66.9924 28.0818 76.1519 29.6627 82.4063C30.7625 84.7657 31.2489 87.1466 31.9469 89.6237C32.4227 91.309 33.385 93.0318 33.66 94.8187L35.3731 95.1076C33.8557 83.6529 30.202 66.329 24.2484 56.4312C21.5995 56.7736 24.8777 60.4224 23.3919 61.3373H23.3866Z" fill="#DA9D76"/>
<path d="M78.4389 162.354C78.1587 163.028 79.9458 163.071 81.0033 163.221C81.458 163.285 82.0344 163.135 82.4309 163.221C83.4144 163.435 83.7157 162.606 83.573 164.954C84.9689 165.216 92.3501 165.965 91.2714 163.799C88.4532 163.494 85.5822 163.943 86.1374 162.643C84.9054 162.638 83.6576 162.691 82.4309 162.643C81.072 162.589 79.7872 162.482 78.4389 162.354Z" fill="#A77152"/>
<path d="M82.4309 163.221C82.2987 165.527 82.5419 164.756 83.573 164.954C83.721 162.611 83.4144 163.435 82.4309 163.221Z" fill="#C08866"/>
<path d="M54.1909 49.508C55.2008 50.4176 54.1275 51.3432 54.1909 52.2473C54.2227 52.7288 54.9418 54.3981 55.0475 54.4142C55.7349 52.4988 56.5386 51.0168 58.1829 49.7969C63.8563 45.5917 68.2554 52.1189 67.0235 55.4253C66.9124 55.7303 66.151 55.8373 65.3103 56.7254L66.4524 58.17C71.3855 56.9234 64.9138 61.5138 70.1589 72.5994C70.6347 73.6052 71.3908 74.5736 71.3009 75.7721C72.6281 76.0503 73.9182 76.4943 75.2929 76.061C75.3405 75.7025 75.3458 74.9642 75.2929 74.6164C73.3577 73.8728 73.6115 72.7546 73.5798 71.1549C73.5798 71.1228 73.8283 71.3528 73.8653 70.577C74.0134 67.4044 74.2778 63.6218 74.7219 69.5659H75.2929C74.3676 66.1043 75.5203 61.2998 75.2929 58.3091C74.4417 47.0042 62.2331 38.8772 54.1857 49.508H54.1909Z" fill="#A03620"/>
<path d="M58.1882 49.797C59.1558 50.7653 60.483 50.4283 61.0381 50.6637C65.1834 52.3918 64.3956 54.8957 63.465 55.2809C63.0367 55.4574 58.9972 54.5158 57.6172 61.3426C56.8135 65.3125 57.5696 68.7419 58.1882 72.3105C62.3177 78.1529 68.5727 80.8548 75.589 80.6782C75.4886 80.2609 75.7635 79.6135 75.4463 79.2336C71.7451 77.864 69.5403 77.2701 75.1607 77.7891C75.4621 77.5751 75.2506 76.473 75.3035 76.0556C73.9288 76.489 72.6387 76.0449 71.3115 75.7667C61.5563 73.7176 59.5629 63.3971 63.6131 58.0148C64.6494 56.6345 65.2522 56.795 65.3262 56.7147C66.1669 55.832 66.923 55.7196 67.0393 55.4146C68.266 52.1082 63.8722 45.5864 58.1988 49.7863L58.1882 49.797Z" fill="#E29150"/>
<path d="M52.7686 51.2361C53.2868 50.225 53.9742 49.797 54.1962 49.5027C62.2384 38.8719 74.447 46.9988 75.3035 58.3037C75.5309 61.2891 74.3782 66.099 75.3035 69.5605H74.7325C74.2883 63.6111 74.024 67.399 73.8759 70.5717C76.1072 74.3008 74.8964 71.9306 75.589 68.9827C75.7741 68.1855 76.5883 66.3183 76.7311 65.6656C75.1079 65.1787 77.1753 63.0119 76.1601 59.1705L77.8732 61.0484C77.9102 60.2031 77.5189 58.2288 77.3022 57.2979C76.6624 54.5372 75.1449 53.3548 78.3015 57.009C79.1051 53.0285 75.5044 51.1184 79.8718 52.8252C78.4918 48.6681 80.1097 48.866 80.1573 48.6413C80.1573 48.6199 80.3477 48.759 80.4429 48.3524C75.5943 45.5222 71.1952 41.5363 65.469 40.5625C61.477 39.8831 57.945 41.0227 58.1935 39.9847C54.9523 42.9059 52.8321 46.742 52.7739 51.2415L52.7686 51.2361Z" fill="#FAC287"/>
<path d="M58.1882 39.9794C57.9344 41.0173 61.4664 39.8777 65.4637 40.5572C71.1899 41.5309 75.589 45.5222 80.4376 48.3471C80.7231 47.1005 79.2902 44.099 78.7245 42.8631C73.0299 35.9025 65.3791 33.495 58.1882 39.9794Z" fill="#E8E2D7"/>
<path d="M49.9135 59.3203C50.6167 71.3528 58.8069 82.0318 71.0207 83.5619C72.4748 83.0109 74.0293 82.7059 75.5837 82.6952C75.5573 82.5989 75.8428 81.7696 75.5837 80.6728C68.5674 80.8441 62.3124 78.1422 58.1829 72.3052C57.8657 71.8504 56.5544 69.8762 56.4698 69.7103L55.185 70.866C53.805 72.1126 51.1031 60.7862 51.0502 60.187L49.9082 59.3203H49.9135Z" fill="#B55A2B"/>
<path d="M49.9135 59.3203L51.0555 60.187C50.7753 57.0411 51.3252 54.0664 52.7686 51.2415C52.8268 46.742 54.9471 42.9059 58.1882 39.9847C65.3791 33.5003 73.03 35.9132 78.7245 42.8685C78.7139 42.8471 79.2109 42.831 79.01 42.4351C78.5447 41.5149 74.6479 37.2829 73.8759 36.8067C64.4644 31.0018 48.7132 38.7542 49.9187 59.3203H49.9135Z" fill="#E29150"/>
<path d="M77.2969 57.2979C78.4072 57.0785 78.7192 57.7366 79.4383 58.4535C80.4957 55.3504 80.8183 51.9156 80.1521 48.6413C80.1045 48.866 78.4865 48.6681 79.8665 52.8252C75.4991 51.1238 79.0999 53.0285 78.2962 57.009C75.1396 53.3548 76.6571 54.5372 77.2969 57.2979Z" fill="#883D25"/>
<path d="M76.7258 65.6709C77.0272 64.2799 77.8256 62.0435 77.8679 61.0537L76.1548 59.1758C77.17 63.0172 75.1026 65.1841 76.7258 65.6709Z" fill="#6F2E1C"/>
<path d="M55.0475 54.4142C53.1493 59.7162 53.9953 64.7721 56.4751 69.7103C56.5597 69.8815 57.8657 71.8558 58.1882 72.3052C57.5696 68.7366 56.8135 65.3071 57.6172 61.3373L56.7606 61.1928C56.8875 55.6608 58.3574 54.7887 61.0381 50.6583C60.4777 50.4229 59.1558 50.76 58.1882 49.7916C56.5438 51.0114 55.7349 52.4934 55.0528 54.4088L55.0475 54.4142Z" fill="#FAC287"/>
<path d="M66.4577 58.1646C66.2462 58.2181 63.9568 60.3315 63.6078 61.4817C61.8947 67.1315 66.9917 74.2526 70.1694 72.5941C64.9191 61.5085 71.3908 56.918 66.463 58.1646H66.4577Z" fill="#B55A2B"/>
<path d="M52.7686 51.2361C51.3252 54.061 50.7806 57.0358 51.0555 60.1817C51.1084 60.7809 53.8103 72.1072 55.1903 70.8606L56.4751 69.705C53.9953 64.7668 53.1546 59.7108 55.0475 54.4088C54.9418 54.3928 54.2227 52.7289 54.1909 52.242C54.1275 51.3325 55.2008 50.4069 54.1909 49.5027C53.9689 49.797 53.2815 50.2196 52.7634 51.2361H52.7686Z" fill="#B55A2B"/>
<path d="M71.3062 75.7721C71.3961 74.5683 70.6453 73.6052 70.1642 72.5994C66.9865 74.258 61.8894 67.1422 63.6025 61.4871C63.9515 60.3368 66.2462 58.2235 66.4524 58.17L65.3103 56.7254C65.2363 56.8057 64.6388 56.6452 63.5972 58.0255C59.5524 63.4078 61.5404 73.723 71.2957 75.7774L71.3062 75.7721Z" fill="#9D4C2F"/>
<path d="M57.6172 61.3373C58.9972 54.5105 63.0367 55.4521 63.465 55.2755C64.4009 54.8903 65.1887 52.3864 61.0381 50.6583C58.3574 54.7887 56.8875 55.6608 56.7606 61.1928L57.6172 61.3373Z" fill="#FAC287"/>
<path d="M171.418 60.187C171.835 62.7069 172.258 65.4302 172.274 67.9769C173.686 67.7093 177.35 66.9389 175.695 68.8436C181.025 66.6875 185.027 72.2998 185.392 77.2113C185.487 78.4793 184.837 84.2896 184.536 85.579C185.53 86.0391 185.35 86.6704 185.392 86.7346C186.381 88.2647 187.365 89.7521 188.242 91.3518C188.269 90.8917 188.385 88.7356 188.956 88.757C193.234 97.3386 189.95 87.2482 188.956 83.5619C191.092 85.8358 193.313 88.436 194.233 91.4963C194.592 92.6893 194.434 96.3382 195.66 90.6295C197.019 84.311 194.476 81.775 194.233 80.2395C193.884 78.0406 194.703 73.4983 194.518 70.5717C192.98 66.9068 192.34 66.0989 189.955 63.0654C189.506 74.1884 179.73 71.9841 187.105 59.8927C185.027 57.8115 184.118 56.9929 181.686 55.2755C182.606 57.9078 184.901 60.8023 181.543 62.7818C177.107 63.9321 174.268 55.0401 178.836 53.2585C177.303 52.3383 174.796 51.1184 173.131 50.3748C174.009 53.296 174.268 58.8067 171.418 60.187Z" fill="#A8BE53"/>
<path d="M188.248 91.3572C188.105 93.7166 189.231 95.9637 189.39 97.9967C195.058 96.3917 189.046 100.65 192.525 99.4413C192.731 99.3717 193.345 99.1738 193.382 99.1524C193.984 98.7886 193.345 97.9646 194.238 98.5745C200.16 90.3834 198.214 79.362 194.524 70.577C194.709 73.5036 193.889 78.0459 194.238 80.2448C194.481 81.7803 197.019 84.3163 195.666 90.6349C194.439 96.3435 194.598 92.6947 194.238 91.5016C193.323 88.436 191.097 85.8411 188.961 83.5673C189.955 87.2536 193.239 97.344 188.961 88.7623C188.396 88.7463 188.274 90.9024 188.248 91.3572Z" fill="#6D882C"/>
<path d="M181.686 55.2809C180.718 54.5961 179.872 53.8845 178.836 53.2585C174.273 55.0455 177.112 63.9375 181.543 62.7818C184.901 60.8023 182.606 57.9132 181.686 55.2755L181.686 55.2809Z" fill="#CCD477"/>
<path d="M189.961 63.0707C188.797 61.5887 188.411 61.2035 187.111 59.8981C179.735 71.9895 189.516 74.1938 189.961 63.0707Z" fill="#CCD477"/>
<path d="M167.997 48.6413C168.848 50.5995 170.043 53.5635 170.561 55.5698C170.958 57.0893 171.164 58.6408 171.418 60.187C174.262 58.8067 174.003 53.296 173.131 50.3748C171.497 49.6471 169.826 48.7644 167.997 48.6413Z" fill="#CCD477"/>
<path d="M180.835 93.6631C180.554 94.0964 180.57 94.2141 180.549 94.2409C181.601 96.1188 182.542 98.0342 183.399 100.014C183.388 98.7243 184.182 99.9977 185.112 100.303C187.275 101.014 188.163 100.757 188.819 101.314C189.051 101.512 191.282 106.589 191.383 106.942H191.668C190.378 103.186 189.268 101.319 189.384 101.025C189.49 100.768 192.144 100.126 192.52 99.4359C189.041 100.645 195.047 96.3863 189.384 97.9914C189.929 105.118 185.419 91.2394 185.392 86.7346C185.355 86.6757 185.53 86.0391 184.536 85.579C183.907 88.2701 182.331 91.3411 180.829 93.6577L180.835 93.6631Z" fill="#6D882C"/>
<path d="M189.39 97.9914C189.236 95.9583 188.11 93.7112 188.248 91.3518C187.37 89.7521 186.386 88.2647 185.398 86.7346C185.429 91.2394 189.939 105.118 189.39 97.9914Z" fill="#899B35"/>
<path d="M183.399 100.014C183.494 100.228 183.642 101.597 183.97 102.325C184.192 102.812 184.61 103.293 184.827 103.77C186.455 107.386 190.273 114.62 190.817 118.199C190.939 118.996 191.103 119.569 191.103 119.644C192.488 119.874 191.298 112.367 193.667 111.565C193.894 109.831 194.222 108.553 194.238 108.392L193.667 107.525C192.89 112.753 192.752 110.099 191.668 106.948H191.383C192.52 110.885 192.134 112.672 191.383 116.615H190.812C189.897 110.677 183.959 103.374 185.107 100.308C184.176 100.003 183.383 98.7297 183.394 100.019L183.399 100.014Z" fill="#2F3414"/>
<path d="M191.103 119.638C191.103 119.697 190.949 119.285 190.817 120.794C190.717 121.917 190.114 124.592 189.39 125.411C189.326 125.486 188.686 125.331 188.533 125.411C188.152 125.62 189.284 127.048 187.391 125.411L187.105 125.989C187.608 126.754 187.645 127.364 187.676 127.433C187.983 128.086 188.39 128.734 188.533 129.456C188.586 129.408 188.76 129.504 188.819 129.456C188.914 129.376 189.569 129.536 189.675 129.456C189.786 129.37 189.791 129.466 189.961 129.167C190.14 128.857 191.124 123.094 191.388 122.094C191.642 121.136 192.541 119.949 192.816 118.632C193.297 116.332 193.366 113.892 193.672 111.559C191.298 112.362 192.493 119.874 191.108 119.638H191.103Z" fill="#593B25"/>
<path d="M193.382 99.147C194.249 101.779 194.074 104.775 193.667 107.515L194.238 108.381C194.529 105.096 194.788 101.854 194.238 98.5692C193.345 97.9593 193.984 98.7832 193.382 99.147Z" fill="#354D23"/>
<path d="M192.525 99.4359C192.144 100.126 189.495 100.768 189.39 101.025C189.268 101.319 190.378 103.186 191.674 106.942C192.758 110.093 192.895 112.742 193.672 107.52C194.079 104.775 194.254 101.785 193.387 99.1524C193.35 99.1738 192.737 99.3664 192.53 99.4413L192.525 99.4359Z" fill="#DEECE3"/>
<path d="M183.399 110.982C183.473 111.763 188.533 118.932 189.39 125.411C190.114 124.592 190.717 121.917 190.817 120.794C189.464 120.564 189.712 118.317 190.817 118.199C190.273 114.614 186.46 107.386 184.827 103.77C184.959 105.99 183.367 110.618 183.399 110.987V110.982Z" fill="#DEECE3"/>
<path d="M191.388 106.942C191.288 106.594 189.056 101.512 188.824 101.314C188.168 100.757 187.28 101.014 185.117 100.303C183.97 103.368 189.908 110.671 190.822 116.61H191.394C192.144 112.667 192.53 110.88 191.394 106.942H191.388Z" fill="#DEECE3"/>
<path d="M190.817 120.794C190.949 119.285 191.103 119.697 191.103 119.638C191.103 119.563 190.939 118.991 190.817 118.194C189.712 118.311 189.464 120.558 190.817 120.788V120.794Z" fill="#BAAA8A"/>
<path d="M176.837 116.754C182.426 119.574 185.297 123.603 187.391 125.411C189.279 127.048 188.147 125.62 188.533 125.411C188.02 120.35 185.324 116.198 183.113 111.848C179.978 114.267 181.797 115.909 181.258 116.177C180.179 113.357 178.973 116.369 176.837 116.754Z" fill="#DEECE3"/>
<path d="M183.113 111.848C185.324 116.198 188.02 120.355 188.533 125.411C188.686 125.331 189.321 125.486 189.39 125.411C188.533 118.932 183.473 111.763 183.399 110.982H183.113C183.198 111.137 183.029 111.688 183.113 111.848Z" fill="#354D23"/>
<path d="M175.701 116.754C178.815 118.713 181.612 120.473 184.256 123.105C184.911 123.758 186.815 125.545 187.105 125.989L187.391 125.411C185.297 123.597 182.426 119.569 176.837 116.754C176.679 116.781 176.182 116.717 175.695 116.754H175.701Z" fill="#354D23"/>
<path d="M171.989 101.458C172.671 102.812 173.4 104.091 173.987 105.498C174.558 106.873 175.579 109.302 175.701 110.693C176.298 117.685 172.449 112.346 172.137 112.137C168.594 109.751 164.576 107.231 161.44 104.058C161.187 104.363 160.013 105.492 159.442 106.081C161.504 108.29 165.818 111.019 167.426 113.009C167.563 113.175 168.288 113.325 168.282 113.443C163.941 115.556 161.821 114.021 158.014 113.298C162.598 115.396 170.778 117.113 175.701 116.76C176.187 116.722 176.684 116.787 176.843 116.76C178.979 116.375 180.184 113.362 181.263 116.182C181.802 115.914 179.983 114.267 183.119 111.854C183.034 111.693 183.203 111.142 183.119 110.987C182.537 109.879 182.061 108.9 181.406 107.814C179.714 105 177.551 102.491 175.415 100.024C175.262 100.126 172.343 101.357 171.994 101.469L171.989 101.458Z" fill="#6D882C"/>
<path d="M162.577 102.32C162.165 102.871 161.504 103.973 161.435 104.053C164.571 107.226 168.589 109.746 172.132 112.132C172.443 112.341 176.298 117.685 175.695 110.687C173.379 110.698 171.28 106.466 173.982 105.492C173.401 104.08 172.671 102.807 171.983 101.453C168.351 102.598 166.347 102.357 162.572 102.32H162.577Z" fill="#899B35"/>
<path d="M156.587 108.67C159.061 111.051 164.042 113.79 167.426 112.999C165.818 111.014 161.504 108.28 159.442 106.07C158.58 106.953 157.554 107.889 156.592 108.665L156.587 108.67Z" fill="#99AB42"/>
<path d="M153.737 110.693C155.037 111.725 156.513 112.603 158.014 113.288C161.821 114.01 163.941 115.545 168.282 113.432C168.288 113.32 167.563 113.17 167.426 112.999C164.042 113.79 159.061 111.051 156.587 108.67C155.545 109.51 154.868 109.981 153.737 110.693Z" fill="#6D882C"/>
<path d="M175.415 100.014C177.551 102.486 179.714 104.989 181.406 107.804C182.907 106.734 182.669 101.999 183.97 102.32C183.642 101.597 183.494 100.228 183.399 100.008C182.537 98.0288 181.601 96.1135 180.549 94.2355C179.941 95.113 175.997 99.6125 175.415 100.008V100.014Z" fill="#99AB42"/>
<path d="M181.4 107.804C182.056 108.89 182.527 109.869 183.113 110.976H183.399C183.362 110.612 184.959 105.979 184.827 103.759C184.61 103.283 184.192 102.807 183.97 102.314C182.669 101.993 182.907 106.728 181.406 107.798L181.4 107.804Z" fill="#6D882C"/>
<path d="M173.987 105.498C174.558 106.873 175.579 109.302 175.701 110.693C173.379 110.703 171.286 106.471 173.987 105.498Z" fill="#A8BE53"/>
<path d="M67.0287 180.534C66.6851 181.502 67.034 181.358 67.0287 181.401C68.155 181.235 68.5409 181.652 68.7419 181.69C68.8106 181.7 69.9051 181.46 70.1694 181.834C70.3651 182.112 71.3062 187.612 71.3115 188.618H72.1681C71.8244 186.227 71.8509 181.39 75.3035 183.134C75.0286 182.193 73.601 182.38 73.8759 181.112C71.5759 180.962 69.3235 180.775 67.0287 180.534Z" fill="#2C140F"/>
<path d="M61.8947 186.307C64.0308 198.511 58.4737 191.17 60.7526 187.029C61.1967 186.221 61.8629 186.371 61.8947 186.307C61.3183 185.221 60.3825 185.59 59.6105 186.018C57.522 189.116 56.5491 193.54 59.0395 196.697C59.214 196.659 59.4255 196.713 59.6105 196.697C63.3223 193.423 73.2097 193.99 77.8626 195.252C77.704 194.803 76.4509 190.603 76.435 190.346H75.5785C75.1555 196.558 72.5488 191.331 72.1575 188.613H71.301C71.3221 191.898 71.0154 193.663 69.5878 190.635H67.8747C68.0228 192.369 67.8589 191.668 67.0182 190.924C66.6639 194.37 63.8405 193.214 63.5972 188.329C63.3487 183.471 64.9878 184.108 65.0248 183.856C65.0988 183.311 63.4915 183.182 63.3117 182.845C62.0797 183.958 62.7883 184.391 61.8841 186.307L61.8947 186.307Z" fill="#9D4C2F"/>
<path d="M72.1628 188.618C72.5541 191.336 75.1608 196.558 75.5837 190.352C75.6366 189.586 75.3987 183.482 75.2982 183.134C71.8403 181.39 71.8138 186.227 72.1628 188.618Z" fill="#FAC287"/>
<path d="M76.7258 188.618C78.8936 188.361 77.4343 192.288 79.433 194.102C80.7707 194.418 80.9875 191.117 81.0033 190.352C81.0456 188.351 80.4534 185.087 78.2962 184.29C76.6676 184.274 76.8739 187.446 76.7258 188.618Z" fill="#FAC287"/>
<path d="M76.7258 188.618C76.6571 189.158 76.398 189.431 76.4403 190.352C76.4509 190.608 77.7093 194.808 77.8679 195.258C79.729 200.602 85.6615 190.635 81.0033 190.352C80.9875 191.117 80.7707 194.418 79.433 194.102C77.4343 192.288 78.8884 188.361 76.7258 188.618Z" fill="#B55A2B"/>
<path d="M49.3424 213.149C47.4971 215.76 45.821 218.413 43.3518 220.51C47.3861 223.951 49.7548 217.242 51.4785 214.304C52.3351 214.711 49.8976 223.79 62.746 207.087C62.3758 206.429 62.2013 205.38 61.8894 204.776C61.7942 204.588 61.6991 204.385 61.6039 204.198C60.0177 204.021 61.3554 205.712 59.0395 205.931C58.9337 209.291 51.1824 214.946 56.4751 205.209C57.2471 204.315 57.0673 204.016 58.4737 204.198C57.4163 202.839 56.8611 203.593 55.9093 202.753C54.1434 206.445 51.6953 209.821 49.3477 213.143L49.3424 213.149Z" fill="#723F32"/>
<path d="M52.1976 194.969C52.1606 195.135 53.0436 195.054 51.9121 195.547C51.9544 195.766 52.0971 195.926 52.1976 196.124C52.8585 197.467 52.1817 197.499 52.1976 197.569C52.5836 199.243 54.6087 201.624 55.9041 202.764C56.8558 203.604 57.411 202.85 58.4684 204.208C59.013 204.904 59.0659 205.016 59.0395 205.942C61.3607 205.723 60.0177 204.037 61.6039 204.208C60.5411 202.101 60.245 200.533 58.1829 199.302L57.6119 199.591C54.3073 197.494 54.3126 194.466 53.0489 191.224C52.9749 191.181 52.8321 191.266 52.7634 191.224C52.2399 192.577 52.351 194.23 52.1923 194.974L52.1976 194.969Z" fill="#723F32"/>
<path d="M59.0395 205.931C59.0659 205.006 59.013 204.899 58.4684 204.198C57.062 204.016 57.2418 204.315 56.4698 205.209C51.1771 214.946 58.9337 209.291 59.0342 205.931H59.0395Z" fill="#A77152"/>
<path d="M55.9041 190.635C54.5928 192.112 55.5551 192.69 53.0542 191.213C54.3232 194.455 54.3126 197.483 57.6172 199.581C57.4744 198.719 57.8022 198.452 57.9027 198.136C56.9087 195.541 56.6549 192.807 56.4751 190.057C56.3429 190.223 56.0521 190.469 55.9041 190.635Z" fill="#9D4C2F"/>
<path d="M67.0287 181.401C66.2726 186.981 67.6791 188.179 67.8853 190.635H69.5984C68.2713 187.816 68.8635 184.712 68.7419 181.69C68.5409 181.652 68.155 181.235 67.0287 181.401Z" fill="#B55A2B"/>
<path d="M63.3223 182.845C63.502 183.182 65.1094 183.311 65.0354 183.856C64.9984 184.108 63.3646 183.471 63.6078 188.329L66.4577 188.618C65.8549 182.974 66.1933 180.25 63.3223 182.845Z" fill="#F1AE72"/>
<path d="M63.6025 188.329C63.851 193.219 66.6745 194.37 67.0235 190.924C67.1451 189.758 66.4683 188.736 66.4524 188.613L63.6025 188.324V188.329Z" fill="#D1793A"/>
<path d="M56.4751 190.063C56.6549 192.813 56.9034 195.547 57.9027 198.141C58.1618 197.334 58.0137 196.906 59.0448 196.697C56.5544 193.54 57.5273 189.116 59.6158 186.018C58.2041 186.81 57.4374 188.87 56.4804 190.057L56.4751 190.063Z" fill="#BC6E41"/>
<path d="M68.7366 181.69C68.8582 184.718 68.266 187.821 69.5931 190.635C71.0207 193.669 71.3274 191.898 71.3062 188.613C71.3009 187.612 70.3651 182.112 70.1642 181.829C69.8998 181.454 68.8106 181.695 68.7366 181.684V181.69Z" fill="#FAC287"/>
<path d="M61.8947 186.307C61.8682 186.366 61.1967 186.221 60.7526 187.029C58.4737 191.17 64.0308 198.511 61.8947 186.307Z" fill="#D1793A"/>
<path d="M138.049 165.816C138.028 166.581 139.032 167.094 139.191 167.549C139.989 167.533 140.629 167.11 141.475 167.26L141.761 166.682C141.581 166.613 140.635 166.827 138.054 165.816H138.049Z" fill="#2D2019"/>
<path d="M158.585 147.347C157.369 149.134 154.921 153.74 153.594 154.853C151.775 156.373 142.76 159.417 139.762 160.626C139.503 164.087 138.06 165.548 138.049 165.821C140.629 166.832 141.581 166.618 141.755 166.688C142.2 166.859 141.877 167.078 142.326 167.266C143.5 166.607 144.801 166.062 146.033 165.532C147.614 164.858 147.122 165.27 147.175 165.243C147.757 164.986 148.312 164.655 148.888 164.376C149.068 164.291 149.274 164.184 149.459 164.087C152.975 162.327 175.605 148.465 176.843 146.769C177.578 145.758 176.991 141.831 176.843 140.129C176.832 140.033 176.848 139.937 176.843 139.84C174.828 140.75 172.671 141.237 170.566 141.863C171.946 143.441 174.358 142.804 172.993 144.174L160.727 151.392C159.516 151.306 163.212 144.896 163.719 143.885C164.888 141.563 166.183 139.503 167.426 137.246L165.427 136.957C165.189 137.535 159.542 145.934 158.58 147.347H158.585Z" fill="#723F32"/>
<path d="M139.191 155.714C139.757 157.143 139.873 159.101 139.762 160.621C142.765 159.411 151.78 156.367 153.594 154.848C154.921 153.74 157.369 149.128 158.585 147.341C156.238 146.732 156.407 146.742 156.021 144.458C151.23 152.242 146.821 151.424 139.191 155.714Z" fill="#A77152"/>
<path d="M162.292 132.628C162.017 132.933 158.961 138.706 158.3 139.846C157.628 141.001 156.999 142.162 156.301 143.307C156.269 143.356 156.439 143.778 156.016 144.463C156.407 146.748 156.232 146.742 158.58 147.347C159.542 145.934 165.189 137.535 165.427 136.957C166.04 135.453 166.982 133.137 165.427 132.051C163.888 132.029 163.46 131.334 162.292 132.628Z" fill="#C08866"/>
<path d="M163.719 143.88C163.212 144.891 159.516 151.301 160.727 151.386L172.993 144.169C174.358 142.799 171.946 143.441 170.566 141.857C168.288 142.532 166.009 143.227 163.719 143.88Z" fill="#A77152"/>
<path d="M165.432 132.051C166.987 133.137 166.046 135.453 165.432 136.957L167.431 137.246C168.208 135.839 169.001 134.357 169.715 132.917C169.223 132.035 166.627 132.067 165.438 132.051H165.432Z" fill="#723F32"/>
<path d="M189.961 129.162C189.791 129.461 189.786 129.365 189.675 129.45C190.812 131.863 189.162 133.57 191.103 136.668C193.577 136.154 197.151 139.129 195.523 134.357C189.041 134.956 197.485 128.717 196.951 136.668C198.013 137.299 199.208 133.345 196.665 131.762C194.28 130.274 192.292 132.489 192.102 132.34C191.943 132.216 191.779 129.504 189.961 129.167L189.961 129.162Z" fill="#A77152"/>
<path d="M188.819 129.45C190.622 131.36 185.133 138.498 183.684 140.129L184.256 140.418C184.578 139.862 186.434 139.338 186.54 139.263C187.539 138.583 190.072 136.882 191.103 136.668C189.162 133.57 190.812 131.869 189.675 129.45C189.575 129.531 188.919 129.37 188.819 129.45Z" fill="#6F2E1C"/>
<path d="M180.835 140.707H180.264C181.025 147.058 178.318 146.4 176.843 140.129C176.991 141.831 177.578 145.758 176.843 146.769C183.986 151.129 183.933 140.985 184.261 140.418L183.69 140.129C182.067 141.959 181.797 142.446 180.84 140.707H180.835Z" fill="#B55A2B"/>
<path d="M180.835 140.129C180.887 140.258 180.776 140.606 180.835 140.707C181.797 142.446 182.061 141.959 183.684 140.129C185.133 138.498 190.622 131.36 188.819 129.45C188.76 129.499 188.591 129.402 188.533 129.45C185.017 132.463 183.695 136.689 180.835 140.129Z" fill="#D1793A"/>
<path d="M180.264 126.856C180.422 130.066 180.1 131.874 183.684 132.773C182.696 134.694 182.574 133.907 181.686 133.495L179.973 136.379C180.121 136.775 180.126 138.46 180.829 140.129C183.69 136.689 185.012 132.463 188.528 129.45C188.385 128.728 187.978 128.086 187.671 127.428C186.867 129.044 185.873 129.793 184.536 130.601C184.488 130.627 184.689 131.414 183.822 131.467C180.671 129.167 181.977 127.118 181.966 126.85C181.95 126.454 181.21 126.497 181.681 125.406C181.273 125.743 180.343 126.802 180.253 126.85L180.264 126.856Z" fill="#F1AE72"/>
<path d="M181.686 125.411C181.215 126.502 181.956 126.46 181.971 126.856C183.41 125.646 184.642 129.408 184.536 130.606C185.873 129.793 186.873 129.049 187.671 127.433C187.639 127.364 187.602 126.754 187.1 125.989C186.804 125.539 184.901 123.752 184.25 123.105C183.272 123.699 182.537 124.71 181.686 125.416V125.411Z" fill="#FAC287"/>
<path d="M178.55 127.433C174.167 131.644 169.451 134.33 176.552 138.112V137.246C176.256 137 174.87 135.774 174.839 135.657C175.082 132.65 175.912 133.891 175.981 133.779C176.43 133.062 176.8 132.96 176.837 132.912C176.959 132.741 176.716 131.462 178.979 129.45C179.338 129.552 179.069 132.275 181.686 133.49C182.574 133.902 182.696 134.694 183.684 132.768C180.094 131.874 180.422 130.06 180.264 126.85C179.851 127.075 179.032 127.268 178.55 127.428V127.433Z" fill="#BC6E41"/>
<path d="M176.552 137.246V138.112C176.383 139.263 176.827 139.696 176.837 139.846C176.843 139.942 176.827 140.038 176.837 140.135C178.312 146.405 181.02 147.063 180.258 140.713C180.2 140.22 180.1 139.429 179.973 138.979C179.396 138.84 176.7 137.369 176.552 137.246Z" fill="#F1AE72"/>
<path d="M176.837 132.917C176.8 132.965 176.43 133.067 175.981 133.784C178.302 135.298 179.222 136.32 179.973 138.979C180.1 139.429 180.2 140.215 180.258 140.713H180.829C180.771 140.611 180.882 140.263 180.829 140.135C180.126 138.465 180.126 136.78 179.973 136.384C179.449 135.004 178.35 133.249 176.837 132.923V132.917Z" fill="#6F2E1C"/>
<path d="M176.837 132.917C178.355 133.244 179.455 135.004 179.973 136.379L181.686 133.495C179.063 132.281 179.333 129.557 178.979 129.456C176.716 131.467 176.959 132.746 176.837 132.917Z" fill="#FAC287"/>
<path d="M181.971 126.856C181.982 127.123 180.671 129.172 183.827 131.473C184.694 131.419 184.493 130.638 184.541 130.606C184.647 129.408 183.415 125.646 181.977 126.856H181.971Z" fill="#BC6E41"/>
<path d="M176.552 137.246C176.7 137.369 179.402 138.84 179.973 138.979C179.222 136.32 178.302 135.298 175.981 133.784C175.912 133.896 175.082 132.65 174.839 135.662C174.87 135.78 176.256 137 176.552 137.251L176.552 137.246Z" fill="#FAC287"/>
<path d="M127.781 164.376C128.437 166.586 127.834 176.559 124.931 175.489C124.942 172.193 125.026 168.031 123.789 165.243C122.848 168.229 122.493 176.42 121.648 176.211C120.611 173.424 120.934 170.304 119.221 167.843C119.157 172.867 119.776 177.677 118.65 174.05C117.513 170.395 118.427 166.238 118.364 165.248C117.271 165.056 116.179 164.863 115.086 164.671C114.61 165.034 115.472 166.918 114.372 166.693C114.372 169.973 113.827 172.926 113.801 175.639C113.759 179.801 114.446 177.04 116.228 177.083C116.355 177.083 117.396 177.955 118.655 177.95C120.49 177.944 122.938 177.64 124.788 177.372C126.597 177.11 126.226 175.36 129.494 176.794C130.573 172.172 130.282 167.282 129.208 162.654C128.648 163.178 128.59 164.007 127.781 164.387V164.376Z" fill="#9D4C2F"/>
<path d="M111.237 158.892C112.87 159.438 113.976 161 114.372 162.643C114.88 164.746 114.372 165.051 114.372 166.682C115.467 166.907 114.605 165.024 115.086 164.66C116.179 164.853 117.271 165.045 118.364 165.238C118.137 161.728 117.37 160.61 116.365 157.448C114.605 157.015 111.818 156.201 111.231 158.892H111.237Z" fill="#9D4C2F"/>
<path d="M129.208 162.643C130.282 167.271 130.573 172.161 129.494 176.783C129.542 176.805 129.415 176.901 130.351 177.361C131.968 174.483 134.966 169.004 130.351 175.194C131.138 173.52 130.937 170.401 132.064 170.144C132.159 169.015 132.317 168.865 132.349 168.699C132.36 168.63 132.053 169.004 132.349 167.255C131.419 164.751 130.779 162.151 128.643 160.326C128.685 160.439 129.113 162.194 129.214 162.638L129.208 162.643Z" fill="#D1793A"/>
<path d="M134.343 166.393C133.592 167.11 132.952 167.865 132.344 168.705C132.312 168.871 132.154 169.02 132.058 170.149C132.027 170.545 131.064 172.375 131.916 172.461C135.194 168.25 134.554 173.782 132.344 178.522C132.524 178.624 132.735 178.715 132.915 178.811C134.089 178.501 135.31 175.895 135.479 174.772C135.643 173.718 135.95 165.992 134.337 166.404L134.343 166.393Z" fill="#E29150"/>
<path d="M135.479 174.761C135.305 175.885 134.089 178.49 132.915 178.801C133.264 178.988 133.729 179.796 134.057 179.956C134.559 180.202 134.998 180.545 135.056 180.534C135.918 180.373 138.504 175.831 138.906 174.761H135.485H135.479Z" fill="#883D25"/>
<path d="M130.345 177.361C130.451 177.409 131.731 178.175 132.344 178.517C134.554 173.777 135.194 168.245 131.916 172.455C131.064 172.37 132.027 170.54 132.058 170.144C130.937 170.401 131.133 173.52 130.345 175.194C134.961 169.004 131.963 174.483 130.345 177.361Z" fill="#9D4C2F"/>
<path d="M134.343 166.393C135.955 165.987 135.643 173.712 135.485 174.761H138.906C139.45 173.322 140.095 171.685 140.048 170.144C140.048 169.999 140.048 169.593 140.048 169.566C140.032 169.459 139.831 169.416 139.191 167.544C139.038 167.089 138.028 166.581 138.049 165.81C137.938 165.767 137.446 166.672 136.621 164.655C135.585 166.5 135.136 165.147 135.051 165.232C134.898 165.388 134.649 166.088 134.337 166.388L134.343 166.393Z" fill="#DA9D76"/>
<path d="M117.227 149.942C117.344 150.354 121.415 154.687 122.647 156.581C123.345 157.651 124.809 159.326 124.36 160.621C125.412 161.316 125.862 164.253 127.495 162.21C127.511 159.711 126.871 155.586 128.637 160.332C130.779 162.156 131.413 164.751 132.344 167.26C132.444 166.666 133.026 165.869 133.2 164.665C131.979 158.844 127.162 156.966 126.782 156.587C123.81 153.59 121.256 150.172 117.513 147.93C117.1 147.983 117.143 149.653 117.227 149.952V149.942Z" fill="#DA9D76"/>
<path d="M113.235 144.458C112.913 144.955 111.073 146.298 110.671 147.919C110.65 148.005 110.676 148.117 110.671 148.208C111.443 149.61 112.098 149.284 112.384 149.364C114.578 146.459 116.223 146.1 119.231 147.053C124.212 148.636 127.802 152.135 130.641 156.287C130.758 156.453 132.191 157.261 132.926 159.46C133.655 158.796 134.565 158.384 134.639 158.304C132.793 154.885 122.842 144.966 119.807 144.163C117.608 143.58 115.403 143.928 113.246 144.452L113.235 144.458Z" fill="#BC6E41"/>
<path d="M111.237 158.892C111.824 156.207 114.61 157.015 116.371 157.448C117.708 157.78 118.38 158.143 119.506 158.892C119.575 158.935 119.882 158.288 120.648 159.47C120.791 159.064 124.196 160.519 124.355 160.626C124.804 159.331 123.339 157.657 122.642 156.587C115.874 153.007 113.373 153.569 107.239 157.887C107.075 159.058 109.761 158.406 111.231 158.898L111.237 158.892Z" fill="#9D4C2F"/>
<path d="M112.379 149.364C113.69 149.717 115.874 150.059 117.227 149.942C117.143 149.647 117.1 147.973 117.513 147.919C117.555 146.774 118.179 147.117 118.94 147.341L119.226 147.053C116.217 146.095 114.573 146.453 112.379 149.364Z" fill="#9D4C2F"/>
<path d="M119.511 158.892C119.332 161.878 119.263 164.847 119.226 167.838C120.939 170.299 120.611 173.424 121.653 176.206C122.493 176.414 122.853 168.223 123.794 165.238C123.879 164.976 123.826 164.692 124.08 164.371C121.388 163.376 121.589 160.899 120.659 159.465C119.892 158.283 119.585 158.935 119.517 158.887L119.511 158.892Z" fill="#E29150"/>
<path d="M124.074 164.376C123.821 164.697 123.873 164.976 123.789 165.243C125.021 168.031 124.942 172.193 124.931 175.489C127.839 176.559 128.442 166.586 127.781 164.376C126.75 164.858 125.148 164.772 124.074 164.376Z" fill="#DA9D76"/>
<path d="M124.36 160.621C124.196 160.514 120.796 159.058 120.653 159.465C121.584 160.904 121.388 163.376 124.074 164.371C125.148 164.767 126.755 164.853 127.781 164.371C128.59 163.991 128.648 163.167 129.208 162.638C129.108 162.199 128.68 160.439 128.637 160.326C126.877 155.575 127.511 159.7 127.495 162.204C125.862 164.248 125.412 161.311 124.36 160.615V160.621Z" fill="#3F1710"/>
<path d="M116.371 157.448C117.375 160.61 118.137 161.728 118.369 165.238C118.433 166.233 117.518 170.385 118.655 174.039C119.781 177.666 119.162 172.856 119.226 167.833C119.263 164.842 119.332 161.873 119.511 158.887C118.38 158.138 117.708 157.774 116.376 157.443L116.371 157.448Z" fill="#DA9D76"/>
<path d="M117.227 142.152C118.443 142.344 119.326 142.997 120.077 143.307C126.189 145.806 133.163 151.643 135.194 158.17C135.088 158.438 134.67 158.267 134.623 158.315C134.554 158.39 133.639 158.807 132.91 159.47C133.629 161.632 133.507 162.488 133.195 164.665C133.021 165.874 132.439 166.666 132.339 167.26C132.043 169.01 132.349 168.63 132.339 168.705C132.941 167.865 133.586 167.116 134.337 166.393C134.649 166.094 134.898 165.393 135.051 165.238C135.136 165.158 135.585 166.511 136.621 164.66C137.785 162.584 137.436 160.738 136.907 158.598C135.273 151.959 126.559 144.062 120.077 142.435C118.66 142.082 118.687 142.109 117.227 142.146V142.152Z" fill="#6F2E1C"/>
<path d="M137.763 154.27C138.102 155.308 138.869 158.967 136.907 158.598C137.436 160.738 137.785 162.584 136.621 164.66C137.446 166.672 137.933 165.767 138.049 165.816C138.06 165.543 139.503 164.082 139.762 160.621C139.873 159.101 139.762 157.143 139.191 155.714C139.17 155.666 138.705 154.971 138.62 154.848C138.409 154.543 138.208 154.163 137.763 154.27Z" fill="#FAC287"/>
<path d="M117.513 147.925C121.262 150.166 123.81 153.59 126.782 156.581C127.157 156.961 131.979 158.839 133.2 164.66C133.512 162.482 133.634 161.626 132.915 159.465C132.185 157.266 130.747 156.458 130.631 156.292C126.311 157.539 124.259 148.909 118.935 147.347C118.174 147.122 117.55 146.78 117.507 147.925H117.513Z" fill="#F8E8C3"/>
<path d="M120.077 143.307L119.792 144.174C122.827 144.982 132.777 154.896 134.623 158.315C134.665 158.267 135.088 158.438 135.194 158.17C133.163 151.643 126.189 145.806 120.077 143.307Z" fill="#FAC287"/>
<path d="M119.226 147.058L118.94 147.347C124.265 148.909 126.316 157.539 130.636 156.292C127.797 152.141 124.212 148.642 119.226 147.058Z" fill="#3F1710"/>
<path d="M114.663 142.152C114.15 142.917 113.727 143.709 113.235 144.463C115.393 143.944 117.597 143.591 119.797 144.174L120.082 143.307C119.332 143.002 118.449 142.35 117.233 142.152C116.376 142.173 115.519 142.136 114.668 142.152H114.663Z" fill="#DA9D76"/>
<path d="M119.511 136.09C118.602 137.096 117.782 138.193 116.662 138.974C115.99 140.012 115.35 141.125 114.663 142.146C115.519 142.13 116.376 142.168 117.227 142.146C118.687 142.109 118.665 142.082 120.077 142.435C120.548 139.98 122.377 142.339 122.927 140.991C122.076 140.311 121.092 139.792 120.363 138.968C118.311 137.738 124.793 139.477 126.924 140.413L127.495 138.679C125.978 137.749 123.683 136.561 123.218 135.796C121.991 135.625 120.717 135.876 119.511 136.085V136.09Z" fill="#B55A2B"/>
<path d="M119.511 136.09C120.717 135.881 121.991 135.63 123.218 135.801C127.342 136.374 134.813 140.595 137.763 144.747C137.8 144.795 138.213 144.886 138.62 145.613C144.241 146.116 150.316 146.806 155.45 143.88C154.948 142.949 153.33 144.634 153.023 144.747C149.507 146.041 146.054 144.966 142.469 144.747C141.761 144.27 141.978 140.697 140.328 140.707C140.428 140.894 140.529 141.087 140.613 141.285C141.005 142.2 141.486 143.051 141.755 144.024C138.097 146.571 135.522 139.124 130.345 136.951C128.664 136.245 123.583 135.421 121.362 134.929L122.647 132.907C121.706 133.41 120.389 135.106 119.511 136.079V136.09Z" fill="#2C140F"/>
<path d="M123.218 132.34C125.645 133.394 127.977 134.635 130.351 135.801C133.877 137.54 137.182 139.396 140.619 141.285C140.534 141.087 140.434 140.894 140.333 140.707C140.042 140.167 139.471 139.027 139.191 138.685C135.997 134.752 127.178 131.494 123.218 132.334V132.34Z" fill="#F8E8C3"/>
<path d="M122.647 132.917L121.362 134.94C123.583 135.432 128.664 136.256 130.345 136.962V135.806C127.971 134.635 125.645 133.394 123.213 132.345C122.705 132.452 122.679 132.901 122.642 132.923L122.647 132.917Z" fill="#D1793A"/>
<path d="M120.077 142.441C126.559 144.067 135.268 151.964 136.907 158.604C138.863 158.973 138.102 155.313 137.763 154.275C136.294 149.776 126.792 144.067 122.932 141.001C122.377 142.35 120.548 139.99 120.082 142.446L120.077 142.441Z" fill="#DA9D76"/>
<path d="M120.363 138.974C121.092 139.798 122.076 140.317 122.927 140.996C126.787 144.062 136.288 149.77 137.758 154.27C138.202 154.163 138.403 154.543 138.615 154.848C138.657 154.698 138.879 154.291 138.9 154.27C139.122 151.862 135.125 147.309 133.052 145.613C130.144 143.227 124.027 140.279 120.357 138.974H120.363Z" fill="#FAD7AA"/>
<path d="M127.495 138.685L126.924 140.418C132.354 142.81 136.32 148.064 140.042 152.542C140.698 150 139.863 147.828 138.615 145.613C138.208 144.891 137.795 144.795 137.758 144.747C134.818 143.96 130.953 140.809 127.49 138.685H127.495Z" fill="#DA9D76"/>
<path d="M120.363 138.974C124.032 140.279 130.15 143.227 133.058 145.613C135.125 147.315 139.128 151.862 138.906 154.27C139.408 153.751 139.863 153.253 140.048 152.536C136.32 148.064 132.354 142.805 126.93 140.413C124.799 139.477 118.316 137.743 120.368 138.968L120.363 138.974Z" fill="#6F2E1C"/>
<path d="M127.495 138.685C130.959 140.809 134.824 143.96 137.763 144.747C134.813 140.59 127.342 136.374 123.218 135.801C123.683 136.572 125.978 137.759 127.495 138.685Z" fill="#E8E2D7"/>
<path d="M130.345 136.957C135.516 139.129 138.097 146.576 141.755 144.03C141.486 143.051 141.005 142.205 140.613 141.29C137.177 139.402 133.872 137.545 130.345 135.806V136.962V136.957Z" fill="#DA9D76"/>
<path d="M106.959 18.9157C104.093 19.4133 101.698 20.2854 98.9752 21.227C95.838 24.4514 92.7008 27.674 89.5636 30.8948C95.5384 29.6642 99.3506 25.582 92.4135 31.9059C94.3276 34.3617 100.149 30.7236 104.823 30.4614C104.469 32.2912 105.611 35.3515 104.395 35.3675C104.469 37.8714 104.358 40.3699 104.252 42.8738C105.154 39.9384 106.057 37.0047 106.959 34.0728C107.195 37.4898 107.433 40.9049 107.673 44.3184C108.857 42.0499 109.032 39.5514 109.529 37.101C109.73 36.1112 109.619 34.6827 110.385 34.0728C111.718 37.0082 113.048 39.9419 114.377 42.8738C115.366 40.5893 115.139 38.6632 115.234 38.4011C115.356 38.0694 115.831 38.8077 115.948 38.5455C116.519 37.2347 114.557 34.7469 114.806 32.7727C122.213 41.4453 125.534 47.0042 119.226 34.3617C120.712 33.9176 125.37 40.0382 125.216 37.2454C121.309 32.3607 110.227 23.2654 123.646 32.1949C124.794 32.7566 124.598 32.2056 124.645 32.1949C123.172 30.2724 121.699 28.3481 120.225 26.422C124.074 28.826 127.925 31.2318 131.778 33.6394C125.994 25.78 118.544 21.0344 119.369 20.6545C122.746 22.0991 126.121 23.5418 129.494 24.9828C127.67 23.0942 124.561 20.7883 122.361 19.21C121.246 19.5203 118.623 18.2148 116.513 18.0543C113.801 17.851 109.73 18.4395 106.959 18.9211V18.9157Z" fill="#7B645F"/>
<path d="M82.4309 162.643C83.6629 162.691 84.9054 162.638 86.1374 162.643C95.5807 162.702 105.098 160.642 114.372 162.643C113.976 161 112.87 159.433 111.237 158.892C109.767 158.406 107.081 159.053 107.245 157.881C113.378 153.564 115.879 153.002 122.647 156.581C121.415 154.687 117.344 150.359 117.227 149.942C115.874 150.059 113.69 149.717 112.379 149.364C112.093 149.289 111.443 149.61 110.666 148.208C110.555 149.877 112.035 149.305 111.665 150.231C110.634 152.799 88.7969 163.633 80.004 161.487C79.4753 162.793 82.5631 161.327 82.4309 162.643Z" fill="#1B161E"/>
<path d="M45.6359 112.426C47.0212 122.105 47.9465 142.457 52.1976 149.803C56.988 158.079 69.6619 161.509 78.4389 162.359C79.7872 162.488 81.0773 162.595 82.4309 162.648C82.5684 161.332 79.4805 162.803 80.004 161.493C88.7969 163.638 110.634 152.804 111.665 150.236C112.035 149.316 110.555 149.883 110.666 148.214C110.671 148.123 110.644 148.01 110.666 147.925C92.3183 158.737 54.7831 166.431 52.4778 135.368C51.9121 127.728 54.1857 111.757 59.7533 106.075C57.6278 111.378 57.0303 116.883 56.4751 122.527C57.3951 122.72 56.988 124.913 57.3316 125.556C57.6066 126.064 58.6165 126.128 59.0448 126.711C59.4731 127.294 59.325 129.012 60.1868 128.878C60.0811 125.614 60.7526 121.366 61.6145 118.199C62.2384 115.893 63.1901 113.726 64.1788 111.559C65.4795 108.729 68.6044 105.503 63.1795 108.965L62.4657 108.242C65.617 106.851 67.346 103.523 70.1642 101.603L64.6018 101.458C66.648 99.7409 61.937 100.897 60.0388 101.169C61.128 98.7779 65.0301 98.0235 67.5998 97.5634C64.1947 95.8727 55.9464 96.183 57.6172 93.6684C52.3139 99.0133 48.2532 105.305 45.6359 112.426Z" fill="#392127"/>
<path d="M96.691 105.498C96.691 105.31 96.3843 105.241 96.4055 104.342C96.4214 103.582 96.5906 98.5692 96.691 98.2803C76.8421 84.5196 88.6542 56.0888 112.521 58.7425C123.53 59.9623 130.277 69.1753 131.345 69.4214C132.407 69.6675 142.977 64.221 152.452 70.2881C164.433 77.9549 159.082 95.8567 149.602 103.192C147.825 104.567 143.707 106.792 141.475 106.942C141.946 128.268 100.63 125.502 96.6963 105.787C96.7227 106.76 96.506 107.541 96.9818 108.526C93.8887 109.719 85.9576 102.154 83.8638 99.5804C79.0946 93.7166 78.4707 90.1427 76.4456 83.4175C76.1654 82.4865 75.6049 82.7487 75.589 82.6952C74.0345 82.7059 72.48 83.0109 71.026 83.5619C68.615 84.4768 66.5265 86.4029 64.4644 87.8902C66.6322 87.1573 69.3499 85.0707 72.3056 85.0065C77.6405 106.156 98.843 120.992 118.369 127.433C123.181 126.684 128.505 126.77 132.915 124.261C134.279 123.485 137.335 120.275 138.62 118.921C139.767 117.717 139.868 115.738 141.755 116.466C138.895 113.839 140.978 115.449 146.033 114.154C144.084 114.251 142.134 114.347 140.185 114.443C140.973 109.446 143.632 110.896 146.747 109.248C166.405 98.8528 166.432 71.4598 154.731 65.0931C153.351 64.3441 147.466 62.7069 145.747 62.4983C140.513 61.8456 132.841 63.5951 132.201 63.365C131.339 63.0493 128.569 56.7254 116.656 54.4195C110.19 53.1676 106.229 52.9215 99.9692 55.5751C82.8645 62.83 77.0589 82.2351 88.7018 97.2798C91.1445 100.431 94.9673 102.673 96.6857 105.503L96.691 105.498Z" fill="#1B161E"/>
<path d="M92.4135 31.9006C90.0501 34.0567 87.7236 35.528 86.7084 38.8291C87.105 39.3802 90.9066 34.4312 90.7004 36.0898C88.7441 38.5616 87.4751 42.3816 86.7084 45.4687C86.4493 46.5012 84.8367 54.4195 85.4236 54.7031C86.6344 52.1617 91.4195 47.6462 91.8425 46.7687C91.9165 46.6136 91.1816 46.7794 91.2714 46.1909C91.4142 45.2653 92.2073 46.3675 92.2708 46.3354C92.5457 46.1909 95.8926 42.3388 96.4055 41.7182C97.4154 40.493 98.5046 38.7381 99.3982 37.3899C99.9375 37.5076 99.1179 41.0387 98.9699 42.0071C98.4359 45.4794 97.463 47.582 99.2554 45.3242C99.8159 44.6233 102.951 38.9468 103.247 38.1068C104.104 35.6671 104.241 30.1939 104.389 35.3675C105.606 35.3515 104.463 32.2912 104.818 30.4614C100.144 30.7236 94.3223 34.3617 92.4082 31.9059L92.4135 31.9006Z" fill="#7B645F"/>
<path d="M116.656 54.4142C128.569 56.7254 131.339 63.0494 132.201 63.3597C132.841 63.5951 140.513 61.8402 145.747 62.4929C137.7 57.1695 135.247 53.9594 125.068 53.5474C122.657 53.4511 116.915 53.6063 116.656 54.4142Z" fill="#392127"/>
<path d="M131.773 33.6341C132.143 34.137 132.926 34.6131 132.915 35.3675C134.057 35.9079 135.749 37.6574 136.05 35.8009C133.967 31.3335 132.984 28.5942 129.489 24.9775C126.112 23.5329 122.737 22.0902 119.363 20.6492C118.539 21.029 125.983 25.78 131.773 33.6341Z" fill="#392127"/>
<path d="M124.645 32.1895C126.263 31.8417 125.877 31.0446 126.216 31.0339C126.618 31.0232 126.464 32.2912 132.92 35.3622C132.936 34.6078 132.148 34.1316 131.778 33.6287C127.929 31.2247 124.078 28.8189 120.225 26.4113C121.699 28.3338 123.172 30.2581 124.645 32.1842V32.1895Z" fill="#392127"/>
<path d="M109.529 37.0956C112.262 36.0577 111.305 42.4405 111.527 46.7634C112.363 46.0251 113.976 43.794 114.377 42.8685C113.045 39.933 111.714 36.9993 110.385 34.0674C109.619 34.6827 109.73 36.1058 109.529 37.0956Z" fill="#553E40"/>
<path d="M86.7084 38.8291C86.2749 40.2415 85.4236 45.0941 86.7084 45.4687C87.4804 42.3816 88.7441 38.5616 90.7004 36.0898C90.9066 34.4366 87.105 39.3802 86.7084 38.8291Z" fill="#392127"/>
<path d="M122.361 19.1993C124.556 20.7776 127.665 23.0835 129.494 24.9721C132.989 28.5888 133.967 31.3281 136.056 35.7955C135.754 37.652 134.057 35.9025 132.92 35.3622C126.464 32.2912 126.618 31.0232 126.216 31.0339C125.877 31.0392 126.263 31.8364 124.645 32.1895C124.598 32.2002 124.799 32.7513 123.646 32.1895C110.227 23.2601 121.309 32.3554 125.216 37.2401C125.37 40.0275 120.712 33.9069 119.226 34.3563C125.534 46.9988 122.213 41.44 114.806 32.7673C114.557 34.7415 116.519 37.2294 115.948 38.5402C115.831 38.8023 115.356 38.064 115.234 38.3957C115.139 38.6579 115.366 40.5839 114.377 42.8685C113.976 43.7994 112.363 46.0304 111.527 46.7634C111.311 42.4405 112.262 36.0577 109.529 37.0956C109.037 39.546 108.863 42.0392 107.673 44.313C107.437 40.896 107.199 37.4808 106.959 34.0674C106.057 37.0029 105.154 39.9366 104.252 42.8685C104.358 40.3699 104.469 37.8661 104.395 35.3622C104.247 30.1939 104.109 35.6671 103.253 38.1015C102.957 38.9414 99.8159 44.6126 99.2607 45.3189C97.4683 47.5766 98.4411 45.4687 98.9752 42.0017C97.5581 41.5095 97.7591 47.919 94.2694 50.6583C93.5292 50.3855 96.7862 42.4512 96.4108 41.7128C95.8979 42.3335 92.551 46.1909 92.276 46.33C92.2126 46.3621 91.4195 45.26 91.2767 46.1856C91.1868 46.7741 91.9218 46.6029 91.8477 46.7634C91.4248 47.6462 86.6397 52.1617 85.4289 54.6977C84.842 54.4142 86.4546 46.4959 86.7137 45.4633C85.4288 45.0888 86.2801 40.2362 86.7137 38.8237C87.7236 35.528 90.0553 34.0514 92.4188 31.8953C99.3506 25.5713 95.5383 29.6535 89.5689 30.8841C92.7061 27.6597 95.8433 24.4371 98.9804 21.2163C89.5424 24.4639 81.0668 29.7819 73.8812 36.8014C74.6532 37.2775 78.55 41.5095 79.0152 42.4297C79.2162 42.8257 78.7192 42.8417 78.7297 42.8631C79.2955 44.099 80.7284 47.1005 80.4429 48.3471C80.3477 48.7483 80.1626 48.6146 80.1573 48.636C80.8235 51.9103 80.501 55.3451 79.4435 58.4482C78.7244 57.7313 78.4125 57.0732 77.3021 57.2925C77.5189 58.2235 77.9102 60.1977 77.8732 61.043C77.8309 62.0328 77.0378 64.2692 76.7311 65.6602C76.5883 66.3183 75.7794 68.1802 75.589 68.9773C74.8964 71.9199 76.1072 74.2901 73.8759 70.5663C73.8389 71.3421 73.5904 71.1121 73.5904 71.1442C74.1403 72.6315 75.0391 72.9204 75.3035 74.6057C75.3564 74.9535 75.3511 75.6865 75.3035 76.0503C75.2506 76.4676 75.4621 77.5644 75.1607 77.7837C69.5402 77.2648 71.7451 77.8533 75.4463 79.2283C75.7635 79.6082 75.4885 80.2555 75.589 80.6728C75.8481 81.7643 75.5626 82.5989 75.589 82.6952C75.6049 82.7487 76.1654 82.4865 76.4456 83.4175C78.4707 90.1427 79.0893 93.7166 83.8638 99.5804C85.9629 102.159 93.894 109.724 96.9818 108.526C96.506 107.541 96.7227 106.76 96.6963 105.787C96.6963 105.69 96.6963 105.594 96.6963 105.498C94.9726 102.662 91.1498 100.426 88.7123 97.2744C77.0642 82.2297 82.875 62.8246 99.9798 55.5698C106.24 52.9161 110.2 53.1622 116.667 54.4142C116.926 53.6063 122.673 53.4511 125.079 53.5474C135.257 53.9594 137.711 57.1748 145.758 62.4929C147.476 62.7069 153.367 64.3387 154.741 65.0878C166.437 71.4598 166.411 98.8527 146.757 109.243C143.643 110.891 140.983 109.441 140.196 114.438C142.145 114.342 144.094 114.245 146.044 114.149C149.02 113.389 151.183 112.287 153.742 110.687C154.873 109.981 155.55 109.505 156.592 108.665C157.554 107.889 158.58 106.953 159.442 106.07C160.013 105.482 161.187 104.353 161.44 104.048C161.509 103.968 162.17 102.871 162.582 102.314C163.042 101.699 163.598 100.934 164.01 100.292C164.38 99.7141 164.819 99.1577 165.152 98.5585C167.997 93.4758 169.784 87.2482 170.857 81.5289C170.931 81.1276 171.412 79.8864 171.428 79.7954C171.46 79.6135 171.402 79.4048 171.428 79.2176C171.571 78.2653 171.946 75.7988 171.999 75.1782C172.153 73.4608 172.295 69.7317 172.285 67.9608C172.269 65.4088 171.846 62.6909 171.428 60.171C171.175 58.6194 170.968 57.0732 170.572 55.5537C170.143 57.3461 166.442 51.8996 165.152 49.7809C166.834 55.4307 166.971 61.6851 167.151 67.5328L166.437 67.6772C164.868 61.8563 163.3 56.0353 161.731 50.2143C161.927 58.6354 167.992 73.1184 159.304 55.2648C158.876 57.1909 158.538 59.7857 158.019 58.8709C155.688 46.1963 153.562 42.3281 157.163 58.0041L156.021 57.7152C153.377 51.5679 153.488 42.5261 152.6 47.4696L153.599 58.4375C152.743 55.552 151.888 52.6664 151.035 49.7809C147.101 59.9837 147.857 55.527 149.75 46.0304C150.956 39.974 151.839 38.3797 147.466 44.7303H146.609C150.453 36.8067 152.415 32.3982 145.753 42.2746C145.726 42.4244 146.133 42.601 146.038 43.5747C145.605 47.9993 144.753 44.5163 144.896 39.2464C144.896 39.1126 145.779 37.2026 145.467 36.6516C145.282 36.3199 141.66 36.9351 146.038 30.8787C148.322 27.7168 149.782 27.9094 150.887 27.5616C152.061 27.1871 153.552 26.3525 154.736 26.9838C151.569 23.549 141.19 29.4395 152.737 23.8111C158.427 24.2873 155.529 22.8053 149.887 20.9274C144.515 21.5266 140.011 25.8763 146.324 17.3214C148.322 14.6142 153.753 10.3073 146.038 15.4434C145.763 15.6254 145.441 15.8287 145.182 16.0213C139.889 19.9376 137.219 26.4755 140.333 17.0324C140.428 13.1643 140.539 9.6599 138.477 6.20903C137.779 6.35349 141.703 12.7523 135.913 19.7717C136.436 15.9036 135.913 11.9284 132.92 9.23724L132.777 14.2878C127.379 1.01936 132.201 14.0042 129.071 19.1939C125.375 17.3963 121.394 15.8608 117.233 15.8768C118.962 16.9522 120.706 18.0062 122.367 19.1939L122.361 19.1993Z" fill="#392127"/>
<path d="M149.745 46.0411C147.852 55.543 147.096 59.9944 151.03 49.7916C151.886 52.6771 152.741 55.5627 153.594 58.4482L152.595 47.4803C148.703 51.6321 153.689 43.3607 149.745 46.0358V46.0411Z" fill="#553E40"/>
<path d="M96.4055 41.7128C96.7862 42.4512 93.5239 50.3908 94.2641 50.6583C97.7538 47.9137 97.5528 41.5095 98.9699 42.0017C99.1179 41.0334 99.9375 37.5022 99.3982 37.3845C98.5046 38.7328 97.4154 40.493 96.4055 41.7128Z" fill="#553E40"/>
<path d="M149.316 43.7352C148.555 44.3398 146.239 50.7118 146.752 50.9526C147.101 51.1131 149.94 44.5324 149.316 43.7352Z" fill="#553E40"/>
<path d="M75.2982 74.6164C75.0339 72.9258 74.1403 72.6369 73.5851 71.1549C73.6115 72.7599 73.3577 73.8728 75.2982 74.6164Z" fill="#D1793A"/>
<path d="M64.4591 87.8902C62.2595 89.4792 60.134 91.1913 58.1829 93.0853C68.6573 93.5507 82.5367 102.962 82.4256 114.443C84.0066 114.802 82.3357 121.366 82.7112 124.978C82.3569 125.984 80.6702 124.009 80.1468 123.678C79.544 123.298 78.238 122.185 78.0054 122.233C77.5454 122.335 72.9824 128.873 72.1575 129.739C71.6764 132.661 71.6394 130.328 77.1488 125.411C77.8415 125.304 82.1084 128.926 82.9967 129.595C74.7113 130.553 78.7456 137.315 83.5677 140.129L83.8532 139.84C82.119 138.984 78.7773 135.148 80.5751 133.49C87.1208 133.757 93.5873 133.335 100.112 133.201C93.9627 132.254 85.5664 124.994 85.9946 118.194C99.8212 130.708 103.163 129.793 118.369 127.428C98.843 120.986 77.6405 106.15 72.3056 85.0011C69.3499 85.0653 66.6322 87.1573 64.4644 87.8849L64.4591 87.8902Z" fill="#1B161E"/>
<path d="M57.6172 93.6631C55.9464 96.1777 64.1947 95.8673 67.5998 97.558C65.0354 98.0181 61.1333 98.7778 60.0388 101.164C61.937 100.891 66.6481 99.7355 64.6018 101.453L70.1642 101.597C67.346 103.518 65.6117 106.846 62.4657 108.237L63.1795 108.959C68.6044 105.498 65.4743 108.729 64.1788 111.554C65.6752 112.351 65.8708 109.451 68.8846 108.093C69.4028 108.333 64.8398 112.769 63.8933 118.194C63.4598 120.671 63.5814 122.8 63.8933 125.267C65.8708 126.107 63.4122 121.019 66.1775 116.032C70.1748 108.831 65.8761 119.89 65.6064 122.961C65.3738 125.63 65.4901 132.361 67.6051 133.64C70.2541 124.122 68.1867 128.343 69.6037 133.062C70.8833 137.326 75.7212 139.659 79.7291 140.424C80.9875 140.664 85.2544 141.114 83.5783 140.135C78.7562 137.321 74.7219 130.558 83.0072 129.6C82.119 128.931 77.852 125.309 77.1594 125.416C71.6499 130.333 71.6869 132.666 72.1681 129.745L71.7398 130.034C72.7497 121.024 73.8177 119.686 72.1681 129.745C72.9929 128.883 77.5559 122.34 78.0159 122.238C78.2486 122.185 79.5493 123.303 80.1573 123.683C80.8553 121.489 82.4203 116.289 82.4415 114.449C82.5525 102.967 68.6731 93.5561 58.1988 93.0906C57.9926 93.2886 57.8234 93.4705 57.6278 93.6684L57.6172 93.6631Z" fill="#6B524E"/>
<path d="M153.166 29.5893C151.807 29.5626 151.22 30.1297 150.316 31.0339C152.669 31.2746 149.332 36.5071 147.751 35.94C146.731 38.3904 146.192 39.5835 145.753 42.2906C152.415 32.4089 150.453 36.8228 146.609 44.7464H147.466C151.833 38.3957 150.956 39.9847 149.75 46.0465C153.7 43.3714 148.714 51.6428 152.6 47.491C153.488 42.5475 153.377 51.5893 156.021 57.7366L157.163 58.0255C153.562 42.3495 155.682 46.2177 158.019 58.8923C158.538 59.8018 158.876 57.2123 159.304 55.2862C167.986 73.1398 161.922 58.6569 161.731 50.2357C163.3 56.0567 164.868 61.8777 166.437 67.6987L167.151 67.5542C166.971 61.7065 166.834 55.4521 165.152 49.8023C165.126 49.7595 164.227 49.4599 164.724 48.9356C165.279 49.3208 165.105 49.6364 165.152 49.8023C166.442 51.9156 170.143 57.3675 170.572 55.5751C170.054 53.5742 168.853 50.6048 168.007 48.6467C165.411 42.6759 159.019 32.5159 153.176 29.6L153.166 29.5893Z" fill="#7B645F"/>
<path d="M145.747 42.2906C146.181 39.5835 146.726 38.3904 147.746 35.94C148.523 34.0781 148.777 32.5587 150.31 31.0339C151.22 30.135 151.807 29.5626 153.16 29.5893C150.897 28.4604 149.02 29.5786 150.876 27.567C149.771 27.9201 148.312 27.7221 146.028 30.8841C141.65 36.9405 145.272 36.3252 145.457 36.6569C145.769 37.2133 144.891 39.1233 144.886 39.2518C144.738 44.5217 145.594 48.0046 146.028 43.58C146.123 42.6063 145.716 42.4298 145.742 42.2799L145.747 42.2906Z" fill="#392127"/>
<path d="M150.316 31.0339C148.777 32.5587 148.523 34.0781 147.751 35.94C149.332 36.5071 152.669 31.2746 150.316 31.0339Z" fill="#6B524E"/>
<path d="M165.147 49.797C165.099 49.6311 165.274 49.3208 164.719 48.9302C164.222 49.4545 165.12 49.7542 165.147 49.797Z" fill="#392127"/>
<path d="M63.888 118.194H61.6039C60.742 121.361 60.0705 125.609 60.1763 128.873C60.5411 140.033 67.6474 147.903 78.0054 150.808C79.4435 151.21 82.2829 150.546 82.4256 152.253C95.8239 150.771 108.144 144.265 118.507 135.801C119.115 136.138 117.285 138.005 116.651 138.974C117.777 138.187 118.597 137.096 119.501 136.09C120.379 135.116 121.7 133.42 122.636 132.917C122.673 132.896 122.7 132.447 123.207 132.34C127.162 131.5 135.987 134.758 139.181 138.69L139.323 137.535C139.857 137.989 140.545 138.155 141.179 138.401C146.673 138.412 152.193 137.631 156.724 134.362C156.93 133.961 153.922 130.125 153.446 129.456C151.69 131.601 139.894 130.301 139.757 129.6C139.678 129.204 145.906 128.257 146.604 127.433C141.84 127.219 136.722 130.392 131.773 128.445C131.672 128.225 134.221 124.806 132.915 124.261C128.505 126.775 123.181 126.684 118.369 127.433C103.168 129.798 99.8212 130.708 85.9946 118.199C85.5664 124.999 93.9627 132.259 100.112 133.206C103.972 133.126 112.326 132.318 115.657 132.917C119.205 133.554 105.833 136.283 104.532 136.379C101.487 136.609 98.2667 136.336 95.2634 135.801C109.984 140.37 109.814 138.433 95.6917 140.418C92.0117 140.953 85.947 138.904 89.4156 140.707C87.1208 140.782 85.9312 140.868 83.8532 139.84L83.5677 140.129C85.2438 141.108 80.9716 140.659 79.7185 140.418C75.7106 139.659 70.8727 137.321 69.5931 133.056C68.1761 128.332 70.2488 124.116 67.5945 133.634C65.4795 132.356 65.3632 125.625 65.5959 122.955C65.8655 119.89 70.1642 108.825 66.1669 116.027C63.4016 121.013 65.8655 126.101 63.8828 125.261C63.5708 122.8 63.4492 120.671 63.8828 118.188L63.888 118.194Z" fill="#392127"/>
<path d="M110.666 147.925C111.067 146.298 112.913 144.961 113.23 144.463C113.716 143.709 114.145 142.917 114.658 142.152C115.345 141.125 115.979 140.017 116.656 138.979C117.285 138.005 119.115 136.144 118.512 135.806C108.149 144.27 95.8292 150.776 82.4309 152.258C60.1393 154.725 54.4765 142.703 56.4751 122.533C57.0356 116.888 57.6278 111.388 59.7533 106.081C54.191 111.768 51.9121 127.738 52.4778 135.373C54.7779 166.431 92.3183 158.743 110.666 147.93V147.925Z" fill="#1B161E"/>
<path d="M82.4309 152.253C82.2829 150.552 79.4488 151.215 78.0107 150.808C67.6526 147.903 60.5517 140.033 60.1816 128.873C59.3197 129.006 59.4678 127.294 59.0395 126.706C58.6112 126.123 57.6013 126.064 57.3264 125.55C56.9827 124.908 57.3898 122.715 56.4698 122.522C54.4712 142.692 60.134 154.714 82.4256 152.248L82.4309 152.253Z" fill="#1B161E"/>
<path d="M64.1736 111.559C63.1795 113.721 62.2331 115.893 61.6092 118.199H63.8933C64.8398 112.774 69.4028 108.339 68.8846 108.098C65.8708 109.457 65.6752 112.362 64.1788 111.559L64.1736 111.559Z" fill="#553E40"/>
<path d="M132.915 124.255C134.221 124.801 131.672 128.22 131.773 128.439C136.722 130.387 141.84 127.219 146.604 127.428C153.076 125.812 151.431 126.379 152.88 128.295C154.953 128.52 160.087 131.157 162.292 132.623C163.46 131.334 163.888 132.024 165.427 132.045C166.617 132.061 169.218 132.024 169.705 132.912C170.313 131.687 172.132 130.258 170.561 128.873C155.984 129.67 143.537 117.15 141.755 116.46C139.868 115.733 139.762 117.707 138.62 118.916C137.335 120.27 134.279 123.48 132.915 124.255Z" fill="#281B23"/>
<path d="M170.566 128.873C172.137 130.258 170.318 131.687 169.71 132.912C169.001 134.351 168.203 135.833 167.426 137.24C166.183 139.498 164.888 141.553 163.719 143.88C166.009 143.227 168.282 142.537 170.566 141.857C172.671 141.237 174.828 140.745 176.843 139.835C176.832 139.685 176.388 139.252 176.557 138.102C169.451 134.319 174.167 131.633 178.556 127.423C178.038 127.594 171.301 128.824 170.572 128.867L170.566 128.873Z" fill="#1B161E"/>
<path d="M100.112 133.206C93.582 133.34 87.1208 133.763 80.5751 133.495C78.7773 135.148 82.1243 138.99 83.8532 139.846C85.9312 140.873 87.1208 140.787 89.4156 140.713C85.947 138.91 92.0117 140.959 95.6917 140.424C109.82 138.433 109.984 140.37 95.2634 135.806C95.1365 135.769 94.9462 136.384 92.699 135.373C93.4604 134.945 94.5761 135.683 95.2634 135.806C98.2667 136.341 101.487 136.614 104.532 136.384C105.833 136.288 119.205 133.559 115.657 132.923C112.326 132.323 103.972 133.131 100.112 133.212V133.206Z" fill="#6B524E"/>
<path d="M82.4309 114.443C82.4151 116.284 80.8447 121.489 80.1468 123.678C80.6702 124.009 82.3622 125.984 82.7112 124.978C82.341 121.366 84.0066 114.807 82.4256 114.443H82.4309Z" fill="#392127"/>
<path d="M72.1628 129.739C73.8125 119.676 72.7444 121.019 71.7345 130.028L72.1628 129.739Z" fill="#553E40"/>
<path d="M152.88 128.295C153.129 128.621 153.208 129.113 153.451 129.45C153.927 130.119 156.941 133.955 156.729 134.357C152.198 137.631 146.678 138.407 141.184 138.396C143.664 139.37 145.589 140.21 148.46 140.418C152.632 140.718 156.312 138.749 158.3 139.84C158.966 138.701 162.017 132.928 162.292 132.623C160.087 131.152 154.948 128.52 152.88 128.295Z" fill="#1B161E"/>
<path d="M139.191 138.685C139.466 139.027 140.042 140.161 140.333 140.707C141.983 140.697 141.766 144.27 142.475 144.747C146.059 144.966 149.512 146.041 153.028 144.747C153.33 144.634 154.948 142.949 155.455 143.88C155.772 143.698 155.973 143.43 156.312 143.302C157.004 142.157 157.634 140.991 158.31 139.84C156.322 138.749 152.642 140.718 148.47 140.418C145.599 140.215 143.675 139.37 141.195 138.396C140.566 138.15 139.873 137.984 139.339 137.529L139.196 138.685L139.191 138.685Z" fill="#1B161E"/>
<path d="M146.604 127.433C145.906 128.257 139.678 129.199 139.757 129.6C139.9 130.301 151.696 131.601 153.446 129.456C153.203 129.119 153.123 128.632 152.875 128.3C151.426 126.385 153.076 125.818 146.599 127.433L146.604 127.433Z" fill="#553E40"/>
<path d="M95.2634 135.801C94.5761 135.678 93.4604 134.94 92.699 135.368C94.9462 136.379 95.1418 135.764 95.2634 135.801Z" fill="#553E40"/>
<path d="M96.691 98.2803C96.7227 98.184 97.5211 97.6918 98.1186 96.8357C87.639 91.9189 85.413 76.4248 92.4135 67.6879C102.777 54.7459 122.113 59.6787 131.345 71.4384C139.942 66.9282 153.266 67.5863 157.158 78.078C161.171 88.8961 152.901 103.802 140.899 104.342C141.005 104.717 141.465 106.808 141.47 106.937C143.707 106.787 147.825 104.556 149.597 103.186C159.082 95.8566 164.433 77.955 152.447 70.2828C142.972 64.2157 132.402 69.6622 131.339 69.4161C130.271 69.17 123.525 59.9569 112.516 58.7371C88.6489 56.0888 76.8368 84.5196 96.6857 98.2749L96.691 98.2803Z" fill="#E29150"/>
<path d="M92.4135 67.6879C85.413 76.4301 87.639 91.9243 98.1186 96.8357C100.049 94.0483 100.979 94.0643 103.538 92.2185C94.8616 88.8533 92.1756 77.4306 99.8317 71.4384C104.495 67.7896 111.258 66.8694 116.09 70.8606C116.984 71.5989 117.872 72.7171 118.375 73.7443C121.082 79.3513 119.728 83.4549 116.947 88.4627C116.508 89.2599 114.922 91.3625 115.377 91.6354C123.149 90.7472 129.224 94.4924 129.922 94.2302C130.832 93.8878 130.113 91.6728 130.351 90.1908C131.847 80.8066 139.635 74.2847 147.323 77.7784C156.402 81.9034 153.044 101.672 138.911 100.292C139.006 100.442 139.408 101.421 139.482 101.737C140.254 102.528 140.619 103.293 140.909 104.331C152.912 103.791 161.181 88.8854 157.168 78.0673C154.313 79.5654 155.096 73.5678 146.757 71.7166C138.546 69.8922 132.228 73.2521 130.784 72.8723C129.261 72.4657 119.792 59.3738 102.264 63.0601C97.5476 64.0498 95.845 66.4895 92.4241 67.6772L92.4135 67.6879Z" fill="#FAC287"/>
<path d="M130.345 90.2015C130.107 91.6835 130.826 93.9038 129.917 94.2409C129.219 94.5031 123.144 90.7526 115.371 91.6461C114.917 91.3679 116.498 89.2652 116.942 88.4734L114.658 88.7623C113.182 90.2925 112.516 90.0785 112.093 90.2069C109.751 91.7745 109.148 90.4904 106.816 91.9403H114.092C118.359 91.7959 120.944 92.6412 124.931 93.6738C125.1 93.7166 125.682 93.6738 126.644 93.9627C128.563 94.5459 132.185 95.8032 133.777 96.8464C134.607 97.3975 137.52 100.34 138.054 101.175C138.451 100.763 138.937 101.196 139.482 101.753C139.408 101.437 139.006 100.463 138.911 100.308C138.054 98.9383 136.146 97.9111 135.775 96.5575C132.497 95.6426 131.62 92.2292 131.783 89.0512C130.832 85.6378 131.588 89.9554 130.356 90.2069L130.345 90.2015Z" fill="#B55A2B"/>
<path d="M92.4135 67.6879C95.8344 66.5002 97.537 64.0605 102.253 63.0707C119.781 59.3898 129.256 72.4764 130.774 72.883C132.217 73.2682 138.535 69.9029 146.747 71.7273C155.085 73.5785 154.302 79.576 157.158 78.078C153.266 67.5916 139.942 66.9282 131.345 71.4384C122.108 59.6787 102.777 54.7405 92.4135 67.6879Z" fill="#FAD7AA"/>
<path d="M99.8264 71.4384C92.1703 77.4306 94.8563 88.8533 103.533 92.2185C105.288 92.898 107.498 91.6514 105.532 93.952C107.467 93.096 110.306 92.1329 112.379 91.9296C112.939 91.8761 113.526 91.951 114.092 91.9296H106.816C109.148 90.4797 109.751 91.7691 112.093 90.1962C108.408 91.3197 104.649 90.4958 101.54 88.1738C97.1299 84.8834 97.1775 78.1208 101.54 74.6111C101.46 73.9744 101.968 73.739 102.396 73.4554C101.317 72.7867 101.508 72.3747 101.54 71.1442C100.963 71.3796 100.514 71.9895 99.8264 71.4331V71.4384Z" fill="#9D4C2F"/>
<path d="M130.345 90.2015C131.577 89.9554 130.821 85.6378 131.773 89.0459C131.942 85.8144 133.534 83.6796 136.05 81.8285C140.27 78.7254 146.498 78.3134 148.032 84.1398C151.278 90.6295 145.954 99.7195 138.62 96.8411C138.298 96.8197 137.272 96.6324 136.907 96.5522C136.569 96.4773 136.077 96.6378 135.765 96.5522C136.135 97.9058 138.049 98.933 138.9 100.303C153.039 101.683 156.391 81.9194 147.313 77.7891C139.625 74.2954 131.836 80.8173 130.34 90.2015H130.345Z" fill="#B55A2B"/>
<path d="M101.54 71.1495C101.508 72.3747 101.317 72.792 102.396 73.4608C106.192 70.9516 113.716 70.1865 116.371 74.6164L118.369 73.7497C117.872 72.7171 116.984 71.6043 116.085 70.866C114.948 71.3154 112.886 69.8762 111.379 69.7103C108.514 69.4 104.268 70.0313 101.54 71.1549V71.1495Z" fill="#B55A2B"/>
<path d="M116.371 74.6164C116.624 75.0391 117.312 76.6602 116.656 76.9277C117.825 80.4642 117.296 86.0337 114.658 88.7623L116.942 88.4734C119.723 83.4656 121.076 79.3567 118.369 73.7551L116.371 74.6218V74.6164Z" fill="#D1793A"/>
<path d="M99.8264 71.4384C100.514 71.9948 100.963 71.3849 101.54 71.1495C104.268 70.0313 108.514 69.3947 111.379 69.705C112.886 69.8708 114.948 71.3047 116.085 70.8606C111.252 66.8694 104.49 67.7896 99.8264 71.4384Z" fill="#963C11"/>
<path d="M138.049 101.169C139.873 104.01 140.777 107.889 139.477 110.982C138.943 112.25 138.097 112.694 137.192 113.576C136.849 113.914 136.151 114.759 135.765 115.021C126.089 121.602 103.559 115.989 98.6844 104.342C98.5575 104.24 98.1873 102.068 96.4002 104.342C96.3791 105.236 96.6857 105.31 96.6857 105.498C96.6857 105.594 96.6857 105.69 96.6857 105.787C100.62 125.502 141.935 128.268 141.465 106.942C141.465 106.808 140.999 104.717 140.894 104.347C140.603 103.304 140.243 102.539 139.466 101.753C138.921 101.196 138.435 100.763 138.038 101.175L138.049 101.169Z" fill="#D1793A"/>
<path d="M103.538 92.2185C100.979 94.0643 100.049 94.0483 98.1186 96.8357C97.5264 97.6918 96.728 98.184 96.691 98.2803C96.5906 98.5638 96.4266 103.582 96.4055 104.342C98.1926 102.068 98.5575 104.24 98.6896 104.342C109.122 112.49 114.853 116.99 129.208 116.177C129.774 115.144 128.664 115.214 127.781 115.021C125.01 114.416 120.812 114.507 116.513 113.288C111.268 111.8 95.7975 104.77 100.397 97.7025C101.603 95.846 103.575 94.8187 105.532 93.952C107.498 91.6514 105.288 92.9034 103.533 92.2185L103.538 92.2185Z" fill="#B55A2B"/>
<path d="M105.532 93.952C103.575 94.8187 101.603 95.8513 100.397 97.7025C109.153 108.724 125.888 113.411 139.471 110.976C140.777 107.884 139.873 104.005 138.044 101.164C137.51 100.329 134.596 97.3815 133.766 96.8357C133.338 97.9111 133.819 99.4787 132.339 99.4306C134.157 102.207 128.822 101.474 127.49 101.742C127.316 101.774 127.638 103.181 124.497 102.897C121.547 102.63 121.674 100.699 121.505 100.586C119.585 99.3396 114.451 97.6864 115.8 95.3912C115.747 95.3698 115.932 94.6261 115.657 94.5245C113.806 93.861 111.675 95.0434 112.379 91.9296C110.311 92.1276 107.467 93.096 105.532 93.952Z" fill="#F8E8C3"/>
<path d="M127.781 115.021C129.087 114.855 130.483 114.887 131.773 114.732C129.018 112.25 133.671 113.683 134.908 114.154C135.67 113.956 136.389 113.598 137.192 113.576C138.097 112.688 138.943 112.244 139.477 110.982C125.893 113.411 109.153 108.729 100.403 97.7078C95.8027 104.775 111.274 111.806 116.519 113.293C120.812 114.513 125.016 114.416 127.786 115.026L127.781 115.021Z" fill="#FAC287"/>
<path d="M135.765 115.021C133.618 115.668 131.44 116.048 129.203 116.177C114.848 116.99 109.116 112.496 98.6844 104.342C103.554 115.989 126.089 121.602 135.765 115.021Z" fill="#FAC287"/>
<path d="M134.914 114.154C133.867 114.422 132.851 114.604 131.778 114.732C130.483 114.887 129.087 114.855 127.786 115.021C128.669 115.214 129.774 115.144 129.214 116.177C131.45 116.048 133.629 115.668 135.775 115.021C136.161 114.759 136.854 113.919 137.203 113.576C136.405 113.598 135.68 113.956 134.919 114.154H134.914Z" fill="#9D4C2F"/>
<path d="M114.092 91.9296C113.526 91.951 112.939 91.8761 112.379 91.9296C111.675 95.0488 113.806 93.861 115.657 94.5245C115.932 94.6261 115.747 95.3698 115.8 95.3912C116.117 95.5089 119.839 94.7492 121.505 98.2749C122.959 99.3182 123.773 96.0814 124.926 93.6577C120.944 92.6305 118.353 91.7798 114.087 91.9243L114.092 91.9296Z" fill="#FCF9F2"/>
<path d="M124.931 93.6631C123.778 96.0867 122.964 99.3236 121.51 98.2803C121.991 99.2968 122.652 100.618 121.51 100.592C121.679 100.704 121.558 102.635 124.503 102.903C127.643 103.186 127.326 101.785 127.495 101.747C125.756 101.394 126.972 100.249 127.781 99.7248C129.171 98.0823 125.55 97.6222 126.639 93.952C125.682 93.6631 125.095 93.7059 124.926 93.6631H124.931Z" fill="#F9F1DA"/>
<path d="M127.781 99.7248C130.081 98.2428 131.741 99.4199 132.344 99.4359C133.824 99.4787 133.338 97.9111 133.771 96.8411C132.185 95.7925 128.563 94.5405 126.639 93.9573C125.55 97.6276 129.166 98.0877 127.781 99.7302L127.781 99.7248Z" fill="#E8E2D7"/>
<path d="M115.8 95.3965C114.451 97.6918 119.585 99.345 121.505 100.592C122.647 100.618 121.986 99.3022 121.505 98.2803C119.839 94.7545 116.117 95.5142 115.8 95.3965Z" fill="#2D2019"/>
<path d="M127.781 99.7248C126.972 100.244 125.756 101.389 127.495 101.747C128.828 101.48 134.163 102.218 132.344 99.4359C131.741 99.4199 130.081 98.2428 127.781 99.7248Z" fill="#130A05"/>
<path d="M131.773 114.732C132.846 114.604 133.861 114.422 134.908 114.154C133.666 113.683 129.018 112.25 131.773 114.732Z" fill="#FAD7AA"/>
<path d="M98.9752 82.4063C98.8536 84.7015 100.207 86.5099 101.54 88.1791C104.649 90.5011 108.408 91.3251 112.093 90.2015C113.42 89.3134 115.763 85.7876 115.086 85.5843C114.584 86.3333 113.96 86.5901 113.23 87.0288C109.672 89.1636 105.764 89.6344 102.248 87.0288C99.8793 85.274 99.9586 82.6524 98.9699 82.4117L98.9752 82.4063Z" fill="#34AABE"/>
<path d="M101.54 74.6164C97.1775 78.1262 97.1299 84.8888 101.54 88.1791C100.202 86.5099 98.8483 84.7015 98.9752 82.4063C99.6572 79.576 99.8635 84.2361 101.968 86.1568C102.497 86.2049 105.981 80.1539 110.38 86.5901C110.29 89.72 97.4154 84.5143 105.674 88.1791C108.355 88.2433 110.798 88.3289 113.235 87.0235C113.96 86.5901 114.584 86.328 115.091 85.579C115.768 85.7823 113.426 89.308 112.098 90.1962C112.521 90.0677 113.188 90.2818 114.663 88.7516C117.301 86.023 117.83 80.4535 116.662 76.917C114.578 70.6305 105.029 71.8022 101.545 74.6057L101.54 74.6164Z" fill="#130A05"/>
<path d="M102.396 73.4608C101.968 73.7444 101.466 73.9744 101.54 74.6164C105.024 71.8129 114.573 70.6359 116.656 76.9277C117.312 76.6656 116.624 75.0391 116.371 74.6164C113.711 70.1918 106.187 70.9516 102.396 73.4608Z" fill="#E8E2D7"/>
<path d="M106.959 78.9447C106.087 77.5323 105.806 75.8737 107.53 74.9053C105.399 72.4015 102.814 75.205 102.111 77.6446C103.612 78.3402 106.912 82.1281 106.959 78.9447Z" fill="#1B161E"/>
<path d="M107.53 74.9053C105.806 75.8791 106.087 77.5376 106.959 78.9447C112.336 81.2293 111.977 72.8188 107.53 74.9053Z" fill="#F3F4F7"/>
<path d="M98.9752 82.4063C99.9639 82.6471 99.8899 85.2686 102.253 87.0235C105.769 89.629 109.677 89.1582 113.235 87.0235C110.798 88.3236 108.355 88.2433 105.674 88.1791C97.4154 84.5143 110.29 89.72 110.38 86.5901C105.976 80.1539 102.491 86.2049 101.968 86.1568C99.8635 84.2307 99.6572 79.576 98.9752 82.4063Z" fill="#2D2D2D"/>
<path d="M106.531 84.7176C102.285 84.4982 106.996 87.5371 107.245 85.7288L106.531 84.7176Z" fill="#BEB9B1"/>
<path d="M136.05 81.8285C133.534 83.6796 131.942 85.8144 131.773 89.0459C131.609 92.2185 132.492 95.6373 135.765 96.5522C136.077 96.6378 136.569 96.4773 136.907 96.5522C135.77 95.9209 135.289 94.3479 135.622 94.2409C138.673 97.3815 143.601 95.6801 146.461 93.0853C145.087 96.9641 142.163 97.0818 138.62 96.8357C145.954 99.7141 151.278 90.6295 148.032 84.1344C145.758 79.5868 139.963 79.7419 136.05 81.8231V81.8285Z" fill="#130A05"/>
<path d="M136.907 96.5522C137.266 96.6324 138.292 96.8197 138.62 96.8411C142.168 97.0818 145.087 96.9695 146.461 93.0906C143.601 95.6801 138.673 97.3815 135.622 94.2462C135.289 94.3479 135.77 95.9262 136.907 96.5575L136.907 96.5522Z" fill="#32ABCF"/>
<path d="M136.05 81.8285C139.963 79.7419 145.753 79.5868 148.032 84.1398C146.498 78.3188 140.27 78.7254 136.05 81.8285Z" fill="#F2E5DE"/>
<path d="M141.042 82.9841H139.329C133.502 88.3611 145.821 88.7944 141.042 82.9841Z" fill="#F3F4F7"/>
<path d="M141.898 82.1174L140.899 82.5508C145.256 84.3698 140.846 87.4355 142.184 87.6013C146.9 85.8037 146.72 83.1072 141.898 82.1174Z" fill="#1B161E"/>
<path d="M139.905 90.7793C137.002 90.1694 135.5 93.2565 137.055 94.5298C142.94 96.4238 142.485 91.3197 139.905 90.7793Z" fill="#2D2D2D"/>
<path d="M139.334 91.6461C136.167 92.9087 140.687 95.7389 140.333 92.3683L139.334 91.6461Z" fill="#836971"/>
</svg>
