<svg width="253" height="256" viewBox="0 0 253 256" fill="none" xmlns="http://www.w3.org/2000/svg">
<g id="Vector">
<path d="M146.727 246.796C146.676 248.705 149.16 256.38 154.351 251.166C153.694 253.224 161.057 251.886 165.79 252.257C165.862 248.252 160.569 251.341 160.163 249.344C165.01 249.323 166.109 248.489 167.428 254.079C164.394 251.773 157.329 253.394 153.263 253.353C136.556 253.163 119.854 252.751 103.142 252.988C103.774 249.997 105.463 252.236 106.413 246.981C106.469 246.672 107.137 246.837 107.137 246.801H146.722L146.727 246.796Z" fill="#2A231D"/>
<path d="M102.783 252.988C103.004 253.909 102.008 253.827 101.33 253.713C96.0159 252.849 90.5788 252.849 84.9876 252.988C85.3624 252.545 87.1029 249.441 87.3493 249.349C87.8371 249.153 97.3816 249.184 97.8797 249.349C98.1826 249.447 100.76 253.116 101.51 253.353C102.218 253.574 102.516 252.957 102.783 252.988Z" fill="#401E17"/>
<path d="M88.982 245.705C89.4698 246.441 96.6423 246.986 97.8797 246.43C98.0748 246.343 100.519 243.347 100.606 243.152C103.034 244.274 104.282 243.183 104.965 243.152C103.651 244.372 107.147 245.35 107.142 246.791C107.142 246.827 106.469 246.662 106.418 246.971C105.468 252.231 103.779 249.987 103.147 252.977C103.029 252.967 102.901 252.993 102.783 252.977C102.516 252.947 102.218 253.564 101.51 253.343C100.76 253.106 98.1775 249.436 97.8797 249.338C97.3816 249.174 87.8371 249.143 87.3493 249.338C87.1029 249.436 85.3624 252.535 84.9876 252.977C81.8711 256.694 83.129 254.686 82.4461 252.612C84.2791 251.181 84.0583 249.899 81.7222 249.699C81.4809 249.678 81.2345 249.709 80.9983 249.699C80.8186 247.347 80.6235 247.625 80.6337 247.516C80.7159 246.842 80.8699 246.801 80.9983 246.425C81.3628 245.339 83.6784 242.997 84.813 242.786C88.8229 242.035 88.33 244.706 88.9872 245.7L88.982 245.705Z" fill="#EDBD11"/>
<path d="M100.786 245.705H102.239C107.414 251.263 95.3741 249.966 100.786 245.705Z" fill="#F6DD68"/>
<path d="M84.0788 245.339C88.2786 244.186 86.497 252.91 82.4461 247.707L84.0788 245.339Z" fill="#E9E96B"/>
<path d="M82.4461 252.622C82.1124 251.619 80.9418 250.687 81.7222 249.709C84.0583 249.91 84.2791 251.191 82.4461 252.622Z" fill="#1B1E1F"/>
<path d="M160.168 249.344C160.574 251.341 165.867 248.247 165.795 252.257C161.062 251.886 153.699 253.224 154.356 251.166C155.491 250.028 152.529 249.374 160.168 249.344Z" fill="#2D1816"/>
<path d="M151.815 242.791L150.906 244.974C154.269 243.378 154.551 246.6 154.901 246.796C155.578 247.172 156.107 246.425 156.174 246.43C161.539 246.796 165.842 246.94 164.527 244.248C166.925 242.575 170.195 242.081 171.792 245.339C172.1 245.967 172.311 247.594 172.157 248.252C172.131 248.366 171.156 249.714 170.704 250.075C170.011 250.63 167.68 248.808 169.251 253.353C169.009 253.636 168.147 255.211 167.977 255.175C167.644 255.103 168.08 254.573 167.433 254.084C166.114 248.494 165.015 249.333 160.168 249.349C152.529 249.38 155.491 250.028 154.356 251.171C149.166 256.385 146.681 248.711 146.732 246.801C146.763 245.638 147.451 244.078 148.549 243.522C151.943 243.409 150.3 242.936 151.091 242.797C151.317 242.755 151.599 242.843 151.815 242.797V242.791Z" fill="#EDBD11"/>
<path d="M156.174 246.43C156.04 245.566 156.538 245.741 156.538 245.705C156.985 245.952 157.088 246.024 157.627 246.07C164.615 246.662 163.362 245.061 164.527 244.248C165.842 246.94 161.539 246.796 156.174 246.43Z" fill="#67400B"/>
<path d="M170.699 250.075C171.756 250.944 169.882 252.602 169.246 253.353C167.675 248.813 170.006 250.63 170.699 250.075Z" fill="#2A231D"/>
<path d="M167.613 245.339H168.701C173.302 250.558 162.422 250.507 167.613 245.339Z" fill="#E9E96B"/>
<path d="M150.542 245.705L153.268 247.707C152.631 251.438 147.595 248.165 150.542 245.705Z" fill="#F6DD68"/>
<path d="M203.383 113.905C201.822 114.142 199.153 115.938 198.3 117.544C197.505 117.93 193.936 120.874 190.676 122.64C186.83 124.724 182.928 126.145 178.872 127.735C178.749 127.781 177.342 129.156 177.24 129.192C170.817 131.477 166.648 130.72 166.165 131.014C165.801 131.235 165.79 133.51 165.621 133.927C164.984 131.606 164.25 132.192 164.168 132.105C164.132 132.064 164.84 131.235 163.988 131.014C160.779 130.18 147.184 131.719 135.113 121.183C135.082 121.157 134.785 120.488 134.749 120.457C138.717 120.457 143.343 113.385 147.097 112.083C170.801 124.77 201.145 107.337 196.488 76.9494C195.302 69.1929 188.92 57.2312 183.052 52.0121C183.072 49.732 187.883 45.2129 189.952 40.3593C207.059 54.354 215.259 84.3611 207.747 104.985C206.618 108.094 204.025 111.249 203.388 113.905H203.383Z" fill="#80402B"/>
<path d="M70.4628 52.0121C60.4408 60.0621 54.3824 75.9561 55.938 88.6023C58.7619 111.604 85.6088 122.815 105.329 112.814C109.211 117.091 115.921 119.613 117.313 122.279C109.688 128.43 97.7462 131.745 88.0784 131.379C84.89 131.261 78.5492 129.367 76.6393 129.557C76.6034 129.207 76.7933 128.692 76.4596 128.466C75.8538 128.054 66.9202 125.234 63.203 123.005C57.4989 119.587 55.173 116.175 53.3966 116.813C54.0795 114.605 50.3469 113.287 49.0376 111.718C36.9311 97.1721 42.7636 57.9724 61.021 42.1762C64.2453 39.2939 66.9048 53.0518 70.4628 52.007V52.0121Z" fill="#80402B"/>
<path d="M60.6564 180.533C62.669 181.053 62.3764 181.923 62.4739 181.99C61.5754 183.21 63.357 184.676 64.2915 183.081C66.376 185.14 67.5774 186.056 68.2859 189.273C67.1461 190.04 65.5853 191.007 64.2915 191.455C58.156 187.945 57.8274 182.113 57.7556 191.821C62.8436 197.745 65.4775 192.073 70.2831 188.907C74.411 191.867 74.5445 194.219 71.5564 198.193C66.5146 204.894 60.9439 202.007 60.6615 202.562C62.8385 204.642 66.3965 204.482 67.1974 204.93C68.0703 209.748 71.4332 218.22 77.3684 213.67C78.4876 216.274 77.6764 221.514 79.5453 220.953C80.0895 221.004 80.8956 220.536 81.3628 220.227C84.161 220.073 82.7593 221.56 82.8158 221.684C74.678 223.763 77.1425 221.766 76.0951 215.131C68.1062 221.488 70.2626 213.381 68.4707 212.218C68.2345 212.064 64.6149 212.156 63.932 210.942C63.7523 210.628 63.701 206.84 63.5675 206.572C62.5458 204.493 58.115 208.008 59.9376 196.015C53.0012 197.323 55.2192 196.391 56.3077 186.185C55.8918 184.795 52.4211 187.096 51.9487 185.819C51.2967 184.049 52.0925 180.07 51.9487 177.991L57.9404 184.908C59.1572 183.642 59.7117 181.985 60.6667 180.538L60.6564 180.533Z" fill="#BA7142"/>
<path d="M86.8051 44.7291C86.687 44.7188 86.5638 44.7291 86.4406 44.7291C82.518 44.76 73.6409 49.4541 70.4628 52.0121C66.9048 53.057 64.2453 39.299 61.021 42.1813C61.2931 41.9446 62.3507 40.4313 62.4739 40.3593C64.1374 39.4174 68.2962 39.4997 68.2859 38.3571C68.2859 37.9608 62.7563 34.9807 61.75 34.1726C60.6975 33.3233 54.6699 27.9189 56.1229 26.8895C61.2828 32.3557 67.9008 36.1439 74.6472 39.2681C78.5595 41.0799 85.5883 42.8762 86.8154 44.7291H86.8051Z" fill="#532318"/>
<path d="M170.699 162.328C182.138 174.805 177.774 169.833 185.952 164.876C188.756 167.156 183.688 169.632 180.505 173.43L184.32 177.254C189.48 173.559 191.082 174.671 188.135 164.876C189.254 163.774 188.057 163.563 188.858 162.328L194.126 175.798C196.396 175.221 198.264 173.796 199.394 171.794C200.857 172.993 202.3 174.223 203.753 175.432L202.3 174.887C202.495 177.975 201.514 180.857 200.847 183.807L198.121 177.254C196.842 177.316 197.936 184.224 197.941 184.898C197.941 185.047 197.525 185.335 197.576 187.811C196.036 185.093 194.152 182.17 192.129 179.802C192.026 179.679 191.595 177.677 189.767 177.62C189.356 177.604 182.851 179.663 181.958 180.168C181.85 179.694 181.378 179.55 181.234 179.077C179.417 173.224 174.257 169.503 170.339 165.061C169.579 164.202 169.682 163.141 169.615 163.059C169.769 163.018 170.668 162.385 170.704 162.333L170.699 162.328Z" fill="#532318"/>
<path d="M182.323 187.451C183.18 189.232 191.472 195.089 191.764 195.645C192.381 196.808 192.011 203.89 193.582 204.93C193.161 208.075 193.207 206.618 189.588 205.656L192.129 201.831C185.624 205.28 177.738 197.431 179.417 191.09C179.709 189.993 180.967 188.099 181.958 187.451C182.061 187.502 182.235 187.399 182.323 187.451Z" fill="#BA7142"/>
<path d="M189.223 205.656C189.156 215.193 188.227 213.448 185.229 211.117C184.905 210.865 184.515 210.571 184.14 210.391C185.049 204.359 182.138 214.884 175.966 211.117C171.494 208.389 175.186 205.908 175.422 205.656C177.091 203.865 179.006 202.598 179.961 199.829C184.618 203.535 182.892 203.983 189.223 205.656Z" fill="#BA7142"/>
<path d="M108.595 228.591C107.368 235.092 103.137 230.063 102.418 231.324C102.11 231.869 101.258 241.628 100.601 243.157C100.519 243.352 98.0696 246.348 97.8745 246.436C96.6372 246.991 89.4646 246.441 88.9769 245.71C90.0756 245.535 94.6964 246.019 95.1534 245.53C95.6976 244.943 97.5511 231.808 98.7833 229.872C96.7707 228.586 96.7963 231.072 94.4243 230.053C94.7272 229.512 95.7644 228.545 96.2418 228.231C100.031 225.729 103.846 230.948 105.504 230.778C106.105 230.717 106.983 228.9 108.59 228.596L108.595 228.591Z" fill="#D68E59"/>
<path d="M89.7111 217.303L84.6282 223.31C87.4263 226.028 86.8 216.562 96.2521 224.036C94.9172 225.914 94.0033 226.975 93.7107 229.317C91.8931 228.102 89.4646 225.384 89.172 225.312C84.9311 224.293 86.4816 229.435 82.8158 221.673C82.7593 221.55 84.161 220.062 81.3628 220.217C85.1365 217.7 80.2692 217.221 89.7162 217.303H89.7111Z" fill="#80402B"/>
<path d="M153.992 228.956L157.622 246.07C157.083 246.024 156.98 245.957 156.533 245.705C156.451 240.321 152.164 242.714 151.81 242.791C151.589 242.838 151.307 242.75 151.086 242.791C151.091 226.141 149.309 233.481 144.73 230.778C144.18 230.454 143.98 229.435 143.821 229.322C146.506 229.337 151.045 230.351 153.263 228.231C153.827 228.292 153.946 228.931 153.987 228.956H153.992Z" fill="#D68E59"/>
<path d="M166.704 225.317C166.53 225.652 166.319 226.676 166.34 227.139C163.957 227.86 161.277 226.97 161.072 227.139C160.682 227.469 161.457 234.278 153.992 228.961C153.951 228.931 153.833 228.297 153.268 228.236C154.033 227.505 154.829 226.151 153.632 225.503L154.356 225.322C157.355 226.445 156.066 224.88 156.174 224.777C160.045 221.148 159.239 219.944 166.704 225.322V225.317Z" fill="#80402B"/>
<path d="M185.229 211.117C183.098 217.715 182.8 220.927 177.784 215.121C177.281 225.909 172.367 222.996 169.795 224.221C169.328 224.442 168.794 226.393 166.345 227.134C166.324 226.671 166.535 225.647 166.709 225.312C170.401 218.276 169.934 221.689 170.524 221.673C172.778 221.617 175.381 219.697 176.151 217.669C176.593 216.506 176.814 215.26 176.875 214.03C182.631 215.909 183.262 216.187 184.14 210.391C184.515 210.571 184.905 210.865 185.229 211.117Z" fill="#BA7142"/>
<path d="M245.879 160.872C244.883 159.276 243.713 157.675 242.609 156.136C235.077 145.631 225.327 137.319 215.372 129.192C217.6 125.748 218.781 122.109 220.095 118.27C229.758 123.818 238.034 135.028 242.614 145.029C244.683 149.548 248.323 156.461 245.884 160.866L245.879 160.872Z" fill="#BA7142"/>
<path d="M220.09 118.275C218.776 122.115 217.595 125.759 215.367 129.197C212.255 126.654 209.134 123.952 205.925 121.553C206.849 119.078 209.447 116.865 209.555 114.27C213.323 114.842 216.809 116.396 220.085 118.275H220.09Z" fill="#9D5331"/>
<path d="M203.383 113.905C204.687 113.709 208.055 114.044 209.56 114.27C209.452 116.865 206.849 119.078 205.93 121.553C204.959 120.828 199.779 116.813 199.209 116.818C199.153 116.818 198.798 117.302 198.3 117.544C199.153 115.938 201.828 114.142 203.383 113.905Z" fill="#80402B"/>
<path d="M179.417 191.09C177.733 197.431 185.624 205.275 192.129 201.831L189.588 205.656C189.475 205.625 189.336 205.687 189.223 205.656C182.892 203.983 184.618 203.535 179.961 199.829C179.001 202.598 177.086 203.865 175.422 205.656C175.422 204.482 177.147 203.731 177.599 202.923C177.871 202.444 177.219 202.408 177.235 202.377C178.128 200.514 178.544 200.632 178.688 198.373C178.806 196.515 177.142 190.637 179.411 191.09H179.417Z" fill="#672F18"/>
<path d="M200.842 183.812C200.708 184.409 200.78 187.126 200.298 187.451L197.936 184.903C197.931 184.229 196.837 177.321 198.116 177.26L200.842 183.812Z" fill="#BA7142"/>
<path d="M167.428 27.255C164.661 29.0256 161.914 30.1064 159.075 31.6248C138.317 26.6219 114.792 26.5653 94.0649 31.6248C93.7569 31.4549 90.0653 30.1785 87.7087 28.7116C85.7115 27.4712 86.1736 26.9616 86.076 26.8895C109.781 18.3918 143.564 19.2771 167.428 27.255Z" fill="#D68E59"/>
<path d="M159.075 31.6248C145.875 38.6917 133.516 42.4027 125.846 57.1128C119.582 43.7563 106.094 38.2902 94.0701 31.6248C114.797 26.5653 138.322 26.6219 159.08 31.6248L159.075 31.6248Z" fill="#D68E59"/>
<path d="M86.076 26.8895C86.1787 26.9565 85.7166 27.466 87.7087 28.7116C90.0653 30.1785 93.7569 31.4549 94.0649 31.6248C106.094 38.2902 119.582 43.7563 125.841 57.1128C133.511 42.4027 145.869 38.6917 159.07 31.6248C161.909 30.1064 164.656 29.0256 167.423 27.255C177.856 20.5844 185.562 11.1911 191.939 0.675781C194.101 3.04856 194.747 6.30662 195.025 9.41542C192.807 12.7404 191.533 16.4874 189.213 19.7918C186.774 23.2712 183.58 26.0351 180.495 28.8917C187.616 25.9168 193.217 19.4727 195.02 11.9632C195.256 23.5131 192.001 25.8601 192.658 26.1638C195.564 23.3741 198.47 20.5827 201.376 17.7896C203.383 17.8051 199.122 30.2197 196.108 32.9013C197.884 33.6115 207.496 24.7381 207.732 26.3491C206.69 33.7711 196.77 39.9887 189.937 40.0041C189.675 40.0041 185.583 39.1034 184.854 38.913C190.912 35.1556 197.474 31.1821 199.928 23.9866C195.533 29.4373 188.894 34.713 182.677 37.8218C176.536 40.8946 165.472 44.1629 157.072 48.3783C144.463 54.7143 133.927 62.44 128.926 76.2289C124.834 87.5214 128.541 86.0339 124.203 75.1377C118.93 61.8893 104.426 50.607 91.1538 46.1909C89.7727 45.7328 88.0476 44.8218 86.7948 44.7343C85.5677 42.8813 78.539 41.085 74.6267 39.2733C67.8803 36.149 61.2622 32.3608 56.1023 26.8947C54.6493 27.9189 60.677 33.3285 61.7295 34.1777C58.6233 36.077 64.0245 39.3865 58.8235 39.2733C51.9539 37.1939 44.6016 32.366 45.2023 24.3469C47.3639 26.3748 49.3354 28.7785 51.7382 30.5388C61.6319 37.7755 53.8843 31.2388 52.2825 27.08C51.7331 25.6491 50.9835 23.1116 50.8295 21.619C49.8232 11.7625 52.5186 21.8146 59.7271 25.4432C58.079 20.4764 57.5707 16.8014 57.7299 11.608C60.4562 18.8139 66.0012 26.3079 73.7077 27.8109C67.9214 22.9572 61.7243 17.0742 58.8184 9.9713C58.3357 8.79263 58.7978 7.29999 57.7299 7.60367C58.1509 5.07648 58.9672 2.52871 60.8156 0.686076C66.9818 11.6029 75.8024 19.9822 86.0555 26.8998L86.076 26.8895Z" fill="#BA7142"/>
<path d="M57.7504 11.5978C57.7864 10.3419 57.5913 8.55586 57.7504 7.59337C58.8184 7.2897 58.3563 8.77719 58.8389 9.961C61.7449 17.0639 67.9471 22.9469 73.7282 27.8006C66.0217 26.2976 60.4767 18.8036 57.7504 11.5978Z" fill="#89543D"/>
<path d="M195.03 9.41542C195.107 10.2492 195.014 11.1242 195.03 11.9632C193.228 19.4778 187.621 25.9168 180.505 28.8917C183.591 26.0351 186.779 23.266 189.223 19.7918C191.544 16.4874 192.817 12.7404 195.035 9.41542H195.03Z" fill="#80402B"/>
<path d="M62.4688 40.3593C61.2879 39.9115 60.0454 39.6336 58.8389 39.2681C64.0399 39.3814 58.6387 36.0718 61.7449 34.1726C62.7512 34.9858 68.2808 37.9659 68.2808 38.3571C68.291 39.4997 64.1323 39.4174 62.4688 40.3593Z" fill="#9D5331"/>
<path d="M184.864 38.9027C183.622 38.5784 183.663 38.6402 182.687 37.8115C188.905 34.7027 195.543 29.427 199.938 23.9763C197.484 31.1719 190.928 35.1505 184.864 38.9027Z" fill="#672F18"/>
<path d="M135.108 121.188C147.179 131.724 160.774 130.185 163.983 131.019C164.835 131.24 164.127 132.069 164.163 132.11C163.244 137.247 158.217 138.322 154.721 140.85C152.975 140.16 147.79 143.943 146.547 143.763C145.233 143.572 136.972 131.858 139.826 139.393C138.281 139.63 141.613 145.678 141.644 148.493C141.644 148.781 140.751 146.378 140.556 153.589C140.473 156.636 140.15 162.215 144.37 163.054C144.76 163.131 151.979 163.543 152.359 163.419C152.975 163.219 157.077 155.385 157.442 153.954C158.063 153.63 165.647 160.305 166.34 161.963C166.437 162.194 166.247 162.76 166.34 163.054C163.321 163.61 160.081 163.363 157.077 163.78C156.754 163.826 153.571 165.648 150.901 164.505C150.192 164.871 151.389 165.488 151.445 165.962C151.722 168.216 152.128 170.615 152.169 172.88C150.963 173.065 144.062 175.561 143.636 175.427C143.282 175.319 140.797 170.013 139.097 169.601C139.986 167.156 140.607 167.47 139.462 164.14C141.254 160.722 134.564 164.655 132.017 164.14C131.663 164.068 127.063 160.568 126.026 160.136C131.648 156.43 139.708 138.425 137.65 132.1L137.47 131.009C128.572 143.794 120.866 121.512 123.849 133.191C123.392 134.462 120.84 138.817 120.943 139.563C121.22 141.581 127.525 147.613 134.02 145.755C133.552 147.695 132.089 149.049 131.114 150.67C122.565 155.704 122.278 149.337 120.039 149.214C118.288 149.121 110.792 158.725 104.241 149.939C105.104 146.233 104.585 146.825 104.606 146.661C104.662 146.125 105.74 145.853 105.15 145.204C104.174 144.772 96.2778 152.461 87.719 138.286C87.0567 138.472 88.1349 140.155 88.2632 140.469C88.8845 150.819 105.232 158.113 106.967 160.13C107.773 161.067 107.45 161.258 107.512 162.313C107.517 162.405 107.301 162.694 107.147 164.135C104.97 163.723 98.7782 166.667 97.5203 166.317C95.8568 165.859 89.4955 154.144 91.1641 163.404C90.7225 163.363 90.8201 163.749 90.7996 163.769C83.8735 170.044 82.6413 172.874 74.8218 163.949C83.4063 163.852 81.1215 161.299 85.3521 154.484C85.6653 153.285 83.8991 155.143 81.7222 157.217C78.0906 156.49 74.459 155.762 70.8273 155.035C71.3305 152.919 72.2085 150.855 73.0043 148.843C73.0248 148.786 74.1851 148.426 73.5485 147.752C72.8092 148.251 73.0505 148.802 73.0043 148.843C66.8329 154.669 65.3645 160.573 61.021 157.943C52.76 149.435 65.5391 133.716 74.0979 130.273C74.6575 130.046 76.09 129.598 76.6393 129.547C78.5492 129.356 84.89 131.245 88.0784 131.369C97.7513 131.734 109.694 128.414 117.313 122.269C118.355 121.43 120.08 119.937 120.943 118.99C127.961 124.148 127.905 126.85 135.108 121.173V121.188Z" fill="#BA7142"/>
<path d="M165.616 133.932C163.814 138.41 161.267 141.364 159.804 144.854C148.858 146.738 152.282 147.999 160.528 153.954C161.288 154.505 164.425 157.897 164.702 157.958C164.969 158.02 169.887 158.025 170.149 157.958C170.57 157.855 175.13 152.307 175.776 151.406H176.5C176.413 152.472 176.665 154.15 176.5 154.685C176.362 155.143 173.004 158.694 170.688 162.328C170.652 162.385 169.754 163.013 169.6 163.054C168.388 161.592 168.301 161.232 166.329 161.963C165.636 160.305 158.053 153.63 157.432 153.954C157.067 155.385 152.965 163.219 152.349 163.419C151.969 163.543 144.75 163.131 144.36 163.054C140.145 162.215 140.463 156.63 140.545 153.589C141.962 157.814 142.481 160.779 147.266 160.872C153.329 160.985 152.662 157.516 156.164 153.043C156.923 150.119 146.629 150.665 141.639 148.493C141.608 145.678 138.276 139.625 139.821 139.393C140.622 141.508 144.807 147.309 147.266 147.036C147.749 146.985 152.616 142.363 154.711 140.845C158.212 138.317 163.233 137.247 164.152 132.105C164.235 132.187 164.969 131.6 165.605 133.927L165.616 133.932Z" fill="#80402B"/>
<path d="M134.744 120.457C134.779 120.488 135.077 121.157 135.108 121.183C127.905 126.86 127.961 124.158 120.943 119.001C123.125 116.628 124.757 113.643 126.57 110.992C128.942 114.492 131.617 117.606 134.744 120.457Z" fill="#9D5331"/>
<path d="M190.676 122.645C190.717 123.067 190.609 123.617 190.676 123.736C185.988 127.39 177.938 128.687 180.146 129.928C179.119 129.464 178.559 128.965 177.24 129.202C177.342 129.166 178.754 127.792 178.872 127.745C182.928 126.155 186.83 124.729 190.676 122.65V122.645Z" fill="#532318"/>
<path d="M76.6342 129.562C76.0848 129.619 74.6524 130.067 74.0927 130.288C74.3751 128.919 66.2219 125.964 62.8333 123.736C62.8641 123.705 63.1414 123.201 63.1979 123.01C66.9151 125.239 75.8486 128.059 76.4545 128.471C76.7882 128.698 76.5982 129.212 76.6342 129.562Z" fill="#672F18"/>
<path d="M182.682 37.8115C183.663 38.6402 183.622 38.5784 184.859 38.9027C185.593 39.0931 189.685 39.9938 189.942 39.9938V40.3593C187.873 45.2078 183.062 49.732 183.041 52.0121C180.69 49.9224 171.561 44.6725 168.696 44.3688C167.485 44.2401 167.5 45.0842 167.423 45.0945C162.366 45.8769 158.448 51.2401 155.075 55.2908C129.501 60.8238 121.687 98.4948 147.086 112.088C143.333 113.39 138.707 120.462 134.738 120.462C131.612 117.611 128.937 114.497 126.565 110.997C124.752 113.648 123.114 116.633 120.938 119.006C120.07 119.948 118.345 121.445 117.308 122.284C115.916 119.618 109.206 117.096 105.324 112.819C116.296 107.255 121.923 96.5029 121.302 84.4229C120.06 60.2165 100.262 56.6084 98.2391 55.2959C96.8939 54.4209 94.3114 48.4504 91.1589 46.196C104.431 50.6121 118.935 61.8944 124.208 75.1428C128.546 86.0391 124.834 87.5265 128.932 76.234C133.932 62.4451 144.473 54.7143 157.077 48.3835C165.477 44.1629 176.541 40.8946 182.682 37.827V37.8115Z" fill="#532318"/>
<path d="M126.39 89.5133C122.041 94.2691 122.976 95.6949 126.57 100.435C128.932 96.7757 130.005 93.8883 127.843 89.8787C137.013 93.1728 131.304 105.484 126.57 110.266C121.056 103.822 116.363 93.7236 126.39 89.5133Z" fill="#EDBD11"/>
<path d="M127.843 89.8787C130.005 93.8883 128.937 96.7809 126.57 100.435C122.976 95.6949 122.041 94.2691 126.39 89.5133C126.703 89.4979 127.489 89.7501 127.843 89.8787Z" fill="#F6F0D8"/>
<path d="M168.522 177.254C169.256 181.063 165.939 180.065 175.602 185.629C176.86 185.639 180.156 181.47 181.593 180.533C182.482 181.64 183.016 186.905 182.317 187.451C182.23 187.399 182.056 187.502 181.953 187.451C181.917 187.435 182.056 186.689 181.773 186.725C181.583 186.746 180.849 187.811 180.685 187.816C178.626 187.873 180.366 186.813 178.867 187.09C178.739 187.116 177.84 188.382 176.69 188.547C167.839 189.813 167.361 185.829 167.064 197.287C167.007 199.459 165.975 199.433 167.788 201.291C165.184 203.37 173.851 205.193 172.146 208.574C163.963 209.351 159.372 209.053 163.793 214.035C162.648 214.262 163.264 214.689 162.705 214.761L159.254 209.3C158.104 211.606 155.152 213.464 156.169 214.761C154.336 214.617 154.449 214.045 154.351 214.035C157.853 207.864 155.927 210.818 146.907 211.122L147.086 213.304C144.196 213.273 141.88 218.009 135.462 213.67C133.896 212.615 133.937 210.973 133.285 210.031C130.883 206.562 131.668 208.147 130.379 207.483C131.196 206.273 131.54 204.74 132.197 203.479C133.316 201.327 135.118 199.464 135.467 196.926C136.155 197.034 136.217 196.576 136.556 196.561C139.826 196.432 143.087 195.609 146.362 195.47C146.958 197.693 147.713 197.518 147.815 197.652C155.224 207.375 157.961 203.921 161.252 198.018C162.71 195.398 164.291 192.737 164.337 189.643C161.288 190.086 152.22 187.6 149.992 188.187C148.75 181.074 145.71 185.32 141.095 183.091C139.534 182.335 136.766 178.171 138.009 176.174C138.281 177.255 138.132 178.593 138.918 179.452C139.108 179.663 143.718 181.995 144.001 182C144.632 182.01 147.826 179.668 148.539 179.087C154.788 187.271 158.084 188.156 164.517 179.632C165.467 175.808 157.935 177.98 151.805 175.808C153.181 173.641 152.179 173.559 152.169 172.895C152.123 170.63 151.717 168.232 151.445 165.977C158.007 171.948 161.236 171.516 166.335 164.155C167.387 168.525 167.664 172.854 168.511 177.265L168.522 177.254Z" fill="url(#paint0_linear_1301_1348)"/>
<path d="M74.0927 130.288C65.5339 133.731 52.7548 149.45 61.0158 157.958C60.0198 158.627 60.0403 160.043 60.2919 161.237C56.3385 159.76 56.9495 156.352 55.0241 152.863C53.5609 155.879 52.7137 159.013 52.2979 162.328L51.2094 163.054C50.8038 160.285 50.0799 159.353 50.1209 154.314C50.2236 141.73 54.1821 132.614 62.8333 123.731C66.2219 125.959 74.37 128.914 74.0927 130.283V130.288Z" fill="#80402B"/>
<path d="M119.49 187.451C119.88 187.605 124.146 191.543 124.937 192.546C123.818 193.025 122.514 195.984 121.307 197.642C118.401 199.078 110.351 196.159 108.051 194.729C107.332 194.281 107.378 192.747 106.962 192.546C106.623 192.382 101.961 193.375 101.515 193.272C100.832 193.123 96.6783 187.626 94.794 187.08C97.4176 184.419 99.0349 180.847 101.33 177.98C101.551 177.702 103.019 175.906 103.147 175.978C103.938 177.357 107.121 187.533 107.686 187.811C109.201 188.557 116.599 186.308 119.49 187.446V187.451Z" fill="#AC6233"/>
<path d="M60.2919 161.237C61.2417 161.592 64.0245 161.237 64.2863 162.513L58.6592 177.625C53.9203 171.902 51.3634 169.925 52.303 162.333C52.7137 159.019 53.566 155.884 55.0293 152.868C56.9495 156.358 56.3385 159.765 60.297 161.242L60.2919 161.237Z" fill="#BA7142"/>
<path d="M94.794 187.085C96.6731 187.631 100.827 193.123 101.515 193.277C101.961 193.375 106.623 192.387 106.962 192.551C107.383 192.752 107.332 194.291 108.051 194.734C110.351 196.165 118.401 199.083 121.307 197.647C118.16 201.97 119.562 203 113.134 202.017C109.134 201.404 108.348 201.317 107.686 197.282C103.491 201.759 96.7193 198.903 94.794 193.277C94.3165 191.893 93.9212 188.737 93.7055 187.085C94.0598 187.121 94.5219 187.008 94.794 187.085Z" fill="#E5A965"/>
<path d="M103.512 172.89C103.661 174.753 104.734 176.297 105.329 177.985C106.233 180.559 106.618 185.201 109.868 185.629C114.787 186.277 115.583 184.275 117.677 181.259C118.637 179.874 119.028 180.837 119.495 183.807C119.521 183.987 119.069 184.522 119.495 187.446C116.604 186.308 109.206 188.557 107.691 187.811C107.121 187.533 103.938 177.357 103.153 175.978C103.029 175.906 101.556 177.702 101.335 177.98H99.5175L100.241 177.069C95.4204 176.364 90.2553 174.614 85.3521 173.976C83.3857 170.934 94.0803 169.225 90.7996 163.78C90.8201 163.764 90.7225 163.373 91.1641 163.414C93.0586 173.93 95.8722 173.302 103.512 172.88V172.89Z" fill="#80402B"/>
<path d="M84.2637 197.647C82.6053 201.348 79.227 194.456 75.0015 193.277C74.1749 193.946 74.1441 195.012 74.0927 195.099C71.7977 199.098 70.6785 201.255 75.5457 203.473C74.4983 204.961 79.037 205.46 78.0872 206.021C69.1895 203.324 74.3392 198.507 67.1923 204.93C66.3862 204.482 62.8282 204.642 60.6564 202.562C60.9388 202.007 66.5094 204.894 71.5513 198.193C74.5394 194.219 74.411 191.867 70.278 188.907C65.4723 192.073 62.8333 197.745 57.7504 191.821C57.3962 188.918 60.8258 192.088 62.6536 192.186C64.3941 192.273 64.2042 191.486 64.2863 191.46C65.5801 191.012 67.141 190.045 68.2808 189.278C69.2614 188.614 69.5592 188.655 70.0983 187.456C71.4691 189.196 71.6026 187.456 71.731 187.456C80.2281 187.307 76.2286 188.866 82.8055 196.741C83.0571 197.04 82.4153 197.441 82.441 197.467C82.8312 197.904 84.0121 197.477 84.2585 197.647H84.2637Z" fill="#80402B"/>
<path d="M135.473 196.916C135.129 199.454 133.326 201.317 132.202 203.468C127.396 206.809 124.958 201.44 122.031 202.012C121.528 200.73 124.706 194.162 125.117 194.003C125.42 193.885 131.334 193.926 131.653 194.003C134.98 194.806 133.265 196.576 135.467 196.916H135.473Z" fill="#80402B"/>
<path d="M125.302 210.386C125.276 211.492 124.619 211.951 123.849 212.568C117.919 217.35 117.421 215.198 112.954 213.294C113.2 212.331 111.994 212.728 112.23 212.017C112.543 211.065 118.463 204.235 119.675 202.007C122.272 200.807 123.474 209.845 125.302 210.381V210.386Z" fill="#80402B"/>
<path d="M85.3521 173.981C90.2605 174.619 95.4204 176.374 100.241 177.074L99.5175 177.985C91.775 186.349 88.3402 181.846 83.5397 173.801C84.4588 173.219 85.0441 173.945 85.3573 173.981H85.3521Z" fill="#D68E59"/>
<path d="M78.0872 206.021C76.5469 222.553 68.5375 205.676 67.1923 204.93C74.3443 198.507 69.1895 203.324 78.0872 206.021Z" fill="#BA7142"/>
<path d="M135.473 213.665C134.056 214.004 135.19 216.861 134.564 217.303C125.599 217.412 126.113 220.67 123.849 212.568C124.619 211.945 125.276 211.487 125.302 210.386C126.097 210.617 131.873 210.473 133.291 210.02C133.943 210.962 133.907 212.604 135.467 213.659L135.473 213.665Z" fill="#672F18"/>
<path d="M90.435 212.573C90.3066 213.031 89.7932 213.618 89.7111 214.03C88.0168 213.834 83.9145 214.303 83.1752 214.03C82.7696 213.881 79.0062 206.953 79.1808 206.567C81.3269 206.001 83.8016 203.854 84.0839 203.834C85.7474 203.736 89.6084 212.012 90.4401 212.573H90.435Z" fill="#BA7142"/>
<path d="M82.0816 202.743C79.5607 205.007 79.3142 205.187 75.5457 203.468C70.6784 201.25 71.7977 199.093 74.0927 195.094C76.8395 200.395 82.2767 199.793 82.6258 200.19C83.5808 201.27 81.1882 201.574 82.0816 202.737V202.743Z" fill="#BA7142"/>
<path d="M70.0983 187.451C69.5643 188.65 69.2665 188.609 68.2808 189.273C67.5722 186.061 66.3708 185.14 64.2863 183.081C62.1145 180.935 62.746 182.185 62.4688 181.99C62.3764 181.923 62.6639 181.053 60.6513 180.533C62.3096 178.011 62.2224 175.957 64.8254 176.529C66.6738 178.629 69.3281 186.483 70.0931 187.451H70.0983Z" fill="#80402B"/>
<path d="M92.6171 187.085C92.9765 187.09 93.3513 187.049 93.7055 187.085C93.9212 188.732 94.3216 191.887 94.794 193.277C83.7348 200.9 79.4785 189.345 79.5401 188.362C79.5915 187.502 81.6247 185.778 81.7171 185.629C82.8107 186.571 84.9414 185.665 85.5318 185.994C85.8399 186.164 85.0081 187.024 85.3521 187.271C86.841 188.341 90.5634 187.054 92.6171 187.09V187.085Z" fill="#C97939"/>
<path d="M92.6171 187.085C90.5685 187.054 86.841 188.341 85.3521 187.265C85.0133 187.018 85.8399 186.164 85.5318 185.989C84.9465 185.66 82.8107 186.571 81.7171 185.624C82.5437 184.296 83.5038 181.403 85.1673 181.619C87.5701 183.611 90.9639 184.393 92.6119 187.08L92.6171 187.085Z" fill="#80402B"/>
<path d="M84.2637 197.647C85.7885 198.702 83.0109 201.914 82.0867 202.743C81.1934 201.579 83.5859 201.27 82.631 200.195C82.2767 199.798 76.8447 200.401 74.0979 195.099C74.1492 195.012 74.18 193.946 75.0066 193.277C79.2321 194.456 82.6104 201.343 84.2688 197.647H84.2637Z" fill="#9D5331"/>
<path d="M81.7171 157.233C78.9959 159.822 81.1729 162.524 70.0932 156.687C70.0367 156.234 70.7965 155.138 70.8171 155.05C74.4487 155.778 78.0803 156.505 81.7119 157.233H81.7171Z" fill="#D68E59"/>
<path d="M89.7111 214.03C89.4544 215.291 89.3722 217.231 91.1641 216.943C89.5981 217.952 90.5172 217.314 89.7111 217.309C80.2641 217.226 85.1313 217.7 81.3577 220.222C80.8905 220.531 80.0895 221.004 79.5401 220.948C80.2076 220.031 81.5579 215.734 81.7171 215.487C81.7736 215.399 82.5488 215.867 83.1701 214.03C83.9094 214.303 88.0168 213.834 89.706 214.03H89.7111Z" fill="#532318"/>
<path d="M101.33 213.665C99.8717 216.161 98.9425 216.408 94.0649 213.665C94.029 213.644 93.7415 213.093 93.7004 212.939C96.7963 212.342 100.093 206.814 102.418 212.028C102.434 212.604 101.648 213.119 101.33 213.665Z" fill="#AC6233"/>
<path d="M81.7171 215.487C81.5579 215.734 80.2025 220.031 79.5401 220.948C77.6713 221.509 78.4825 216.269 77.3632 213.665C79.1962 212.259 77.5943 208.312 81.7222 215.487H81.7171Z" fill="#80402B"/>
<path d="M70.8222 155.045C70.8017 155.133 70.0367 156.229 70.0983 156.682C81.178 162.519 78.9959 159.816 81.7222 157.227C83.8991 155.153 85.6704 153.3 85.3521 154.494C81.1215 161.309 83.4011 163.862 74.8218 163.96C82.6464 172.88 83.8786 170.049 90.7996 163.78C94.0752 169.225 83.3857 170.934 85.3521 173.976C85.0441 173.935 84.4536 173.209 83.5346 173.796C88.3402 181.84 91.7699 186.349 99.5124 177.98H101.33C99.0349 180.852 97.4176 184.424 94.794 187.08C94.5219 187.003 94.0598 187.116 93.7055 187.08C93.3513 187.044 92.9765 187.085 92.6171 187.08C90.969 184.393 87.5752 183.611 85.1724 181.619C83.5089 181.403 82.5488 184.296 81.7222 185.624C81.6298 185.773 79.5966 187.492 79.5453 188.357C79.4837 189.34 83.74 200.895 94.7991 193.272C96.7245 198.898 103.497 201.754 107.691 197.276C108.354 201.307 109.139 201.399 113.139 202.012C119.567 202.995 118.16 201.965 121.312 197.642C122.519 195.984 123.828 193.025 124.942 192.546C126.904 191.702 129.265 193.231 132.751 189.633C134.021 191.939 135.293 194.245 136.566 196.551C136.227 196.566 136.161 197.019 135.478 196.916C133.275 196.576 134.995 194.806 131.663 194.003C131.345 193.926 125.43 193.885 125.127 194.003C124.711 194.162 121.538 200.73 122.041 202.012C123.109 204.724 128.161 206.315 130.395 207.473C131.684 208.142 130.898 206.551 133.301 210.02C131.884 210.473 126.108 210.617 125.312 210.386C123.484 209.851 122.283 200.812 119.685 202.012C118.473 204.24 112.553 211.07 112.24 212.023C112.009 212.728 113.211 212.331 112.964 213.299C112.923 213.469 112.148 212.362 112.055 216.212C106.13 216.531 105.576 218.323 101.34 213.665C101.658 213.114 102.444 212.599 102.429 212.028C100.103 206.814 96.8066 212.337 93.7107 212.939C93.0432 213.067 90.6609 212.723 90.4401 212.573C89.6084 212.012 85.7526 203.736 84.0839 203.834C83.8016 203.849 81.3269 206.001 79.1808 206.567C79.0062 206.953 82.7696 213.881 83.1752 214.03C82.5539 215.867 81.7787 215.399 81.7222 215.487C77.5943 208.312 79.1962 212.259 77.3632 213.665C71.4281 218.214 68.0651 209.742 67.1923 204.925C68.5375 205.671 76.5469 222.548 78.0872 206.016C79.037 205.455 74.4983 204.956 75.5457 203.468C79.3142 205.187 79.5607 205.007 82.0816 202.743C83.0058 201.914 85.7885 198.702 84.2585 197.647C84.0121 197.477 82.8312 197.904 82.441 197.467C82.4153 197.436 83.052 197.04 82.8055 196.741C76.2234 188.866 80.2281 187.307 71.731 187.456C71.6026 187.456 71.4691 189.196 70.0983 187.456C69.3384 186.488 66.6789 178.634 64.8306 176.534C62.2275 175.963 62.3148 178.016 60.6564 180.538C59.7066 181.985 59.1469 183.642 57.9301 184.908L51.9385 177.991C51.9282 177.81 51.3121 176.766 51.5739 174.352C54.788 170.661 52.3133 171.248 51.5739 167.614C50.7627 163.635 51.2453 163.291 51.2094 163.064L52.2979 162.338C51.3583 169.93 53.9152 171.907 58.6541 177.63L64.2812 162.519C64.0193 161.242 61.2366 161.597 60.2867 161.242C60.0403 160.048 60.0146 158.633 61.0107 157.963C65.3594 160.594 66.8226 154.69 72.994 148.864C72.1982 150.876 71.3151 152.94 70.8171 155.055L70.8222 155.045Z" fill="#532318"/>
<path d="M72.2752 163.785C72.4754 164.063 73.7385 161.952 74.8167 169.246C74.2673 169.302 74.1287 169.935 74.0927 169.971C72.2239 171.794 70.2318 173.502 68.4656 175.432C61.863 172.082 62.171 170.152 65.3799 162.323C67.4747 163.497 69.898 163.749 72.2803 163.78L72.2752 163.785Z" fill="#BA7142"/>
<path d="M72.2752 176.163C73.6923 176.277 79.2013 179.411 82.8055 179.077C82.7285 180.163 83.2625 180.363 83.1701 180.713C83.0725 181.063 77.8715 185.119 77.5429 185.263C72.7681 187.358 71.0584 183.035 68.6453 179.622C69.7029 178.042 70.5912 176.029 72.2752 176.163Z" fill="#C97939"/>
<path d="M100.421 202.377C102.218 202.912 115.357 202.897 115.495 204.379C113.359 205.903 110.484 210.87 108.051 210.386C107.481 210.273 98.0953 202.82 100.426 202.377H100.421Z" fill="#C97939"/>
<path d="M82.8107 179.077C79.2013 179.411 73.6974 176.277 72.2803 176.163C71.4537 174.63 74.8115 173.209 74.0979 169.971C74.1338 169.935 74.2724 169.297 74.8218 169.246C80.3462 173.893 83.4833 169.863 82.8107 179.077Z" fill="#80402B"/>
<path d="M97.7 202.017C100.488 208.389 98.5677 206.402 91.7083 210.756C87.0053 204.029 85.0133 204.945 86.8051 200.2C90.9587 200.118 93.8904 201.78 97.7 202.022V202.017Z" fill="#BA7142"/>
<path d="M97.7 202.017C93.8904 201.775 90.9536 200.112 86.8051 200.195C87.0875 199.454 86.1274 198.285 87.7139 197.647C94.2138 197.837 94.7735 199.834 95.3382 200.195C96.437 200.895 96.2367 198.671 97.7 202.017Z" fill="#80402B"/>
<path d="M72.2752 163.785C69.8929 163.754 67.4696 163.502 65.3748 162.328C68.5375 154.613 69.133 159.399 72.2752 163.785Z" fill="#9D5331"/>
<path d="M132.202 203.468C131.545 204.729 131.201 206.263 130.385 207.473C128.151 206.315 123.099 204.724 122.031 202.012C124.953 201.44 127.396 206.809 132.202 203.468Z" fill="#BA7142"/>
<path d="M93.7055 212.939C93.7466 213.093 94.0341 213.649 94.0701 213.665C94.1779 214.298 91.7442 216.567 91.1641 216.943C89.3722 217.231 89.4544 215.291 89.7111 214.03C89.7932 213.618 90.3066 213.031 90.435 212.573C90.6558 212.723 93.0381 213.067 93.7055 212.939Z" fill="#672F18"/>
<path d="M125.666 223.13C126.077 228.822 129.08 225.801 132.567 226.043C132.613 226.043 132.834 226.753 133.111 226.769C133.26 226.779 133.64 225.997 134.02 226.043C138.266 226.547 138.312 228.436 138.558 228.591C141.577 230.49 139.488 225.621 142.373 227.314L141.649 223.856C143.497 226.8 141.752 229.028 145.279 224.581C146.224 225.966 151.902 226.156 153.268 224.216C154.207 224.659 154.284 225.281 154.356 225.307L153.632 225.487C154.834 226.131 154.033 227.489 153.268 228.22C151.05 230.341 146.511 229.327 143.826 229.311C143.754 229.26 143.431 228.184 142.373 228.22C142.014 228.231 139.221 230.279 136.197 230.042C135.37 229.507 134.774 228.581 133.655 228.586C132.597 228.586 130.672 229.363 129.481 229.677C125.062 229.433 120.643 229.191 116.224 228.951H115.86V227.129C115.937 227.114 116.26 226.177 116.948 226.038C117 226.028 117.985 226.038 118.037 226.038C118.566 226.079 125.81 230.264 124.937 223.125C125.178 223.114 125.42 223.125 125.661 223.125L125.666 223.13Z" fill="#532318"/>
<path d="M172.152 208.569C171.885 215.615 166.381 213.526 163.798 214.03C159.378 209.048 163.968 209.346 172.152 208.569Z" fill="#9D5331"/>
<path d="M107.871 226.409C108.035 226.486 110.417 228.462 110.412 228.956C109.858 228.858 110.299 228.591 108.959 228.591C108.841 228.591 108.708 228.57 108.595 228.591C106.983 228.9 106.105 230.717 105.509 230.773C103.851 230.938 100.036 225.724 96.247 228.225C96.1392 227.119 97.9464 225.245 98.7884 224.586C101.612 225.461 105.34 225.22 107.866 226.409H107.871Z" fill="#672F18"/>
<path d="M141.644 223.861L142.368 227.32C139.482 225.626 141.572 230.495 138.553 228.596C138.307 228.442 138.255 226.553 134.014 226.048C133.809 222.836 140.396 221.879 141.639 223.866L141.644 223.861Z" fill="#80402B"/>
<path d="M154.356 214.03C153.915 213.978 150.865 214.792 150.542 214.756C150.295 214.73 148.693 213.314 147.091 213.299L146.912 211.117C155.933 210.813 157.858 207.859 154.356 214.03Z" fill="#BA7142"/>
<path d="M124.937 223.13C125.81 230.269 118.566 226.084 118.037 226.043C118.206 221.473 122.221 223.269 124.937 223.13Z" fill="#672F18"/>
<path d="M125.666 223.13C126.077 228.822 129.08 225.801 132.567 226.043C133.655 220.762 129.209 223.13 125.666 223.13Z" fill="#672F18"/>
<path d="M162.71 214.756C162.32 214.807 160.389 215.831 157.083 215.481C156.857 215.456 156.23 214.756 156.174 214.756C155.157 213.459 158.115 211.601 159.26 209.295L162.71 214.756Z" fill="#672F18"/>
<path d="M177.235 202.377C177.219 202.408 177.871 202.444 177.599 202.923C177.142 203.731 175.417 204.477 175.422 205.656C175.186 205.908 171.494 208.389 175.966 211.117C182.138 214.879 185.049 204.359 184.14 210.391C183.267 216.192 182.631 215.909 176.875 214.03C174.688 213.314 175.052 210.031 169.975 215.306C169.934 215.924 175.961 219.97 176.151 217.674C175.381 219.702 172.778 221.622 170.524 221.678C169.939 221.694 170.401 218.281 166.709 225.317C159.239 219.939 160.045 221.143 156.179 224.772C156.071 224.875 157.36 226.439 154.361 225.317C154.29 225.292 154.213 224.669 153.273 224.226C151.861 223.557 151.743 222.795 151.64 222.77C151.378 222.703 146.455 222.692 146.193 222.77C145.022 223.104 145.361 224.494 145.284 224.592C141.752 229.033 143.497 226.805 141.654 223.866C140.412 221.884 133.825 222.842 134.03 226.048C133.65 226.002 133.27 226.784 133.121 226.774C132.844 226.753 132.623 226.048 132.577 226.048C133.665 220.767 129.219 223.135 125.676 223.135C125.435 223.135 125.189 223.125 124.953 223.135C122.237 223.269 118.222 221.478 118.052 226.048C117.996 226.048 117.015 226.038 116.964 226.048C115.316 221.725 114.556 222.45 110.063 223.315C109.504 224.01 112.523 227.845 115.875 227.139V228.961L115.511 229.327C113.339 231.051 111.912 229.224 110.428 228.961C110.433 228.467 108.051 226.491 107.886 226.414C107.671 222.77 102.824 222.42 100.077 223.135C99.7229 223.228 98.9527 224.478 98.8038 224.592C97.9618 225.256 96.1546 227.129 96.2624 228.231C95.79 228.545 94.7529 229.512 94.4449 230.053C93.7363 229.749 93.762 229.353 93.7209 229.327C94.0136 226.985 94.9326 225.925 96.2624 224.046C86.8102 216.567 87.4366 226.033 84.6385 223.32L89.7214 217.314C90.5274 217.319 89.6084 217.962 91.1743 216.948C91.7545 216.578 94.1881 214.303 94.0803 213.67C98.9527 216.413 99.8872 216.166 101.345 213.67C105.581 218.328 106.136 216.537 112.06 216.217C112.153 212.367 112.923 213.474 112.969 213.304C117.436 215.209 117.934 217.36 123.864 212.578C126.123 220.675 125.615 217.422 134.579 217.314C135.206 216.866 134.066 214.014 135.488 213.675C141.906 218.014 144.216 213.284 147.112 213.309C148.714 213.325 150.316 214.74 150.562 214.766C150.886 214.802 153.935 213.984 154.377 214.04C154.474 214.051 154.361 214.627 156.194 214.766C156.251 214.766 156.877 215.471 157.103 215.492C160.415 215.842 162.345 214.812 162.73 214.766C163.295 214.694 162.674 214.262 163.819 214.04C166.401 213.536 171.905 215.626 172.172 208.579C173.877 205.198 165.21 203.376 167.813 201.296C170.283 203.834 174.39 204.709 177.255 202.387L177.235 202.377Z" fill="#532318"/>
<path d="M164.707 216.212C167.736 215.785 168.558 217.401 169.975 219.671C162.54 222.023 156.903 223.181 164.707 216.212Z" fill="#672F18"/>
<path d="M176.875 214.03C176.808 215.265 176.588 216.511 176.151 217.669C175.961 219.964 169.934 215.919 169.975 215.301C175.052 210.031 174.688 213.314 176.875 214.025V214.03Z" fill="#80402B"/>
<path d="M116.948 226.043C116.255 226.182 115.932 227.119 115.86 227.134C112.507 227.839 109.488 224.005 110.048 223.31C114.54 222.44 115.3 221.714 116.948 226.043Z" fill="#672F18"/>
<path d="M153.268 224.221C151.902 226.156 146.224 225.971 145.279 224.586C145.356 224.489 145.017 223.104 146.188 222.764C146.45 222.687 151.373 222.698 151.635 222.764C151.743 222.79 151.856 223.552 153.268 224.221Z" fill="#80402B"/>
<path d="M107.871 226.409C105.345 225.22 101.617 225.461 98.7936 224.586C98.9373 224.473 99.7126 223.223 100.067 223.13C102.809 222.409 107.66 222.759 107.876 226.409H107.871Z" fill="#80402B"/>
<path d="M110.412 228.956C111.896 229.219 113.323 231.046 115.495 229.322C115.511 235.354 112.481 233.12 108.959 228.596C110.299 228.596 109.858 228.864 110.412 228.961V228.956Z" fill="#D68E59"/>
<path d="M50.1209 154.319C50.0799 159.353 50.8038 160.29 51.2094 163.059C51.2402 163.285 50.7627 163.63 51.5739 167.609C52.3133 171.238 54.788 170.656 51.5739 174.346C44.1395 182.88 46.5629 176.086 45.9468 169.251C44.3809 171.809 42.9279 174.557 41.0436 176.894C39.986 176.282 42.7276 174.29 43.2205 171.979C40.8844 169.107 41.4595 161.561 39.5906 169.246C34.6926 176.405 30.7597 184.275 24.881 190.724C23.6745 189.865 24.9221 187.703 23.9723 187.085C25.0504 185.34 32.0587 172.797 32.3257 171.974C32.3565 171.876 32.2178 170.069 31.9611 169.971C33.599 167.671 36.0326 165.041 33.7787 165.602C34.7131 164.474 41.9935 155.086 41.2233 154.68C34.2356 158.386 27.9462 162.858 21.7953 167.789C18.5454 170.394 15.0541 173.816 14.5304 172.885C25.4407 157.14 25.1531 160.372 6.5415 169.971C4.42619 171.063 2.23901 172.03 0.185311 173.25C-0.656704 172.787 1.63316 169.987 1.818 169.611L2.36223 170.337C10.3819 162.946 18.1192 161.988 26.5137 153.954C29.6097 150.989 34.2767 145.415 37.044 141.941C38.3584 144.226 39.9243 137.309 45.2178 135.023C44.1139 141.56 45.9519 147.891 43.2205 154.139L50.1209 154.319Z" fill="#532318"/>
<path d="M21.7953 167.789C23.7566 169.73 23.7566 172.771 24.3368 175.432C20.8814 179.591 15.1054 186.282 13.9861 191.09C19.2025 183.369 26.5702 177.563 31.9611 169.971C32.2178 170.069 32.3565 171.876 32.3257 171.974C32.0587 172.797 25.0504 185.34 23.9723 187.085C20.6196 192.5 17.1386 198.306 11.8041 202.012C9.78634 198.306 9.93523 193.519 10.5308 189.453C11.9735 179.663 21.4667 170.224 12.7077 177.255L14.5252 172.885C15.0438 173.816 18.5402 170.394 21.7902 167.789H21.7953Z" fill="#89543D"/>
<path d="M14.5304 172.89L12.7129 177.26C11.6655 178.099 4.09247 185.855 3.63552 185.454C2.10038 179.962 4.67776 174.964 6.54149 169.982C25.1531 160.383 25.4406 157.15 14.5304 172.895V172.89Z" fill="#89543D"/>
<path d="M26.5137 153.954C18.1192 161.994 10.3819 162.951 2.36223 170.337L1.818 169.611C3.46609 166.235 5.16552 162.905 7.26543 159.78C8.42577 158.051 9.30372 156.996 10.5359 155.411C14.0016 154.036 17.1848 151.895 20.3423 149.95C21.3281 152.245 16.8203 155.009 16.5276 157.233C19.7878 156.033 25.2199 152.338 26.5137 153.954Z" fill="#80402B"/>
<path d="M41.4081 114.996C38.5894 119.582 27.7459 117.853 37.7782 129.197C28.552 136.773 17.842 145.986 10.5411 155.411C9.31399 156.996 8.43604 158.051 7.27057 159.78C1.27377 158.473 15.3057 135.559 18.1654 131.93C23.9723 124.554 32.4027 117.873 41.4081 115.001V114.996Z" fill="#BA7142"/>
<path d="M43.9496 114.27L47.2201 121.553C43.9958 123.952 40.8896 126.644 37.7782 129.197C27.7511 117.853 38.5946 119.582 41.4081 114.996C42.2399 114.729 43.1024 114.497 43.9496 114.27Z" fill="#9D5331"/>
<path d="M53.3915 116.818C53.0269 116.952 48.1648 120.848 47.215 121.553L43.9445 114.27C47.8259 113.226 50.7371 114.373 49.0274 111.723C50.3366 113.293 54.0692 114.615 53.3863 116.818H53.3915Z" fill="#80402B"/>
<path d="M41.0436 176.894C40.2324 177.903 39.8987 180.26 38.1376 178.531C38.6665 175.458 38.8513 172.282 39.5906 169.246C41.4595 161.556 40.8844 169.102 43.2205 171.979C42.7225 174.29 39.9808 176.282 41.0436 176.894Z" fill="#532318"/>
<path d="M63.1979 123.01C63.1414 123.201 62.8641 123.71 62.8333 123.736C54.1821 132.62 50.2236 141.73 50.1209 154.319L43.2205 154.139C45.9519 147.896 44.1139 141.56 45.2178 135.023C39.9243 137.309 38.3584 144.226 37.044 141.941C37.3213 141.591 37.8296 140.258 39.5855 138.847C37.2597 138.575 37.2289 140.072 36.4998 140.484C31.0062 143.593 25.7179 146.635 20.3372 149.95C17.1797 151.895 13.9964 154.036 10.5308 155.411C17.8317 145.981 28.5417 136.773 37.768 129.197C40.8793 126.644 43.9855 123.952 47.2098 121.553C48.1545 120.848 53.0167 116.952 53.3863 116.818C55.1628 116.175 57.4886 119.592 63.1927 123.01L63.1979 123.01Z" fill="#2D1816"/>
<path d="M33.7787 165.607C31.3399 168.546 26.7242 172.56 24.3368 175.438C23.7566 172.771 23.7566 169.73 21.7953 167.794C27.9462 162.863 34.2356 158.391 41.2233 154.685C41.9935 155.091 34.7131 164.48 33.7787 165.607Z" fill="#693F2A"/>
<path d="M37.0492 141.941C34.2818 145.415 29.6148 150.989 26.5188 153.954C25.2199 152.338 19.793 156.028 16.5327 157.233C16.8254 155.014 21.3332 152.25 20.3475 149.95C25.7282 146.635 31.0164 143.593 36.5101 140.484C37.2443 140.072 37.2699 138.57 39.5958 138.847C37.8347 140.258 37.3316 141.596 37.0543 141.941H37.0492Z" fill="#5A312A"/>
<path d="M31.9663 169.977C26.5702 177.563 19.2077 183.374 13.9913 191.095C15.1106 186.288 20.8866 179.602 24.3419 175.438C26.7293 172.566 31.345 168.546 33.7838 165.607C36.0429 165.046 33.6041 167.676 31.9663 169.977Z" fill="#532318"/>
<path d="M203.383 153.954C203.383 156.738 202.798 158.921 202.295 161.597C201.622 159.441 196.431 153.249 195.759 155.045C194.732 155.308 194.213 154.474 193.941 153.589C193.525 152.209 193.803 136.073 180.141 129.923C177.933 128.682 185.983 127.39 190.671 123.731C190.871 124.081 194.799 127.74 196.118 129.737C200.4 136.197 203.393 146.218 203.383 153.949V153.954Z" fill="#80402B"/>
<path d="M202.295 161.602C201.792 164.279 200.652 169.565 199.389 171.799C198.259 173.801 196.396 175.227 194.121 175.803L188.853 162.333C189.305 161.638 194.573 157.274 195.754 155.05C196.431 153.254 201.617 159.451 202.29 161.602H202.295Z" fill="#BA7142"/>
<path d="M213.919 137.936C213.729 138.22 214.581 139.856 214.643 139.939C217.395 143.423 225.466 154.083 227.899 156.141C230.523 158.355 235.123 160.233 237.885 161.968C241.623 164.315 246.865 166.574 249.869 169.796C249.946 169.879 248.518 170.862 250.957 170.888L250.233 171.799C248.909 171.243 247.851 170.656 246.603 169.977C246.552 169.946 246.773 169.266 246.059 168.885C246.023 168.865 245.7 169.446 245.335 169.251C239.446 166.096 233.526 162.961 228.084 159.055C226.38 157.83 224.798 154.592 222.637 155.961C222.893 158.308 225.455 158.813 226.996 160.146C230.559 163.234 240.94 172.566 238.979 175.803C238.609 175.474 237.952 174.753 237.89 174.712C239.184 173.863 236.412 172.164 235.349 171.073C228.736 164.284 220.095 159.569 212.651 153.599C210.104 152.899 215.515 160.249 216.825 161.973C212.645 164.166 216.855 165.993 219.731 170.347C220.906 172.133 222.298 173.986 223.361 175.808C224.531 177.805 226.082 182.134 226.631 183.091C224.891 185.814 220.136 175.273 219.731 179.813C212.697 168.139 211.131 161.011 215.736 178.536C213.046 181.223 209.981 172.962 207.203 169.251C207.67 180.621 209.334 180.111 203.753 175.443C202.3 174.228 200.857 173.003 199.394 171.804C200.652 169.57 201.797 164.289 202.3 161.608C202.803 158.926 203.383 156.749 203.388 153.964L210.289 153.419C209.647 147.922 209.359 142.337 207.747 137.036C208.179 135.836 213.113 137.566 213.924 137.947L213.919 137.936Z" fill="#401E17"/>
<path d="M224.814 174.707C229.706 180.219 235.647 185.171 238.435 192.181C239.539 191.676 235.19 183.616 234.62 182.715C237.613 182.963 236.15 177.198 239.703 181.624C241.603 187.466 243.41 197.009 240.612 202.377C235.051 198.975 231.883 192.963 228.808 187.451C228.017 186.03 227.437 184.491 226.631 183.081C226.082 182.124 224.531 177.795 223.361 175.798L224.814 174.707Z" fill="#89543D"/>
<path d="M228.084 159.055C233.526 162.956 239.446 166.096 245.335 169.251C245.705 169.446 246.028 168.87 246.059 168.885C246.778 169.271 246.552 169.951 246.603 169.977C248.354 174.959 250.213 180.317 248.6 185.634C247.969 185.901 240.144 176.848 238.974 175.803C240.93 172.566 230.554 163.234 226.99 160.146L228.079 159.055L228.084 159.055Z" fill="#89543D"/>
<path d="M235.344 171.068C236.407 172.164 239.179 173.857 237.885 174.707C234.184 172.123 237.947 176.23 239.703 181.624C236.15 177.198 237.613 182.963 234.62 182.715C232.777 179.777 222.837 168.86 219.366 164.51C220.85 157.305 228.983 169.611 235.344 171.063V171.068Z" fill="#80402B"/>
<path d="M234.62 151.041C236.879 152.554 241.664 156.275 242.065 156.502C242.101 156.522 242.378 156.038 242.609 156.136C243.708 157.67 244.878 159.271 245.879 160.872C248.113 164.449 249.997 168.294 252.056 171.974C252.246 173.724 251.065 172.138 250.238 171.794L250.962 170.882C248.523 170.857 249.946 169.874 249.874 169.791C246.865 166.569 241.628 164.31 237.89 161.963L238.435 161.237C237.048 160.661 223.771 152.039 225.722 151.041C232.212 152.425 232.484 156.533 234.62 151.041Z" fill="#80402B"/>
<path d="M226.631 183.081C227.437 184.486 228.017 186.03 228.808 187.451C228.479 195.176 222.744 184.815 219.731 179.807C220.141 175.263 224.891 185.809 226.631 183.086V183.081Z" fill="#693F2A"/>
<path d="M205.93 121.553C209.144 123.952 212.26 126.659 215.372 129.197C225.327 137.324 235.077 145.631 242.609 156.141C242.378 156.044 242.101 156.527 242.065 156.507C241.664 156.28 236.879 152.554 234.62 151.046C229.306 147.494 219.248 140.448 213.919 137.936C213.113 137.556 208.173 135.826 207.742 137.025C209.354 142.332 209.642 147.911 210.284 153.408L203.383 153.954C203.393 146.223 200.4 136.202 196.118 129.742C194.794 127.745 190.871 124.086 190.671 123.736C190.604 123.617 190.712 123.062 190.671 122.645C193.936 120.879 197.505 117.935 198.295 117.549C198.793 117.307 199.147 116.823 199.204 116.823C199.769 116.813 204.949 120.828 205.925 121.559L205.93 121.553Z" fill="#2D1816"/>
<path d="M234.62 151.041C232.479 156.533 232.212 152.425 225.722 151.041C223.771 152.039 237.048 160.655 238.435 161.237L237.89 161.963C235.128 160.228 230.523 158.355 227.904 156.136C225.471 154.077 217.4 143.418 214.648 139.933C214.581 139.851 213.734 138.214 213.924 137.931C219.253 140.443 229.311 147.484 234.625 151.041H234.62Z" fill="#5A312A"/>
<path d="M219.366 164.516C222.837 168.865 232.777 179.782 234.62 182.721C235.185 183.621 239.533 191.682 238.435 192.186C235.652 185.176 229.712 180.224 224.814 174.712C223.304 173.013 221.03 168.757 219.731 170.342C216.855 165.988 212.645 164.16 216.825 161.968C217.318 162.616 218.699 163.677 219.366 164.516Z" fill="#532318"/>
<path d="M235.344 171.068C228.983 169.616 220.845 157.31 219.366 164.516C218.699 163.677 217.318 162.616 216.825 161.968C215.51 160.244 210.104 152.894 212.651 153.594C220.095 159.564 228.736 164.279 235.349 171.068H235.344Z" fill="#693F2A"/>
<path d="M228.084 159.055L226.996 160.146C225.455 158.813 222.893 158.303 222.637 155.961C224.798 154.592 226.38 157.835 228.084 159.055Z" fill="#532318"/>
<path d="M224.814 174.707L223.361 175.798C222.293 173.976 220.906 172.123 219.731 170.337C221.03 168.752 223.304 173.003 224.814 174.707Z" fill="#693F2A"/>
<path d="M64.2863 191.455C64.2042 191.486 64.389 192.273 62.6536 192.181C60.8258 192.088 57.3962 188.912 57.7504 191.815C57.8223 182.113 58.1509 187.945 64.2863 191.45V191.455Z" fill="#D68E59"/>
<path d="M64.2863 183.081C63.357 184.676 61.5703 183.204 62.4688 181.99C62.7409 182.185 62.1094 180.935 64.2863 183.081Z" fill="#9D5331"/>
<path d="M180.505 156.141C186.168 159.003 186.317 159.641 187.77 164.15C186.05 163.883 186.04 164.83 185.952 164.876C177.774 169.833 182.138 174.805 170.699 162.328C173.014 158.689 176.367 155.143 176.511 154.685C177.774 155.215 179.293 155.529 180.505 156.141Z" fill="#BA7142"/>
<path d="M193.941 153.589C194.208 154.474 194.732 155.308 195.759 155.045C194.578 157.269 189.31 161.633 188.858 162.328C188.057 163.563 189.254 163.774 188.135 164.876C188.124 164.835 188.078 165.097 187.77 164.15C186.317 159.641 186.168 159.003 180.505 156.141C181.506 153.172 177.804 150.917 179.781 148.858C180.746 150.191 186.697 158.241 187.59 158.324L193.946 153.589L193.941 153.589Z" fill="#80402B"/>
<path d="M169.61 163.059C169.677 163.141 169.579 164.202 170.334 165.061C174.252 169.503 179.411 173.23 181.229 179.077L168.517 177.254C167.664 172.843 167.387 168.52 166.34 164.145C166.263 163.826 166.427 163.337 166.34 163.054C166.247 162.76 166.437 162.194 166.34 161.963C168.311 161.232 168.398 161.592 169.61 163.054V163.059Z" fill="#80402B"/>
<path d="M181.229 179.077C181.378 179.55 181.845 179.694 181.953 180.168C181.475 180.44 181.609 180.518 181.588 180.533C180.151 181.475 176.855 185.639 175.597 185.629C165.934 180.065 169.251 181.063 168.517 177.254L181.229 179.077Z" fill="#BA7142"/>
<path d="M187.77 164.15C188.078 165.102 188.119 164.84 188.135 164.876C191.087 174.671 189.48 173.559 184.32 177.254L180.505 173.43C183.693 169.627 188.756 167.151 185.952 164.876C186.035 164.824 186.05 163.883 187.77 164.15Z" fill="#BA7142"/>
<path d="M178.688 198.373C178.544 200.632 178.128 200.514 177.235 202.377C174.37 204.698 170.262 203.823 167.793 201.286C165.98 199.428 167.012 199.454 167.069 197.282C169.451 198.676 178.41 201.168 178.693 198.373H178.688Z" fill="#BA7142"/>
<path d="M181.958 187.451C180.967 188.099 179.704 189.999 179.417 191.09C177.147 190.637 178.806 196.515 178.693 198.373C178.415 201.168 169.451 198.676 167.069 197.282C167.361 185.829 167.844 189.808 176.695 188.542C177.845 188.377 178.744 187.111 178.872 187.085C180.372 186.807 178.631 187.868 180.69 187.811C180.854 187.811 181.593 186.74 181.778 186.72C182.061 186.684 181.927 187.43 181.958 187.446L181.958 187.451Z" fill="#80402B"/>
<path d="M156.533 245.705C156.533 245.746 156.035 245.566 156.169 246.43C156.102 246.43 155.578 247.172 154.895 246.796C154.546 246.6 154.264 243.378 150.901 244.974L151.81 242.791C152.164 242.714 156.446 240.321 156.533 245.705Z" fill="#F5DC13"/>
<path d="M197.576 187.816C197.705 194.276 200.739 195.295 193.582 197.282C193.638 196.309 193.038 195.799 193.217 194.914C198.614 187.569 198.218 187.435 191.22 192.912C189.649 191.332 185.557 189.371 184.499 187.816C192.904 182.474 191.539 185.799 191.944 185.634C192.365 185.459 192.006 181.352 192.124 180.538V179.813C194.152 182.18 196.031 185.109 197.571 187.821L197.576 187.816Z" fill="#BA7142"/>
<path d="M192.129 179.807V180.533C189.074 180.971 182.513 184.882 184.505 187.816C185.562 189.376 189.649 191.332 191.225 192.912C198.223 187.435 198.619 187.569 193.223 194.914C193.043 195.799 193.644 196.309 193.587 197.282C193.448 199.675 193.849 202.974 193.587 204.925C192.016 203.885 192.386 196.808 191.77 195.64C191.477 195.084 183.185 189.232 182.328 187.446C183.026 186.9 182.487 181.635 181.604 180.528C181.624 180.513 181.491 180.435 181.968 180.163C182.862 179.658 189.367 177.599 189.777 177.615C191.605 177.677 192.031 179.679 192.139 179.797L192.129 179.807Z" fill="#80402B"/>
<path d="M192.129 180.533C192.011 181.352 192.365 185.459 191.949 185.629C191.539 185.799 192.909 182.468 184.505 187.811C182.518 184.882 189.074 180.965 192.129 180.528V180.533Z" fill="#9D5331"/>
<path d="M126.026 160.146C125.887 160.238 125.163 159.374 124.937 159.966C124.532 161.026 130.076 168.355 130.564 168.52C134.79 169.956 137.531 167.83 139.462 164.15C140.607 167.48 139.986 167.166 139.097 169.611C138.497 171.274 137.306 172.355 137.28 172.524C130.272 171.541 128.023 173.744 124.388 167.063C123.253 167.758 120.429 171.67 120.029 171.799C118.134 172.391 108.056 171.485 105.684 169.977C106.248 168.87 106.993 165.499 107.137 164.15C107.291 162.714 107.506 162.421 107.501 162.328C107.933 162.246 108.261 162.477 108.59 162.694C109.996 163.599 114.992 168.366 115.67 168.52C118.252 169.112 118.833 167.244 120.208 166.338C121.035 165.792 122.426 164.794 123.114 164.155C125.476 161.968 123.91 163.152 123.838 162.519C123.079 155.642 118.776 157.197 121.297 155.421C129.142 157.248 128.29 155.364 131.103 150.686C132.079 149.064 133.542 147.711 134.009 145.77C127.515 147.633 121.215 141.601 120.932 139.578C120.83 138.832 123.381 134.478 123.838 133.206C126.339 142.991 134.091 144.247 137.639 132.115C139.703 138.441 131.642 156.44 126.015 160.151L126.026 160.146Z" fill="#80402B"/>
<path d="M104.6 146.671C104.585 146.836 105.098 146.244 104.236 149.95C103.953 151.164 103.378 152.384 103.147 153.589C102.829 155.256 102.393 155.833 102.423 155.956C102.675 157.094 109.386 162.277 116.224 154.68C117.842 152.883 119.146 149.826 119.675 149.944L121.307 155.405C118.786 157.181 123.094 155.632 123.849 162.503C123.921 163.141 125.481 161.952 123.125 164.14C122.308 163.244 116.152 158.303 115.68 158.313C115.274 158.324 109.575 161.829 108.6 162.318V162.683C108.271 162.472 107.943 162.241 107.512 162.318C107.45 161.263 107.773 161.067 106.967 160.136C105.232 158.118 88.8845 150.825 88.2632 140.474C91.5286 148.421 96.899 153.269 104.606 146.666L104.6 146.671Z" fill="#80402B"/>
<path d="M141.644 148.493C146.634 150.665 156.929 150.119 156.169 153.043C152.667 157.516 153.335 160.985 147.271 160.872C142.491 160.779 141.973 157.814 140.55 153.589C140.751 146.378 141.644 148.781 141.639 148.493L141.644 148.493Z" fill="#D68E59"/>
<path d="M107.142 164.15C106.998 165.499 106.254 168.865 105.689 169.977C105.252 170.831 104.015 171.979 103.512 172.89C95.8722 173.312 93.0586 173.935 91.1641 163.424C89.4955 154.16 95.8568 165.88 97.5203 166.338C98.7782 166.683 104.97 163.738 107.147 164.155L107.142 164.15Z" fill="#E5A965"/>
<path d="M152.174 172.89C152.19 173.549 153.186 173.636 151.81 175.803C151.687 175.999 148.837 178.84 148.539 179.082C147.826 179.663 144.632 182.005 144.001 181.995C143.718 181.99 139.108 179.658 138.918 179.447C138.137 178.593 138.281 177.249 138.009 176.168C137.87 175.607 137.254 172.71 137.285 172.53C137.311 172.36 138.497 171.279 139.102 169.616C140.807 170.028 143.292 175.335 143.641 175.443C144.067 175.571 150.973 173.08 152.174 172.895V172.89Z" fill="#E5A965"/>
<path d="M137.65 132.11C134.102 144.242 126.349 142.986 123.849 133.201C120.866 121.523 128.572 143.799 137.47 131.019L137.65 132.11Z" fill="#E5A965"/>
<path d="M166.34 163.059C166.427 163.342 166.263 163.831 166.34 164.15C161.241 171.51 158.012 171.943 151.45 165.972C151.394 165.499 150.198 164.881 150.906 164.516C153.576 165.653 156.754 163.831 157.083 163.79C160.086 163.373 163.326 163.62 166.345 163.064L166.34 163.059Z" fill="#D68E59"/>
<path d="M126.026 160.146C127.063 160.578 131.663 164.078 132.017 164.15C134.564 164.665 141.254 160.733 139.462 164.15C137.531 167.83 134.79 169.956 130.564 168.52C130.076 168.355 124.526 161.021 124.937 159.966C125.163 159.374 125.887 160.238 126.026 160.146Z" fill="#E5A965"/>
<path d="M104.6 146.671C96.8939 153.275 91.5235 148.426 88.2581 140.479C88.1297 140.165 87.0515 138.482 87.7139 138.297C96.2726 152.472 104.174 144.782 105.145 145.214C105.73 145.863 104.657 146.136 104.6 146.671Z" fill="#F2BC83"/>
<path d="M154.721 140.85C152.626 142.363 147.759 146.985 147.276 147.042C144.817 147.314 140.633 141.508 139.832 139.398C136.977 131.863 145.233 143.578 146.552 143.768C147.79 143.948 152.98 140.165 154.726 140.855L154.721 140.85Z" fill="#F2BC83"/>
<path d="M73.0043 148.858C73.0505 148.817 72.8092 148.266 73.5485 147.767C74.1851 148.441 73.0248 148.802 73.0043 148.858Z" fill="#80402B"/>
<path d="M177.234 129.197C178.554 128.965 179.114 129.464 180.141 129.923C193.803 136.073 193.525 152.209 193.941 153.589L187.585 158.324C186.692 158.236 180.741 150.186 179.776 148.858C178.672 147.34 177.697 145.708 176.69 144.123C176.285 144.324 176.603 150.294 176.511 151.406H175.787C173.379 151.288 168.778 154.227 166.889 153.954C165.98 153.825 160.625 148.946 159.444 149.584C159.419 149.491 158.299 149.564 158.356 147.947C158.366 147.649 159.501 145.59 159.809 144.854C161.272 141.364 163.814 138.405 165.621 133.932C165.79 133.515 165.801 131.24 166.165 131.019C166.648 130.725 170.817 131.482 177.24 129.197H177.234Z" fill="#BA7142"/>
<path d="M175.782 151.406C175.129 152.307 170.57 157.855 170.154 157.958C169.887 158.025 164.974 158.02 164.707 157.958C164.425 157.891 161.293 154.505 160.533 153.954C160.553 152.461 159.829 150.969 159.444 149.584C160.625 148.946 165.98 153.82 166.889 153.954C168.778 154.227 173.379 151.288 175.787 151.406L175.782 151.406Z" fill="#E5A965"/>
<path d="M159.804 144.854C159.496 145.59 158.361 147.649 158.351 147.947C158.299 149.564 159.414 149.491 159.439 149.584C159.829 150.969 160.548 152.461 160.528 153.954C152.282 147.999 148.852 146.733 159.804 144.854Z" fill="#BA7142"/>
<path d="M179.776 148.858C177.799 150.917 181.501 153.172 180.5 156.141C179.288 155.529 177.769 155.215 176.505 154.685C176.67 154.15 176.418 152.472 176.505 151.406C176.598 150.294 176.28 144.324 176.685 144.123C177.691 145.708 178.672 147.34 179.771 148.858H179.776Z" fill="#80402B"/>
<path d="M137.285 172.524C137.259 172.71 137.87 175.607 138.009 176.163C136.772 178.16 139.534 182.324 141.095 183.081C145.71 185.315 148.75 181.068 149.992 188.176C149.417 188.326 149.854 188.696 149.268 188.902C148.031 189.34 144.303 191.435 139.462 192.541C136.874 191.45 132.798 187.559 132.382 187.446C129.527 186.648 128.151 190.92 119.49 183.807C119.028 180.837 118.632 179.874 117.672 181.259C109.545 183.148 111.727 181.48 105.324 177.98C104.729 176.287 103.661 174.748 103.507 172.885C104.01 171.974 105.252 170.826 105.684 169.971C108.056 171.48 118.134 172.385 120.029 171.794C120.429 171.67 123.253 167.758 124.388 167.058C128.023 173.739 130.272 171.536 137.28 172.519L137.285 172.524Z" fill="#BA7142"/>
<path d="M148.544 179.077C148.842 178.835 151.687 175.993 151.815 175.798C157.945 177.97 165.477 175.798 164.527 179.622C158.089 188.14 154.798 187.26 148.549 179.077H148.544Z" fill="#BA7142"/>
<path d="M161.257 198.007C152.19 200.802 147.518 193.432 147.82 197.642C147.718 197.508 146.963 197.678 146.367 195.46C147.045 193.982 147.887 192.572 148.544 191.09C148.852 190.39 149.155 189.669 149.268 188.907C149.859 188.701 149.417 188.331 149.992 188.182C152.22 187.595 161.288 190.081 164.337 189.638C164.291 192.732 162.71 195.393 161.252 198.012L161.257 198.007Z" fill="#80402B"/>
<path d="M161.257 198.007C157.966 203.911 155.229 207.365 147.82 197.642C147.518 193.432 152.19 200.802 161.257 198.007Z" fill="#BA7142"/>
<path d="M117.672 181.259C115.577 184.275 114.782 186.277 109.863 185.629C106.608 185.201 106.228 180.559 105.324 177.985C111.727 181.485 109.545 183.148 117.672 181.264V181.259Z" fill="#E5A965"/>
<path d="M139.467 192.546C141.444 193.38 146.634 193.2 148.544 191.09C147.887 192.572 147.04 193.982 146.367 195.46C143.092 195.598 139.832 196.422 136.561 196.551C135.291 194.245 134.02 191.939 132.746 189.633C129.26 193.231 126.904 191.702 124.937 192.546C124.146 191.543 119.875 187.6 119.49 187.451C119.064 184.522 119.515 183.992 119.49 183.812C128.151 190.925 129.532 186.653 132.382 187.451C132.803 187.569 136.874 191.455 139.462 192.546H139.467Z" fill="#E5A965"/>
<path d="M148.544 191.09C146.629 193.2 141.444 193.38 139.467 192.546C144.309 191.44 148.036 189.345 149.273 188.907C149.16 189.669 148.858 190.395 148.55 191.09H148.544Z" fill="#E5A965"/>
<path d="M133.655 228.591C134.908 237.083 128.064 230.722 127.299 231.139C126.652 231.494 126.816 237.042 123.304 230.413C122.303 230.253 122.113 237.222 116.224 228.956C120.643 229.2 125.062 229.442 129.481 229.682C130.672 229.368 132.603 228.591 133.655 228.591Z" fill="#BA7142"/>
<path d="M136.197 230.047C139.215 230.284 142.008 228.236 142.373 228.225C142.594 236.574 138.199 231.344 136.197 230.047Z" fill="#C97939"/>
<path d="M91.1641 46.1857C94.3216 48.4453 96.899 54.4158 98.2442 55.2856C100.262 56.5981 120.065 60.201 121.307 84.4126C118.098 88.3552 118.026 91.8192 114.227 96.0655C112.635 97.8412 102.732 106.071 100.606 104.805C100.734 104.738 101.828 103.647 102.783 102.983C119.397 91.4331 114.448 70.8914 100.421 64.7561C88.7253 59.64 74.8937 65.4356 70.4577 77.5002C64.4455 65.0186 83.8221 55.965 94.0649 55.1106L86.4406 44.7343C86.5587 44.7343 86.687 44.724 86.8051 44.7343C88.0579 44.8218 89.7778 45.7328 91.1641 46.1909V46.1857Z" fill="#CAA98C"/>
<path d="M86.4406 44.7291L94.0649 55.1055C83.8221 55.9599 64.4455 65.0186 70.4577 77.495C70.1599 78.3082 69.4873 81.2884 69.3692 82.2303C67.2898 98.5669 84.202 113.277 100.601 104.805C102.726 106.071 112.63 97.8463 114.222 96.0655C118.026 91.8192 118.093 88.3604 121.302 84.4126C121.923 96.4978 116.296 107.245 105.324 112.809C85.6037 122.809 58.7516 111.599 55.9329 88.5971C54.3824 75.9509 60.4356 60.0569 70.4577 52.007C73.6409 49.4541 82.518 44.76 86.4354 44.724L86.4406 44.7291Z" fill="#E0C5AA"/>
<path d="M75.1812 73.8561C70.2369 80.0634 70.4885 89.1324 74.4573 95.7C80.8597 106.313 91.7699 107.615 102.423 102.618C102.47 102.71 102.346 103.019 102.788 102.983C101.833 103.647 100.734 104.738 100.611 104.805C84.2072 113.277 67.295 98.5669 69.3795 82.2303C72.1725 83.9288 71.1303 74.7362 75.1915 73.8561H75.1812Z" fill="#4E2309"/>
<path d="M101.33 99.3441C93.6901 105.418 81.6555 102.345 76.9987 93.8831C76.9268 93.7544 77.0706 93.3015 76.9987 93.1574C82.9236 91.3354 92.5657 89.9765 97.8797 93.5228C101.33 95.8235 101.181 98.8809 101.33 99.3493V99.3441Z" fill="#45332D"/>
<path d="M76.9987 93.8831C81.6555 102.345 93.6901 105.418 101.33 99.3441C101.684 100.466 101.905 101.537 102.418 102.623C91.7648 107.621 80.8545 106.318 74.4521 95.7052L76.9936 93.8831H76.9987Z" fill="#E9E96B"/>
<path d="M76.9987 93.1522C77.0706 93.2964 76.9268 93.7493 76.9987 93.878L74.4573 95.7C70.4936 89.1324 70.2421 80.0582 75.1812 73.8561C76.0745 72.734 78.4876 69.8002 78.8111 72.9451C78.9394 74.17 71.8028 82.5494 76.9936 93.1522H76.9987Z" fill="#F5DC13"/>
<path d="M102.783 102.983C102.346 103.019 102.465 102.71 102.418 102.618C101.905 101.532 101.684 100.466 101.33 99.339C101.181 98.8706 101.33 95.8133 97.8797 93.5125C92.5606 89.9662 82.9236 91.3251 76.9987 93.1471C71.808 82.5494 78.9395 74.1649 78.8162 72.9399C78.4928 69.7951 76.0797 72.7237 75.1863 73.8509C71.1251 74.7311 72.1674 83.9236 69.3744 82.2251C69.4924 81.2884 70.165 78.3031 70.4628 77.4899C74.8988 65.4253 88.7305 59.6297 100.426 64.7459C114.448 70.8811 119.397 91.4228 102.788 102.973L102.783 102.983Z" fill="#2A231D"/>
<path d="M93.5207 68.3951C101.099 66.5782 100.616 78.37 93.5207 76.0384C89.6443 74.7671 90.5993 69.0951 93.5207 68.3951Z" fill="#FEFEFE"/>
<path d="M123.125 164.15C122.437 164.788 121.045 165.787 120.219 166.333C117.667 164.294 114.145 164.567 113.139 164.15C113.005 164.094 111.583 162.004 111.321 161.968C110.592 161.86 110.936 163.672 108.595 162.333C109.57 161.844 115.269 158.334 115.675 158.329C116.147 158.319 122.308 163.26 123.12 164.155L123.125 164.15Z" fill="#BA7142"/>
<path d="M120.219 166.333C118.843 167.244 118.263 169.107 115.68 168.515C115.002 168.36 110.007 163.594 108.6 162.688V162.323C110.941 163.661 110.592 161.849 111.326 161.958C111.583 161.999 113.01 164.088 113.144 164.14C114.15 164.562 117.672 164.284 120.224 166.322L120.219 166.333Z" fill="#D68E59"/>
<path d="M131.114 150.68C128.3 155.359 129.152 157.243 121.307 155.416L119.675 149.955C119.146 149.831 117.842 152.894 116.224 154.69C115.413 153.841 114.017 156.1 113.863 156.147C112.358 156.605 104.816 154.978 103.147 153.599C103.378 152.394 103.953 151.175 104.236 149.96C110.787 158.746 118.288 149.136 120.034 149.234C122.272 149.353 122.56 155.725 131.108 150.691L131.114 150.68Z" fill="#E5A965"/>
<path d="M116.224 154.685C109.386 162.277 102.675 157.094 102.423 155.961C102.398 155.843 102.829 155.266 103.147 153.594C104.811 154.973 112.358 156.6 113.863 156.141C114.017 156.095 115.413 153.841 116.224 154.685Z" fill="#EDC787"/>
<path d="M167.428 45.0945C165.292 48.1776 162.992 51.1886 160.528 54.0143C160.076 54.529 160.564 55.2239 160.348 55.2908C160.096 55.368 158.602 54.529 155.08 55.2908C158.453 51.2452 162.371 45.8769 167.428 45.0945Z" fill="#B49177"/>
<path d="M183.046 52.0121C188.92 57.2312 195.297 69.198 196.483 76.9494C201.14 107.337 170.796 124.77 147.091 112.083C121.692 98.4897 129.507 60.8187 155.08 55.2856C158.602 54.5239 160.096 55.3628 160.348 55.2856C160.569 55.2187 160.081 54.529 160.528 54.0092C162.992 51.1835 165.292 48.1725 167.428 45.0894C167.5 45.0791 167.49 44.2298 168.701 44.3637C171.566 44.6725 180.695 49.9224 183.046 52.007V52.0121Z" fill="#E0C5AA"/>
<path d="M181.593 93.5177C177.116 104.661 163.444 112.629 149.997 102.618C150.167 102.587 150.706 101.938 150.721 101.892C159.788 108.799 172.614 104.898 178.323 95.3397C180.33 91.9736 181.193 89.4618 181.229 85.5089C185.116 85.8332 180.259 93.3684 181.593 93.5177Z" fill="#672F18"/>
<path d="M179.052 72.034C184.161 78.9413 184.756 85.6427 181.593 93.5125C180.259 93.3633 185.116 85.828 181.229 85.5038C181.275 80.4185 179.853 75.8943 176.146 72.3943C177.137 72.2965 178.061 72.2554 179.052 72.0289V72.034Z" fill="#401E17"/>
<path d="M175.422 93.5177C175.371 93.6155 175.473 93.7905 175.422 93.8831C171.248 101.408 158.274 105.706 151.815 99.3441C151.877 99.1485 150.916 98.0934 152.539 95.5199C156.081 89.9096 170.072 89.8633 175.417 93.5177H175.422Z" fill="#45332D"/>
<path d="M178.328 95.3397C172.619 104.898 159.794 108.799 150.726 101.892C150.952 101.346 151.774 99.4779 151.815 99.3441C158.274 105.706 171.243 101.408 175.422 93.8831L178.328 95.3397Z" fill="#E9E96B"/>
<path d="M176.146 72.3995C179.853 75.8943 181.28 80.4237 181.229 85.5089C181.193 89.4618 180.336 91.9736 178.323 95.3397L175.417 93.8831C175.468 93.7905 175.366 93.6155 175.417 93.5177C181.229 82.1119 173.728 74.7259 173.6 73.6759C173.261 70.8039 174.703 72.5384 176.141 72.3995H176.146Z" fill="#F5DC13"/>
<path d="M179.052 72.034C178.061 72.2605 177.137 72.3017 176.146 72.3995C174.708 72.5384 173.266 70.8039 173.605 73.6759C173.728 74.7259 181.229 82.1119 175.422 93.5177C170.072 89.8633 156.087 89.9096 152.544 95.5199C150.916 98.0934 151.876 99.1485 151.82 99.3441C151.779 99.4779 150.957 101.351 150.732 101.892C150.711 101.938 150.177 102.587 150.008 102.618C120.712 80.82 159.588 45.707 179.062 72.034H179.052Z" fill="#2A231D"/>
<path d="M162.889 68.3951C169.918 67.1495 168.393 78.8281 161.801 75.6781C158.931 74.309 161.816 70.7627 158.171 72.3995C156.461 70.9583 156.379 70.2635 158.171 68.7605C162.504 70.3921 161.673 68.6113 162.895 68.3951H162.889Z" fill="#FEFEFE"/>
</g>
<defs>
<linearGradient id="paint0_linear_1301_1348" x1="130.689" y1="97.5175" x2="120.206" y2="236.051" gradientUnits="userSpaceOnUse">
<stop stop-color="#642A18"/>
<stop offset="1" stop-color="#813C1F"/>
</linearGradient>
</defs>
</svg>
