<svg width="283" height="210" viewBox="0 0 283 210" fill="none" xmlns="http://www.w3.org/2000/svg">
<path d="M218.673 16.822C219.964 18.3573 221.085 19.9185 222.217 21.5561C221.917 21.4185 221.436 21.1919 221.2 20.9958C216.701 17.2328 216.252 11.8503 209.965 13.7575L212.808 11.7533C204.308 4.23293 189.164 1.54921 177.802 2.1233C168.747 2.58174 156.467 5.599 149.759 11.6713C140.087 16.6247 133.279 24.7927 129.33 34.355C131.319 24.1082 142.258 12.523 151.831 7.55315C167.13 -0.38783 191.853 -2.14631 207.097 6.3681C211.758 8.97262 215.367 12.8945 218.673 16.822Z" fill="#342525"/>
<path d="M253.168 41.1172C266.404 41.2599 276.156 48.7995 282.082 59.3985L281.786 60.0308C275.733 49.4168 266.926 41.9298 253.526 41.7137C250.366 41.6616 246.842 42.0035 243.721 42.5598L243.688 41.9456C246.191 41.5827 250.77 41.0893 253.163 41.1175L253.168 41.1172Z" fill="#342525"/>
<path d="M247.557 34.6429C243.489 35.7243 238.85 37.0185 235.334 39.3182L235.317 39.0111C239.102 37.1972 242.754 35.1815 246.869 34.0646C256.478 31.458 269.624 30.357 276.165 38.3094C266.864 30.7615 258.623 31.6978 247.562 34.6426L247.557 34.6429Z" fill="#353333"/>
<path d="M149.759 11.6713C136.391 23.7693 136.526 47.9151 149.786 60.0368C149.799 60.2726 150.311 60.4755 150.183 61.2471C149.755 61.5841 149.318 61.8557 148.926 62.2402C144.218 66.8111 141.051 75.2523 139.133 81.2598C139.053 81.5062 138.917 81.6457 138.837 81.8921C133.035 75.0597 129.263 58.6329 128.312 57.6729C128.05 57.4123 127.657 57.5824 127.321 57.5733C126.877 55.2049 126.748 56.2791 126.253 56.0918C125.713 55.8849 126.04 55.5094 125.566 55.5134C126.739 47.7702 126.15 42.0653 129.33 34.3604C133.274 24.7985 140.087 16.6302 149.76 11.6768L149.759 11.6713Z" fill="#353333"/>
<path d="M126.259 56.0915C125.771 67.389 115.592 88.905 108.52 97.8796C106.444 100.513 97.9972 109.128 95.4539 111.072C85.9311 118.355 75.1845 120.106 63.5177 121.45C63.4588 120.678 65.4689 120.562 66.4113 120.367C69.2719 119.786 71.9999 119.4 74.8579 118.671C77.1073 118.097 79.4671 117.527 81.6507 116.758C83.067 116.263 84.4517 115.592 85.8234 114.989C86.7865 114.568 87.7679 114.079 88.7002 113.599C88.92 113.488 89.123 113.372 89.337 113.256C90.0703 112.864 90.5748 112.319 91.2361 111.92C92.6227 111.085 92.9719 110.922 94.4087 109.897C95.1668 109.355 96.5241 108.89 96.9277 107.911L97.2573 107.893C107.931 99.3036 111.806 92.1051 117.434 80.6025C117.795 79.8621 118.274 79.1483 118.623 78.381C119.056 77.4386 119.378 76.4858 119.779 75.5453C120.091 74.8185 120.658 74.0999 120.968 73.3238C121.225 72.6826 121.604 72.0732 121.85 71.4271C122.239 70.3882 122.644 69.3373 122.989 68.2843C123.724 66.0272 124.452 63.721 124.908 61.4022C124.93 61.3019 124.875 61.195 124.892 61.0951C125.297 58.9496 125.246 57.6157 125.326 57.0668C125.383 56.7006 125.524 56.2473 125.588 55.8202C125.605 55.7203 125.555 55.613 125.571 55.5131C126.045 55.5091 125.724 55.8843 126.259 56.0915Z" fill="#353333"/>
<path d="M127.326 57.573C127.754 59.8488 127.869 73.2915 127.709 76.4962C127.599 78.7079 124.663 103.902 124.366 105.327C122.466 114.469 116.207 121.787 111.586 129.747C111.188 130.429 110.265 131.992 110.746 132.411C109.904 132.535 109.874 132.498 109.143 133.115C109.041 132.763 106.323 132.143 106.822 126.774C107.826 124.381 109.379 122.063 110.37 119.649C114.08 110.644 109.839 119.304 108.181 121.617C105.29 125.659 94.0749 138.849 90.2286 141.546C85.6132 144.787 75.2529 149.86 69.6832 150.067C61.9362 150.354 58.8308 145.772 54.7077 140.416C53.7075 135.041 51.131 123.23 59.079 121.385C60.8688 120.968 62.9855 121.49 63.1881 121.468C58.1182 126.966 63.7079 133.348 67.005 134.196C69.5702 134.858 69.2965 133.185 69.5746 133.131C70.1798 133.015 71.3623 137.796 80.3117 131.309C83.9095 128.703 95.0092 113.11 95.8087 111.515C95.9181 111.3 95.7651 111.022 95.4539 111.072C97.9972 109.128 106.45 100.513 108.52 97.8796C115.592 88.905 125.766 67.3893 126.259 56.0915C126.754 56.2788 126.882 55.2046 127.326 57.573Z" fill="#60534F"/>
<path d="M118.659 156.933C120.842 160.675 119.469 163.369 120.207 167.168C121.667 174.706 127.754 182.414 113.282 193.577C103.657 201.003 88.9854 207.633 76.5691 203.754C84.1145 198.489 91.7216 192.741 96.2173 184.81C102.004 174.602 101.589 166.336 102.155 155.375C103.467 153.081 104.454 146.965 106.83 150.806C106.803 154.839 107.456 158.901 107.496 162.937C112.276 162.003 108.561 152.234 111.72 138.216C111.363 150.887 115.819 152.067 118.659 156.933Z" fill="#7C7068"/>
<path d="M138.837 81.8921C134.994 94.4959 136.119 99.8193 134.891 111.68L134.229 111.562C134.124 116.882 131.743 122.089 131.161 127.44C130.849 130.296 130.471 136.252 131.624 135.886C131.307 141.338 132.252 146.82 131.046 152.244C129.586 144.815 126.24 137.76 122.665 131.141C117.09 135.985 121.659 140.833 121.424 147.381C121.303 150.798 119.233 153.645 118.664 156.928C115.824 152.061 111.368 150.881 111.725 138.21C113.006 132.54 114.511 131.847 110.751 132.411C110.271 131.992 111.193 130.429 111.591 129.747C116.212 121.787 122.471 114.463 124.372 105.327C124.668 103.902 127.604 78.7021 127.715 76.4958C127.875 73.2912 127.76 59.8485 127.332 57.5727C127.668 57.5818 128.061 57.4117 128.323 57.6723C129.274 58.6323 133.046 75.0591 138.848 81.8915L138.837 81.8921Z" fill="#353333"/>
<path d="M106.822 126.774C106.349 127.895 105.655 128.587 105.616 128.688C105.549 128.164 105.012 128.326 104.641 128.896C97.006 140.657 96.3942 150.691 90.3633 161.869C90.294 161.912 89.6893 162.539 89.1066 162.862C89.1374 162.52 87.558 162.854 86.816 162.988C75.6693 164.975 63.3455 158.968 57.8503 149.792C55.7883 146.352 55.4164 144.194 54.7077 140.416C58.8308 145.772 61.942 150.36 69.6832 150.067C70.8385 154.855 87.4884 146.328 91.2371 141.953L90.2286 141.546C94.0749 138.849 105.29 125.659 108.181 121.617C109.839 119.304 114.085 110.644 110.37 119.649C109.373 122.063 107.826 124.381 106.822 126.774Z" fill="#353333"/>
<path d="M63.1881 121.468C63.2977 121.457 63.4081 121.461 63.5177 121.45C75.1845 120.106 85.9311 118.355 95.4539 111.072C95.7597 111.022 95.9126 111.3 95.8087 111.515C95.0147 113.109 83.9095 128.703 80.3117 131.309C71.3677 137.796 70.1798 133.015 69.5746 133.131C69.302 133.184 69.5757 134.858 67.005 134.196C63.7076 133.343 58.1182 126.966 63.1881 121.468Z" fill="#AC9D92"/>
<path d="M109.143 133.121C109.388 133.982 106.889 142.552 106.83 150.806C104.454 146.965 103.467 153.081 102.155 155.375C102.673 145.429 101.361 139.093 105.616 128.694C105.66 128.593 106.355 127.9 106.822 126.78C106.318 132.148 109.041 132.769 109.143 133.121Z" fill="#4A4D53"/>
<path d="M69.7453 169.167C69.6978 167.8 74.0639 170.157 78.3773 170.85C85.7537 172.04 92.119 170.97 98.1809 166.682C97.8887 170.994 97.8231 175.42 95.763 179.444C87.0881 177.984 76.9041 173.923 69.7508 169.167L69.7453 169.167Z" fill="#9C2315"/>
<path d="M78.3773 170.85C74.0639 170.157 69.7033 167.8 69.7453 169.167C66.2458 166.84 61.9269 163.435 59.8735 159.852C69.7459 169.981 76.9752 169.595 89.1014 162.868C89.6842 162.545 90.2888 161.917 90.3581 161.875C92.7329 160.474 94.7903 158.81 97.0161 157.505C99.9747 160.115 91.5688 165.764 86.8989 167.61C82.9033 169.193 79.5801 168.572 78.3773 170.85Z" fill="#D37243"/>
<path d="M98.1754 166.683C92.1135 170.97 85.7537 172.04 78.3718 170.85C79.5746 168.573 82.8978 169.193 86.8934 167.61C91.5632 165.764 99.9692 160.115 97.0106 157.505C98.0034 156.923 97.9268 156.13 98.6222 156.955C98.4589 160.204 98.3881 163.431 98.1699 166.683L98.1754 166.683Z" fill="#A77152"/>
<path d="M86.8108 162.994C83.4561 166.918 70.8062 164.906 66.6119 162.87C63.2837 161.254 57.6014 153.387 57.8506 149.798C63.3461 158.979 75.6644 164.986 86.8163 162.994L86.8108 162.994Z" fill="#353333"/>
<path d="M134.891 111.68C134.603 114.474 133.953 117.282 133.709 120.062C133.299 124.732 132.282 129.288 132.177 134.007C132.172 134.211 132.211 134.418 132.211 134.622C131.236 134.538 131.666 135.147 131.624 135.886C130.471 136.252 130.849 130.296 131.161 127.44C131.743 122.089 134.124 116.882 134.229 111.562L134.891 111.68Z" fill="#24272C"/>
<path d="M54.6609 79.7353C56.1775 80.5651 61.0217 85.9099 61.9847 87.4962C73.2376 106.114 52.6001 119.783 66.4168 120.367C65.4689 120.562 63.4643 120.677 63.5232 121.45C63.4136 121.461 63.3032 121.456 63.1936 121.468C62.991 121.49 60.8742 120.968 59.0845 121.385C51.1365 123.23 53.7075 135.041 54.7132 140.415C55.4165 144.194 55.7938 146.352 57.8558 149.792C57.6069 153.386 63.2889 161.248 66.6171 162.865C70.8114 164.901 83.4613 166.913 86.816 162.988C87.5634 162.853 89.1374 162.52 89.1066 162.862C76.9859 169.589 69.7511 169.975 59.8787 159.846C61.9266 163.43 66.251 166.834 69.7505 169.161C76.9038 173.917 87.0878 177.979 95.7627 179.439C97.8228 175.415 97.8939 170.989 98.1806 166.677C98.3988 163.425 98.4696 160.198 98.6329 156.949C97.9375 156.123 98.0141 156.917 97.0213 157.499C94.7955 158.804 92.7381 160.468 90.3633 161.869C96.3942 150.691 97.006 140.657 104.641 128.896C105.012 128.326 105.549 128.164 105.616 128.688C101.36 139.087 102.672 145.423 102.155 155.369C101.588 166.33 102.004 174.597 96.217 184.805C91.7213 192.736 84.1142 198.483 76.5688 203.749C88.9793 207.622 103.656 200.997 113.282 193.571C127.753 182.403 121.667 174.7 120.207 167.162C119.469 163.363 120.842 160.669 118.659 156.928C119.228 153.646 121.297 150.798 121.418 147.381C121.654 140.834 117.09 135.985 122.659 131.141C126.24 137.76 129.58 144.816 131.04 152.244C132.246 146.815 131.301 141.338 131.619 135.886C131.661 135.147 131.231 134.538 132.205 134.622C132.13 142.079 133.371 146.335 133.115 151.206C132.789 157.511 130.626 160.264 130.094 161.999C129.519 163.884 129.4 166.019 128.777 167.924C127.763 171.027 125.569 173.914 125.511 174.264C125.408 174.907 126.464 179.388 125.67 183.188C154.303 190.517 190.22 182.115 209.098 159.665C215.956 151.511 221.322 142.085 225 132.301C225.246 131.655 225.621 131.167 225.882 130.405C226.973 134.107 226.239 138.108 225.523 141.822C222.69 156.554 209.681 168.896 226.798 183.028C231.686 187.062 239.653 191.382 245.769 187.686L245.727 186.918C245.573 183.412 233.848 178.868 233.274 178.36C232.44 177.62 233.196 177.727 233.059 177.448C235.945 178.533 243.954 182.422 245.576 184.154C247.202 185.891 249.175 189.914 246.293 191.199C244.808 191.858 239.693 192.31 237.505 192.606C226.632 193.956 208.837 185.631 204.427 176.247C203.441 174.145 203.189 171.772 202.584 169.572C198.805 172.689 194.49 175.181 190.041 177.345C188.297 177.787 179.289 182.407 175.124 183.708C162.704 187.591 148.814 188.684 135.923 187.4C134.488 187.259 126.442 185.307 125.967 185.482C124.762 185.928 123.255 197.1 110.246 204.211C106.865 206.058 103.913 206.17 103.998 207.018C94.3507 209.022 85.7568 210.946 75.8244 208.256C75.0884 207.494 74.9581 206.324 72.6527 204.272C74.5831 202.604 76.666 201.103 78.6263 199.478C81.5249 197.08 84.0273 195.193 86.7863 192.561C86.8281 192.52 87.7608 192.348 87.9175 192.191C89.0251 191.09 95.456 182.685 95.0652 181.787C89.4436 179.945 83.6749 178.232 78.3171 175.776C67.1211 170.642 58.0957 163.398 54.3481 151.833C52.71 146.779 50.9074 132.709 48.4898 131.824C47.905 131.608 44.7733 132.369 39.3352 129.554C38.8646 129.31 34.1659 125.311 30.3417 124.195C18.1305 120.641 0.226205 127.894 0.245726 105.362C4.16637 97.9964 20.2575 111.613 19.3527 106.47C9.69282 92.8855 20.9125 82.8912 33.0985 96.6285C35.3971 88.3174 44.5587 91.819 45.304 91.6461C45.5869 91.5811 47.8317 87.0079 47.8276 86.7331C47.8154 86.0076 46.151 84.8944 46.3012 82.8124C46.5424 79.3778 50.8833 77.6599 54.6719 79.7347L54.6609 79.7353Z" fill="#100E0D"/>
<path d="M23.3391 107.329C34.4482 101.945 47.1332 110.418 49.4993 117.291C49.5845 117.539 49.4899 117.924 49.5498 118.212C44.5459 119.592 43.0012 120.761 42.6314 120.748C42.2448 120.731 38.8609 118.403 35.5689 117.747C28.0268 116.247 9.21943 118.39 6.06287 109.664C5.6734 108.59 7.07958 106.907 5.59003 107.071L5.70425 106.141C19.2506 114.347 20.6879 108.613 23.3391 107.329Z" fill="#6F6360"/>
<path d="M49.8065 116.966C49.8065 116.966 49.9075 117.301 49.4938 117.291C47.1277 110.419 34.4424 101.94 23.3336 107.33L22.9535 106.426C23.2325 106.29 26.1749 104.088 28.5477 103.655C38.5952 101.816 46.232 108.955 49.801 116.966L49.8065 116.966Z" fill="#C2C1BC"/>
<path d="M22.959 106.426L23.3391 107.329C20.6879 108.613 19.2503 114.341 5.70425 106.141L5.59003 107.071L3.80521 107.477C0.794183 99.9967 15.077 108.773 17.3479 108.89C19.7017 109.014 21.0004 107.381 22.959 106.426Z" fill="#C2C1BC"/>
<path d="M62.806 96.5382C57.339 100.122 53.5115 105.371 49.4357 110.209C47.4583 104.196 46.4939 101.982 49.6351 95.8749C51.0341 93.1578 57.8009 87.0548 52.6907 85.6961C51.5073 84.5124 48.6512 84.3721 48.3072 83.6264C48.5291 75.1213 63.7153 85.399 62.806 96.5382Z" fill="#7E7172"/>
<path d="M62.806 96.5382C62.1278 104.859 53.5433 108.158 57.9656 116.056C57.8344 116.476 50.6678 117.903 49.5443 118.212C49.4844 117.924 49.579 117.539 49.4938 117.291C49.902 117.302 49.779 116.967 49.8065 116.966C51.6919 116.686 50.0081 113.511 49.5368 112.052C50.0889 111.972 49.5739 110.62 49.4357 110.209C53.5115 105.371 57.3335 100.122 62.806 96.5382Z" fill="#60534F"/>
<path d="M49.4357 110.209C49.5739 110.62 50.0889 111.972 49.5368 112.052C48.8406 109.907 47.3604 107.733 46.8839 105.575C43.8178 91.7717 57.3251 90.3318 52.6907 85.6961C57.8009 87.0548 51.0341 93.1578 49.6351 95.8749C46.4939 101.982 47.4583 104.196 49.4357 110.209Z" fill="#D3D0BD"/>
<path d="M44.2853 94.1663C42.1346 97.8432 40.6792 94.0122 42.5472 101.346C39.9295 100.33 33.4806 98.6702 35.8779 96.4759C39.0579 100.108 35.5375 92.6827 44.2908 94.166L44.2853 94.1663Z" fill="#4A4D53"/>
<path d="M20.8763 92.3707C20.1662 94.7915 21.6391 93.22 22.7454 93.5003C27.2763 94.6433 29.5068 97.2382 33.4095 99.3837C26.3435 100.234 22.0739 103.752 19.2385 98.4673C17.5568 95.3307 19.0911 91.2641 20.8763 92.3707Z" fill="#3F4D5F"/>
<path d="M33.4095 99.3837C29.5013 97.2385 27.2763 94.6433 22.7454 93.5003C21.6391 93.22 20.1662 94.7915 20.8763 92.3707C24.8603 89.1707 31.5492 96.708 35.3676 99.1222C35.1369 99.4374 33.8801 99.3249 33.4095 99.3837Z" fill="#C2C1BC"/>
<path d="M44.2853 94.1663C35.532 92.683 39.0524 100.108 35.8725 96.4762C35.5164 91.9963 41.1056 91.8435 44.6731 92.2968C45.7843 92.8684 44.6831 93.4844 44.2853 94.1663Z" fill="#C2C1BC"/>
<path d="M56.3409 119.38C59.5081 118.964 64.8398 120.844 57.6988 120.229C52.4055 121.658 52.0939 124.613 51.6232 129.188C50.7425 125.286 51.1224 120.062 56.3409 119.38Z" fill="#C2C1BC"/>
<path d="M230.686 38.3467C229.587 35.7887 228.385 32.5543 227.287 30.2163L230.686 38.3467Z" fill="#1B161E"/>
<path d="M110.746 132.417C114.506 131.853 113.001 132.546 111.72 138.216C108.561 152.234 112.271 162.009 107.496 162.937C107.456 158.901 106.803 154.834 106.83 150.806C106.889 142.546 109.388 133.982 109.143 133.121C109.875 132.503 109.904 132.54 110.746 132.417Z" fill="#A9AAA8"/>
<path d="M69.6835 150.072C75.2532 149.866 85.6135 144.792 90.2289 141.552L91.2374 141.959C87.4887 146.334 70.8388 154.86 69.6835 150.072Z" fill="#4A4D53"/>
<path d="M226.63 143.923C227.492 154.316 215.498 166.971 224.914 178.517C223.331 180.886 225.542 180.528 226.804 183.034C209.681 168.896 222.695 156.554 225.528 141.827C226.195 142.318 226.564 143.134 226.63 143.923Z" fill="#84150E"/>
<path d="M228.652 180.776C228.74 180.859 228.591 181.456 228.695 181.544C234.201 186.412 236.324 185.135 236.777 185.258C239.082 185.891 243.579 187.932 245.046 186.345C245.25 186.548 245.471 186.872 245.733 186.923L245.775 187.691C239.659 191.387 231.692 187.067 226.804 183.034C225.542 180.528 223.331 180.886 224.914 178.517C225.011 178.374 225.338 178.015 225.534 177.867C226.106 179.26 227.625 179.831 228.647 180.776L228.652 180.776Z" fill="#9C2315"/>
<path d="M228.959 144.411L226.635 143.922C226.57 143.134 226.2 142.318 225.534 141.827C226.25 138.113 226.984 134.112 225.894 130.41C226.359 129.058 226.861 127.155 227.278 125.713L227.94 125.831C228.799 132.054 229.145 138.146 228.959 144.411Z" fill="#B6361B"/>
<path d="M230.072 164.68C223.881 165.119 228.172 157.975 228.925 149.803C229.091 148.018 228.903 146.191 228.959 144.411C229.145 138.146 228.799 132.054 227.94 125.831L227.278 125.713C227.982 123.282 228.666 120.692 229.164 118.217C236.127 132.868 230.239 151.068 230.072 164.686L230.072 164.68Z" fill="#EB602C"/>
<path d="M245.051 186.344C243.585 187.932 239.087 185.891 236.782 185.258C235.764 184.373 231.55 181.172 231.256 180.325C231.223 180.233 231.587 178.635 231.808 178.446C236.348 180.056 241.749 183 245.046 186.345L245.051 186.344Z" fill="#EB602C"/>
<path d="M230.45 177.597C231.69 177.892 231.735 178.417 231.808 178.446C231.587 178.635 231.223 180.233 231.256 180.325L228.652 180.776C227.631 179.831 226.112 179.26 225.54 177.866C226.903 176.812 228.363 177.101 230.45 177.597Z" fill="#E29150"/>
<path d="M236.782 185.258C236.329 185.135 234.207 186.412 228.7 181.543C228.596 181.455 228.745 180.859 228.658 180.776L231.261 180.325C231.556 181.172 235.764 184.373 236.788 185.258L236.782 185.258Z" fill="#B6361B"/>
<path d="M228.959 144.411C228.908 146.19 229.091 148.018 228.925 149.803C228.172 157.975 223.881 165.119 230.072 164.68C230.02 168.962 231.03 173.297 230.45 177.597C228.363 177.101 226.903 176.812 225.54 177.866C225.344 178.015 225.017 178.374 224.92 178.516C215.504 166.97 227.497 154.31 226.635 143.922L228.959 144.411Z" fill="#DA5126"/>
<path d="M223.996 164.706C227.239 163.565 226.747 173.356 225.793 173.54C223.768 172.49 222.223 165.325 223.996 164.706Z" fill="#EB602C"/>
<path d="M174.184 61.7781C173.158 64.7772 175.993 64.7261 176.437 66.891C176.333 66.9187 176.21 66.8814 176.107 66.9091C176.025 66.9301 176.054 66.3454 174.47 66.9989C172.672 66.5586 170.512 66.5616 168.821 65.7688C168.431 65.5867 168.18 65.518 168.151 65.4976C168.031 65.4271 166.717 63.772 166.396 63.4376C166.685 62.5856 168.289 65.303 169.265 64.8203C169.646 64.6289 168.947 63.9467 170.932 62.2646C171.126 62.4904 173.625 61.9353 174.189 61.7778L174.184 61.7781Z" fill="#5B5B63"/>
<path d="M222.217 21.5561C224.258 24.5134 225.764 26.972 227.287 30.2108C228.385 32.5488 229.592 35.7829 230.686 38.3412C231.071 39.2332 231.859 40.0425 231.167 41.0871C230.541 40.9234 230.514 40.5344 230.48 40.5087C230.177 40.3163 225.122 36.3528 224.978 36.0362C224.67 35.3435 225.209 26.8979 220.267 21.9711L221.2 20.9958C221.431 21.1922 221.912 21.4188 222.217 21.5561Z" fill="#696866"/>
<path d="M221.2 20.9958L220.267 21.9711C218.728 20.4329 215.529 18.9528 213.205 18.9704C216.471 17.6579 207.8 15.8676 207.235 17.9118C207.041 18.6045 211.401 28.0629 211.423 22.4565C212.341 25.0244 213.486 27.5084 214.144 30.1621C209.505 30.3672 196.374 31.1373 197.501 38.0063C194.11 39.4795 190.443 40.4234 187.228 42.2665C187.122 41.5408 184.467 43.0616 184.005 43.3675C183.075 42.698 180.754 44.2775 179.178 45.1726L175.803 43.5096C177.661 42.4231 181.207 38.6695 181.997 36.701C182.273 36.0147 182.828 34.4826 182.828 33.883C188.348 35.8683 184.608 22.344 175.62 19.185C170.845 17.5053 164.448 18.7035 164.482 16.7159C165.023 16.3342 167.625 14.2497 167.132 14.1062C161.696 15.6477 161.441 17.0258 159.656 18.521C159.113 18.9798 159.515 19.2658 159.217 19.4691C157.885 20.3839 149.771 20.0096 147.287 20.432C150.747 12.8987 157.935 8.55477 166.023 5.8501C171.471 4.02742 179.068 3.61048 177.802 2.1233C189.164 1.54921 204.308 4.23293 212.808 11.7533L209.965 13.7575C216.252 11.8503 216.701 17.2328 221.2 20.9958Z" fill="#A9AAA8"/>
<path d="M177.802 2.1233C179.068 3.61048 171.471 4.02742 166.023 5.8501C157.935 8.55477 150.747 12.9042 147.287 20.432C144.595 26.2839 143.475 33.3971 143.751 39.7242C144.027 46.0567 145.563 50.8625 148.29 56.571C149.136 58.3452 149.647 57.7012 149.791 60.031C136.526 47.9096 136.396 23.769 149.765 11.6655C156.477 5.58743 168.752 2.57047 177.807 2.11751L177.802 2.1233Z" fill="#C2C1BC"/>
<path d="M154.617 40.3599C154.745 40.3749 154.919 41.9331 155.229 39.5563C156.289 38.596 156.742 40.9199 156.959 41.1555C152.704 40.4374 156.701 52.7319 157.781 53.1237C163.566 53.0317 167.982 49.5605 171.805 48.3496L172.855 49.5241C172.733 49.6078 172.029 50.422 170.666 51.4924C168.696 53.0362 165.66 54.237 164.354 56.1513C162.272 56.4527 161.061 56.8821 159.165 57.3603C154.687 58.4916 154.122 58.5446 150.512 61.2235C150.443 61.2768 150.251 61.1884 150.182 61.2416C150.311 60.47 149.804 60.2668 149.786 60.0313C149.641 57.7015 149.131 58.3455 148.284 56.5713C145.558 50.8628 144.021 46.057 143.746 39.7245C149.514 38.5223 151.242 39.8961 154.617 40.3599Z" fill="#828380"/>
<path d="M176.247 51.4997C175.152 53.518 174.764 54.8869 174.584 57.1355C163.935 60.5583 172.684 57.9439 172.82 60.9288C172.2 61.3699 171.495 61.7826 170.921 62.2652C168.936 63.9473 169.635 64.6295 169.254 64.8209C168.284 65.3032 166.674 62.5862 166.385 63.4382C164.935 61.9116 163.603 61.0276 163.495 58.6683C163.729 61.1197 172.45 57.3957 171.346 55.157C169.152 56.2346 166.623 55.8233 164.344 56.1574C165.649 54.2431 168.685 53.0423 170.655 51.4985C172.981 52.416 174.584 49.7978 176.236 51.5003L176.247 51.4997Z" fill="#6F6360"/>
<path d="M184.01 43.3727C182.161 44.6019 177.268 49.6174 176.247 51.4997C174.595 49.7972 172.992 52.4154 170.666 51.4979C172.029 50.4275 172.734 49.6133 172.856 49.5296C174.006 48.7073 174.34 48.271 174.425 48.2113C175.959 47.148 177.549 46.1036 179.184 45.1778C180.76 44.2827 183.081 42.7031 184.01 43.3727Z" fill="#5F6A69"/>
<path d="M176.431 66.8913C175.993 64.7261 173.158 64.7717 174.178 61.7784C174.276 61.751 175.251 60.6469 175.929 60.7582C176.324 60.8245 178.257 64.0188 182.249 65.1858C180.499 66.3325 178.391 66.3602 176.431 66.8913Z" fill="#4A4D53"/>
<path d="M174.584 57.1355C174.572 57.3177 175.397 59.2857 175.364 59.403C175.215 59.9997 173.266 60.6128 172.82 60.9288C172.684 57.9439 163.935 60.5583 174.584 57.1355Z" fill="#534B4E"/>
<path d="M182.828 33.883C182.823 31.474 182.118 31.8758 182.057 31.7691C181.947 31.5826 182.375 31.1356 181.336 30.5766C181.377 30.5248 181.854 30.6801 181.981 30.3871C182.255 29.767 178.478 22.3725 171.696 22.4807C175.765 19.727 167.911 21.5773 169.73 22.5886C164.209 23.3866 158.033 29.2097 157.912 34.6345C155.952 35.0556 154.776 38.4315 154.612 40.3602C151.237 39.8964 149.514 38.5223 143.74 39.7248C143.464 33.3977 144.589 26.2842 147.276 20.4326C149.76 20.0102 157.874 20.3845 159.206 19.4697C159.504 19.2664 159.102 18.9804 159.645 18.5216C159.355 19.8686 162.673 17.9868 164.471 16.7165C164.431 18.7044 170.834 17.5059 175.609 19.1856C184.597 22.3446 188.337 35.869 182.818 33.8836L182.828 33.883Z" fill="#99999A"/>
<path d="M175.809 43.5148L179.184 45.1778C177.549 46.1036 175.959 47.148 174.425 48.2113C173.434 47.6276 172.753 48.0555 171.805 48.3551C167.987 49.5657 163.566 53.0372 157.781 53.1292C156.707 52.7371 152.705 40.4429 156.959 41.161C162 46.583 169.248 47.3458 175.804 43.5151L175.809 43.5148Z" fill="#A9AAA8"/>
<path d="M157.917 34.6342C157.682 45.5108 173.416 45.4779 182.002 36.7007C181.212 38.6692 177.667 42.4228 175.809 43.5093C169.254 47.34 162.005 46.5772 156.964 41.1552C156.747 40.9196 156.295 38.5957 155.234 39.556C154.924 41.9328 154.751 40.3746 154.623 40.3596C154.782 38.4312 155.963 35.055 157.923 34.6339L157.917 34.6342Z" fill="#5F6A69"/>
<path d="M164.487 16.7156C162.689 17.9859 159.371 19.8677 159.661 18.5207C161.441 17.0258 161.702 15.6474 167.138 14.1059C167.636 14.2491 165.034 16.3336 164.487 16.7156Z" fill="#100E0D"/>
<path d="M174.425 48.2113C174.34 48.271 174.006 48.7073 172.856 49.5296L171.805 48.3551C172.753 48.0555 173.434 47.6276 174.425 48.2113Z" fill="#99999A"/>
<path d="M163.506 58.6677C163.448 57.4057 163.671 57.1515 164.355 56.1568C166.639 55.8224 169.163 56.234 171.357 55.1564C172.461 57.3951 163.74 61.1191 163.506 58.6677Z" fill="#938079"/>
<path d="M171.696 22.4807C171.069 22.4931 170.347 22.4997 169.73 22.5886C167.911 21.5773 175.76 19.7273 171.696 22.4807Z" fill="#828380"/>
<path d="M171.696 22.4807C178.478 22.3725 182.255 29.767 181.981 30.3871C181.848 30.6804 181.377 30.5248 181.336 30.5766C181.233 30.7087 178.997 30.5179 181.289 32.7354L182.057 31.7691C182.118 31.8758 182.823 31.474 182.828 33.883C182.828 34.4826 182.273 36.0147 181.997 36.701C173.41 45.4782 157.677 45.5111 157.912 34.6345C158.033 29.2097 164.209 23.3866 169.73 22.5886C170.342 22.5 171.069 22.4931 171.696 22.4807Z" fill="#081212"/>
<path d="M181.336 30.5766C182.375 31.1356 181.947 31.5826 182.057 31.7691L181.289 32.7354C178.997 30.5179 181.233 30.7087 181.336 30.5766Z" fill="#D5D5D3"/>
<path d="M166.136 25.8662C172.031 24.5635 168.351 32.8954 163.891 29.8398C162.66 28.4882 164.737 26.174 166.136 25.8662Z" fill="#FDFDFD"/>
<path d="M169.288 29.3896C173.452 30.3822 168.58 34.874 168.199 30.5275L169.288 29.3896Z" fill="#EBE1E3"/>
<path d="M217.844 61.538C217.5 61.4964 216.733 61.3845 216.52 61.3027C214.803 60.6433 214.903 60.2528 212.508 59.9827C206.321 59.2881 200.415 63.4077 194.409 65.2885C187.172 67.5559 188.004 64.5454 183.823 69.874C181.8 72.4548 181.9 72.7848 180.853 75.5816C180.425 76.7272 178.374 80.0082 179.667 80.8833C195.691 84.7344 215.133 80.8125 223.007 65.8752C224.323 65.8634 225.135 65.2963 226.23 64.7742C226.308 65.1825 226.195 65.8322 226.298 66.0026C222.155 67.8142 225.347 71.6599 226.947 77.8263C229.351 87.0949 232.101 97.2467 232.151 106.804C232.165 109.757 231.016 115.722 231.088 117.336C231.159 118.938 231.773 119.779 231.969 121.446C232.009 121.773 232.278 122.259 232.416 123.577C232.672 126.028 233.278 128.426 233.475 130.912C233.486 131.115 233.497 131.323 233.508 131.526C234.331 143.203 232.765 150.11 232.132 160.249C231.841 164.897 231.684 166.253 232.068 171.034C232.289 173.755 231.916 175.085 233.076 177.447C233.212 177.726 232.457 177.619 233.291 178.359C233.864 178.867 245.59 183.411 245.744 186.917C245.482 186.865 245.255 186.542 245.056 186.339C241.76 182.994 236.353 180.051 231.819 178.44C231.74 178.412 231.695 177.886 230.461 177.591C231.035 173.291 230.026 168.957 230.083 164.674C230.25 151.062 236.138 132.862 229.174 118.205C229.361 117.287 229.523 116.327 229.676 115.405C231.584 103.793 230.546 98.1351 228.108 86.8441C227.665 84.7892 226.896 82.8291 226.464 80.7736C222.484 67.8786 224.865 67.6984 221.065 72.137C220.412 72.8989 219.318 73.443 218.892 74.4125C217.544 75.053 213.971 78.302 210.812 79.7845C201.145 84.3305 189.12 84.765 179.058 81.5273C178.722 81.6337 178.44 82.7163 178.324 83.1078C177.801 84.8306 177.738 87.4964 177.678 89.3039C177.656 89.9157 177.778 90.536 177.779 91.1466C177.773 94.6453 178.157 102.254 177.277 93.9464C176.399 85.6777 177.792 82.0478 177.577 81.4545C177.435 81.0663 172.687 79.3852 172.001 78.5262C168.83 82.0886 167.034 89.3105 166.444 93.9249C166.344 94.706 166.321 95.5984 166.249 96.3999C166.14 97.616 166.033 98.8815 166.122 100.103C166.389 114.11 164.953 104.1 165.3 97.0681C165.854 85.7889 170.883 78.5436 170.313 77.6947C170.224 77.5622 167.604 76.2152 167.285 76.3208C161.192 90.0767 161.892 83.9656 166.12 76.0767C166.685 75.0281 167.511 73.5086 168.225 72.5728C169.017 71.5392 173.317 67.4748 174.486 66.9925C176.07 66.339 176.042 66.9237 176.123 66.9027L176.14 67.2098C173.806 67.844 170.867 70.9096 169.549 72.8081C169.059 73.5171 168.404 74.1141 168.022 74.8942C172.681 78.1699 170.911 76.6443 173.22 73.8388C174.439 72.3527 178.234 68.0245 179.76 67.3192C180.378 67.0322 186.787 65.6519 184.341 67.0677C182.101 67.7132 180.14 66.2037 174.857 73.749C174.341 74.4869 174.074 74.848 173.651 75.6634C172.7 77.5033 170.449 76.9502 177.342 80.0813C178.465 79.9537 178.385 78.1924 178.68 77.5436C179.014 76.8157 179.209 76.0514 179.545 75.3399C180.936 72.3812 182.327 69.7086 184.347 67.0674C189.955 65.4505 192.335 65.4519 193.919 65.0019C200.597 63.1117 207.053 57.8673 214.309 59.5703C216.089 59.9896 217.679 61.4481 217.865 61.5314L217.844 61.538Z" fill="#342525"/>
<path d="M135.052 162.502C135.762 170.021 132.359 169.751 141.371 172.937C163.75 180.851 191.004 173.112 206.974 156.707C207.663 158.726 206.278 158.786 209.109 159.67C190.232 182.125 154.314 190.527 125.681 183.193C126.475 179.392 125.414 174.907 125.522 174.269C125.58 173.919 127.774 171.032 128.788 167.929C129.411 166.024 129.531 163.889 130.105 162.004C130.632 160.27 132.795 157.511 133.127 151.211C133.346 151.199 133.721 151.101 133.789 151.328C134.023 152.086 134.85 160.319 135.058 162.502L135.052 162.502Z" fill="#B6361B"/>
<path d="M134.202 140.987C137.341 154.307 144.352 163.51 158.948 167.044C162.609 169.197 154.947 169.54 149.666 168.477C143.142 167.163 139.7 162.368 135.052 162.502C134.844 160.319 134.018 152.086 133.783 151.329C133.71 151.102 133.341 151.194 133.121 151.211C133.377 146.34 132.135 142.085 132.211 134.627C132.211 134.424 132.172 134.217 132.177 134.013C133.951 135.016 133.506 138.038 134.202 140.987Z" fill="#EB602C"/>
<path d="M209.109 159.67C206.278 158.786 207.663 158.726 206.974 156.707C207.412 156.259 207.776 155.568 208.197 155.099C213.983 148.693 217.013 142.465 219.483 139.386C220.251 138.426 221.217 140.463 225.006 132.306C221.329 142.096 215.961 151.516 209.103 159.67L209.109 159.67Z" fill="#B6361B"/>
<path d="M227.272 125.713C226.855 127.155 226.354 129.059 225.888 130.41C225.627 131.172 225.252 131.66 225.006 132.306C221.217 140.463 220.251 138.426 219.483 139.386L217.694 136.712C219.03 134.34 221.592 128.522 222.361 125.983C224.522 126.601 223.821 124.566 227.272 125.713Z" fill="#D37243"/>
<path d="M165.284 97.0744C164.937 104.107 166.373 114.116 166.106 100.11C173.916 107.393 183.39 110.371 194.995 108.997C205.779 107.525 216.32 103.949 222.262 94.2553C223.076 96.3448 224.018 103.257 224.21 105.854C224.288 106.873 224.344 107.904 224.378 108.925C222.364 111.978 222.88 115.657 221.652 119.086C220.988 120.943 212.477 136.52 210.91 138.773C204.384 148.169 198.523 152.798 188.161 158.042C187.828 158.209 188.215 158.82 187.882 158.981C187.7 159.074 187.067 158.481 183.988 159.811C183.751 159.912 184.153 160.605 183.072 161.093C182.352 161.419 180.552 160.643 180.815 161.833C177.998 161.685 178.785 162.478 178.559 162.573C174.375 164.343 172.388 164.078 171.931 164.477C160.542 164.574 149.429 159.948 142.328 151.624C143.926 150.326 140.854 148.762 139.329 144.858C138.303 142.23 138.106 138.743 136.873 136.06C135.954 134.059 133.981 133.045 133.66 131.308C133.119 128.378 135.618 120.705 133.698 120.062C133.942 117.282 134.592 114.469 134.88 111.681C136.108 99.8199 134.983 94.4965 138.826 81.8927C138.901 81.6466 139.042 81.5068 139.122 81.2604C141.813 84.1105 143.646 87.5028 146.513 90.2498C150.869 94.4277 158.73 98.7213 164.366 101.437C165.123 101.368 163.827 97.7375 165.278 97.0747L165.284 97.0744Z" fill="#FAC287"/>
<path d="M160.366 73.3177C159.029 75.9653 160.312 74.4537 161.349 73.2637L166.098 76.0834C161.87 83.9723 161.17 90.0834 167.263 76.3275C167.583 76.2219 170.202 77.5689 170.292 77.7014C170.862 78.5502 165.838 85.7953 165.278 97.0747C163.833 97.7372 165.128 101.368 164.366 101.437C158.73 98.7213 150.869 94.4277 146.513 90.2498C143.652 87.5025 141.813 84.1105 139.122 81.2604C141.035 75.2532 144.207 66.8117 148.915 62.2408C152.473 66.2425 155.937 70.1228 160.36 73.318L160.366 73.3177Z" fill="#E29150"/>
<path d="M226.448 80.78C224.426 79.6863 226.177 75.2448 222.377 78.3852C223.699 83.2907 225.689 88.132 226.798 93.0822C227.535 96.3751 228.181 99.8106 228.661 103.145C228.34 105.412 226.53 105.974 224.215 105.853C224.018 103.257 223.082 96.3445 222.267 94.255C221.005 91.0349 219.27 95.1511 215.383 97.4051C214.705 97.7999 205.677 101.849 205.127 101.972C204.468 102.119 204.955 101.157 203.456 101.448C188.302 104.403 179 105.563 166.239 96.406C166.31 95.6044 166.333 94.7121 166.433 93.931C173.589 96.1236 177.199 91.932 176.895 96.1291L177.266 93.9525C178.146 102.26 177.767 94.6511 177.768 91.1527C177.943 92.3239 178.117 93.4951 178.292 94.6663C189.539 97.8225 211.757 97.6977 218.589 87.064C220.574 83.9792 220.974 81.625 221.383 78.1317C221.424 77.7829 222.322 77.5851 222.332 77.4635C222.345 77.1933 221.104 73.1579 221.054 72.1431C224.854 67.7045 222.473 67.8847 226.453 80.7797L226.448 80.78Z" fill="#DA9D76"/>
<path d="M222.262 94.2553C216.326 103.949 205.779 107.525 194.995 108.997C183.39 110.371 173.916 107.393 166.106 100.11C166.017 98.8879 166.124 97.6224 166.233 96.4063C178.994 105.563 188.297 104.403 203.451 101.448C204.95 101.157 204.463 102.119 205.121 101.973C205.671 101.849 214.699 97.8002 215.377 97.4054C219.264 95.1514 221.005 91.0349 222.262 94.2553Z" fill="#FCAB6E"/>
<path d="M218.584 87.0643C205.365 91.1452 191.095 92.957 177.662 89.3103C177.722 87.5028 177.785 84.837 178.308 83.1141C188.679 87.0829 200.705 88.3646 210.982 83.1691C217.013 80.1208 223.354 72.2919 218.876 74.4189C219.302 73.4494 220.396 72.9053 221.048 72.1434C221.099 73.1582 222.339 77.1936 222.327 77.4638C222.322 77.5851 221.418 77.7832 221.377 78.132C220.968 81.6253 220.569 83.9795 218.584 87.0643Z" fill="#D37243"/>
<path d="M216.514 61.303C217.282 63.3456 220.816 65.9019 223.002 65.8755C215.128 80.8128 195.68 84.735 179.662 80.8836C178.374 80.0082 180.42 76.7275 180.847 75.5819C186.883 77.5389 198.937 79.2426 203.161 75.2814C213.001 73.7897 218.903 61.3699 212.519 60.2901L212.502 59.983C214.903 60.2528 214.798 60.6436 216.514 61.303Z" fill="#B55A2B"/>
<path d="M218.584 87.0643C211.752 97.698 189.528 97.8231 178.286 94.6666C178.112 93.4954 177.937 92.3242 177.763 91.153C177.762 90.5424 177.64 89.9221 177.662 89.3103C191.095 92.957 205.365 91.1452 218.584 87.0643Z" fill="#D37243"/>
<path d="M177.261 93.9528L176.89 96.1294C177.194 91.9323 173.584 96.1239 166.428 93.9313C167.018 89.3169 168.814 82.095 171.985 78.5326C172.676 79.3913 177.424 81.0724 177.561 81.4609C177.776 82.0542 176.383 85.6896 177.261 93.9528Z" fill="#D37243"/>
<path d="M178.308 83.1141C178.424 82.7227 178.706 81.6401 179.042 81.5337C189.109 84.7711 201.134 84.3366 210.796 79.7909C213.954 78.3029 217.528 75.0594 218.876 74.4189C223.359 72.2916 217.013 80.1208 210.982 83.1691C200.705 88.3646 188.674 87.0832 178.308 83.1141Z" fill="#C74520"/>
<path d="M229.665 115.411C229.512 116.333 229.344 117.294 229.163 118.211C228.666 120.686 227.981 123.276 227.277 125.708C223.826 124.56 224.527 126.596 222.367 125.977C224.04 120.429 224.577 114.656 224.384 108.924C224.35 107.903 224.293 106.872 224.215 105.853C226.536 105.974 228.34 105.412 228.661 103.145C229.255 107.232 229.593 111.29 229.665 115.411Z" fill="#D37243"/>
<path d="M189.661 68.6295C189.86 73.6571 198.757 75.9466 203.161 75.2814C198.943 79.2423 186.883 77.5389 180.847 75.5819C181.895 72.7851 181.794 72.4551 183.818 69.8743C185.776 69.5247 187.767 69.2505 189.661 68.6295Z" fill="#C08866"/>
<path d="M229.665 115.411C229.593 111.29 229.255 107.232 228.661 103.145C228.175 99.8109 227.535 96.3751 226.798 93.0822C230.187 91.8841 227.361 89.1954 228.098 86.8502C230.536 98.1412 231.573 103.799 229.665 115.411Z" fill="#FAD7AA"/>
<path d="M226.448 80.78C226.88 82.8355 227.649 84.8011 228.092 86.8505C227.356 89.1956 230.181 91.8844 226.792 93.0825C225.683 88.1323 223.699 83.2907 222.372 78.3855C226.172 75.2451 224.426 79.6863 226.442 80.7803L226.448 80.78Z" fill="#FCAB6E"/>
<path d="M174.47 66.9989C173.301 67.4811 169.001 71.5456 168.209 72.5792C166.939 71.9173 164.075 71.2439 163.8 70.0488C165.312 68.4752 167.094 67.1232 168.821 65.7688C170.518 66.5613 172.672 66.5586 174.47 66.9989Z" fill="#FEA344"/>
<path d="M184.325 67.0741C182.31 69.715 180.914 72.3879 179.523 75.3466C177.971 75.1677 174.93 74.5756 174.841 73.7553C180.124 66.2101 182.085 67.7196 184.325 67.0741Z" fill="#E29150"/>
<path d="M212.502 59.983L212.519 60.2901C210.401 59.9333 206.642 63.1264 202.735 64.5235C200.234 65.4199 197.324 65.7061 194.8 66.4992L194.403 65.2889C200.404 63.4083 206.31 59.2887 212.502 59.983Z" fill="#E5815E"/>
<path d="M230.576 60.2232C232.588 60.8553 227.417 64.2085 226.23 64.7742C225.135 65.2963 224.323 65.8634 223.007 65.8752C220.821 65.8961 217.282 63.3456 216.52 61.3027C216.733 61.3845 217.5 61.4964 217.844 61.538C220.834 62.8261 221.801 63.7796 225.64 62.9583C225.962 62.8912 230.376 60.4102 230.581 60.2229L230.576 60.2232Z" fill="#883D25"/>
<path d="M176.124 67.2162C176.298 67.1682 179.474 67.0159 179.744 67.3255C178.218 68.0364 174.428 72.3588 173.204 73.8452C171.98 73.5016 170.757 73.1581 169.533 72.8145C170.851 70.916 173.784 67.8507 176.124 67.2162Z" fill="#E29150"/>
<path d="M194.403 65.2889L194.8 66.4992C192.401 67.2579 191.052 68.1736 189.661 68.6295C187.772 69.2502 185.776 69.5247 183.818 69.8743C187.999 64.5457 187.167 67.5562 194.403 65.2889Z" fill="#CD6546"/>
<path d="M168.209 72.5792C167.495 73.515 166.669 75.0344 166.104 76.0831L161.354 73.2634C162.106 72.3971 162.863 71.0354 163.806 70.0485C164.081 71.2436 166.939 71.9173 168.215 72.5789L168.209 72.5792Z" fill="#B55A2B"/>
<path d="M178.658 77.5503C178.363 78.1991 178.443 79.9658 177.321 80.088C170.433 76.9566 172.678 77.51 173.629 75.67L178.658 77.5503Z" fill="#874F3C"/>
<path d="M173.204 73.8452C170.895 76.6507 172.67 78.176 168.006 74.9006C168.387 74.1205 169.043 73.5235 169.533 72.8145C170.757 73.1581 171.98 73.5016 173.204 73.8452Z" fill="#B55A2B"/>
<path d="M179.523 75.3466C179.188 76.0581 178.993 76.8224 178.658 77.5503L173.629 75.67C174.053 74.8492 174.319 74.4935 174.835 73.7556C174.93 74.5755 177.965 75.1681 179.518 75.3469L179.523 75.3466Z" fill="#9D4C2F"/>
<path d="M150.512 61.229C153.865 64.9945 158.01 68.1389 162.823 70.1025C162.148 70.8656 160.784 72.5081 160.371 73.3174C155.948 70.1222 152.484 66.2419 148.926 62.2402C149.324 61.8553 149.755 61.5841 150.183 61.2471C150.251 61.1939 150.438 61.2826 150.512 61.229Z" fill="#CD6546"/>
<path d="M208.202 155.099C207.782 155.568 207.412 156.259 206.979 156.706C191.01 173.111 163.755 180.856 141.377 172.936C132.364 169.746 135.768 170.021 135.058 162.502C139.7 162.368 143.148 167.163 149.672 168.477C154.953 169.54 162.614 169.197 158.953 167.043C160.724 167.474 162.757 167.786 164.585 167.966C179.032 169.396 194.787 164.834 203.509 153.201C203.578 153.147 203.77 153.236 203.838 153.182C205.272 154.803 205.625 156.126 208.213 155.099L208.202 155.099Z" fill="#DA5126"/>
<path d="M142.339 151.629C149.441 159.952 160.554 164.585 171.942 164.482C171.873 164.541 172.199 165.552 171.208 166.063C169.654 166.863 166.682 165.92 164.58 167.967C162.752 167.786 160.718 167.474 158.948 167.044C144.352 163.51 137.34 154.302 134.202 140.987C141.543 143.34 137.814 144.864 137.72 145.26C137.599 145.773 141.656 150.831 142.339 151.629Z" fill="#FA8235"/>
<path d="M142.339 151.629C141.656 150.831 137.599 145.773 137.72 145.26C137.814 144.864 141.543 143.34 134.202 140.987C133.506 138.038 133.951 135.016 132.177 134.013C132.282 129.293 133.299 124.738 133.709 120.067C135.629 120.71 133.13 128.383 133.671 131.313C133.992 133.05 135.971 134.063 136.885 136.065C138.118 138.753 138.309 142.235 139.34 144.863C140.866 148.767 143.932 150.332 142.339 151.629Z" fill="#EAB48C"/>
<path d="M219.488 139.386C217.018 142.464 213.988 148.692 208.202 155.099C205.62 156.127 205.261 154.804 203.827 153.183C207.669 150.205 215.326 140.935 217.7 136.712L219.488 139.386Z" fill="#D37243"/>
<path d="M224.384 108.924C224.572 114.662 224.04 120.429 222.367 125.977C221.602 128.516 219.035 134.334 217.7 136.706C215.325 140.929 207.669 150.2 203.827 153.178C203.758 153.231 203.566 153.142 203.498 153.196C194.84 159.777 183.043 164.379 171.936 164.477C172.388 164.078 174.38 164.343 178.564 162.573C178.796 162.478 178.009 161.685 180.821 161.833C180.557 160.643 182.357 161.419 183.078 161.093C184.158 160.605 183.757 159.912 183.994 159.811C187.072 158.481 187.705 159.073 187.887 158.981C188.22 158.82 187.834 158.208 188.166 158.042C198.528 152.797 204.384 148.169 210.915 138.773C212.483 136.52 220.988 120.943 221.658 119.085C222.886 115.657 222.369 111.972 224.384 108.924Z" fill="#EAB48C"/>
<path d="M168.821 65.7688C167.094 67.1232 165.312 68.4752 163.8 70.0488C162.857 71.0357 162.1 72.3974 161.349 73.2637C160.318 74.4534 159.029 75.9653 160.366 73.3177C160.778 72.5084 162.137 70.8662 162.817 70.1028C164.016 68.7499 165.718 67.2428 167.196 66.166C167.498 65.9459 168.036 65.9054 168.146 65.4979C168.174 65.5183 168.431 65.5867 168.816 65.7691L168.821 65.7688Z" fill="#6B1D0E"/>
<path d="M212.519 60.2901C218.909 61.3696 213.002 73.7952 203.161 75.2814C198.757 75.9466 189.86 73.6571 189.661 68.6295C191.046 68.1739 192.396 67.2582 194.8 66.4992C197.324 65.7061 200.234 65.4199 202.735 64.5235C206.637 63.1268 210.401 59.9333 212.519 60.2901Z" fill="#FCAB6E"/>
<path d="M164.349 56.1571C163.671 57.1515 163.443 57.406 163.501 58.668C163.608 61.0273 164.941 61.9113 166.391 63.4379C166.712 63.7778 168.026 65.4274 168.146 65.4979C168.036 65.9054 167.498 65.9459 167.196 66.166C163.527 64.2552 160.843 60.9261 159.16 57.3661C161.056 56.8879 162.261 56.4588 164.349 56.1571Z" fill="#FCAB6E"/>
<path d="M159.165 57.3658C160.848 60.9258 163.532 64.2549 167.201 66.1657C165.718 67.2428 164.016 68.7553 162.823 70.1025C158.015 68.1386 153.87 64.9887 150.512 61.229C154.128 58.5498 154.687 58.4971 159.165 57.3658Z" fill="#FAC287"/>
<path d="M164.58 167.967C166.682 165.92 169.654 166.863 171.208 166.063C172.199 165.552 171.873 164.541 171.942 164.482C183.044 164.384 194.845 159.776 203.503 153.201C194.782 164.84 179.027 169.396 164.58 167.967Z" fill="#E29150"/>
<path d="M235.323 39.0163L235.34 39.3234C234.34 39.9778 233.253 40.5381 232.505 41.4812C233.748 46.4516 235.79 43.0996 243.693 41.9453L243.727 42.5595C242.385 42.7982 234.925 44.7038 234.702 45.6731C234.658 45.868 236.148 48.9271 236.22 49.4402C236.237 49.5438 236.226 49.6434 236.237 49.7473C234.85 50.0765 235.575 50.9333 235.048 51.9688C234.58 52.8801 234.307 54.0227 233.892 54.8046C233.223 56.057 231.757 58.6622 230.871 59.5909C230.845 59.6143 231.053 59.7899 230.576 60.2232C230.371 60.4105 225.956 62.8915 225.635 62.9586C221.801 63.7796 220.829 62.8264 217.838 61.5383C217.652 61.4551 216.062 59.9966 214.282 59.5773C207.026 57.8743 200.57 63.1187 193.892 65.0089C192.308 65.4589 189.928 65.4575 184.32 67.0744C186.76 65.6589 180.351 67.0392 179.739 67.3259C179.468 67.0162 176.298 67.1682 176.118 67.2165L176.101 66.9094C176.205 66.8817 176.328 66.919 176.431 66.8913C178.385 66.3605 180.499 66.3325 182.249 65.1858C178.262 64.0185 176.324 60.8245 175.929 60.7582C175.251 60.6469 174.276 61.751 174.178 61.7784C173.614 61.9359 171.115 62.491 170.921 62.2652C171.495 61.7826 172.2 61.3699 172.82 60.9288C173.266 60.6128 175.215 59.9997 175.364 59.403C175.391 59.286 174.567 57.318 174.584 57.1355C174.764 54.8869 175.152 53.518 176.247 51.4997C177.268 49.6119 182.161 44.6019 184.01 43.3727C184.473 43.0668 187.128 41.5459 187.234 42.2717C184.344 43.9265 180.575 47.1257 178.783 49.8203C176.951 52.5722 176.017 54.6257 176.931 57.9309C178.519 63.6744 185.557 64.0306 190.676 63.0291C198.275 61.545 204.236 56.5367 207.623 54.7062C208.581 54.1915 209.561 53.3677 209.682 53.361C211.956 53.2362 223.386 63.6486 227.569 59.1561C229.09 59.0506 227.129 58.3606 226.161 57.3851C230.844 58.2833 229.169 57.6876 232.532 53.8011L229.233 53.5202C229.541 53.3272 229.645 53.2995 229.869 53.1772C230.875 52.6324 235.983 52.6436 231.958 49.3661C232.083 49.2383 232.249 49.0586 232.27 49.0409C232.502 48.8412 235.438 49.7362 232.937 46.232L232.152 46.8912C232.123 46.7608 231.91 46.1894 231.755 45.6808C232.923 45.2702 231.766 44.4701 231.325 43.8563C231.128 43.581 230.41 43.1474 230.291 42.9889C230.196 42.8621 229.927 41.7822 228.502 40.3147C229.264 39.0298 229.238 40.5659 230.486 40.5139C230.526 40.5392 230.547 40.9286 231.173 41.0923C231.508 41.1784 234.61 39.3635 235.329 39.016L235.323 39.0163Z" fill="#1B161E"/>
<path d="M230.866 59.5912C231.752 58.6625 233.217 56.0573 233.887 54.8049C236.532 54.2087 232.38 61.7744 230.866 59.5912Z" fill="#7C4840"/>
<path d="M211.98 50.4626C217.215 53.0851 221.94 57.0668 227.564 59.1564C223.381 63.6489 211.95 53.2365 209.676 53.3613C209.55 53.3683 208.576 54.1918 207.618 54.7065L205.914 53.5679C206.73 52.9895 210.157 50.7827 210.326 50.2453C210.681 50.3854 211.906 50.4281 211.98 50.4626Z" fill="#CD6546"/>
<path d="M226.15 57.3858L225.82 57.4038C226.558 56.5933 228.923 53.7076 229.222 53.5208L232.521 53.8017C229.158 57.6882 230.833 58.2839 226.15 57.3858Z" fill="#B49386"/>
<path d="M229.858 53.1778C229.848 52.3917 231.508 49.8034 231.947 49.3667C235.972 52.6442 230.864 52.633 229.858 53.1778Z" fill="#938079"/>
<path d="M232.259 49.0415C232.15 48.3545 232.283 47.5606 232.141 46.8918L232.926 46.2326C235.427 49.7368 232.491 48.8418 232.259 49.0415Z" fill="#A77152"/>
<path d="M231.744 45.6814C231.582 45.1403 230.855 44.5311 231.314 43.8569C231.75 44.471 232.907 45.2766 231.744 45.6814Z" fill="#6B524E"/>
<path d="M185.204 53.1643L184.698 52.8841C181.985 61.7789 182.858 63.6287 186.891 53.9958C191.786 47.2199 185.02 58.3615 185.929 60.3633C189.546 62.2166 186.511 52.2895 197.135 49.1211C186.762 55.5651 186.195 66.2014 191.828 57.1133L192.144 59.8682C191.803 60.1675 189.931 58.9886 190.676 63.0291C185.563 64.0249 178.524 63.6741 176.931 57.9309C178.106 56.8597 178.788 59.3471 180.619 59.2686C181.086 59.2485 184.454 51.9568 184.463 51.5108C184.467 51.1806 182.714 49.2635 184.109 45.0615C185.368 43.8207 183.94 45.5108 184.328 49.0539C184.35 49.2617 185.396 51.2451 185.209 53.164L185.204 53.1643Z" fill="#7C7068"/>
<path d="M198.518 56.4381C198.853 57.2282 197.637 57.8561 199.074 57.6397C201.392 56.3023 203.723 55.1127 205.908 53.5682L207.612 54.7068C204.225 56.5373 198.264 61.5456 190.665 63.0297C189.92 58.9892 191.792 60.1681 192.133 59.8688C194.146 58.0971 193.521 56.1457 194.922 53.8631C194.634 55.5731 194.344 57.2832 194.052 58.9934C199.452 58.598 196.815 57.1366 196.794 55.1465C196.739 49.7314 197.621 54.3585 198.507 56.4387L198.518 56.4381Z" fill="#9E756A"/>
<path d="M180.613 59.2689C178.783 59.3474 178.101 56.86 176.925 57.9312C176.011 54.6205 176.945 52.5725 178.778 49.8206C180.953 49.7948 185.484 53.0609 181.317 51.2214C179.97 51.2624 180.892 55.8158 180.608 59.2693L180.613 59.2689Z" fill="#938079"/>
<path d="M210.242 48.7098C210.229 49.2771 210.406 49.9989 210.326 50.2453C210.157 50.7827 206.725 52.9898 205.914 53.5679C203.729 55.1124 201.392 56.3023 199.079 57.6394C197.637 57.8561 198.859 57.2279 198.523 56.4378C201.12 56.1797 199.822 52.1035 200.089 52.0393C202.202 58.4141 212.93 47.1871 200.068 48.6521C204.662 46.4143 207.104 49.465 207.502 49.4762C208.114 49.4867 209.51 47.3198 210.253 48.7092L210.242 48.7098Z" fill="#E1C8A7"/>
<path d="M200.057 48.6527C212.919 47.1877 202.191 58.4147 200.078 52.0399C199.811 52.1041 201.115 56.18 198.512 56.4384C197.627 54.3582 196.745 49.7311 196.799 55.1462C196.821 57.1363 199.457 58.5977 194.058 58.9931C194.346 57.2831 194.636 55.573 194.927 53.8628C193.527 56.1509 194.152 58.0968 192.139 59.8685L191.822 57.1136C186.189 66.2017 186.757 55.5654 197.13 49.1214C199.136 48.5218 198.437 48.8352 200.057 48.6527Z" fill="#F9F1DA"/>
<path d="M185.204 53.1643L186.891 53.9958C182.858 63.6287 181.985 61.7789 184.698 52.8841L185.204 53.1643Z" fill="#E8E2D7"/>
<path d="M210.242 48.7098C209.499 47.3204 208.103 49.4873 207.491 49.4768C207.093 49.4656 204.651 46.4149 200.057 48.6527C198.437 48.8352 199.13 48.5221 197.13 49.1214C186.511 52.295 189.546 62.222 185.924 60.3636C185.015 58.3618 191.781 47.2202 186.885 53.9961L185.198 53.1647C185.385 51.2457 184.339 49.2623 184.317 49.0545C183.93 45.5114 185.357 43.8213 184.098 45.0621C182.703 49.2641 184.456 51.1812 184.452 51.5114C184.443 51.9629 181.075 59.2491 180.608 59.2693C180.892 55.8158 179.97 51.2624 181.317 51.2214C185.484 53.0609 180.953 49.7948 178.778 49.8206C180.569 47.126 184.344 43.9265 187.228 42.272C190.444 40.4288 194.111 39.485 197.501 38.0118C198.846 46.2494 210.468 38.7743 210.236 48.7101L210.242 48.7098Z" fill="#FDFDFD"/>
<path d="M187.136 43.5092C189.395 53.0443 189.44 48.5423 193.612 44.848L190.127 50.1218C187.405 49.4021 185.857 45.9007 187.136 43.5092Z" fill="#696866"/>
<path d="M228.497 40.315C229.922 41.7825 230.19 42.8624 230.285 42.9892C229.59 46.6853 227.969 49.9811 226.585 53.3575L221.682 53.7805C226.57 47.1646 220.017 53.9544 217.274 51.2502C223.201 47.3274 209.153 52.763 217.602 48.3058L223.002 48.0095C225.787 47.7576 216.119 50.5875 224.664 48.3803L224.58 46.8447C220.252 45.1791 223.128 45.8958 226.896 47.1797C226.008 49.1701 229.6 46.7617 227.33 43.1514C225.628 40.4395 221.627 40.9231 225.736 38.0023C226.711 38.7904 227.604 39.4015 228.491 40.3153L228.497 40.315Z" fill="#E8E2D7"/>
<path d="M223.007 48.0092L217.608 48.3055C209.159 52.7627 223.201 47.3274 217.279 51.2499C220.022 53.9541 226.575 47.1643 221.688 53.7802L226.59 53.3571C226.084 54.584 224.264 57.5498 225.826 57.4035L226.156 57.3854C227.129 58.3606 229.09 59.0506 227.564 59.1564C221.94 57.0668 217.22 53.0793 211.98 50.4626C212.097 49.191 212.532 48.9692 212.549 48.8912C216.219 48.6898 218.712 46.5452 223.007 48.0092Z" fill="#C2AA99"/>
<path d="M231.319 43.8566C230.855 44.5311 231.588 45.1399 231.75 45.6811C231.899 46.19 232.118 46.7611 232.147 46.8915C232.288 47.5603 232.155 48.3542 232.265 49.0412C232.249 49.0586 232.077 49.2386 231.952 49.3664C231.513 49.8031 229.854 52.3914 229.864 53.1775C229.639 53.2998 229.536 53.3275 229.227 53.5205C228.934 53.707 226.569 56.5926 225.826 57.4035C224.264 57.5498 226.084 54.584 226.59 53.3571C227.975 49.9808 229.59 46.6798 230.291 42.9889C230.41 43.1474 231.128 43.581 231.325 43.8563L231.319 43.8566Z" fill="#BDB4A0"/>
<path d="M225.741 37.9965C221.632 40.9173 225.633 40.4337 227.335 43.1456C227.834 44.7079 227.981 45.767 226.901 47.1739C223.133 45.89 220.257 45.1733 224.585 46.8389L224.669 48.3745C216.124 50.5817 225.792 47.7518 223.007 48.0037C218.712 46.5397 216.218 48.6788 212.549 48.8857C213.124 46.5109 212.879 44.3516 215.321 42.5729C216.454 41.7461 220.54 42.798 220.106 33.9933C221.977 35.3593 223.942 36.5386 225.741 37.9965Z" fill="#E8E2D7"/>
<path d="M226.907 47.1791C227.986 45.7667 227.84 44.7131 227.341 43.1508C229.611 46.7611 226.019 49.1695 226.907 47.1791Z" fill="#AC9D92"/>
<path d="M213.205 18.9704C215.523 18.9531 218.723 20.4332 220.267 21.9711C225.209 26.8979 224.676 35.3432 224.978 36.0362C225.117 36.3531 230.177 40.3163 230.48 40.5087C229.232 40.5607 229.258 39.0246 228.496 40.3096C227.609 39.3957 226.721 38.7843 225.741 37.9965C223.937 36.5389 221.977 35.3538 220.106 33.9933C220.545 42.7977 216.46 41.7458 215.321 42.5729C212.873 44.3519 213.124 46.5109 212.549 48.8857C212.532 48.9692 212.097 49.1855 211.98 50.4571C211.906 50.4227 210.681 50.3799 210.326 50.2398C210.406 49.9934 210.229 49.2716 210.242 48.7043C210.473 38.7685 198.851 46.2436 197.506 38.006C196.385 31.1367 209.511 30.3669 214.149 30.1618C213.491 27.5081 212.347 25.0241 211.429 22.4562C209.646 17.477 213.857 25.9423 216.796 24.4719C213.45 19.826 206.744 19.0169 213.21 18.9701L213.205 18.9704Z" fill="#342525"/>
<path d="M213.205 18.9704C206.739 19.0172 213.444 19.8263 216.79 24.4722C213.857 25.9423 209.646 17.477 211.423 22.4565C211.401 28.0629 207.041 18.6045 207.235 17.9118C207.8 15.8676 216.471 17.6579 213.205 18.9704Z" fill="#A9AAA8"/>
<path d="M214.053 25.3925L217.652 28.1213C218.358 29.8592 214.796 27.0844 214.053 25.3925Z" fill="#828380"/>
<path d="M213.862 30.9476C213.578 32.894 206.862 30.1987 202.539 34.0334C199.481 36.7425 201.6 38.9199 205.048 37.9001L203.007 39.5523C193.585 36.6315 203.398 29.7232 213.862 30.9476Z" fill="#AE6357"/>
<path d="M214.538 31.2186L214.622 32.7541C207.219 30.3716 212.511 40.9724 207.91 33.1225C205.781 32.9863 204.63 33.5886 202.902 34.6295C202.9 34.5966 202.458 34.7694 202.539 34.0334C206.862 30.1987 213.578 32.894 213.862 30.9476C214.156 30.981 214.226 31.1587 214.532 31.2189L214.538 31.2186Z" fill="#E69C8C"/>
<path d="M216.819 36.946C217.071 35.315 217.314 35.2137 216.321 33.893C215.804 33.2008 215.447 33.0224 214.617 32.7544L214.532 31.2189C218.435 31.9563 221.26 34.2325 216.819 36.946Z" fill="#CF816D"/>
<path d="M202.902 34.6295C202.889 34.9987 202.248 35.3695 202.29 35.4332C202.471 35.7148 205.314 34.4201 205.054 37.8998C201.606 38.9196 199.486 36.7422 202.544 34.0331C202.463 34.7691 202.906 34.5963 202.907 34.6292L202.902 34.6295Z" fill="#F6CBB6"/>
<path d="M212.356 39.3527C211.458 39.0554 210.146 39.1385 210.116 40.3997C209.214 41.0268 210.703 42.7603 211.838 41.8454C212.818 41.8411 212.815 40.5762 212.72 39.9488C213.858 47.1471 206.422 43.6553 210.526 38.8371L212.362 39.3524L212.356 39.3527Z" fill="#3F1710"/>
<path d="M216.819 36.946C214.191 38.5534 214.928 35.2126 216.321 33.893C217.308 35.214 217.071 35.315 216.819 36.946Z" fill="#F6CBB6"/>
<path d="M212.356 39.3527L212.72 39.9488C212.815 40.5762 212.823 41.8408 211.838 41.8454C211.843 40.2445 211.738 39.7222 210.116 40.3997C210.146 39.1385 211.458 39.0554 212.356 39.3527Z" fill="#AB5242"/>
<path d="M210.116 40.3997C209.214 41.0268 210.703 42.7603 211.838 41.8454C211.843 40.2445 211.738 39.7222 210.116 40.3997Z" fill="#E69C8C"/>
</svg>
