<svg width="69" height="52" viewBox="0 0 69 52" fill="none" xmlns="http://www.w3.org/2000/svg">
<path d="M34.2655 0.162598C23.6963 0.162598 13.7712 0.963105 8.48663 2.08256C4.96565 2.88307 1.91997 5.2846 1.28206 8.96818C0.644159 12.8081 0 18.5743 0 25.7788C0 32.9834 0.637905 38.587 1.43841 42.5895C2.08257 46.1105 5.122 48.6746 8.64298 49.4751C14.2528 50.5946 23.8526 51.3951 34.4218 51.3951C44.991 51.3951 54.5909 50.5946 60.1944 49.4751C63.7217 48.6746 66.7611 46.2731 67.399 42.5895C68.0431 38.587 68.8437 32.8271 69 25.6225C69 18.4179 68.1995 12.6518 67.399 8.64923C66.7611 5.12825 63.7217 2.56412 60.1944 1.76361C54.5909 0.963105 44.8284 0.162598 34.2655 0.162598ZM34.2655 3.36463C45.7915 3.36463 55.0724 4.32148 59.5565 5.12199C61.958 5.76615 63.878 7.36717 64.197 9.44974C65.1601 14.5717 65.798 20.0189 65.798 25.6225C65.6416 32.5019 64.8411 38.1054 64.197 42.1079C63.7217 45.1474 60.5196 46.1105 59.5565 46.4357C53.7904 47.5551 44.1843 48.3494 34.5782 48.3494C24.9721 48.3494 15.2096 47.7115 9.60609 46.4357C7.20457 45.7915 5.2846 44.1905 4.96565 42.1079C3.68358 37.6238 3.20203 31.7013 3.20203 25.7788C3.20203 18.4117 3.84619 12.9707 4.48409 9.61234C4.96565 6.56666 8.32403 5.60355 9.12454 5.2846C14.4091 4.16513 24.1778 3.36463 34.2655 3.36463ZM25.6162 12.9707V38.587L48.0305 25.7788L25.6162 12.9707ZM28.8183 18.4179L41.6264 25.7788L28.8183 33.1398V18.4179Z" fill="white"/>
</svg>
